<svg xmlns="http://www.w3.org/2000/svg" viewBox="0 0 2121 1887.494"><path fill="#38312d" d="M907.062 297.778a347.686 347.686 0 0 1 74.261.347 331.252 331.252 0 0 1 50.468 11.397c12.674 3.426 24.556 9.198 35.883 15.723 6.159 3.535 11.03 8.912 17.348 12.189 8.95 5.297 17.714 11.01 25.536 17.902a165.063 165.063 0 0 1 32.823 34.437c5.288 7.536 9.18 15.952 14.536 23.428a128.221 128.221 0 0 1 19.862 33.397 194.633 194.633 0 0 1 12.615 34.359c5.02 18.1 9 36.606 9.97 55.409.07 11.238.535 22.536-.821 33.724-1.238 11.04-1.297 22.16-2.614 33.19-1.287 12.338-2.396 24.705-4.515 36.933-3.852 22.239-11.03 43.686-16.863 65.44-1.109 2.98-1.376 6.465-3.604 8.881-1.346 5.09-.9 11.644-5.733 14.971-1.079 2.901-2.099 6.05-4.654 8.02-3.604 3.476-9.98 2.842-13.06-1.02-6.723-6.376-8.822-15.703-11.11-24.308a154.336 154.336 0 0 0-4.128-15.803 629.368 629.368 0 0 1-6.12-87.698c-.138-6.594 1.308-13.466-1.168-19.783-8.525-26.457-16.901-52.963-25.922-79.252-.822-2.277-1.624-4.723-3.594-6.258a242.905 242.905 0 0 0-41.606-28.704c-11.516-6.367-23.427-12.229-36.052-16.07-5.564-.674-11.208.02-16.803-.119-17.466.267-34.962-.228-52.389 1.08-9.535.93-19.11 1.494-28.625 2.593-2.921.179-5.416 1.753-7.941 3.07-1.753.99-5.228 1.07-4.95-1.743-16.318.743-32.042 5.763-47.578 10.417-24.496 7.376-47.666 18.347-70.598 29.546-4.376 2.485-9.327 4.228-13.06 7.693-11.149 13.486-21.16 28.071-28.22 44.141-13.426 29.497-17.851 61.875-25.882 93.025-1.168 4.288.129 8.605.545 12.892.01 15.783.119 31.586.792 47.36.426 3.158-.94 6.049-1.723 9.03-.198 7.91.723 15.802.762 23.704.218 3.06-2.118 5.277-3.218 7.91-1.663 4.06-5.02 7.03-7.158 10.813-2.763 3.941-9.367 2.911-11.367-1.287-3.773-7.149-4.357-15.436-5.228-23.328q-1.248-18.937-3.614-37.764c-.674-8.842-4.377-17.001-6.624-25.487-3.179-12.545-6.912-24.971-8.902-37.784a436.269 436.269 0 0 1-7.585-87.163c.14-9.942-.277-19.912.624-29.834a427.364 427.364 0 0 1 3.555-47.458c3.218-22.664 12.644-43.972 24.288-63.498 8.585-14.595 17.833-29.27 31.042-40.15 15.04-12.378 30.239-25.418 48.775-32.22 6.149-2.16 11.545-5.922 17.605-8.288 14.911-5.793 29.883-11.605 45.448-15.417 21.852-5.297 43.867-10.385 66.29-12.585Z"/><path fill="#dfaf33" d="M1804.438 1699.428a38.78 38.78 0 0 0-11.259-18.068v-6.437c-2.356-10.842-5.812-21.387-8.723-32.08-1.852-6.694-4.406-13.15-6.832-19.636-8.406-23.416-17.328-46.656-27.328-69.429-7.921-16.555-17.07-32.477-25.952-48.518-6.1-10.228-11.199-20.99-17.308-31.21-4.713-7.861-8.875-16.039-13.694-23.822-5.259-8.496-9.555-17.506-14.664-26.071-5.09-8.159-9.654-16.644-15.179-24.516-15.238-20.962-32.328-40.933-53.122-56.607-7.822-5.634-16.307-10.258-24.684-14.981-10.248-6.04-20.447-12.17-31.13-17.387-7.971-4.11-16.338-7.347-24.527-10.971-7.921-3.357-15.773-6.892-23.902-9.734-23.318-8.93-45.844-19.763-68.836-29.476-8.01-3.248-15.584-7.446-23.506-10.892-16.397-6.901-32.635-14.209-49.478-19.991q-17.63-6.387-35.556-11.832c-20.113-6.065-39.973-12.971-60.033-19.22-27.922-9.743-56.469-19.12-81.282-35.635-7.416-4.95-15.773-8.327-22.99-13.585-6.437-5.277-8.516-15.714-17.349-17.902.12 1.604.268 3.218.436 4.852-1.683-1.01-3.268-3.179-5.446-2.258-.742 2.763 2.931 3.812 3.317 6.179-10.139 13.12-24.229 22.417-38.26 30.913-11.723 6.267-22.97 13.515-35.417 18.317-27.457 11.05-55.32 21.705-84.381 27.596-24.422 4.95-49.567 5.753-74.43 4.574-26.546-.663-52.946-4.536-78.776-10.456a459.42 459.42 0 0 1-54.776-16.317c-9.931-3.98-19.753-8.298-29.883-11.793-8.05-2.743-15.842-6.14-23.743-9.248-1.852-1.169-3.436.327-4.733 1.475.247.218.762.644 1.01.852-2.723 1.554-4.228 4.356-6.13 6.733a76.568 76.568 0 0 1 5.218-7.803c-.108-.742-.336-2.227-.445-2.96l.614 2.673c.733-.782 2.198-2.337 2.93-3.119.387-2.386.773-4.762 1.11-7.139-.891.02-2.673.07-3.564.09-8.536 6.01-13.117 15.741-18.952 24.1-8.897 12.742-16.506 26.655-28.08 37.279-7.942 7.248-16.081 14.308-23.784 21.823-12.05 10.357-23.532 21.336-35.933 31.299-14.897 11.968-29.824 23.942-46.032 34.11-19.22 12.298-37.527 25.952-56.538 38.567-15.298 9.773-30.22 20.14-45.735 29.566-16.655 10.179-32.616 21.417-48.706 32.437-15.624 10.595-30.22 22.576-45.072 34.2a683.536 683.536 0 0 0-76.856 71.638 201.798 201.798 0 0 0-17.723 21.763c-9.2 13.346-18.586 26.596-26.477 40.775-10.189 19.496-19.585 39.576-25.328 60.884a390.876 390.876 0 0 0-11.238 56.398Z"/><path fill="#f2844f" d="M1055.535 419.419c10.4-2.28 20.981 1.01 30.16 5.752 4.1 4.743 9.159 8.536 13.327 13.219 5.704 6.555 12.05 12.664 16.407 20.278 6.238 10.981 12.565 21.922 18.288 33.19a248.556 248.556 0 0 1 13.229 37.369c4.911 18.793 7.743 38.061 12.347 56.924 2.703 9.248 3.634 18.892 4.12 28.476a134.52 134.52 0 0 1 .306 26.636c-.079 14.268-2.446 28.387-2.812 42.645-.327 12.348-3.97 24.873-.95 37.141a15.507 15.507 0 0 0 10.594-2.346 49.15 49.15 0 0 0-2.723 13.357c-1.89 19.179-4.218 38.319-6.06 57.508-2.88 12.832-3.525 26.001-4.792 39.052-.743 11.297-3.733 22.248-5.604 33.377-4.911 20.992-8.704 42.3-15.367 62.846-3.644 11.495-7.248 23.03-11.377 34.368-1.416-6.179-2.149-12.545-4.238-18.546a3.814 3.814 0 0 0-2.466-2.485c-.386 5.703 1.02 11.317 1.13 17.01.148 6.318-.486 12.615-.803 18.913-3.119-13.635-.703-28.596-7.515-41.26a56 56 0 0 0-.119 13.625c-2.495-7.902-5.268-15.892-10.278-22.596a97.033 97.033 0 0 0 2.288 12.209c-3.476-5.595-3.97-13.01-9.516-17.19-.168 1.466-.307 2.932-.436 4.417-5.94-5.743-11.93-11.486-18.723-16.219-23.546-16.189-50.419-27.982-78.797-32.17-9.792-1.386-19.644-2.416-29.407-3.96-.218-.357-1.891-3.14-2.238-3.704-4.357 1.01-8.525 2.783-12.97 3.357-4.645.614-9.338.723-13.992 1.228a224.034 224.034 0 0 0-49.21 7.317c-14.595 4-29.873 6.584-43.181 14.189-10.714 5.634-20.011 13.486-29.09 21.397-5.278 4.644-9.774 10.06-14.675 15.08-2.92 3.01-6.416 5.624-8.287 9.486-1.802 3.604-3.13 7.426-4.704 11.139-1.099-2.624-2.198-5.228-3.356-7.812-1.733 6.247-1.753 12.743-2.12 19.169-1.94-4.99-3.653-10.05-5.564-15.04-.297 7.426-1.703 14.852-.95 22.298.267 2.96.435 5.94.445 8.921-2.891-9.585-3.07-19.813-6.792-29.16-1.842 8.11-.832 16.427-.95 24.655-2.288-9.04-2.823-18.486-5.892-27.318-1.654 5.683-1.614 11.624-1.842 17.486-2.515-8.179-2.06-16.942-4.97-25.022-.703 4.862-.99 9.773-1.367 14.675-1.574-6.367-2.406-12.873-3.475-19.328-.773 3.04-1.486 6.09-2.169 9.149a349.579 349.579 0 0 1-18.635-40.487 377.656 377.656 0 0 1-23.545-80.639c-.664-3.346-1.733-6.584-2.575-9.872-1.465-17.624-1.158-35.308-2.05-52.953-.376-8.347.585-16.773-.722-25.06a20.558 20.558 0 0 0 8.614-4.506c-1.723-29.724-1.525-59.528-.792-89.282 1.366-20.863 3.09-41.705 5.624-62.449 1.307-11.852 6.258-22.833 8.803-34.408 3.99-17.694 7.96-35.646 16.159-51.963 5.248-10.417 10.09-21.12 16.981-30.596 3.04-4.08 5.96-9.208 11.407-10.228 6.663-1.376 12.594-5.357 19.476-5.842a319.495 319.495 0 0 1 67.736 2.01c23.606 1.624 47.27 3.238 70.945 2.456a221.652 221.652 0 0 0 63.38-11.922c21.99-6.377 43.94-13.052 66.33-17.961Z"/><path fill="#fcae88" d="M778.747 491.254a77.71 77.71 0 0 1 34.992-19.14c-.138.486-.406 1.466-.544 1.961a97.922 97.922 0 0 0-27.942 16.773 39.082 39.082 0 0 1-6.466 4.12c-.02-1.238-.04-2.476-.04-3.714Z"/><path fill="#b95c36" d="M963.342 567.367c9.857-1.26 19.555-3.91 29.546-4.03-.06.545-.188 1.624-.248 2.169-14.486 5.08-29.833 6.852-45.022 8.406-11.595 1.07-23.15-.9-34.725-1.178-8.713-.198-17.486-.762-26.13.663-6.574.802-12.872 3.288-19.545 3.377 5.604-4.763 13.01-6.14 20.02-7.446 8.13-1.555 16.437-.97 24.665-1.05 8.268-.109 16.496 1.159 24.764.96a226.087 226.087 0 0 0 26.675-1.87Z"/><path fill="#b85b36" d="M955.153 581.477c12.131-.872 24.07-4.02 36.28-3.96-7.734 2.802-15.774 4.633-23.705 6.782-14.763 2.891-29.912 2.99-44.903 2.703-8.932-.594-17.803-1.97-26.754-2.277-11.13.525-21.932 3.604-32.844 5.604 2.624-2.07 5.446-4.03 8.743-4.842 8.476-2.376 17.249-4.139 26.1-3.851 19.012.851 38.084 1.207 57.083-.159Z"/><path fill="#b75b36" d="M973.253 593.547a66.849 66.849 0 0 1 13.724-1.634c-.05.694-.139 2.06-.179 2.743-11.347 4-23.308 5.852-35.14 7.773-17.12 2.851-34.477.653-51.696.683-8.713.089-17.268 1.852-25.942 2.376 6.832-5.218 15.704-6.406 24.06-6.594 10.23-.05 20.447.03 30.676.05a199.616 199.616 0 0 0 44.497-5.397Z"/><path fill="#b25835" d="M1057.812 615.974c13.123-1.325 26.388-.07 39.25 2.663a51.718 51.718 0 0 1 35.11 27.21c1.773 3 .941 7.812-2.782 8.793-16.159 3.673-32.803 1.534-49.19 1.792a363.523 363.523 0 0 0-68.529 11.337c-3.713 1.04-8.565 1.248-11.09-2.198-2.96-4.456-2.95-10.179-2.218-15.288.743-4.327 1.367-8.892 3.912-12.585a38.683 38.683 0 0 1 19.634-14.11 157.806 157.806 0 0 1 35.903-7.614ZM781.58 638.678c13.198-2.871 26.743-4.594 40.279-3.871 11.218.327 22.278 2.297 33.348 3.97 9.921 1.624 19.12 8.753 22.04 18.556 2.258 7.515 3.843 15.674 1.714 23.417-6.822.644-13.674.109-20.506.139-19.2-1.773-38.468-.04-57.657.792-16.496.802-32.774 3.673-49.21 5-9.852 1.099-19.754.02-29.616-.198-.426-3.604-.307-7.436 1.94-10.476 2.506-3.426 3.674-7.515 5.417-11.327 2.97-3.911 6.802-7.11 10.466-10.367 11.872-9.466 27.021-13.446 41.784-15.635Z"/><path fill="#f95939" d="M1200.414 679.304c8.94-4.971 20.338-6.218 29.784-1.762 5.911 2.95 9.505 8.95 11.961 14.862 5.654 14.219 5.97 29.932 4.476 44.973-3.496 19.347-8.763 38.497-16.893 56.439-12.614 27.08-29.19 53.072-52.359 72.33-6.119 5.367-13.624 8.753-20.16 13.565-.217.743-.673 2.208-.9 2.941a57.607 57.607 0 0 1 .762-14.525c1.94-18.794 4.871-37.557 4.822-56.489a122.632 122.632 0 0 1-.138-22.07c1.841-19.19 4.168-38.33 6.06-57.508a49.15 49.15 0 0 1 2.722-13.357 46.757 46.757 0 0 0 3.386-10.16c.486-4.94 4.199-8.475 6.961-12.277a68.516 68.516 0 0 1 19.516-16.962ZM644.205 683.493c8.374-4.463 18.328-4.763 27.487-3.11 8.169 1.466 15.13 6.308 21.585 11.249 1.416 14.327 3.555 28.625 7.595 42.477 1.307 8.288.347 16.714.723 25.061.89 17.645.584 35.329 2.05 52.953-.11 5.763-.486 11.546.098 17.298.535 5.298 1.585 10.556 1.654 15.892a105.909 105.909 0 0 0 1.06 15.843 22.399 22.399 0 0 1-.694 9.882c-.317-.842-.97-2.515-1.297-3.357-12.426-.871-23.981-7.268-32.962-15.664a111.564 111.564 0 0 1-23.635-30.774c-2.911-5.426-4.634-11.436-8.09-16.565-4.871-7.229-8.01-15.417-11.426-23.378-3.861-8.98-5.515-18.664-8.743-27.863a79.066 79.066 0 0 1 3.436-48.428c4.109-9.456 12.176-16.73 21.16-21.516Z"/><path fill="#fd7858" d="M1237.208 729.01a21.406 21.406 0 0 1 .188-9.476 30.114 30.114 0 0 1-.188 9.476Z"/><path fill="#b95c36" d="M1064.367 739.743c9.189-.198 18.17-2.168 27.279-3.139a11.443 11.443 0 0 1-6.604 4.426c-11.565 2.822-23.794 5.674-35.597 2.555a19.514 19.514 0 0 1-8.337-4.515c7.753.119 15.486 1.337 23.26.673Z"/><path fill="#b95d38" d="M1067.338 749.15c5.113-.931 10.03-2.703 15.169-3.555-2.584 4.139-7.525 5.367-11.872 6.773-5.486 1.624-11.318 3.257-17.05 1.99-1.981-.07-2.823-1.683-3.16-3.406a159.504 159.504 0 0 0 16.913-1.802Z"/><path fill="#bc5e38" d="M783.975 748.655c5.288-.298 9.773 2.9 14.793 3.97 12.417 2.812 25.338 2.05 37.795-.188-.15.505-.446 1.525-.585 2.04-9.258 3.396-19.218 4.089-28.991 3.851-8.486-.297-17.18-3.287-23.012-9.673Z"/><path fill="#b65b36" d="M790.174 764.527c.475-.733 1.436-2.208 1.92-2.95 11.328 1.524 22.893 3.346 34.24.93.07 1.099.139 2.208.218 3.327-8.704 3.327-18.308 3.554-27.467 2.535a16.065 16.065 0 0 1-8.911-3.842Z"/><path fill="#fbb28f" d="M1014.236 784.617c15.505-8.654 33.665-10.654 51.141-10.337a265.355 265.355 0 0 1 45.082 3.317c.04.634.138 1.891.178 2.515-16.704-.901-33.487-2.505-50.181-.535a207.871 207.871 0 0 0-46.002 8.98c-.09-1.326-.15-2.633-.218-3.94Z"/><path fill="#fcb290" d="M920.528 801.47c.99-5.397.316-11.496 3.673-16.17a82.512 82.512 0 0 1-.168 18.427c-1.05 10.892-2.218 21.773-3.209 32.675-.158 3.07-1.703 5.753-3.326 8.268-.357-14.447 1.89-28.814 3.03-43.2Z"/><path fill="#b65a35" d="M1161.769 789.568a122.632 122.632 0 0 0 .138 22.07c.05 18.932-2.881 37.695-4.822 56.489a57.607 57.607 0 0 0-.762 14.525 163.132 163.132 0 0 1-4.506 33.26q-4.054 18.015-8.594 35.902c-2.654 11.704-5.377 23.398-8.654 34.943-1.99 7-5.11 13.604-7.09 20.605a85.298 85.298 0 0 1-3.614 10.228c-5.95 15.892-15.198 30.319-25.734 43.537-9.466 14.328-20.763 27.348-32.714 39.636-7.407 6.802-14.902 13.526-22.764 19.803-4.891 3.713-9.951 7.209-14.753 11.03-7.595 5.951-16.704 9.447-25.566 13.02-21.853 7.932-45.557 9.427-68.568 7.318a147.872 147.872 0 0 1-26.615-4.733c-9.852-2.534-18.823-7.465-28.071-11.555-8.753-4.733-17.873-8.862-26.071-14.525-6.13-4.159-12.605-7.783-18.674-12.03-15.001-10.873-28.358-23.784-41.22-37.062-11.763-13.219-22.863-27.17-31.517-42.646-3.02-5.476-7.159-10.238-10.08-15.763-4.94-8.486-7.159-18.457-13.743-25.972-6.664-13.813-9.743-29.012-14.684-43.478-6.723-23.298-13.605-46.636-17.466-70.608a7.692 7.692 0 0 1 .138-2.524 22.399 22.399 0 0 0 .693-9.882 105.909 105.909 0 0 1-1.06-15.843c-.068-5.336-1.118-10.594-1.653-15.892-.584-5.752-.208-11.535-.099-17.298.842 3.288 1.911 6.526 2.575 9.872a377.656 377.656 0 0 0 23.546 80.639 349.579 349.579 0 0 0 18.634 40.487c.683-3.06 1.396-6.11 2.169-9.15 1.069 6.456 1.9 12.962 3.475 19.329.376-4.902.664-9.813 1.367-14.675 2.91 8.08 2.455 16.843 4.97 25.022.228-5.862.188-11.803 1.842-17.486 3.07 8.832 3.604 18.278 5.891 27.318.119-8.228-.89-16.546.95-24.655 3.724 9.347 3.902 19.575 6.793 29.16-.01-2.98-.178-5.96-.445-8.921-.753-7.446.653-14.872.95-22.299 1.911 4.99 3.624 10.05 5.565 15.041.366-6.426.386-12.922 2.119-19.17 1.158 2.585 2.257 5.189 3.356 7.813 1.575-3.713 2.902-7.535 4.704-11.14 1.871-3.86 5.366-6.475 8.287-9.485 4.901-5.02 9.397-10.436 14.674-15.08 9.08-7.911 18.377-15.763 29.091-21.397 13.308-7.605 28.586-10.189 43.18-14.19a224.034 224.034 0 0 1 49.211-7.316 182.15 182.15 0 0 1-18.268 3.604c-2.654 4.911-6.04 9.476-7.931 14.773-1.941 4.515 1.604 10.377 6.594 10.476 4.644.228 9.02-1.684 13.189-3.515 9.149-4.208 17.318-10.219 25.19-16.447 3.861-3.08 7.436-6.683 9.574-11.198.208.356.634 1.069.852 1.425 9.763 1.545 19.615 2.575 29.407 3.961 28.378 4.188 55.251 15.981 78.797 32.17 6.792 4.733 12.783 10.476 18.723 16.219.13-1.485.268-2.95.436-4.416 5.545 4.178 6.04 11.594 9.516 17.189a97.033 97.033 0 0 1-2.288-12.209c5.01 6.704 7.783 14.694 10.278 22.596a56 56 0 0 1 .119-13.625c6.812 12.664 4.396 27.625 7.515 41.26.317-6.298.95-12.595.802-18.912-.109-5.694-1.515-11.308-1.129-17.011a3.814 3.814 0 0 1 2.466 2.485c2.09 6 2.822 12.367 4.238 18.546 4.129-11.337 7.733-22.873 11.377-34.368 6.663-20.546 10.456-41.854 15.367-62.846 1.871-11.129 4.861-22.08 5.604-33.377 1.267-13.05 1.911-26.22 4.793-39.052Z"/><path fill="#fbb28f" d="M779.56 800.974c15.763-5.792 32.476-8.723 49.18-9.98a55.9 55.9 0 0 1 9.971-.04c10.377.92 20.863 1.713 30.893 4.763.08.821.168 1.663.267 2.505-2.04-.525-4.08-1.07-6.149-1.416-31.992-3.872-64.449 1.96-94.619 12.644 1.04-4.96 6.426-6.604 10.456-8.476Z"/><path fill="#733f2a" d="M950.54 870.612c4.444-.581 8.613-2.347 12.97-3.357.347.565 1.04 1.703 1.386 2.278-2.138 4.515-5.713 8.119-9.574 11.198-7.872 6.228-16.041 12.239-25.19 16.447-4.168 1.831-8.545 3.743-13.189 3.515-4.99-.1-8.535-5.961-6.594-10.476 1.89-5.297 5.277-9.862 7.93-14.773a182.15 182.15 0 0 0 18.27-3.604c4.653-.505 9.345-.621 13.99-1.228Z"/><path fill="#f2844f" d="M874.604 917.753a113.45 113.45 0 0 1 39.31-5.97c16.515.168 33.03 1.376 49.546.643 14.675-.475 29.31.862 43.854 2.723 5.526.891 11.308 1.743 16.1 4.832a98.062 98.062 0 0 1 22.08 20.397c7.397 9.466 8.684 22.13 6.318 33.596-1.287 17.605-10.01 33.319-18.2 48.547-4.544 8.288-10.851 15.397-16.96 22.556a45.258 45.258 0 0 1-26.695 14.426c-9.218 1.753-19.565 1.297-27.398-4.416-6.98-4.416-10.96-12.149-12.792-19.99a5.939 5.939 0 0 0-3.05 4.227 36.478 36.478 0 0 1-9.505 17.328c-6.981 7.168-18.08 10.159-27.646 6.98a157.086 157.086 0 0 1-19.98-7.822c-11.536-5.594-20.952-14.585-29.478-23.981-10.386-11.615-18.179-25.715-21.338-41.032-1.475-6.803-1.257-13.793-1.316-20.704a56.446 56.446 0 0 1 5.287-24.596c7.05-12.466 18.171-23.014 31.863-27.744Z"/><path fill="#fffef3" d="M992.086 942.586a48.055 48.055 0 0 1 10.515.753 36.984 36.984 0 0 0-4.089 3.03 222.049 222.049 0 0 0-6.426-3.783Z"/><path fill="#e56324" d="M737.775 987.648c6.584 7.515 8.802 17.486 13.743 25.972 2.921 5.525 7.06 10.287 10.08 15.763 8.654 15.476 19.754 29.427 31.517 42.646 12.862 13.278 26.219 26.19 41.22 37.061 6.07 4.248 12.545 7.872 18.674 12.03 8.198 5.664 17.318 9.793 26.07 14.526 9.249 4.09 18.22 9.02 28.072 11.555a147.872 147.872 0 0 0 26.615 4.733c23.011 2.11 46.715.614 68.568-7.317 8.862-3.574 17.971-7.07 25.566-13.02 4.802-3.822 9.862-7.318 14.753-11.03 7.862-6.278 15.357-13.002 22.764-19.804 11.95-12.288 23.248-25.308 32.714-39.636 10.536-13.218 19.784-27.645 25.734-43.537-.485 14.03 2.783 27.744 4.902 41.527 1.742 8.872 2.267 17.981 4.782 26.705 2.456 9.594 5.357 19.08 8.298 28.546 1.624 5.495 4.742 10.495 5.535 16.258.287 3.278 2.218 5.96 3.584 8.842 1.109 5.307-1.307 10.446-2.713 15.457-7.278 22.278-15.516 44.27-25.655 65.41-7.882 16.614-15.714 33.545-27.259 48.012-9.753 11.802-21.922 21.219-33.913 30.615-10.168 7.466-20.268 15.318-31.883 20.447a197.582 197.582 0 0 1-46.685 13.535c-12.971 2.169-26.14 2.01-39.24 2.307-13.248.485-26.06-3.545-38.784-6.654a241.42 241.42 0 0 0-32.844-9.535c-10.892-2.267-21.248-6.406-31.794-9.822-15.278-5.258-29.298-13.575-42.26-23.12-8.554-6.565-16.723-13.615-24.882-20.645-3.891-3.743-7.307-7.95-11.189-11.684-14.308-14.852-25.744-32.13-36.606-49.567-2.535-5.1-6.436-9.644-7.683-15.278-.238-4.95-1.535-9.98-.693-14.882 3.822-7.683 6.346-15.921 10.05-23.655 9.574-20.99 18.803-42.497 22.466-65.439 1.476-8.179.802-16.516.555-24.764-.584-16.654-.476-33.586-5.1-49.735-1.802-7.783-4.88-15.17-7.08-22.823Z"/><path fill="#e46224" d="M958.361 999.371c8.22-.414 16.229-2.366 24.358-3.534-1.852 9.881 2.268 19.288 5.515 28.377-11.525 1.288-23.15.139-34.695.911-13.624.278-27.11 2.406-40.695 3.208 2.802-9.505 2.753-19.516 1.505-29.269 14.624 1.664 29.36 1.046 44.012.307Z"/><path fill="#38312d" d="M1049.05 643.995c12.363-1.427 24.823-.762 37.23-.851 11.99 1 24.258 1.673 35.665 5.842 5.228 1.495 10.446 3.663 14.535 7.337 4.575 4.713 7.08 11.08 8.208 17.466a113.869 113.869 0 0 1 13.873.555c7.02.792 14.248.861 20.941 3.366 4.921 1.852 10.238 2.634 14.941 5.05a12.628 12.628 0 0 1 .377 3.248c-2.674 1.841-5.585 3.544-7.377 6.337-4.307 1.623-8.723-.525-13.13-.327-9.317-1.05-18.703-.93-28.04-1.654a287.905 287.905 0 0 1-2.347 44.963c-1.04 10.516-4.515 20.556-7.189 30.725-1.534 5.93-4.515 11.307-7 16.862-3.09 7.258-8.892 12.832-14.228 18.466a56.975 56.975 0 0 1-26.022 15.486c-7.862 2.297-15.872 4.634-24.14 4.535-16.644-.208-33.774-.683-49.468-6.881-5.901-2.466-12.1-4.466-17.347-8.219a68.05 68.05 0 0 1-24.596-32.932c-5.06-13.07-6.228-27.16-7.663-40.963-.248-13.466-1.911-26.922-.713-40.388a17.471 17.471 0 0 1-8.15.426 116.57 116.57 0 0 0-40.526.277c-2.892.327-5.753 1.356-8.684 1.109-1.564-.248-3.139-.565-4.683-.832a19.51 19.51 0 0 0-.97 7.704c.643 12.03-.407 24.12.712 36.13 1.416 14.526-.94 29.022-1.742 43.517-1.713 9.07-5.446 17.665-9.862 25.735-1.97 3.574-3.812 7.327-6.803 10.168-5.03 4.565-9.456 10.07-15.852 12.793-7.674 3.367-15.734 5.793-23.348 9.308-9.98 2.9-20.417 3.802-30.695 5.08-6.94.168-13.872.544-20.793 1.088-13.664-.356-27.526-2.287-40.18-7.703-6.13-1.911-9.347-7.723-13.951-11.684-6.13-5.881-9.952-13.654-12.863-21.506-4.08-11.585-8.208-23.269-9.822-35.497a229.148 229.148 0 0 1-3-28.705 130.58 130.58 0 0 1-.495-19.872c.9-7.396.475-14.862 1.426-22.239-5.763-.475-11.486-1.178-17.249-1.554-5.673-.228-10.327-3.812-14.832-6.862-2.901-1.852-1.842-6.575 1.366-7.456 11.327-4.367 23.744-2.554 35.428-.852 2.802-4.881 7.446-8.158 11.753-11.594 5.466-4.05 12.317-5.377 18.734-7.179 20.634-5.634 42.042-7.475 63.31-8.891 19.1-.476 38.567-1.297 57.211 3.683 8.436 1.624 17.427 4.614 22.912 11.634 3.169 3.882 5.04 8.585 6.912 13.19 8.208-4.476 17.723-4.803 26.813-5.714 13.298-.584 26.823-1 39.854 2.228 1.396-5.1 3.455-10.605 8.119-13.595 6.119-3.782 11.792-8.426 18.664-10.813 17.724-5.742 36.368-7.42 54.775-9.545Zm-13.714 13.249c-15.613 1.474-31.28 4.673-45.597 11.278-3.248 1.604-5.554 4.475-8.198 6.841-2.268 1.832-2.327 4.971-2.773 7.625-1.257 10.505-1.188 21.11-1.119 31.685a269.85 269.85 0 0 0 2.99 39.655c1.644 9.456 5.961 18.1 10.536 26.427 2.03 3.218 4.852 5.823 7.149 8.852 4.347 5.803 10.852 9.506 17.407 12.318a138.318 138.318 0 0 0 34.715 7.901c16.337.911 33.635-1.089 47.685-10.09 4.931-2.415 8.199-6.92 11.823-10.861 4.97-5.377 8.119-12.1 10.881-18.803a189.606 189.606 0 0 0 12.704-72.282c-.297-7.564.891-15.357-1.307-22.714-3.208-6.97-10.604-10-17.08-13.169-11.357-4.317-23.635-4.752-35.596-5.822a337.976 337.976 0 0 0-44.22 1.159Zm-221.824 9.733c-14.125.892-28.27 1.92-42.24 4.198-9.04 1.208-18.16 2.96-26.408 6.98-3.356 1.743-6.693 3.842-8.862 7.02-2.534 3.575-5.366 7.2-6.267 11.596a104.615 104.615 0 0 0-2.525 25.724c1.693 17.902 3.257 35.863 6.634 53.547 3.792 14.615 8.317 29.487 17.417 41.775 3.277 4.02 8.238 5.99 12.941 7.842a106.655 106.655 0 0 0 25.962 5.515c10.258-.158 20.605.683 30.794-.94 9.495-1.12 18.575-4.229 27.813-6.545 6.486-2.258 13.446-4.08 18.684-8.773a69.35 69.35 0 0 0 13.773-16.1 99.252 99.252 0 0 0 8.357-24.467 224.75 224.75 0 0 0-.554-81.569c-1.13-5.97-2.733-12.169-6.803-16.862-2.792-2.535-6.624-3.347-9.94-4.96-6.773-3.199-14.358-3.763-21.695-4.486a377.31 377.31 0 0 0-37.081.505Z"/><path fill="#b65a35" d="M903.517 692.998c1.544.267 3.119.584 4.683.832.871 5.93 2.475 11.753 2.901 17.773.723 15.833 2.1 31.695.98 47.547-1.495 13.229-2.059 26.536-3.633 39.775-1.218 16.902-4.862 33.507-6.535 50.359a85.21 85.21 0 0 0-.406 16.13 14.81 14.81 0 0 0 5.574 2.554c10.813 1.881 21.744-.089 32.547-1.07 9.505-.425 18.822-3.227 28.407-2.168a6.232 6.232 0 0 1 1.93 4.446c-13.703 4-28.03 5.13-42.15 6.822-4.604.535-9.248.179-13.872.287-5.614.07-11.555-.683-16.258-3.97-3.159-2.317-4.446-6.337-4.337-10.12.188-15.812 3.277-31.367 5.08-47.032 1.049-11.604 2.514-23.18 3.088-34.814.803-14.495 3.159-28.991 1.743-43.517-1.119-12.01-.07-24.1-.713-36.13a19.51 19.51 0 0 1 .97-7.704Z"/><path fill="#160e0b" d="M1065.882 697.493c4.822-2.138 10.209 1.486 11.219 6.377 1.356 6.01.702 13.902-4.942 17.575-4.623 2.555-10.693-.713-11.614-5.772-1.099-6.248-.9-14.635 5.337-18.18ZM809.066 708.81c3.238-1.197 8.13-.207 8.901 3.674.713 6.813 2.189 14.278-1.435 20.546-1.95 3.634-7.723 4.575-10.258 1.099-3.654-5.1-2.664-11.723-2.495-17.595a7.744 7.744 0 0 1 5.287-7.723Z"/><path fill="#e56324" d="M871.762 929.922c8.256-4.64 18.07-4.773 27.27-4.654 17.852-.237 35.694-.03 53.527.792 12.862.654 25.793-1.03 38.566 1.07 8.456 1.495 17.467 1.535 25.032 6.109 4.079 7.921 3.524 18.02-2.1 25.07-7.426 8.1-15.268 16.021-24.565 22.002-12.19 7.436-26.873 9.05-40.864 9.04-14.585-.634-29.289-2.733-43.022-7.882-13.526-4.792-25.813-13.773-33.556-25.961-2.931-4.298-2.842-9.684-4.238-14.526-1.238-4.05.089-8.89 3.95-11.06Z"/><path fill="#fff" d="M875.674 934.002c13.068-1.253 26.318-.268 39.289 1.792 14.694 2.475 29.645 2.247 44.488 1.91 15.782.08 31.368-4.307 47.19-2.821a10.767 10.767 0 0 1 8.209 4.545c.99 1.89-.15 3.95-1 5.653a36.256 36.256 0 0 1-10.03 11.922c-3.793 3.07-8.704 3.94-13.11 5.743a87.65 87.65 0 0 1-18.833 5.544c-12.11 1.08-24.22 3.347-36.408 2.03-20.823-2.93-41.695-9.604-58.25-22.981-2.01-1.911-4.506-3.96-4.684-6.931-.258-2.466.023-6.108 3.139-6.406Z"/><path fill="#f7a983" d="M939.43 976.519c12.565-.634 25.08-1.96 37.596-3.15-.11.476-.317 1.417-.426 1.892-8.11 2.634-16.644 3.565-25.11 4.228-4.11-.02-9.09.465-12.06-2.97Z"/><path fill="#784074" d="M1221.435 1185.6c2.119-2.922 6.03.267 5.02 3.247a169.818 169.818 0 0 1-15.921 54.112c-3.624 8.545-8.743 16.328-12.952 24.566-5.802 10.515-11.377 21.209-18.674 30.794-9.07 13.495-20.318 25.278-30.764 37.665-1.05 1.099-2.109 2.188-3.159 3.297 1.634.05 3.258.1 4.911.129-2.108.297-4.227.535-6.327.772-6.139 5.476-11.812 11.476-18.258 16.615-8.99 7.218-17.595 14.971-27.407 21.1a426.983 426.983 0 0 1-43.141 23.06c-14.694 6.496-29.943 11.902-45.755 14.873a259.413 259.413 0 0 1-37.656 4.921c-28.922.248-58.152-.762-86.361-7.693-25.249-5.367-50.29-12.2-74.192-22.061-1.911-.94-3.783-1.93-5.753-2.713-8.506-2.921-16.338-7.407-24.289-11.545a245.057 245.057 0 0 1-24.704-15.14c-7.198-5.04-14.892-9.327-21.912-14.614-14.595-11.02-30.16-21.13-42.388-34.893-5.823-7.13-11.516-14.348-17.19-21.576-5.871-8.03-12.04-16.248-14.515-26.05-2.07-5.645-5.436-11.22-4.931-17.447.257-2.04 2.09-2.99 3.812-3.585 1.94 1.812 1.723 4.416 1.703 6.862-.267 2.406 2.188 3.753 2.842 5.882.584 2.277.168 4.693.871 6.96 2.159 7.268 6.892 13.338 11.317 19.358 5.823 7.703 12.17 14.98 18.06 22.635 11.952 14.614 27.953 24.991 42.904 36.22 6.456 4.91 13.447 9.04 20.21 13.515 34.892 24.22 75.528 38.656 116.54 48.547 8.922 1.773 17.714 4.159 26.665 5.773 24.15 4.604 48.805 5.09 73.311 5.228 19.962-1.574 39.913-4.891 58.964-11.179 19.635-6.485 37.873-16.407 56.092-26.041 13.852-7.347 25.487-17.941 37.705-27.595 8.704-8.07 17.595-16.021 25.318-25.061a330.155 330.155 0 0 0 31.606-40.943c10.753-19.11 21.605-38.31 28.972-59.043 4.267-12.664 8.139-25.595 9.426-38.953Z"/><path fill="#916693" d="M805.046 1388.284c1.97.782 3.842 1.772 5.753 2.713-3.188.673-6.357 1.416-9.545 2.109.079-.881.158-1.743.247-2.594-2.158-.317-4.307-.644-6.456-.852 3.288-.733 6.98.307 10.001-1.376Z"/><path fill="#a88ba4" d="M1673.331 1416.701c1.03.664 1.99 1.268 3.07 1.99a6.796 6.796 0 0 1-3.941 1.802 74.404 74.404 0 0 1-16.12-.683c4.406-.158 8.812.297 13.229.208 1.98.178 2.624-2.188 3.762-3.317Z"/><path fill="#774074" d="M229.687 1649.367c4.585-2.693 9.744-4.089 14.892-5.208a214.197 214.197 0 0 1 63.301-3.08c11.813 1.862 23.724 3.15 35.438 5.625 12.822 2.95 25.526 6.386 38.368 9.218 4.46 14.337 8.13 28.89 11.54 43.506h6.728c-.809-3.544-1.626-7.085-2.534-10.603-3.03-12.615-6.852-25.031-10.259-37.537-4.168-12.337-7.663-24.962-13.733-36.546 8.694-7.387 19.803-10.704 30.625-13.585 10.952-2.703 21.705-6.149 32.686-8.743 17.396-3.763 34.962-6.694 52.498-9.694 23.337-3.267 46.18-9.178 69.29-13.664 23.071-4.99 46.201-10.307 68.291-18.773 10.04-3.693 20.328-6.674 30.576-9.743 19.536-6.02 39.577-10.13 59.528-14.486 21.833-4.14 43.22-10.318 65.152-13.961 12.714-2.337 25.537-3.921 38.359-5.525 22.06-3.288 44.25-5.694 66.3-9.03 26.754-3.585 53.053-9.853 79.747-13.833 22.13-3.297 44.082-7.773 66.301-10.535 17.377-2.258 34.933-2.258 52.38-3.604 20.842-.604 41.556-3.298 62.369-4.417 8.218-1.069 16.526-.584 24.744-1.604 26.724-.485 53.488-1.168 80.212-.168 19.16-.188 38.3.535 57.449 1.02 12.288-.416 24.516 1.168 36.804 1.129 8.832 1.069 17.754.574 26.605 1.594 17.536.505 34.963 2.97 52.508 3.297 4.307.277 8.585 1.01 12.922.901 8.248-.178 16.446 1.159 24.694.97 6.624-.158 13.179 1.14 19.803 1.01 7.931-.01 15.823 1.228 23.764.951 9.575-.277 19.08 1.386 28.665.98 13.288.476 26.615 1.713 39.903.555 2.376 15.179 3.99 30.467 6.08 45.685 1.594 10.565 3.327 21.11 4.346 31.755 2.258 25.684 7.922 50.893 13.239 76.063a14.015 14.015 0 0 0-8.06-2.743c-27.754-1.06-55.092-6.307-82.45-10.654-22.239-3.802-44.755-5.376-67.172-7.733-25.645-2.703-51.37-4.644-77.143-5.555-9.248-.178-18.456-1.247-27.705-1.01-27.704-.514-55.617-2.267-83.123 2.02-45.587 6.09-90.282 17.21-135.65 24.576-23.676 3.763-47.499 6.456-71.342 8.803-24.416 2.138-48.873 4-73.231 6.842-22.784 2.594-45.636 4.673-68.32 8.109-28.834 4.297-57.51 9.515-86.065 15.337-32.843 6.337-65.518 15.021-99.154 15.556-14.496 1.237-29.051.841-43.577.91-23.1.03-46.23-.445-69.26 1.387-14.942 1.485-29.903 2.99-44.667 5.812-10.158 1.733-20.15 4.307-30.229 6.466-3.329.693-6.663 1.357-9.997 2.018h33.867c7.355-1.545 14.74-2.933 22.192-3.95 20.07-2.573 40.25-4.88 60.518-4.385 40.26-.396 80.767 1.831 120.73-4.11 21.169-3.485 42.1-8.238 63.142-12.376 27.605-5.516 55.28-10.754 83.142-14.823 20.477-3.08 41.092-5 61.668-7.258 24.724-2.802 49.497-4.97 74.29-7.04 22.715-2.238 45.39-5 67.945-8.525 45.725-7.13 90.371-19.843 136.166-26.606 11.06-1.772 22.21-3.406 33.437-3.554 13.575-.852 27.15.435 40.735.099 38.636 1.436 77.302 2.693 115.77 6.852 24.565 2.683 49.29 4.198 73.696 8.248 24.556 3.663 49.072 7.97 73.876 9.664 5.97-.12 11.584 2.277 17.476 2.89q1.93 8.303 4.515 16.427c4.586 15.992 9.166 32.086 12.233 48.447h5.943c-.395-2.52-1.008-5.02-1.393-7.523-2.525-11.07-5.396-22.051-8-33.101 25.09-3.466 50.26-6.714 75.043-12.06 23.2-4.525 46.706-8.872 70.44-8.07 7.06.445 14.228 1.842 21.258.247-.01-.94-.05-2.822-.059-3.762-.604-.218-1.812-.664-2.406-.881-11.941-1.931-24.08-3.12-36.19-2.218-26.338 1.188-52.033 7.505-77.925 11.901-17.229 3.01-34.784 4.614-51.538 9.892-3.634-11.555-6.099-23.397-8.911-35.16-4.96-23.051-9.912-46.181-11.932-69.707a318.323 318.323 0 0 1 52.726-16.714c10.169-2.287 20.585-3.149 30.754-5.446 14.407-3 29.101-4.327 43.745-5.624 3.634 2.228 7.942 1.614 11.922.812.376-.663 1.138-1.97 1.525-2.634-1.397-1.356-2.476-3.386-4.565-3.653a69.812 69.812 0 0 0-14.862-.604c-13.555.92-27.12 2.178-40.468 4.831-11.436 2.416-23.15 3.298-34.506 6.08-16.031 4.03-32.24 8.248-46.894 16.09-2.723-14.664-4.377-29.526-6.179-44.34-.723-8.653-3.05-17.109-3.208-25.812-1.654-12.328-2.733-24.863-1.198-37.26 13.407-5.327 27.496-8.456 41.487-11.802 5.803-1.317 11.556-3.308 17.576-3.308 5.535.06 11.09.03 16.634.208 4.406-.158 8.812.297 13.229.208 1.98.178 2.624-2.188 3.762-3.317a36.648 36.648 0 0 0-11.664-.544c-7.664-.456-15.317-1.04-22.981-1.268-7.931-.356-15.615 1.96-23.328 3.367-11.555 2.436-23.259 4.96-33.873 10.317 1.445-7.634 2.762-15.317 4.98-22.773 5.208-18.516 9.545-37.389 17.06-55.162 1.02-2.891 4.971-3.98 4.723-7.446-.109-2.633-3.346-3.267-5.119-1.861-8.119 14.169-12.773 29.922-17.01 45.606a106.579 106.579 0 0 0-27.22-7.574q-19.575-4.62-39.19-9.05c-20.1-4.347-39.982-9.803-60.39-12.585-12.416-2.13-25.05-2.387-37.467-4.505-34.25-5.189-68.766-8.328-103.085-13.08-25.961-3.387-51.943-6.634-78.024-8.892-12.545-1.168-25.18-2.06-37.775-1.287-6.614.525-13.258.187-19.862.92-11.679 1.298-23.793 1.01-34.962 5.1-1.05 1.099-2.109 2.188-3.158 3.297 1.633.05 3.257.1 4.91.129a199.926 199.926 0 0 1 24.447-2c12.496-1.02 25.051-1.12 37.577-1.426 24.238.446 48.32 3.654 72.39 6.287 26.704 2.832 125.66 15.407 148.473 18.497a370.249 370.249 0 0 1 63.142 10.307q33.077 7.708 66.35 14.585c4.842 2.149 9.734 4.297 15.061 4.97 2.604.476 7.683 1.06 6.386 4.971-3.297 12.219-6.475 24.506-8.683 36.992-2.07 12.575-.812 25.338.237 37.953q-78.732-3.684-157.444-8.04c-49.726-3.862-99.56-6.654-149.464-6.585-26.704-1.327-53.448-.831-80.173-.94-6.95.05-13.871.89-20.822.97-24.388.93-48.666 3.654-73.004 5.406-24.15 1.93-48.458 2.129-72.44 5.842-22.882 3.416-45.626 7.703-68.489 11.278-21.952 3.604-43.626 8.842-65.697 11.783-23.98 3.673-48.091 6.376-72.093 9.872a561.034 561.034 0 0 0-69.102 12.228c-14.863 3.723-29.943 6.436-44.864 9.902-11.14 2.762-22.358 5.188-33.408 8.307-17.536 5.238-35.14 10.357-52.25 16.912-21.25 7.357-43.25 12.278-65.242 16.822-21.516 4.298-42.834 9.714-64.597 12.664-23.08 4.278-46.508 7.367-68.915 14.585-15.931 4.565-33.18 7.882-45.972 19.22-4.981-10.04-11.23-19.378-16.299-29.369-2.792-5.871-6.435-11.248-9.535-16.931-3.446-8.634-9.06-16.12-14.664-23.437q14.823-7.07 29.497-14.456c15.387-7.387 32.506-9.872 48.3-16.2 17.644-7.04 35.437-13.713 52.695-21.694 10.407-4.356 20.863-8.614 31.121-13.327 18.268-7.803 36.863-14.813 55.577-21.457 32.447-9.792 65.44-17.664 98.431-25.377 29.447-6.872 58.657-14.734 88.164-21.348 10.238-2.287 20.258-5.436 30.565-7.426 12.001-2.436 24.23-3.594 36.102-6.644.079-.881.158-1.743.247-2.594-2.158-.317-4.307-.644-6.455-.852-12.427.792-24.705 3.248-36.884 5.713-20.952 5.08-42.18 8.941-63.003 14.556-37.864 9.564-76.054 17.803-113.838 27.714-16.407 4.822-33.052 9.01-48.993 15.288q-28.517 10.426-56.191 23.03c-13.318 5.348-26.25 11.586-39.586 16.903-9.14 3.733-18.388 7.208-27.517 11-18.932 8.06-39.725 11.288-57.845 21.328-7.812 3.585-15.15 8.06-22.714 12.11-3.654-8.15-10.495-14.437-17.486-19.764a16.965 16.965 0 0 0-6.96-3.406 29.427 29.427 0 0 0-4.981 2.605c3.832 3.792 8.584 6.485 12.367 10.337 12.585 13 21.358 28.952 31.071 44.081 4.96 7.565 8.476 15.942 13.169 23.665 4.99 8.337 9.505 16.941 13.694 25.714 4.683 9.367 7.357 19.546 10.683 29.447-17.842-5.218-35.744-10.644-54.28-12.773-12.466-1.97-25-3.91-37.665-3.604-13.298-.426-26.536 1.287-39.577 3.753-6.772 1.545-13.575 3.624-19.526 7.287a5.96 5.96 0 0 0-2.95 5.278c1.228-.06 2.574.198 3.653-.555Z"/></svg>