<svg xmlns="http://www.w3.org/2000/svg" viewBox="0 0 2121 1887.494"><path fill="#764074" d="M1740.56 1592.713c-.049-.26-.09-.52-.143-.78-5.871-29.182-16.796-57.132-30.389-83.566a372.894 372.894 0 0 0-49.969-73.346 477.222 477.222 0 0 0-60.6-58.809c-8.223-6.644-16.671-13.024-25.259-19.22-24.408-27.763-54.02-50.746-85.436-70.12-23.79-14.413-45.244-32.425-64.756-52.174-17.08-16.355-37.524-28.59-54.889-44.597-17.128-14.934-30.863-33.846-50.706-45.544-23.412-14.002-45.434-30.104-67.566-46.033-14.46-10.687-32.662-13.387-49.933-16.197-36.877-5.999-74.354-6.33-111.61-5.777-70.723 2.336-140.815 13.024-210.29 25.905-13.056 2.005-26.554 4.926-39.688 2.036-10.545 1.042-20.68 4.484-31.052 6.505-11.824 2.32-23.727 6.44-32.883 14.539-8.62 7.72-16.01 16.649-24.185 24.816a481.71 481.71 0 0 1-62.498 52.68c-17.334 11.886-33.61 25.21-50.075 38.25-23.775 19.89-44.597 43.113-69.697 61.457-25.022 17.807-50.611 34.824-76.486 51.384a321.82 321.82 0 0 0-5.198 3.593q-4.141 1.944-8.291 3.872a299.962 299.962 0 0 0-37.487 20.908c-25.37 16.444-48.891 35.23-69.663 57.241a422.25 422.25 0 0 0-56.558 76.157c-14.263 24.322-25.79 50.446-36.074 76.82Z"/><path fill="#38312d" d="M1173.083 202.028a159.03 159.03 0 0 1 53.121-9.646c9.582.348 20.807 2.574 26.348 11.288 3.473 7.577 1.09 16.954-4.342 23.048-11.634 13.766-27.53 22.859-40.27 35.504 15.186-9.456 31.62-18.66 49.806-20.08 7.625-.237 15.865.22 22.48 4.467 6.204 4.515 6.014 13.513 3.204 19.922-4.294 8.92-11.271 16.134-17.791 23.443 11.587-5.367 23.537-10.624 36.293-12.297 4.278-.19 10.624-.553 12.455 4.341.79 7.104-4.199 12.992-8.509 18.028-14.918 17.05-36.372 26.442-57.762 32.457 8.24 8.098 17.38 15.266 25.148 23.853a189.037 189.037 0 0 1 47.422 84.947c4.783 16.939 8.777 34.383 8.32 52.095-.585 19.765-1.421 39.672-5.636 59.057-2.62 12.598-8.02 24.359-12.85 36.23-3.126 7.246-3.395 15.234-4.815 22.89-2.542 14.445-6.141 28.795-11.95 42.308a57.945 57.945 0 0 1-12.25 17.95c-19.102 18.69-39.593 36.466-63.573 48.638a181.951 181.951 0 0 1-67.629 17.807c-27.879.473-55.742-.963-83.62-.853-16.86-.631-33.72-1.5-50.502-3.141-17.87-1.705-35.487-5.415-53.39-6.757-16.37-1.2-32.772-2.794-49.19-2.194-15.234.49-30.878.852-45.607-3.678-12.155-3.805-20.917-13.766-27.879-23.933-24.121-35.298-38.629-76.185-48.37-117.546-6.03-23.142-6.914-47.28-5.982-71.07 1.847-27.058 2.778-54.542 11.05-80.59 5.604-17.08 11.919-34.114 21.422-49.459 6.015-9.44 12.614-18.912 22.133-25.148 11.73-7.956 25.148-15.612 39.829-14.665a95.997 95.997 0 0 1 6.488-35.283c4.878-12.692 10.135-25.716 19.497-35.85 7.388-8.21 16.891-14.193 26.71-19.07 12.472-5.51 25.29-11.32 39.167-11.62 29.946-1.026 59.925-.142 89.84-1.91 17.302-1.42 35.188-1.39 51.511-8.082 20.001-8.21 39.397-17.86 59.673-25.401Z"/><path fill="#f2844f" d="M997.19 319.874c39.245-14.997 81.111-24.548 123.277-24.122 11.224 1.247 22.67 2.226 33.293 6.41 5.873 2.43 11.809 4.798 17.428 7.814a152.807 152.807 0 0 0 38.22 15.344 155.034 155.034 0 0 1 17.412 6.157c6.757 2.352 11.777 7.688 17.618 11.603.142 11.114-.332 22.338-.269 33.499-1.247 17.87.932 35.693 2.194 53.484 2.305 25.48 6.9 50.675 10.404 75.996 1.436 11.635 4.515 23 6.456 34.557.758 19.78 8.651 38.676 7.673 58.583.236 16.986-9.488 32.457-8.857 49.49l-.9 1.327c-8.824 14.918-12.47 32.236-17.096 48.796-4.783 20.743-10.23 41.329-15.565 61.946-3.52 10.671-7.31 21.39-13.135 31.067a35.924 35.924 0 0 0-3.457 9.077c-9.298 3.173-16.118 10.546-24.674 15.045-10.104 5.81-21.249 9.44-32.015 13.781-22.29 8.067-46.333 4.326-69.476 4.705-23.743-1.232-47.407 1.815-71.134 1.5-26.08-.474-52.995.126-77.827-9.046-22.859-8.872-44.755-21.249-62.183-38.693-7.467-9.409-15.486-18.36-22.511-28.115 1.642 8.95 5.383 17.38 8.919 25.732 6.33 12.392 10.64 25.7 17.144 38.013 4.973 10.514 11.745 20.002 17.428 30.12 5.652 9.994 13.545 18.645 18.202 29.222 4.61 10.45 10.056 20.49 15.076 30.751 5.525 10.483 13.071 21.344 24.706 25.511 11.824 3.742 23.695-1.515 34.793-5.24 13.513-4.626 28.021-4.453 42.134-4.026 25.685 1.342 48.938 13.781 74.086 17.807 6.03 1.373 11.319 4.941 17.397 6.283 21.359 5.036 41.897 12.913 62.688 19.828 9.977 2.147 19.212 6.63 29.047 9.235.394-5.052.663-10.104 1.12-15.155.095 20.648.648 41.281 2.542 61.851 4.12 31.415 1.31 63.256 3.868 94.782 3.125 19.18-1.247 38.519-6.283 56.973-5.305 22.654-13.087 44.865-24.58 65.166-8.193 13.387-14.697 27.863-24.437 40.272-8.32 10.53-16.418 21.264-25.543 31.115-8.635 10.356-19.212 18.786-29.441 27.468-11.43 9.046-21.754 19.417-33.168 28.495-9.345 7.356-18.896 14.855-30.357 18.58-8.02 4.263-15.929 8.999-24.958 10.877-7.167 2.494-14.666.095-22.007.679a69.81 69.81 0 0 1-38.882-16.386c-10.987-7.878-21.185-16.718-31.478-25.417-18.833-19.827-36.877-40.555-52.19-63.256-10.024-13.75-18.723-28.384-28.778-42.086-8.257-13.987-16.987-27.753-23.885-42.482-9.33-26.347-6.078-54.81-3.552-82.042.52-15.455 2.825-30.752 5.667-45.923 5.699-31.241 5.241-63.114 8.761-94.608 3.553-31.446 6.22-63.067 5.084-94.75-1.626-27.421 1.72-55.126-.016-82.358 2.32-6.977 1.737-14.429 2.557-21.643 3.205-34.73 1.453-69.634 1.342-104.443-.537-9.03-.694-18.233-3.252-26.963 1.531-9.883-.505-19.875-.284-29.79-2.084-20.443.426-41.092 4.657-61.109a378.11 378.11 0 0 0 14.997-63.398c5.446-28.226 4.941-57.194 10.009-85.484a324.677 324.677 0 0 1 8.73-38.297c.994-3.726 3.094-7.389 6.551-9.299 11.872-6.346 23.648-12.945 34.967-20.27 23.3-15.328 49.096-26.489 75.743-34.54Z"/><path fill="#f95939" d="M1306.889 591.022c14.618-.521 28.841 8.13 36.15 20.648 9.536 14.366 11.43 32.126 11.304 48.954-.095 14.05-5.462 27.184-9.22 40.508-4.736 13.971-9.471 28.084-17.112 40.792-11.73 20.049-27.247 38.282-46.649 51.259-14.934 9.914-34.114 15.407-51.732 10.245-5.115-.236-9.993-2.7-14.902-3.173-.71.158-2.132.49-2.842.647a35.924 35.924 0 0 1 3.457-9.077c5.825-9.677 9.614-20.396 13.134-31.067 5.336-20.617 10.783-41.203 15.566-61.946 4.625-16.56 8.272-33.878 17.097-48.796.3.142.9.458 1.2.6 7.261-10.956 14.791-21.738 22.463-32.394 7.752-8.73 15.566-17.476 22.086-27.2ZM780.695 616.106c8.951-3.915 19.18-1.468 27.358 3.19 16.323 9.313 26.237 26.141 33.767 42.765 2.558 8.73 2.715 17.933 3.252 26.963.11 34.809 1.863 69.713-1.342 104.443-.82 7.214-.236 14.666-2.557 21.643-5.825-1.389-11.966-.931-17.697-2.826-16.339-4.91-28.826-17.349-39.703-29.9-15.818-18.738-25.274-41.77-32.93-64.802-7.183-21.044-5.873-44.313 1.215-65.183 4.768-14.839 13.182-30.594 28.637-36.293Z"/><path fill="#e56324" d="M852.066 760.079c7.025 9.756 15.044 18.707 22.511 28.115 17.428 17.444 39.324 29.821 62.183 38.693 24.832 9.172 51.748 8.572 77.827 9.046 23.727.315 47.39-2.731 71.134-1.5 23.143-.38 47.185 3.362 69.476-4.704 10.766-4.342 21.911-7.973 32.015-13.782 8.556-4.5 15.376-11.871 24.674-15.045.71-.157 2.131-.489 2.842-.647a424.266 424.266 0 0 0-.048 27.263c-.063 7.61-2.415 14.855-5.793 21.612 2.13.19 4.278.316 6.425.52-2.1 39.404 1.12 79.044-.505 118.51-.458 5.051-.727 10.103-1.121 15.155-9.835-2.605-19.07-7.088-29.047-9.235-20.791-6.915-41.33-14.792-62.688-19.828-6.078-1.342-11.367-4.91-17.397-6.283-25.148-4.026-48.401-16.465-74.086-17.807-14.113-.427-28.62-.6-42.134 4.025-11.098 3.726-22.969 8.983-34.793 5.241-11.635-4.167-19.18-15.028-24.706-25.51-5.02-10.262-10.466-20.302-15.076-30.752-4.657-10.577-12.55-19.228-18.202-29.221-5.683-10.12-12.455-19.607-17.428-30.12-6.504-12.314-10.814-25.622-17.144-38.014-3.536-8.351-7.278-16.781-8.92-25.732ZM1083.526 478.543c5.084-9.93 12.882-20.49 24.896-21.422-.048.758-.143 2.29-.174 3.047.584.394 1.784 1.184 2.384 1.578.205-1.184.615-3.552.836-4.735a94.117 94.117 0 0 1 26.3.315c-8.571 7.073-17.49 14.113-23.805 23.459-6.741 10.435-12.63 21.722-14.871 34.036-.947 5.477-3.078 11.681.663 16.607 5.415 8.903 12.645 18.754 9.488 29.773-1.958 3.362-5.194 7.672-9.33 7.767.947-3.994 5.336-6.504 5.288-10.861.853-9.25-5.762-16.37-9.408-24.2-3.49-8.825-11.303-15.33-13.45-24.785-2.305-9.977-3.707-21.027 1.183-30.579Z"/><path fill="#e56324" d="M1208.886 849.13c3.379-6.757 5.731-14.003 5.794-21.612.868 7.341.647 14.76.632 22.133-2.147-.205-4.294-.332-6.426-.521Z"/><path fill="#150f0c" d="M1157.17 233.317c17.853-6.734 34.84-15.818 53.216-20.98-6.267 4.64-13.608 7.435-20.585 10.75-10.546 4.83-20.87 10.135-31.589 14.555-15.628 6.378-32.236 9.82-48.875 12.393-12.329 1.862-24.8 3.836-37.303 2.604 28.62-5.178 57.735-8.987 85.136-19.322ZM1208.965 233.096a27.449 27.449 0 0 1 6.962-1.895c-10.198 9.03-23.38 13.545-35.614 19.039-11.508 4.325-23.9 9.819-36.388 6.709a305.768 305.768 0 0 0 65.04-23.853ZM934.66 280.787c13.832-12.627 29.679-23.206 47.186-29.979.79.174 2.336.505 3.11.663a155.54 155.54 0 0 0-44.676 28.558 76.056 76.056 0 0 0-22.07 34.888c-2.083 6.662-2.683 13.75-5.509 20.19a40.395 40.395 0 0 1 .206-13.15c2.983-15.423 10.026-30.465 21.753-41.17ZM982.73 276.777c12.194-7.342 25.29-13.782 39.34-16.64a49.957 49.957 0 0 1-9.804 5.02c-14.886 5.684-28.652 13.972-41.392 23.476-14.444 10.308-25.463 24.863-32.472 41.091.647-10.15 6.22-18.927 12.25-26.758 8.477-11.113 20.245-19.064 32.078-26.19ZM1195.073 282.397a455.427 455.427 0 0 0 58.82-23.68c-4.435 6.552-12.108 9.314-18.88 12.708-10.056 4.547-20.112 9.393-30.926 11.824a12.554 12.554 0 0 1-9.014-.852ZM1056.358 276.524c16.351-2.94 33.12-4.23 49.696-2.668a18.387 18.387 0 0 1-9.251 2.479c-19.575.52-39.198 3.173-57.873 9.124-8.493 2.59-15.802 7.83-24.075 10.924 9.567-13.039 26.424-17.147 41.503-19.859ZM845.04 372.837c3.154-2.792 6.852-6.251 11.462-5.272-1.926 4.83-7.53 6.646-10.735 10.513-16.481 16.955-24.153 40.082-31.052 62.167-3.994 12.014-4.91 24.627-5.983 37.13-2.858-22.164 4.689-43.776 12.092-64.298 5.62-14.65 12.291-29.68 24.217-40.24ZM1259.924 367.375a18.708 18.708 0 0 1 5.699 9.046 160.855 160.855 0 0 1 6.678 47.438c-.632 18.454-1.642 36.988-4.989 55.19a67.867 67.867 0 0 1-4.278 14.128c4.941-23.206 6.457-47.06 6.03-70.755-.284-18.722-5.02-36.924-9.14-55.047Z"/><path fill="#fdb697" d="M950.415 390.234c12.424-7.956 28.353-7.325 42.418-5.494-7.94 1.074-15.991 1.058-23.884 2.431-6.173 1.026-12.282 2.542-18.534 3.063Z"/><path fill="#150f0c" d="M852.681 396.154a28.886 28.886 0 0 1 10.435-8.509c-3.852 6.63-9.377 12.171-12.55 19.228-9.646 19.765-16.307 40.903-21.107 62.325-2.13 8.73-1.752 17.696-2.052 26.584-3.583-7.325-2.462-15.755-1.5-23.553 2.321-15.06 6.615-29.758 11.556-44.155 3.963-11.082 8.284-22.272 15.218-31.92ZM1285.309 390.06a27.555 27.555 0 0 1 6.725 13.514c4.767 21.153 4.183 43.033 3.583 64.566a256.765 256.765 0 0 1-2.51 29.963c-.915 5.288-1.957 11.098-6.235 14.792 5.54-19.165 4.988-39.277 5.067-59.026-.063-21.438-2.842-42.75-6.63-63.809Z"/><path fill="#45362f" d="M972.8 401.221c13.091-2.238 27.437-3.425 39.83 2.384 11.887 7.388 20.522 21.77 17.49 36.04-2.951.664-5.95.237-8.887-.189-11.556-1.847-23.174-3.347-34.84-4.183-20.855 1.294-41.93 2.841-62.089 8.62-14.16 4.198-26.473 12.486-39.592 18.911-.616-4.767 2.32-8.761 4.641-12.613 8.383-13.34 20.017-24.99 34.352-31.841 15.486-7.894 31.928-14.194 49.095-17.129ZM1096.03 413.566c8.255-6.093 19.054-6.535 28.92-5.998a218.181 218.181 0 0 1 85.941 30.01 125.88 125.88 0 0 1 18.692 15.297 33.455 33.455 0 0 1-5.763.047c-32.188-6.094-64.219-14.05-97.086-15.424a309.133 309.133 0 0 0-38.014 2.558c-2.447.473-4.767-.49-7.04-1.168 3.204-9.172 7.072-18.597 14.35-25.322Z"/><path fill="#160e0b" d="M931.424 484.305c3.31-2.281 9.093-1.168 9.993 3.173 1.8 7.2 2.983 16.103-2.084 22.26-3.678 4.12-10.561 1.183-11.193-3.963-1.515-6.962-3.627-16.704 3.284-21.47Z"/><path fill="#150f0c" d="M836.563 513.747c2.384-9.914 3.694-20.743 10.356-28.905-5.998 21.99-11.792 44.186-13.64 66.998-2.367-12.756 1.058-25.574 3.284-38.093ZM1313.993 484.147c9.093 16.024 3.22 35.125-1.563 51.56-5.052 14.396-8.256 30.072-17.744 42.386a260.65 260.65 0 0 0 17.791-58.742c2.226-11.634 1.184-23.474 1.516-35.204Z"/><path fill="#160e0b" d="M1163.595 488.978c3.85-2.7 10.04-.41 10.546 4.42.347 6.82-1.263 14.24-5.684 19.607-3.63 4.626-11.981 1.863-12.44-3.93-.82-7.278 1.287-15.684 7.578-20.097Z"/><path fill="#fcb48e" d="M1036.61 516.415c6.835-5.699 16.354-6.204 24.752-4.704 2.684.426 4.342 2.794 6.236 4.514-10.324-1.8-20.633.285-30.989.19Z"/><path fill="#150f0c" d="M808.732 540.41c-.868-9.598-2.715-19.938 1.468-29.015.79 17.207 2.02 34.446 5.541 51.369 1.69 11.082 5.462 21.833 6.015 33.088a332.014 332.014 0 0 1-13.024-55.442Z"/><path fill="#be6547" d="M912.29 519.509c7.768-.852 15.535.316 23.286.758 6.993.458 13.908-.884 20.885-.979-9.598 4.01-20.206 3.852-30.404 3.347a44.86 44.86 0 0 1-13.766-3.126Z"/><path fill="#b65b36" d="M1148.598 522.745a125.828 125.828 0 0 0 36.356-.442c-2.036 2.147-4.483 3.994-7.498 4.405-7.799 1.547-15.96 2.415-23.806.9-2.731-.221-4.026-2.716-5.052-4.863Z"/><path fill="#150f0c" d="M1280.383 533.796c2.147 1.263 4.83 2.652 4.878 5.557 1.753 13.544.38 27.278-1.468 40.744-.742-.094-2.226-.268-2.952-.363 1.547-15.312.079-30.641-.458-45.938Z"/><path fill="#fbb38e" d="M906.15 541.531c13.245-.947 26.569-.71 39.86-.79-7.419 4.232-16.18 4.042-24.452 4.5-5.32.095-11.54.758-15.408-3.71Z"/><path fill="#b65a35" d="M1013.545 559.654c.843-10.761 14.334-15.06 23.317-11.619a388.879 388.879 0 0 0 3.599 7.862c-2.826 8.02-12.06 10.624-19.733 10.624-3.694.016-7.49-2.95-7.183-6.867ZM1073.534 550.814c5.475-2.013 11.445.284 16.18 3.11 2.669 1.862 5.952 4.972 4.926 8.571-.9 3.79-5.778 3.805-8.904 3.963-5.62-.395-12.47.173-16.607-4.389-3.3-4.057.065-9.66 4.405-11.255Z"/><path fill="#fbb48f" d="M1149.072 571.589c6.851-6.062 16.386-6.126 25.006-5.605 7.45.553 15.47 1.137 21.58 5.968-7.767-.38-15.408-2.131-23.175-2.147-7.862-.19-15.597 1.373-23.411 1.784Z"/><path fill="#f95939" d="M908.044 571.778c14.55-1.775 31.558-.221 41.977 11.414 14.807 15.076 11.84 41.628-3.268 55.41a55.448 55.448 0 0 1-43.981 13.466 50.175 50.175 0 0 1-29.616-17.255c-6.298-8.335-6.251-19.78-3.725-29.489 3.52-12.708 14.05-21.675 24.627-28.684a33.603 33.603 0 0 1 13.986-4.862ZM1174.82 585.86c11.047-1.866 22.48.457 32.583 5.099 10.766 5.146 19.843 15.233 21.217 27.405 1.736 20.522-12.077 42.008-32.473 46.933-14.334 3.583-29.41-1.137-41.597-8.809-10.151-6.646-18.044-18.028-17.997-30.484-.284-12.092 6.646-23.648 16.56-30.294 6.614-4.42 13.748-8.506 21.707-9.85Z"/><path fill="#fba187" d="M1166.532 596.42Z"/><path fill="#e56324" d="M988.445 612.491c8.483-4.855 16.75-10.514 26.458-12.66 7.167-1.926 14.507.157 21.753.394 6.33.474 12.787-1.373 18.992.553 10.53 2.967 19.464 9.535 28.352 15.628a78.704 78.704 0 0 1 26.947 31.81c3.063 6.33 3.805 13.418 5.447 20.19-1.121-.978-3.331-2.92-4.436-3.898l-2.1 1.973c-26.521-11.24-55.631-14.682-84.205-15.645-19.59 1.042-39.355 1.926-58.551 6.378a116.575 116.575 0 0 1-18.865 2.415c3.267-8.793 9.393-15.991 14.886-23.427 6.962-9.298 15.184-17.909 25.322-23.71Z"/><path fill="#fff" d="M1004.673 622.374c11.166-4.548 23.238-5.92 35.11-7.357 5.603-1.12 11.129.947 16.401 2.652 14.034 5.162 27.185 13.103 37.65 23.838 6.568 6.472 11.951 13.97 17.398 21.39-18.202-7.12-37.651-10.135-56.942-12.408-32.173-3.141-64.772-.773-96.487 5.178 14.05-13.04 28.892-25.971 46.87-33.293Z"/><path fill="#cc492f" d="M1311.562 654.467c1.941-2.273 4.862-2.778 7.703-2.999-11.587 11.635-19.528 26.11-27.247 40.43-6.078 11.602-11.793 23.426-16.15 35.803-1.91 5.02-3.283 10.498-7.088 14.523 3.757-19.89 12.803-38.44 21.96-56.389 6.061-10.956 11.634-22.606 20.822-31.368Z"/><path fill="#fbb898" d="M1013.514 660.435c4.467-4.42 11.019-3.915 16.812-3.805 10.987.569 22.101.979 32.741 4.041a113.339 113.339 0 0 1-18.517.348c-10.34-.505-20.712.316-31.036-.584Z"/><path fill="#cc492f" d="M783.047 668.391c9.772 5.857 14.43 16.765 18.313 26.932 7.34 20.617 13.876 41.944 15.423 63.856-4.357-24.185-10.64-48.196-20.838-70.629-3.19-7.404-8.462-13.529-12.898-20.159Z"/><path fill="#e56324" d="M993.733 678.984a42.391 42.391 0 0 1 11.288-2.337c16.828-1.073 33.798-1.278 50.532.884a22.274 22.274 0 0 1 10.782 4.279c-4.341 6.961-8.872 13.907-11.65 21.69a40.211 40.211 0 0 1-11.667.71c-12.944-.71-25.826 1.027-38.676 2.116a90.91 90.91 0 0 0-10.609-27.342Z"/><path fill="#ffb18d" d="M994.302 740.74c4.83-2.636 9.977-4.846 15.47-5.525a142.035 142.035 0 0 1 37.856.205 22.207 22.207 0 0 1 9.488 3.52c-10.514.253-20.965-1.657-31.479-.93-10.513.11-20.837 2.494-31.335 2.73Z"/><path fill="#fdb697" d="M969.627 1031.258c4.941 18.076 4.83 37.004 5.352 55.584-.079 17.491.552 35.583-5.667 52.238.631-8.462 2.494-16.781 2.889-25.259.71-17.396-.269-34.793-1.295-52.158-.6-10.12-2.431-20.238-1.279-30.405Z"/><path fill="#4f2a4d" d="M763.472 1179.777c2.842 12.06.142 24.5.49 36.735-1.106 25.685 8.982 49.996 19.622 72.823 7.246 15.707 15.74 30.815 22.906 46.57-10.26-17.823-19.812-36.088-28.842-54.558-8.398-17.397-15.818-35.851-16.575-55.395-.585-15.439 1.12-30.83 2.4-46.175ZM1243.79 1203.74a35.39 35.39 0 0 1 .948-6.93c1.515 2.037 3.552 4.058 3.552 6.82 1.72 13.592-.743 27.327-4.058 40.492-4.23 16.64-10.434 33.136-20.9 46.918-1.043 1.989-3.363 2.147-5.226 2.873 4.483-8.256 9.945-16.023 13.213-24.911 7.956-20.775 11.867-43.01 12.471-65.261ZM734.188 1204.83c.837.442 2.51 1.31 3.347 1.752 1.879 7.578 1.547 15.566 3.457 23.19 6.52 29.932 20.144 57.81 35.599 84.063 3.03 5.605 7.861 10.53 8.556 17.129-4.452-3.71-7.31-8.793-10.514-13.53a365.391 365.391 0 0 1-30.815-57.778c-6.93-17.207-13.055-36.119-9.63-54.826ZM1155.797 1335.447a97.393 97.393 0 0 0 20.238-26.71c.537 2.999 1.547 6.25.126 9.203-4.246 10.608-11.934 19.386-20.254 27.026a239.345 239.345 0 0 0-31.273 34.999c-2.825 3.868-5.525 8.098-9.977 10.324.19-2.115.08-4.341 1.421-6.11a218.495 218.495 0 0 1 39.719-48.732ZM1178.387 1385.016c3.934-3.853 8.035-8.319 13.876-8.935-2.652 6.504-7.83 11.367-12.297 16.608-8.178 9.314-15.534 19.307-22.733 29.378-2.084 2.337-4.136 6.33-7.988 5.005 7.878-15.108 16.916-30.08 29.142-42.055ZM1003.485 1406.17c-6.686-.22-13.67-.97-19.843-3.696a35.011 35.011 0 0 1-2.474-1.225 3.942 3.942 0 0 1-3.375-.716 57.539 57.539 0 0 1-6.11-4.7c-.067-.002-.134-.01-.202-.01 7.199 6.061 12.929 13.639 20.16 19.701 4.707 3.969 9.1 8.318 13.852 12.265.081-.06.16-.129.242-.187l.013-.01a16.065 16.065 0 0 1 4.46-2.254c.048-.02.098-.037.145-.057-.058-.167-.104-.34-.164-.506 8.73-2.952 13.671-11.303 20.176-17.239 2.52-2.701 6.811-5.362 7.05-9.167-10.08 7.194-21.659 8.206-33.93 7.8ZM1070.076 1418.531c3.055-3.68 6.504-7.656 11.572-8.288-2.21 7.767-8.777 13.024-12.992 19.654-4.09 5.336-6.346 11.698-8.81 17.87-.867.222-2.604.632-3.456.837.915-11.287 6.584-21.514 13.686-30.073Z"/><path fill="#4f2a4d" d="M997.885 1413.195c1.278-2.066 5.083-.015 3.757 2.21-1.357 2.053-5.086-.061-3.757-2.21ZM1408.584 1592.713c.94-16.14 2.535-32.272 6.537-47.97a514.077 514.077 0 0 1 43.365-115.146 7.462 7.462 0 0 0 .679-6.172c-3.631-.047-5.417 3.404-7.136 6.062-11.446 17.697-18.896 37.587-26.695 57.1-7.325 19.938-13.686 40.318-17.633 61.235-2.62 13.545-2.605 27.39-3.22 41.124-.002 1.254-.014 2.51-.026 3.767ZM909.702 1438.106c2.384-1.989 5.21-.458 7.609.41 14.003 6.741 26.269 16.434 38.093 26.396 6.82 6.062 15.28 11.76 17.491 21.217-5.446-1.626-8.288-6.93-12.676-10.135-16.56-13.008-33.515-25.495-50.517-37.888ZM1434.616 1592.713c.744-3.996 1.484-7.992 2.432-11.929 7.01-35.267 16.86-70.092 31.526-102.99 2.036-4.879 4.672-9.757 4.546-15.203a29.793 29.793 0 0 0-6.125 7.23c-10.081 17.084-17.192 35.693-23.396 54.447-7.534 22.21-11.173 45.342-14.78 68.445ZM475.106 1592.713h5.113c-4.112-35.63-12.122-70.665-20.951-105.385-1.658-5.177-3.347-10.53-6.71-14.87-.9-.095-2.7-.269-3.6-.348-.299 5.762 3.048 10.893 4.247 16.434 8.15 34.52 15.782 69.208 21.901 104.169ZM497.835 1592.713h6.717c-.358-3.394-.781-6.781-1.288-10.16a496.757 496.757 0 0 0-12.487-55.269c-3.41-11.635-6.346-23.49-11.524-34.494-.837-2.51-3.315-3.756-5.525-4.767 9.819 34.115 18.77 68.64 24.01 103.812.034.292.065.585.097.878ZM939.649 1495.206c4.23-.553 7.704 2.478 11.13 4.467 10.418 6.504 17.254 17.665 20.143 29.41.568 2.637 1.231 8.888-3.079 5.51-3.046-5.399-5.13-11.366-8.935-16.323-4.657-6.899-11.855-11.35-17.649-17.113a5.184 5.184 0 0 1-1.61-5.951ZM1003.331 1511.608c.869-.6 2.605-1.784 3.473-2.368 6.883 12.108 9.898 25.921 13.024 39.371.632 4.484 2.89 9.472-.315 13.545-5.068-7.483-5.842-16.765-8.873-25.085-2.273-8.54-6.346-16.654-7.309-25.463Z"/></svg>