<svg xmlns="http://www.w3.org/2000/svg" viewBox="0 0 2121 1887.494"><path fill="#d0434e" d="M1058.288 190.83c16.089-7.563 34.046-10.398 51.715-10.323 7.463-.166 14.777 1.567 22.098 2.76 12.19 2.198 22.82 8.856 33.648 14.462 12.123 8.018 24.486 16.285 33.582 27.819 4.693 6.086 9.718 11.956 13.723 18.532a189.677 189.677 0 0 1 16.036 37.885c4.76 17.637 7.347 36.293 4.005 54.428a129.701 129.701 0 0 0 26.484-18.823c.804-.995 2.09-.697 3.209-.746 1.783 8.607 4.842 16.857 7.164 25.331 2.388 7.969 5.207 15.879 6.294 24.163.248 4.717.73 9.427.936 14.154 4.304-3.292 8.665-6.526 12.787-10.05 1.849-1.451 3.631-3.168 5.928-3.864 1.741-.514 2.886 1.202 3.441 2.612 2.38 6.16 3.052 12.844 3.184 19.403-.14 11.318.887 22.81-1.907 33.921 1.393-1.335 2.828-3.706 5.124-2.819 2.256 1.153 3.466 3.532 4.495 5.738 5.34 13.3 6.185 27.836 5.879 42.006-.25 8.964-2.687 17.637-4.437 26.376 2.032-.041 4.544-.514 5.946 1.402 3.45 4.552 3.084 10.663 3.175 16.086.274 9.693-3.283 18.855-5.157 28.233-3.49 15.929-10.058 30.904-14.967 46.401-4.08 12.562-7.786 25.232-11.393 37.935 1.252 3.408-.224 6.857-.928 10.2-.954 3.797-.498 7.727-.689 11.583-1.07 12.114-1.003 24.311-2.313 36.409a129.227 129.227 0 0 1-3.83 27.43 112.133 112.133 0 0 1-30.556 53.092c-5.15 5.588-11.982 9.079-18.225 13.242-7.264 4.8-16.07 5.895-24.353 7.893-15.796 3.599-31.634 7.048-47.662 9.395-41.583 6.492-83.365 11.965-125.396 14.394-41.327 2.936-82.927 3.649-124.236-.04-29.925-2.571-59.826-7.853-88.1-18.185-13.74-5.249-26.916-12.736-36.965-23.632-9.826-10.373-16.543-23.39-20.29-37.122-6.244-21.227-6.402-43.548-6.485-65.48.05-13.847.15-27.744 2.305-41.459 1.186-4.204-2.023-7.728-2.727-11.7-2.894-15.124-9.055-29.303-13.55-43.963-2.172-7.189-4.75-14.262-6.6-21.55-3.524-20.597-8.466-41.12-8.598-62.13.1-5.821-.365-11.684.647-17.455 2.073-14.884 6.442-29.817 15.207-42.205a91.532 91.532 0 0 1 14.088-15.92 39.31 39.31 0 0 1-1.783-12.239c.1-6.376-.423-12.827.92-19.113 4.013-23.772 14.17-46.948 30.97-64.46 5.216-5.365 11.484-10.953 19.403-11.094 8.482-10.39 18.847-19.022 29.444-27.164a242.535 242.535 0 0 1 34.486-21.791 219.427 219.427 0 0 1 50.33-17.645c7.472-1.55 14.934-3.168 22.48-4.312 13.06-1.816 26.135-3.93 39.36-3.855 10.64.124 21.56-.664 31.9 2.346 2.172-6.343 6.94-11.277 11.641-15.862 8.781-8.051 18.266-15.531 29.113-20.63Z"/><path fill="#fff" d="M1304.28 422.793Z"/><path fill="#764074" d="M1780.673 1700.024a40.747 40.747 0 0 0 7.53-22.234c.194-4.331.357-8.664.578-12.994.325-6.348-1.858-13.353-5.31-19.27a231.837 231.837 0 0 0-56.147-184.05c-25.037-28.727-58.603-49.175-90.085-70.041q-23.865-15.818-47.855-31.455a31.556 31.556 0 0 0-8.974-7.816q-13.356-7.773-26.815-15.383-5.627-3.63-11.254-7.263c-25.945-16.686-52.21-32.883-78.904-48.342-1.574-1.36-3.145-2.724-4.78-4.005-23.795-18.647-50.127-33.71-74.386-51.758-13.24-9.85-26.94-19.095-40.82-28.026-11.111-7.197-22.053-14.655-33.582-21.21-6.93-3.94-13.502-8.474-20.24-12.728-8.248-5.206-16.883-9.95-24.17-16.51-5.581-4.925-10.813-10.231-16.568-14.95-5.133-4.228-9.13-9.618-14.13-13.98-3.888-3.374-7.569-7.142-12.287-9.394-8.284-3.952-18.019-3.35-26.493-.473-10.737 3.558-21.659 6.568-32.553 9.619-19.022 5.075-37.844 10.896-56.75 16.376a343.31 343.31 0 0 1-39.792 9.644c-17.794 3.466-35.671 6.467-53.673 8.681-24.237 3.234-48.59 7.073-73.117 6.037-8.607-.29-17.213-.349-25.812-.689-22.645-1.6-45.397-3.623-68.092-1.741-3.176-3.001-8.167-4.867-12.355-3.035-9.925 6.062-15.767 16.415-22.885 25.232-5.538 6.858-11.741 13.134-17.049 20.174-4.004 5.357-9.054 9.793-13.598 14.668-1.716 1.816-3.548 3.723-6.086 4.287-10.19 3.018-19.569 8.134-29.013 12.919-31.194 15.704-62.089 32.139-91.45 51.085-13.673 9.138-27.827 17.53-41.79 26.21q-5.927 3.479-11.876 6.913c-18.044 11.94-36.653 23.032-55.389 33.917-4.21 3.159-8.38 6.372-12.56 9.568-2.386 1.848-4.674 4.09-5.653 7.025-4.915 2.94-9.762 6-14.748 8.822-3.238 1.833-6.526 3.582-9.756 5.415a416.214 416.214 0 0 0-9.33 5.473q-15.08 7.505-30.16 15.051c-7.68 3.824-15.447 7.72-22.997 11.933-13.635 15.008-30.013 27.554-47.274 38.483a235.743 235.743 0 0 0-5.305 5.755q-3.457 3.895-6.737 7.941c-.722.891-2.32 2.912-2.478 3.117-.31.413-2.112 2.814-2.56 3.424a246.674 246.674 0 0 0-19.18 30.788q-4.248 8.06-7.95 16.393c-.375.84-2.488 5.795-2.65 6.195q-1.666 4.093-3.22 8.232c-8.543 22.756-14.61 46.36-19.62 70.12-6.847 32.455-11.878 65.262-18.012 97.85Z"/><path fill="#e56324" d="M1201.18 410.786c3.69-1.751 7.52-3.656 11.708-3.681a18.533 18.533 0 0 1 1.85 9.17c-9.08 8.326-16.667 18.143-25.904 26.302-9.86 8.648-18.864 18.217-28.988 26.575-25.009 21.65-51.99 41.401-81.907 55.738a211.76 211.76 0 0 1-35.38 12.57c-14.794 3.905-30.084 5.356-45.307 6.327-8.574.182-17.156-.025-25.738.074a255.83 255.83 0 0 1-56.028-6.36c-19.61-5.099-38.938-11.26-58.656-15.936-7.371-1.791-14.867-3.002-22.28-4.56-.033-1.394-.066-2.787-.066-4.172.066-7.13.771-14.228 1.011-21.343.224-2.462.44-5.215 2.148-7.156 3.425-.812 6.94.266 10.398.365 14.071.705 28.117 2.77 42.238 1.866 8.01-.506 16.037-.249 24.055-.39 7.736-.497 15.489-.663 23.242-.82a465.001 465.001 0 0 0 83.763-12.778c19.594-3.98 38.756-9.76 58.043-14.984 15.174-4.096 30.282-8.515 44.991-14.062 10.448-4.072 20.572-8.922 30.97-13.126 15.497-5.987 30.811-12.488 45.837-19.619Z"/><path fill="#f2844f" d="M1188.834 442.577c9.25-8.143 16.823-17.976 25.903-26.301.945 24.784 7.72 48.788 13.997 72.62 6.276 20.098 13.764 39.874 18.233 60.496 4.851 20.73 8.731 41.75 10.224 63.01.896 11.293 2.48 22.545 2.38 33.896.763 9.428.829 18.88.738 28.333-.166 8.035.514 16.136-.796 24.113-.125-1.51-.282-3.002-.44-4.495-4.278 19.022-7.703 38.234-10.696 57.496-3.118 18.79-7.338 37.37-12.015 55.82-1.575 7.14-4.18 14.03-5.224 21.285-3.623 5.722-7.76 11.103-11.583 16.683-6.145 7.347-12.264 14.776-19.22 21.377-9.172 8.581-17.206 18.424-27.272 26.01-1.974-16.35-7.903-32.03-16.294-46.135-6.642-10.879-16.981-19.07-28.275-24.734a292.26 292.26 0 0 0-28.764-10.962c-9.643-3.084-19.22-6.484-29.204-8.292a127.958 127.958 0 0 0-31.625-2.13c3.599-3.59 7.944-6.294 11.733-9.652 5.63-4.71 13.383-8.424 14.867-16.352-5.82 2.314-10.43 6.775-16.177 9.237-3.3 1.377-6.351 3.342-9.776 4.395-2.487-.879-4.494-2.662-6.725-4.005-3.814-2.405-8.208-3.565-12.412-5.05-10.912-3.457-21.55-8.532-33.192-8.897-3.425.415-6.037-4.005-9.296-2.214-1.218 3.325.241 7.024 2.662 9.412 7.454 7.404 10.58 17.76 16.584 26.21a128.716 128.716 0 0 0-33.79 6.07 156.792 156.792 0 0 0-39.195 19.8c-18.001 13.101-32.362 30.962-42.155 50.895-10.373-8.822-18.756-19.61-27.562-29.925-6.559-8.748-12.935-17.653-18.607-27.014-7.777-11.667-15.107-23.632-22.553-35.514-4.586-8.308-8.84-16.8-13.4-25.116-1.136-10.373-2.993-20.663-3.93-31.061-.572-5.995-.473-12.048-1.41-18.01.68-6.724 2.654-13.233 4.13-19.809 2.686-10.348 5.115-20.762 8.084-31.028 2.081-7.13 3.814-14.353 5.547-21.567a476.65 476.65 0 0 0 10.647-49.684c4.005-20.249 7.065-40.68 9.668-61.152.862-5.912.929-11.907 1.84-17.803 0 1.385.034 2.778.067 4.171 7.413 1.56 14.909 2.77 22.28 4.56 19.718 4.677 39.046 10.838 58.656 15.937a255.83 255.83 0 0 0 56.028 6.36c8.582-.1 17.164.108 25.738-.074 15.223-.97 30.513-2.421 45.306-6.327a211.76 211.76 0 0 0 35.381-12.57c29.917-14.337 56.898-34.088 81.906-55.738 10.125-8.358 19.144-17.91 28.989-26.575Z"/><path fill="#f95939" d="M724.31 604.806c8.014-1.622 16.178.398 24.122 1.617 5.613.845 11.674 2.86 15.016 7.761 6.592 14.245 9.925 29.66 14.13 44.71 3.407 14.618 6.757 29.327 12.138 43.382 1.485 3.922 3.433 7.653 4.851 11.6.937 5.962.838 12.015 1.41 18.01.937 10.398 2.794 20.688 3.93 31.061a26.074 26.074 0 0 0 1.46 12.106c2.802 7.985 3.756 16.443 6.285 24.502q6.903 23.334 14.643 46.401c-.622.199-1.858.597-2.471.796.688 1.51 1.401 3.027 2.031 4.577-7.462 2.057-15.14.423-22.694.042a96.892 96.892 0 0 1-23.88-6.078c-12.546-6.103-24.453-13.79-34.345-23.69a299.238 299.238 0 0 1-20.68-22.562c-11.41-14.444-19.958-30.854-28.209-47.23-9.834-19.237-17.354-39.892-19.9-61.426-.373-10.008-.232-20.173 2.363-29.916 2.33-8.698 5.208-17.38 9.934-25.1 5.406-8.4 11.575-16.591 19.95-22.238a56.428 56.428 0 0 1 19.917-8.325ZM1288.128 619.026a59.374 59.374 0 0 1 25.04-5.912c8.467.713 17.148 2.09 24.727 6.144a48.065 48.065 0 0 1 16.625 17.28c2.662 4.785 5.365 9.685 6.385 15.125 1.426 7.388 3.051 14.751 3.83 22.247.44 10.472 1.236 21.07-.72 31.45-5.167 27.363-17.878 52.886-34.644 74.975a134.304 134.304 0 0 1-16.633 19.07 169.46 169.46 0 0 1-50.945 35.233c-7.81 3.2-15.215 7.346-23.25 9.975-4.743 1.492-9.37 3.375-14.229 4.46 3.897-7.014 6.368-14.684 10.274-21.69a34.065 34.065 0 0 0 2.164-6.17 91.74 91.74 0 0 0-5.614 7.637c1.045-7.255 3.649-14.146 5.224-21.285 4.677-18.45 8.897-37.03 12.015-55.82 2.993-19.262 6.418-38.474 10.696-57.495.158 1.492.315 2.985.44 4.494a60.359 60.359 0 0 1-.771 10.72c1.998-7.221 4.552-14.27 6.592-21.483 3.358-10.224 6.011-20.663 9.494-30.846 3.565-10.547 6.028-21.426 9.195-32.089-.306-.44-.92-1.327-1.227-1.766a72.97 72.97 0 0 1 4.743-5.962c.15.423.44 1.277.589 1.708Z"/><path fill="#e56324" d="M1193.013 630.204c5.724-1.001 11.608-1.949 17.412-.937-.538 1.65-.68 3.938-2.76 4.378-7.638 2.197-15.175 4.867-23.01 6.302-10.73 2.346-21.634 3.714-32.396 5.837-7.131 1.368-14.287 2.82-21.55 3.234-8.284.14-16.56.696-24.851.812-9.486.075-19.072.556-28.416-1.426-3.715-.937-7.587-.58-11.319-1.26-1.625-.431-1.467-2.222-1.517-3.524 5.307.829 9.212-3.358 14.179-4.229 13.499-3.375 27.371-4.95 41.202-6.16 8.557-.482 17.147-.59 25.68-1.493 4.676-.548 9.394-.067 14.079-.514 6.327-.655 12.678-1.004 19.03-1.277 4.75-.266 9.497 1.085 14.237.257ZM845.81 641.978c14.553-3.358 29.544-4.237 44.436-4.494 17.272.315 34.47 1.998 51.658 3.607 6.609.721 13.209 1.492 19.776 2.57 8.715 1.617 17.777.39 26.36 2.894 1.575.158 1.343 1.957 1.79 3.085-2.786.19-5.572.29-8.35.265-7.221-.141-14.344 1.26-21.533 1.667-23.98 1.6-48.018 4.933-72.064 2.537-13.673-1.882-27.463-2.943-41.028-5.572-.091-.846-.174-1.683-.249-2.52q-1.405-.81-2.786-1.593c.514-.937.697-2.305 1.99-2.446Z"/><path fill="#c87147" d="M799.907 762.947c4.56 8.317 8.814 16.808 13.4 25.116 7.446 11.882 14.776 23.847 22.553 35.514 5.672 9.361 12.048 18.266 18.607 27.014 8.806 10.315 17.189 21.103 27.562 29.925 9.793-19.933 24.154-37.794 42.156-50.895a156.792 156.792 0 0 1 39.195-19.8 128.716 128.716 0 0 1 33.789-6.07c13.872-1.51 27.786-2.612 41.732-3.084a127.958 127.958 0 0 1 31.625 2.13c9.984 1.808 19.56 5.208 29.204 8.292a292.26 292.26 0 0 1 28.764 10.962c11.294 5.663 21.634 13.855 28.275 24.734 8.391 14.105 14.32 29.785 16.294 46.136 10.066-7.587 18.1-17.43 27.271-26.011 6.957-6.6 13.077-14.03 19.22-21.377 3.823-5.58 7.96-10.961 11.584-16.683a91.74 91.74 0 0 1 5.614-7.637 34.065 34.065 0 0 1-2.164 6.17c-3.906 7.006-6.377 14.676-10.274 21.69-.423-.049-1.26-.132-1.683-.173-.24 7.977-2.23 15.763-3.532 23.615-1.883 9.726-4.03 19.403-6.377 29.03l-.248.273c-3.052 2.935-4.296 7.081-6.41 10.647-6.451 11.343-12.52 22.968-20.49 33.358-9.095 12.86-18.755 25.356-29.75 36.674-6.783 6.733-13.391 13.648-20.58 19.967-10.174 8.515-20.564 16.84-31.85 23.855-6.044 3.848-11.732 8.259-18.067 11.642-6.882 4.104-14.643 6.277-22.272 8.516-7.413 1.948-14.958 3.864-22.678 3.665-17.686.306-35.563-1.626-52.346-7.364-8.11-3.383-16.567-6.036-24.195-10.472-6.045-3.176-11.559-7.206-17.131-11.128-12.131-8.043-22.77-18.076-33.06-28.316-9.643-9.627-16.774-21.327-24.941-32.147q-8.731-12.5-17.065-25.266c-5.223-7.943-9.718-16.326-14.577-24.485-5.986-9.801-12.246-19.444-17.694-29.56-3.358-6.783-7.53-13.143-10.473-20.125-2.172-5.124-4.767-10.066-6.6-15.323q-7.774-23.047-14.643-46.4c-2.53-8.06-3.483-16.518-6.285-24.503a26.074 26.074 0 0 1-1.46-12.106Z"/><path fill="#e56324" d="M977.923 768.13c3.26-1.792 5.871 2.628 9.296 2.213 11.641.365 22.28 5.44 33.192 8.897 4.204 1.485 8.598 2.645 12.413 5.05 2.23 1.343 4.237 3.126 6.724 4.005 3.425-1.053 6.476-3.018 9.776-4.395 5.746-2.462 10.357-6.923 16.177-9.237-1.484 7.927-9.237 11.642-14.867 16.352-3.79 3.358-8.134 6.061-11.733 9.651-13.946.473-27.86 1.576-41.732 3.085-6.003-8.45-9.13-18.806-16.584-26.21-2.421-2.389-3.88-6.087-2.662-9.412ZM819.824 846.752c.614-.199 1.85-.597 2.47-.796 1.834 5.257 4.429 10.2 6.601 15.323 2.944 6.982 7.114 13.342 10.473 20.125 5.447 10.116 11.708 19.759 17.694 29.56 4.86 8.159 9.354 16.542 14.577 24.485q8.334 12.762 17.065 25.266c8.167 10.82 15.298 22.52 24.942 32.147 10.29 10.24 20.928 20.273 33.059 28.316 5.572 3.922 11.086 7.952 17.13 11.128 7.63 4.436 16.087 7.09 24.196 10.472 16.783 5.738 34.66 7.67 52.346 7.363 7.72.2 15.265-1.716 22.678-3.665 7.629-2.238 15.39-4.41 22.272-8.515 6.335-3.383 12.023-7.794 18.068-11.642 11.285-7.015 21.675-15.34 31.849-23.855 7.189-6.319 13.797-13.234 20.58-19.967 10.995-11.318 20.655-23.814 29.75-36.674 7.97-10.39 14.039-22.015 20.49-33.358 2.114-3.566 3.358-7.712 6.41-10.647a155.206 155.206 0 0 1-5.457 19.834c-4.892 6.642-8.573 14.071-13.449 20.721-9.61 12.902-19.129 25.945-30.232 37.62-4.386 5.025-9.651 9.279-13.466 14.784q-5.46 7.873-10.621 15.937c-5.465 8.308-11.484 16.244-16.634 24.76q-11.467 19.502-23.557 38.63c-10.605 15.523-20.43 31.725-33.225 45.589-4.021 4.552-9.486 7.645-12.96 12.72-6.252 7.935-11.667 16.475-17.645 24.618-3.723 5-7.172 10.555-12.612 13.897-11.127 6.401-26.525 2.894-34.485-6.998a122.792 122.792 0 0 0-15.448-16.17c-3.068-2.686-7.338-2.437-11.144-2.628-9.934-.207-19.552-3.1-28.88-6.277-6.12-2.064-11.742-5.273-17.48-8.184-20.298-10.016-39.037-22.91-56.657-37.064a114.66 114.66 0 0 0-18.988-12.993c.713-10.68 1.832-21.335 1.956-32.04a671.562 671.562 0 0 0-2.918-69.435c-2.156-21.948-6.526-43.615-9.096-65.514-1.974-16.707-5.432-33.225-6.783-50.016-.688-4.063-.15-8.25-.837-12.28-.63-1.55-1.344-3.068-2.032-4.577Z"/><path fill="#f2844f" d="M1193.568 942.373c4.9-6.631 8.557-14.08 13.45-20.721-1.079 6.973-3.085 13.79-3.815 20.837-.987 7.14-1.443 14.362-1.75 21.559.366 10.249-1.144 20.447-.804 30.696-.688 9.95.067 19.9.075 29.859.638 11.899.746 23.83 2.28 35.663a239.71 239.71 0 0 0 15.506 60.563 23.502 23.502 0 0 1 1.525 6.542c.307 3.964 2.264 8.01.59 11.932-3.716 9.602-11.153 17.015-16.891 25.39-8.607 11.194-18.922 20.887-28.524 31.193a346.538 346.538 0 0 1-39.601 34.154c-12.065 8.624-25.224 15.597-38.59 21.965-25.017 11.46-52.554 15.929-79.809 17.877-6.924.83-13.847-.381-20.77-.44-8.575.109-17.04-1.517-25.432-3.1-11.84-2.355-23.026-7.007-34.353-11.045-14.444-5.216-27.338-13.731-41.177-20.249-7.363-3.548-14.42-7.67-21.45-11.815-5.805-3.466-10.954-7.87-16.418-11.816-12.853-9.71-24.892-21.592-30.639-36.973l-1.923-.299c-1.343-6.136 2.106-11.84 3.093-17.77a631.135 631.135 0 0 0 11.393-75.761 114.66 114.66 0 0 1 18.988 12.993c17.62 14.154 36.36 27.048 56.658 37.064 5.737 2.91 11.36 6.12 17.479 8.184 9.328 3.176 18.946 6.07 28.88 6.277 3.806.191 8.076-.058 11.144 2.629a122.792 122.792 0 0 1 15.448 16.169c7.96 9.892 23.358 13.4 34.485 6.998 5.44-3.342 8.89-8.897 12.612-13.897 5.978-8.142 11.393-16.683 17.645-24.618 3.474-5.075 8.939-8.168 12.96-12.72 12.794-13.864 22.62-30.066 33.225-45.588q12.053-19.142 23.557-38.632c5.15-8.515 11.17-16.45 16.634-24.76q5.174-8.058 10.621-15.936c3.815-5.505 9.08-9.76 13.466-14.784 11.103-11.675 20.67-24.682 30.232-37.62Z"/><path fill="#b9603c" d="M1027.31 568.903c.936-.034 1.873-.067 2.819-.092 3.88 8.466 2.985 18.018 3.258 27.065-.149 7.636.481 15.34-.961 22.885-.415.025-1.253.066-1.667.091.406-9.627-.821-19.187-.962-28.806-.556-7.08-1.003-14.178-2.487-21.144Z"/><path fill="#fbbb9e" d="M1133.76 200.614a165.962 165.962 0 0 1 36.127 16.12c5.705 3.474 10.514 8.158 15.588 12.454.15-.382.448-1.145.598-1.534-6.676-7.529-15.075-13.275-23.89-18.018-12.437-6.592-25.432-12.596-39.252-15.49-10-2.093-20.987-2.57-30.498 1.825-.199.804-.398 1.609-.58 2.421 13.79-3.366 28.44-1.94 41.906 2.222Z"/><path fill="#a3343e" d="M1181.611 270.589c-5.713-13.4-14.054-25.879-25.14-35.406a163.677 163.677 0 0 0-25.663-17.487c-5.215-2.935-10.382-6.112-16.17-7.828 6.319 4.892 13.417 8.615 19.934 13.226 8.657 6.144 17.554 12.139 24.917 19.858a101.59 101.59 0 0 1 23.358 41.26 160.942 160.942 0 0 1 6.21 44.668 213.428 213.428 0 0 1-2.271 31.782c-.639 4.868-2.53 9.428-3.566 14.196a11.74 11.74 0 0 0 2.96-4.56c2.786-8.002 3.895-16.476 4.602-24.876.856-10.167 1.484-20.397.755-30.605a140.467 140.467 0 0 0-9.926-44.228Z"/><path fill="#a3343e" d="M1142.176 261.078c-6.94-10.522-16.385-19.113-26.426-26.608-6.252-4.635-12.397-9.619-19.635-12.645-7.123-3.01-14.689-4.738-22.065-7.023-6.627-2.054-13.358-4.752-20.439-4.171a9.66 9.66 0 0 0-4.494 1.542c3.665.141 7.396-.331 11.003.622 5.365 1.36 10.555 3.35 15.846 5.008 8.73 2.91 18.026 4.685 25.87 9.76a223.403 223.403 0 0 1 18.126 13.424c17.371 14.096 30.671 33.665 35.73 55.588 3.664 14.353 3.5 29.286 2.702 43.947-.784 14.402-2.371 28.946-7.255 42.636 2.902-3.176 3.682-7.529 4.71-11.559 2.661-11.774 3.756-23.83 4.436-35.862.008-11.169.804-22.454-1.36-33.49a102.964 102.964 0 0 0-16.75-41.169Z"/><path fill="#a3343e" d="M1124.39 276.028c-4.129-5.506-7.752-11.435-12.603-16.352-7.363-7.504-15.663-14.295-25.299-18.656a175.18 175.18 0 0 0-34.61-14.187c-9.416-2.694-19.618-4.022-29.178-1.12.074.821.149 1.642.24 2.463 5.979.498 12.046-.263 17.96 1.111 16.96 3.94 32.935 11.078 48.466 18.74a90.576 90.576 0 0 1 18.897 14.344c4.79 4.708 8.59 10.24 12.695 15.506 6.152 9.494 10.09 20.282 12.686 31.244a157.173 157.173 0 0 1-.182 40.148c-1.65 8.068-3.163 16.17-5.399 24.113-2.055 7.304-3.904 14.668-6.4 21.849-1.275 3.665-2.886 7.23-3.7 11.044-2.039 4.577-4.551 9.295-4.7 14.395 3.64-2.886 5.074-7.546 6.152-11.882a130.317 130.317 0 0 0 7.197-18.425c5.523-17.525 10.93-35.414 11.766-53.913a68.89 68.89 0 0 0-.033-16.426c-.638-15.572-5.92-30.73-13.955-43.996ZM999.764 259.204c3.615 2.761 7.098 6.045 11.634 7.197-3.989-3.706-8.607-6.65-12.513-10.447-5.829-4.95-10.837-11.136-18.026-14.204-4.694-1.974-9.362-4.552-14.569-4.668 5.564 3.905 12.297 5.663 17.902 9.51 5.514 3.781 10.307 8.5 15.572 12.612Z"/><path fill="#a3343e" d="M1083.959 295.216c-6.17-11.037-15.323-20.025-24.892-28.135-9.942-8.574-21.194-15.397-32.164-22.537-3.424-2.081-6.849-4.394-10.862-5.116 3.143 3.682 7.612 5.771 11.426 8.649 5.564 4.195 11.666 7.595 17.263 11.75 12.015 8.481 23.438 18.072 32.654 29.576 9.371 11.697 15.016 25.862 20.132 39.842 1.99 5.323 3.143 10.904 5.033 16.26-.746-6.393-2.951-12.496-4.9-18.59-3.872-10.846-8.06-21.633-13.69-31.7Z"/><path fill="#fbbb9e" d="M1047.699 282.595c5.124 4.86 9.394 10.514 13.574 16.202.754-.298 1.525-.588 2.296-.887-3.043-7.33-8.366-13.391-13.78-19.071-7.96-8.093-16.22-16.003-25.548-22.512-4.9-2.985-9.693-6.526-15.397-7.778.895 4.386 5.194 6.454 8.474 8.864a314.792 314.792 0 0 1 30.38 25.182ZM963.38 298.839c-3.922-9.411-7.82-18.864-12.803-27.778-2.33-3.913-4.602-7.984-7.943-11.144-.863-.78-2.239-1.741-3.267-.671 2.57 5 6.078 9.469 8.466 14.585a369.937 369.937 0 0 1 30.34 81.525c.82-.547 2.595-.689 1.973-2.065a324.675 324.675 0 0 0-16.766-54.452Z"/><path fill="#a3343e" d="M1031.585 376.37c-.124-15.904-.597-32.073-5.257-47.405-2.562-8.209-6.791-15.746-10.763-23.325-6.011-11.16-14.406-20.847-23.797-29.261-3.384-3.032-7.396-5.266-10.887-8.168-3.375-2.687-5.813-6.376-9.395-8.822a102.897 102.897 0 0 0 15.912 16.384c3.49 2.877 6.26 6.468 9.304 9.784a96.865 96.865 0 0 1 15.173 20.49c5.059 9.75 10.398 19.585 12.62 30.447 3.54 15.804 3.865 32.12 3.118 48.208-.73 15.746-2.703 31.501-6.907 46.741-3.25 12.853-7.52 25.58-14.444 36.949-1.916 3.051-4.503 5.596-6.576 8.524a10.714 10.714 0 0 0 5.987-4.047c4.933-7.28 9.494-14.917 12.446-23.217 2.877-8.648 5.63-17.363 7.811-26.219a243.015 243.015 0 0 0 5.655-47.064ZM953.488 364.36a499.396 499.396 0 0 0-16.518-47.329c-5.439-13.101-11.534-26.003-19.377-37.86-3.674-5.73-7.82-11.16-11.07-17.148-.547.009-1.634.017-2.173.025 1.875 6.708 6.08 12.383 9.752 18.192a260.365 260.365 0 0 1 20.945 40.365c11.55 28.465 20.257 58.017 27.495 87.851 2.653 10.597 4.354 21.41 6.85 32.048l1.948.166c-1.426-6.89-2.463-13.864-3.815-20.77-3.664-18.748-8.557-37.24-14.037-55.54Z"/><path fill="#fbbb9e" d="M905.437 337.08c5.223 10.97 10.572 22.013 17.901 31.75 2.953 3.922 5.73 8.258 10.133 10.738a23.727 23.727 0 0 0-4.046-6.907c-6.783-8.358-11.65-18.027-16.41-27.612a297.211 297.211 0 0 1-17.877-45.895c-1.998-6.766-3.972-13.607-4.486-20.688-.497.033-1.509.091-2.014.116a25.437 25.437 0 0 0 .016 10.556c3.383 16.658 9.693 32.553 16.783 47.943Z"/><path fill="#a3343e" d="M862.295 320.414c7.363 24.884 19.875 47.885 34.41 69.27 9.677 14.378 19.86 28.507 31.775 41.135 3.068 3.11 6.102 6.443 10.107 8.383-1.426-3.424-4.593-5.514-7.031-8.142-12.546-13.458-23.018-28.657-33.159-43.963a261.974 261.974 0 0 1-35.672-78.764c-2.429-9.17-3.266-18.64-3.64-28.084-2.545 3.175-2.52 7.43-2.38 11.293a124.23 124.23 0 0 0 5.59 28.872ZM1045.108 318.569c-2.894-6.028-7.098-11.302-10.166-17.23a126.969 126.969 0 0 0-7.098-12.131c-4.143-6.27-8.573-12.72-14.85-17.04.812 3.134 3.109 5.506 4.975 8.052 2.76 3.631 5.157 7.52 7.869 11.193a99.726 99.726 0 0 1 5.995 11.468c3.076 6.675 7.362 12.684 10.497 19.345a109.473 109.473 0 0 1 9.917 43.656c1.55 16.758 1.108 33.767-2.372 50.306-2.086 9.92-5.082 19.594-7.777 29.337-2.355 3.955-3.908 8.296-6.244 12.263-2.577 4.379-6.219 8.027-8.432 12.62 7.537-5.804 11.707-14.627 16.069-22.827a175.048 175.048 0 0 0 13.192-55.953c1.178-13.11-.263-26.25-1.177-39.328-.827-11.826-4.976-23.234-10.398-33.731ZM917.734 454.865c-16.85-6.094-32.554-14.925-47.595-24.552a106.754 106.754 0 0 1-18.002-12.686c-8.308-6.285-15.008-14.345-21.716-22.247a93.626 93.626 0 0 1-17.562-31.351c-2.654-7.968-5.182-16.07-6.12-24.444a98.09 98.09 0 0 1 .938-21.269c.961-6.169 3.2-12.08 3.822-18.308l-2.04.166c-.613 1.89-1.26 3.78-1.865 5.68-5.174 15.066-6.286 31.749-1.982 47.172 2.595 9.742 5.77 19.427 10.705 28.258 5.688 10.937 14.146 20.017 22.313 29.113 4.85 5.43 10.78 9.718 16.36 14.353 6.003 5.008 13.005 8.548 19.535 12.777a211.358 211.358 0 0 0 31.467 16.667c6.667 2.918 13.79 4.56 20.78 6.534 5.215 1.368 10.348 3.051 15.638 4.146-.125-.456-.382-1.368-.514-1.824-8.01-2.861-16.136-5.374-24.162-8.185Z"/><path fill="#fbbb9e" d="M866.183 397.768a14.562 14.562 0 0 0 6.816 4.096 27.719 27.719 0 0 0-3.358-4.22c-9.122-8.96-14.386-20.862-18.864-32.587-5.207-14.394-9.428-29.253-11.21-44.485-.888-6.451-.067-12.944-.324-19.42-3.4 2.977-3.333 7.786-3.457 11.932-.183 14.959 4.104 29.502 8.565 43.64 5.14 14.618 11.085 29.476 21.832 41.044Z"/><path fill="#a3343e" d="M814.442 413.83c-15.223-20.357-22.636-46.178-21.425-71.492 1.567-3.533.787-7.504 1.79-11.161a31.696 31.696 0 0 0 1.394-7.272c-2.024 1.733-4.08 4.055-3.673 6.932-2.123 12.006-3.21 24.427-1.128 36.534a115.845 115.845 0 0 0 19.245 46.997 107.805 107.805 0 0 0 24.967 26.402c7.172 5.348 15.356 9.046 23.324 13.034a33.705 33.705 0 0 0 5.747 2.446c3.06 2.256 6.708 3.441 10.14 5a23.511 23.511 0 0 0 7.446 2.314c-4.676-3.914-10.563-5.912-15.945-8.632-20.05-9.56-38.913-22.81-51.882-41.103ZM1230.69 335.945c-2.072 6.45-2.96 13.217-5.248 19.61a243.874 243.874 0 0 1-22.206 46.052c1.335-.563 2.795-1.053 3.574-2.38 5.307-7.089 9.52-14.925 13.79-22.66 6.973-12.48 12.155-26.493 11.89-40.962-.448.083-1.352.257-1.8.34ZM1230.367 417.461a44.035 44.035 0 0 0 8.5-11.103 241.734 241.734 0 0 0 13.672-29.344c2.96-7.653 6.086-15.556 5.722-23.914-.514.042-1.55.108-2.073.141-3.533 16.111-9.453 31.559-16.418 46.468a66.358 66.358 0 0 1-11.028 17.13c.406.158 1.219.465 1.625.622ZM1085.195 357.457c-2.156-8.64-7.148-16.144-11.476-23.797a170.98 170.98 0 0 0-11.401-16.808 26.985 26.985 0 0 0-3.674-3.922c.904 4.121 3.715 7.363 6.012 10.771 4.643 6.625 8.424 13.798 12.255 20.904 2.77 5.09 4.254 10.721 6.451 16.053 2.852 12.155 5.36 24.485 5.514 37.04.096 7.765.431 15.538-.19 23.283a127.506 127.506 0 0 1-5.954 26.334c-1.783 2.828-3.773 5.763-3.873 9.229a21.153 21.153 0 0 0 5.465-6.866 89.908 89.908 0 0 0 6.633-17.056c2.96-11.376 2.363-23.233 2.081-34.875a129.2 129.2 0 0 0-7.843-40.29ZM1270.317 398.108c1.55-4.477 3.118-9.129 2.629-13.946-.39-.017-1.17-.042-1.56-.058-1.591 3.756-2.71 7.686-4.17 11.492-3.773 10.082-8.988 19.535-14.295 28.88-8.242 14.52-18.532 27.728-28.515 41.045 4.825-2.729 8.092-7.322 11.542-11.518 7.462-9.486 14.933-19.021 21.094-29.419 4.984-8.524 9.967-17.13 13.275-26.476ZM802.295 465.015c-5.348-3.798-8.665-9.61-13.209-14.229-5.605-5.614-9.85-12.348-14.195-18.93-5.138-7.785-7.87-16.833-11.816-25.232a40.384 40.384 0 0 0 .108 7.288c2.537 11.625 8.341 22.23 15.19 31.866 3.483 5.016 8.3 8.864 12.206 13.524a40.75 40.75 0 0 0 7.968 7.744 106.632 106.632 0 0 0 20.265 11.152c6.285 3.06 13.35 6.692 20.481 4.37v-1.252c-7.537-.555-14.287-4.46-21.194-7.197-5.721-2.164-10.82-5.614-15.804-9.104ZM1282.373 455.67c5.514-9.113 10.622-18.79 12.454-29.395l-2.271-.132a160.567 160.567 0 0 1-18.25 35.514c-10.481 14.925-22.82 28.424-34.801 42.13l.622 1.808a204.322 204.322 0 0 0 16.318-17.04c9.196-10.497 18.648-20.904 25.928-32.885ZM770.936 460.753c-9.337 15.373-12.447 33.631-12.82 51.376-.199 6.65.954 13.225.739 19.883.779 6.26.837 12.629 2.338 18.79-.133 6.193 1.824 12.147 3.59 18.01.473.09 1.426.265 1.907.348a203.848 203.848 0 0 1-3.98-22.115l-.265.324c-.556-3.392-.058-6.89-.863-10.266-.365-9.817-.447-19.66-.124-29.477 1.451-15.995 5-32.255 13.59-46.036 1.485-2.703 4.494-4.942 3.765-8.35-3.5 1.41-6.004 4.337-7.877 7.513Z"/><path fill="#a3343e" d="M837.245 453.912c-10.29-3.59-20.58-7.802-29.278-14.51a59.016 59.016 0 0 1-13.259-14.959 114.551 114.551 0 0 1-16.326-44.179c-.863-5.107.306-10.199.364-15.306a12.209 12.209 0 0 0-2.388 5.688c-1.948 11.152.818 22.458 4.437 32.951 3.913 11.348 9.519 22.322 17.363 31.501 6.683 7.91 16.011 12.943 25.447 16.849a76.863 76.863 0 0 0 12.686 4.063 26.327 26.327 0 0 0 8.3 1.716c-.812-3.366-4.593-3.333-7.346-3.814ZM802.386 483c-3.582 3.607-5.953 8.2-8.05 12.786-6.394 14.718-8.782 31.02-7.92 46.997.556 9.785 1.302 19.718 4.155 29.13.646 3.665 1.707 7.479 4.635 10.016.547-3.889-1.236-7.504-2.645-11.003-4.86-24.975-4.37-51.7 5.662-75.398 1.95-4.9 5.117-9.129 7.604-13.74-1.202.183-2.603.158-3.44 1.212ZM1303.625 495.885a207.457 207.457 0 0 1-12.371 21.65c-4.785 7.222-10.846 13.466-16.716 19.8-4.735 4.52-9.403 9.196-14.768 12.97a242.3 242.3 0 0 0-3.607 1.798c.008.655.025 1.974.025 2.629a51.59 51.59 0 0 0 4.585-2.438 204.965 204.965 0 0 0 20.895-18.607c11.858-11.824 22.761-25.862 26.21-42.595a14.126 14.126 0 0 0-4.253 4.793ZM818.34 509.774c-6.086 15.845-8.226 32.819-10.183 49.576-.995 10.398-2.28 20.896-1.401 31.343.48 0 1.46-.008 1.94-.016.017-2.695.025-5.398.2-8.085a458.432 458.432 0 0 1 6.525-49.958c2.164-10.879 4.71-21.865 10.05-31.691-4.18.995-5.655 5.323-7.131 8.83Z"/><path fill="#fbbb9e" d="M926.796 581.025c5.821-2.405 12.338-2.43 18.55-2.106a170.546 170.546 0 0 1 28.374 4.842c4.353 1.178 8.772 2.438 12.686 4.768 1.75 1.111 3.74 2.455 4.088 4.685-1.128 1.534-2.952.066-4.295-.365-7.52-4.063-16.144-5-24.453-6.327-12.321-1.666-24.809-2.96-37.238-1.84.15-1.51.68-3.151 2.288-3.657Z"/><path fill="#453730" d="M1090.095 599.872c13.156-5.22 27.496-6.086 41.475-5.887 24.984 1.236 49.942 5.862 73.333 14.834 10.473 4.395 21.177 8.906 29.8 16.484 1.261 1.26 3.293 2.173 3.525 4.146-10.1.125-20.232.05-30.348.373-14.237 1.12-28.458 2.446-42.728 3.143-12.197.671-24.311 2.288-36.484 3.316-9.593.855-19.212 1.659-28.698 3.384-9.966 1.965-19.891 4.087-29.833 6.135-2.67.357-6.045 1.253-8.16-.961-1.641-2.322-1.517-5.324-1.932-8.01-.854-5.614.183-11.36 2.015-16.667.332-1.393 1.717-1.981 2.762-2.77-.722 6.079-1.518 12.198-.614 18.326a66.855 66.855 0 0 1 4.196-15.183 39.95 39.95 0 0 1 21.69-20.663Z"/><path fill="#7e7571" d="M911.54 604.491a125.88 125.88 0 0 1 30.34 0c-10.117.083-20.233.133-30.34 0Z"/><path fill="#453730" d="M890.652 607.932a106.193 106.193 0 0 1 20.887-3.441c10.108.133 20.224.083 30.34 0a170.366 170.366 0 0 1 28.748 4.627 37.928 37.928 0 0 1 20.547 14.004 44.021 44.021 0 0 1-.19-6.525 3.357 3.357 0 0 1 3.15 2.33c1.493 3.657 1.26 7.695 1.957 11.526.522-2.712.48-5.49.829-8.218.738.282 1.46.614 2.18.97 1.22 3.185.739 6.7.598 10.025a67.013 67.013 0 0 1-2.902 14.287c-5.589 1.584-11.385.498-17.057.125-14.834-1.692-29.725-2.986-44.65-3.433-12.704-.83-25.457-.307-38.16-1.195-18.258-.198-36.542-.033-54.742 1.476a70.548 70.548 0 0 1-11.617-.298c.042-2.969 2.595-4.701 4.32-6.766 5.481-6.285 12.736-10.572 19.702-15 11.052-6.924 23.542-11.135 36.06-14.494Z"/><path fill="#fbbb9e" d="M714.825 636.779c2.836-.1 5.82-.34 8.482.879 4.95 2.164 9.105 5.73 13.043 9.345 7.438 7.09 14.072 15.522 17.073 25.489-.572.074-1.724.224-2.305.298a80.41 80.41 0 0 0-27.694-29.502 51.108 51.108 0 0 0-8.59-3.988c-.009-.846-.009-1.692-.009-2.521Z"/><path fill="#b9603c" d="M1223.394 652.185c4.705-1.59 9.146-3.806 13.756-5.646-.987 3.366-4.42 4.684-7.256 6.11a141.57 141.57 0 0 1-19.883 7.53c-3.582 1.11-7.363 1.06-11.07.92.1-.423.299-1.277.398-1.708 7.952-2.62 16.11-4.52 24.055-7.206ZM1054.93 648.454c.795 0 1.6 0 2.42.008.125 15.68 1.65 31.418 5.548 46.633a90.184 90.184 0 0 0 6.418 17.421c-.481-.05-1.427-.157-1.908-.207-6.766-11.526-9.519-24.85-11.641-37.902-1.526-8.565-1.17-17.296-.838-25.953ZM1006.572 649.839c.555.083 1.683.232 2.238.306 2.223 11.924-.613 23.947-3.034 35.605-2.538 11.161-5 22.413-9.22 33.085-.78.132-1.551.273-2.323.423 4.32-11.783 6.277-24.254 8.806-36.5 1.816-10.871 4.354-21.825 3.533-32.92Z"/><path fill="#150f0c" d="M1154.066 651.331c2.852-.721 6.07-.025 8.798 1.086 4.792 2.057 6.376 7.994 5.514 12.762-.846 4.759-3.085 10.082-7.919 11.94-4.13 1.666-9.51-.324-10.713-4.81-1.849-7.147.174-14.991 4.32-20.978ZM902.228 652.592c3.25-1.037 7.156-1.26 9.95 1.044 4.693 3.806 5.315 10.664 3.864 16.161-1.51 5.249-6.617 10.232-12.421 9.096-6.833-1.385-10.15-9.502-8.3-15.78 1.12-4.037 3.3-8.258 6.907-10.521Z"/><path fill="#b9603c" d="M832.66 655.552c6.185 6.7 15.605 7.985 24.087 9.668 2.853.696 6.443.448 8.234 3.217-8.076.174-16.144-1.41-23.88-3.632-4.08-1.31-9.594-4.096-8.441-9.253ZM1156.47 684.764c9.787-.89 19.627-2.662 28.624-6.758.025.962.058 1.94.1 2.919-6.543 4.046-14.047 6.011-21.501 7.545-7.587 1.609-15.771 2.546-23.134-.506-1.352-.34-1.675-1.799-2.355-2.802 6.061-.83 12.182.155 18.267-.398ZM925.627 682.608c3.762-1.023 7.256-2.86 11.078-3.715-.431 1.111-.406 2.637-1.675 3.2-7.736 4.387-16.567 6.468-25.29 7.837-7.338 1.21-15.058 1.07-21.957-1.999 1.667-3.217 5.365-2.28 8.325-2.239a90.82 90.82 0 0 0 29.52-3.084Z"/><path fill="#fbbb9e" d="M1133.22 701.837c15.033.373 30.54 1.434 45.1-3.093-.075 1.252.804 2.985-.614 3.748-4.386 2.852-9.784 3.383-14.818 4.245a177.641 177.641 0 0 1-28.847 1.766c-2.587-.166-5.281-.232-7.695-1.269-1.509-.621-1.716-3.283-.248-4.046 2.081-1.368 4.726-1.235 7.122-1.351ZM1029.955 709.365c1.301.133 2.86-.248 3.946.714a13.293 13.293 0 0 1 1.576 5.223c1.31 10.183-.498 20.473.73 30.663a16.33 16.33 0 0 1 .1 4.403c-.722.63-1.535 1.145-2.298 1.709a25.437 25.437 0 0 1-3.408-10.357 147.12 147.12 0 0 1-.647-32.355ZM874.102 713.039c10.862.29 21.5 2.653 32.18 4.469 3.831.746 7.77 1.26 11.393 2.81 1.451.573 1.974 2.182 2.828 3.367a21.773 21.773 0 0 1-5.348-.1c-10.788-1.923-21.766-2.644-32.512-4.875a32.546 32.546 0 0 1-8.79-3.424c.067-.564.19-1.683.249-2.247Z"/><path fill="#f95939" d="M1150.12 721.347c8.954-1.68 18.075-.166 26.881 1.559 11.285 2.388 20.522 10.705 25.763 20.763 8.98 16.973 11.376 38.208 3.316 55.994a49.743 49.743 0 0 1-28.258 27.388c-9.12 4.22-19.602 3.748-29.146 1.36-8.466-2.388-16.807-6.277-22.802-12.886-5.953-6.766-11.99-13.889-14.618-22.678-2.903-8.035-2.944-16.708-2.347-25.124a66.055 66.055 0 0 1 6.235-19.9c6.567-13.74 20.026-23.67 34.975-26.476ZM885.636 731.513c5.482-.985 11.003-.423 16.467.224 13.242 1.79 24.917 9.519 34.18 18.814 9.377 9.286 14.618 22.852 13.175 36.053-1.186 9.883-2.853 20.049-8.027 28.739-7.156 12.57-18.971 23.217-33.382 26.301-7.181 1.526-14.586 3.01-21.932 1.94-9.163-.97-18.3-4.062-25.564-9.85-8.756-7.438-14.76-17.653-19.021-28.2-3.308-7.87-3.076-16.741-1.227-24.934 2.247-10.05 7.371-19.17 13.018-27.678a50.343 50.343 0 0 1 32.313-21.41Z"/><path fill="#b9603c" d="M798.14 758.942c.971 2.007 1.933 4.022 2.737 6.111 6.012 29.137 15.033 57.57 25.539 85.389 2.794 6.882 6.832 13.159 10.025 19.859 4.834 9.942 9.983 19.734 15.315 29.427 12.47 24.246 27.777 46.915 44.004 68.78a164.782 164.782 0 0 0 12.537 16.493c6.053 6.65 11.8 13.624 18.649 19.494 4.502 3.79 8.722 7.985 13.772 11.095 8.168 5.14 16.103 10.671 24.668 15.157 5.904 3.524 12.413 5.804 18.607 8.748a130.457 130.457 0 0 0 39.353 10.414c4.502.639 8.98 1.733 13.557 1.816 2.297-.464 4.345-1.899 6.758-1.924 23.167-1.16 45.588-10.314 63.872-24.419 11.36-8.11 22.653-16.442 32.611-26.26 11.302-11.94 23.35-23.275 33.068-36.6 9.585-13.375 18.963-27.015 26.07-41.898 6.392-12.994 10.016-27.081 14.883-40.663 4.287-11.775 6.343-24.196 10.48-36.011a7.34 7.34 0 0 1 2.662-3.383c.647 5.77-1.31 11.376-2.512 16.948-2.645 9.933-6.12 19.651-8.383 29.693-2.131 7.139-5.066 14.03-6.965 21.243-1.526 5.987-4.328 11.526-6.874 17.131-3.905 7.828-7.421 15.929-12.554 23.068-4.56 6.46-8.88 13.134-14.195 19.013-8.972 10.083-17.554 20.53-27.255 29.942-10.904 11.65-23.732 21.243-36.683 30.464-6.791 4.983-13.607 10.099-21.401 13.424-14.18 6.708-29.229 12.944-45.174 12.985-4.154-.058-8.25.721-12.38.945a121.045 121.045 0 0 1-30.514-4.494c-13.308-2.189-25.406-8.424-37.62-13.797-8.358-3.657-15.696-9.146-23.407-13.922A137.781 137.781 0 0 1 908.256 995a116.163 116.163 0 0 1-14.56-17.802c-9.959-13.441-18.707-27.703-28.018-41.575-6.733-9.752-11.41-20.68-17.007-31.07-9.9-19.966-19.784-39.974-28.142-60.646a321.044 321.044 0 0 1-16.003-48.565c-2.306-10.008-5.05-19.95-6.443-30.149-.091-2.09-.025-4.17.058-6.252Z"/><path fill="#a3343e" d="M1332.273 655.41c-5.82.954-10.605 4.727-14.95 8.475a144.196 144.196 0 0 0-28.474 35.356 216.989 216.989 0 0 0-17.554 37.935c-3.192 9.18-4.734 18.822-5.854 28.441.655-.025 1.974-.091 2.637-.124 1.791-9.56 3.781-19.138 7.347-28.217a196.967 196.967 0 0 1 21.633-41.426 182.469 182.469 0 0 1 28.234-31.467c3.026-2.745 6.79-4.503 9.817-7.23.34-1.41-1.766-2.074-2.836-1.742ZM764.833 739.58c-5.697-15.729-11.46-31.5-19.146-46.375-4.875-9.08-10.381-18.043-17.91-25.166-4.76-4.42-11.252-8.341-17.985-6.517.033.895.075 1.791.116 2.695a32.697 32.697 0 0 1 13.632 8.034c10.207 9.926 17.553 22.355 23.822 35.025 10.655 22.023 18.358 45.315 25.962 68.507a87.376 87.376 0 0 0 2.496 11.642c.107.936 1.417 2.545 2.321 1.459.937-4.478-.663-8.989-2.048-13.201-3.043-12.239-7.13-24.195-11.26-36.102Z"/><path fill="#b95d38" d="M1083.039 752.168c-6.824 9.867-17.214 16.227-27.015 22.744-4.154 2.637-8.274 5.719-13.234 6.633-4.567.843-8.814-1.41-13.076-2.578a215.418 215.418 0 0 0-36.608-8.89c-4.088-.853-8.416-1.55-11.982-3.838-1.484-1.808-1.882-4.196-2.993-6.202a21.158 21.158 0 0 0-2.72-.705c-1.467 4.27-.356 9.8 3.814 12.114 7.57 3.989 16.294 4.279 24.478 6.21 4.925 1.261 10.14 2.007 14.726 4.246 1.036 4.992.58 10.149 1.244 15.199-.506 11.998.307 24.021-.506 36.003-.39 7.13-.49 14.278-.174 21.41.497-.083 1.484-.258 1.981-.34 2.049-13.657 3.425-27.505 2.894-41.327a166.166 166.166 0 0 0-1.119-30.05 26.639 26.639 0 0 1 4.726 1.112c1.85 1.061 3.375 2.852 5.589 3.192 4.677.846 9.46.357 14.138-.224-.24 10.722.887 21.401 2.197 32.023 1.02 7.77.937 15.663 2.462 23.366.772 3.997.407 8.317 2.289 12.032a13.069 13.069 0 0 0 3.217-.075c1.186-3.748.183-7.678-.298-11.45-3.068-19.205-2.878-38.757-5.514-58.002 8.026-6.268 16.724-11.592 24.8-17.778 4.412-3.764 8.475-8.905 8.715-14.933-.514.025-1.526.083-2.031.108Z"/><path fill="#fbbb9e" d="M1039.357 902.44a157.465 157.465 0 0 0 18.798-3.732l.332 2.306c-6.277 3.466-13.417 4.676-20.382 5.928-7.437 1.236-15.082 2.14-22.562.788.133-1.028.282-2.057.432-3.06 7.71-1.46 15.598-1.327 23.382-2.23Z"/><path fill="#b9603c" d="M1063.288 908.17c3.684-1.108 7.321-3.624 11.318-2.322-1.874 3.88-6.17 5.323-9.726 7.197-7.015 3.143-13.881 6.949-21.518 8.366-9.884 1.982-20.066 1.874-30.05.821-5.936-.68-11.442-3.084-16.848-5.464.945-.904 1.741-2.371 3.283-2.123 3.6.224 7.19.083 10.796.042 8.707 1.45 17.57.705 26.327.124 9.162-.44 17.728-4.03 26.418-6.642Z"/><path fill="#4f2a4d" d="M1237.282 1150.19c3.267 2.339 6.037 5.365 9.66 7.197-1.707-4.353-5.588-7.313-8.996-10.298-1.484-1.567-3.673-1.277-5.597-1.111a26.357 26.357 0 0 0 4.933 4.212Z"/><path fill="#4f2a4d" d="M911.374 1298.663c7.272 2.562 14.668 4.735 22.006 7.106 18.806 5.697 38.383 8.051 57.71 11.219 10.05 1.401 20.117 2.869 30.274 3.176 8.557.224 17.123 1.07 25.688.44a217.993 217.993 0 0 0 26.053-2.746c11.136-1.948 22.355-3.681 33.267-6.691 22.595-6.675 44.386-16.46 63.656-30.1 20.812-13.133 38.648-30.704 52.901-50.703 8.723-12.413 18.002-24.528 25.058-38.002 3.001-7.62 7.513-14.585 9.9-22.446 1.783-6.41 3.517-13.134 2.082-19.792-.506-.008-1.518-.017-2.023-.025-.066 2.869.249 5.798-.349 8.632a71.21 71.21 0 0 1-7.147 20.348c-3.466 6.045-5.925 12.588-9.701 18.466-4.52 7.035-9.18 13.971-14.047 20.762q-7.326 10.82-15.29 21.21c-20.87 25.796-48.673 45.473-78.938 58.764a213.055 213.055 0 0 1-46.624 13.6c-18.458 3.515-37.273 5.52-56.11 4.717a332.467 332.467 0 0 1-33.931-2.803c-18.15-2.81-36.484-4.842-54.294-9.502-7.729-2.065-15.282-4.693-22.936-7.015-7.794-2.338-15.157-5.837-22.678-8.897-6.351-2.587-12.394-5.813-18.59-8.715a114.76 114.76 0 0 1-18.184-10.024c-5.273-3.69-11.227-6.294-16.41-10.116-11.807-8.798-24.792-16.401-34.377-27.794-5.506-5.141-10.605-10.738-16.642-15.282a5.137 5.137 0 0 0-1.99-5.788 19.654 19.654 0 0 0-3.018 1.037 47.968 47.968 0 0 0 3.433 3.449c-1.136.274-2.256.564-3.375.87 1.924 3.724 5.356 6.228 8.184 9.205 4.32 4.527 8.952 8.737 13.292 13.25 6.165 6.41 13.922 10.953 20.961 16.335 6.9 4.403 13.176 9.76 20.48 13.532 5.573 2.844 10.407 6.907 16.02 9.685a498.687 498.687 0 0 0 45.689 20.638Z"/><path fill="#4f2a4d" d="M1237.97 1174.676a16.203 16.203 0 0 0-3.913-4.635c-3.143-2.396-6.733-5.224-10.962-4.08a36.42 36.42 0 0 0 6.659 4.212c2.744 1.485 5.24 3.458 8.217 4.503ZM1221.346 1183.648c-2.28-1.302-4.86-3.093-7.562-1.775a53.332 53.332 0 0 0 18.35 8.49c-3.151-2.901-7.165-4.526-10.788-6.716ZM1214.762 1196.798c-4.321-2.838-8.765-6.003-14.08-6.509 0 .572-.016 1.725-.016 2.305 7.28 3.06 13.78 7.62 20.82 11.136-.812-3.424-4.029-5.161-6.724-6.932ZM813.008 1201.881c2.23-3.391 4.958-6.467 6.725-10.132a13.96 13.96 0 0 0-4.445 4.054 95.497 95.497 0 0 0-7.587 12.455 27.78 27.78 0 0 0 5.307-6.377ZM812.452 1221.425c3.59-2.985 5.465-7.38 8.251-11.02 1.957-2.96 5.008-5.622 4.867-9.469-3.35 1.708-4.97 5.225-6.783 8.308-2.316 3.94-4.817 7.828-6.335 12.18ZM830.006 1222.147c2.015-3.077 4.619-5.813 6.095-9.204a58.658 58.658 0 0 1-.647-.821c-3.524 1.525-5.265 5.199-7.264 8.242-2.147 3.822-5.04 7.38-5.937 11.766 3.5-2.53 5.24-6.609 7.753-9.984ZM838.538 1232.387a78.993 78.993 0 0 0 6.236-10.141c-.605-.033-1.8-.091-2.405-.124-3.946 6.7-8.001 13.416-10.994 20.613 2.943-3.043 4.825-6.874 7.163-10.348ZM1303.584 1281.126c6.409-5.423 13.092-10.63 18.648-16.965a15.275 15.275 0 0 0 3.98-12.156c-.846 0-1.675.017-2.496.041a21.925 21.925 0 0 1-3.922 7.986c-6.103 7.678-13.681 13.955-20.754 20.696-4.619 4.47-9.826 8.333-14.204 13.043 1.327-.141 2.81-.05 3.905-.97 5.183-3.59 9.942-7.728 14.843-11.675ZM1133.196 1280.993c-1.534-4.51-4.615-8.233-6.957-12.313a9.728 9.728 0 0 0-4.652-3.98 49.493 49.493 0 0 0 5.033 8.607c1.89 2.786 3.624 5.862 6.576 7.686ZM700.314 1332.054a227.054 227.054 0 0 1 55.29-28.366c12.902-4.66 26.41-10.448 34.552-22.081a24.944 24.944 0 0 0 1.476-4.353 30.574 30.574 0 0 0-3.21 1.509c-2.918 3.665-6.898 6.293-10.853 8.723-9.934 5.845-20.962 9.386-31.468 14.03-20.82 9.51-41.127 20.945-58.141 36.384a71.878 71.878 0 0 0-14.113 12.844c1.269-.067 2.81.464 3.781-.639 3.425-3.01 7.147-5.688 10.381-8.889 4.238-2.86 8.068-6.301 12.305-9.162ZM978.711 1287.46a80.73 80.73 0 0 0-2.106-.754 46.803 46.803 0 0 0-1.16 17.695c1.823-5.473 2.155-11.302 3.266-16.94ZM1041.016 1288.514c-.547.008-1.634.016-2.181.025.19 3.98.423 8.043 1.8 11.832a75.526 75.526 0 0 0 .381-11.857ZM774.932 1412.708c-6.534-1.882-12.802-5.348-19.776-5.174a39.974 39.974 0 0 0-19.544 5.49c-.016.87-.024 1.757-.024 2.653a60.062 60.062 0 0 1 18.714-4.105c6.758-.149 12.753 3.367 19.063 5.216a119.786 119.786 0 0 0 26.426 4.353c7.927.605 15.995 1.095 23.872-.29l.1-2.736c-4.163.157-8.325.323-12.48.34-12.238-.954-24.56-2.156-36.35-5.747ZM1324.072 1409.458c5.938-2.886 12.737-5.406 16.717-10.945-3.3.273-5.82 2.529-8.615 4.03-3.25 1.857-6.816 3.093-9.967 5.116-17.678 6.641-35.24 13.905-53.614 18.474-11.095 2.802-22.546 3.681-33.707 6.119-12.147 2.662-22.918 9.46-32.404 17.28-2.297 2.123-5.257 3.89-6.285 7.032 3.93-1.236 7.106-3.955 10.489-6.186 6.907-4.668 14.055-9.138 21.882-12.114 10.373-3.864 21.525-4.511 32.313-6.609 22.197-3.723 42.57-13.673 63.191-22.197ZM1062.74 1438.645c-2.919.158-5.398-1.609-7.744-3.076a51.67 51.67 0 0 0-.059 1.658 15.074 15.074 0 0 0 14.61 3.657c8.89-2.239 17.347-5.904 26.029-8.798 4.618-1.84 10.14-3.192 12.86-7.753-9.701 5.05-20.384 7.615-30.795 10.763-4.878 1.475-9.743 3.433-14.9 3.549ZM1462.446 1431.647c-3.516 3.4-7.082 6.78-10.298 10.464-11.023 12.626-20.173 26.738-30.016 40.29-2.07 2.849-4.445 5.48-6.352 8.457-.697 1.742-.166 2.256 1.575 1.543a66.209 66.209 0 0 0 7.09-8.781 402.583 402.583 0 0 1 26.053-33.192c3.98-4.594 8.731-8.574 11.898-13.814 1.07-1.526.614-3.375.05-4.967ZM1326.71 1496.621c-2.563 2.313-5.764 3.698-8.55 5.697-4.933 1.666-9.85 3.4-14.933 4.602-6.676 1.577-13.54 1.99-20.232 3.383-13.814 2.827-25.315 13.59-30.124 26.691 2.977-.257 4.519-3.026 6.318-5.041a45.403 45.403 0 0 1 18.532-14.702c7.364-3.084 15.415-3.748 23.01-6.053a120.319 120.319 0 0 0 21.094-7.976 28.563 28.563 0 0 0 10.216-8.748c.854-.954.53-2.28.63-3.408-2.164 1.658-3.955 3.73-5.962 5.555ZM897.128 1529.473c7.886.896 15.755 2.264 23.706 2.471a32.944 32.944 0 0 0 10.142.838c4.414-.136 9.253-.44 12.744-3.5a13.119 13.119 0 0 0-6.21.191c-5.58 1.045-11.228-.058-16.833-.116-8.483-1.277-16.957-2.578-25.373-4.195-8.839-1.426-18.538-3.397-26.907.696-3.424 1.675-7.33 4.055-8.026 8.16 3.516-1.842 6.66-4.449 10.572-5.498 8.659-2.323 17.537-.042 26.185.953ZM638.068 1557.956c-10.323-5.946-20.812-11.625-30.754-18.2-5.49-3.55-10.299-8.077-15.953-11.369-6.054-3.532-13.31-3.74-20.117-3.416l.564 1.368c3.45.68 6.94 1.219 10.406 1.866a27.079 27.079 0 0 1 11.742 5.779c13.598 11.227 29.842 18.474 45.157 26.965 2.52 1.435 4.825 3.284 7.587 4.287-1.692-3.582-5.431-5.324-8.632-7.28ZM1401.286 1584.44a174.374 174.374 0 0 1-22.239 21.74c-11.94 9.96-25.29 18.956-40.688 22.388v1.966c8.89-.531 17.214-4.478 24.95-8.649a171.61 171.61 0 0 0 35.332-27.628c7.081-6.94 12.313-15.522 16.5-24.453a64.253 64.253 0 0 0-3.034-.198c-3.997 4.651-6.866 10.14-10.821 14.834ZM869.384 1667.167c1.02 10.943 1.994 21.892 2.731 32.857h4.38c-.416-7.077-1.073-14.146-1.638-21.199-1.758-17.645-2.563-35.356-4.121-53.01 5.505 8.044 12.222 15.166 18.1 22.936 5.498 7.247 11.153 14.394 16.153 22.006 3.416 5.15 6.5 10.522 10.107 15.556 1.12 1.276 2.215 3.275 4.23 2.885 1.475.1 2.18-1.625 2.678-2.736 1.4-4.378 2.628-8.814 4.378-13.068 6.012-14.975 12.82-29.61 19.759-44.162a274.576 274.576 0 0 1 14.677-26.078c5.372 7.985 11.177 15.696 15.828 24.146 4.868 8.698 11.045 16.552 16.584 24.817 3.892 5.807 7.347 11.899 11.575 17.488 1.709 2.188 3.317 5.414 6.526 5.373 2.115-.606 3.143-2.778 4.022-4.594 5.265-11.576 9.42-23.615 14.46-35.298 6.999-16.327 12.762-33.275 21.717-48.69 1.675 6.128 2.935 12.372 4.793 18.458 1.932 6.899 4.66 13.532 7.205 20.215 4.552 11.708 8.043 23.79 12.18 35.647 2.09 5.837 3.715 11.931 6.842 17.338a3.658 3.658 0 0 0 5.87.68c2.396-3.2 3.483-7.145 4.801-10.854 4.168-11.726 8.64-23.325 13.516-34.768a182.445 182.445 0 0 1 21.757-38.764c2.438 5.846 4.353 11.9 6.742 17.778 3.598 8.897 7.238 17.786 10.356 26.866 2.661 7.893 7.098 15.074 9.311 23.133 1.51 4.412 2.314 9.262 5.1 13.102 1.924 2.255 5.29 1.127 6.8-1.029 4.717-5.961 8.258-12.753 12.395-19.112 8.417-12.994 15.506-27.015 26.203-38.366 1.79 11.84 3.557 23.698 5.962 35.439 2.594 11.028 5.43 22.056 6.757 33.341.476 4.812.87 9.73 1.761 14.524h6.02c-.586-4.246-.645-8.596-1.065-12.841a199.795 199.795 0 0 0-4.353-29.42c-2.943-11.6-4.676-23.448-7.214-35.131-.945-3.856-1.02-8.126-3.242-11.526-1.542-2.446-5.257-2.264-7.056-.232a120.071 120.071 0 0 0-13.847 16.824c-9.07 12.895-16.832 26.658-25.373 39.9-2.107-6.012-3.706-12.197-6.36-18.001-3.134-6.85-5.232-14.097-7.935-21.111-3.963-10.481-8.472-20.733-12.678-31.111-1.16-2.861-2.148-5.9-4.246-8.234a4.678 4.678 0 0 0-6.79.083 48.494 48.494 0 0 0-5.266 7.14c-4.975 7.851-9.983 15.729-13.947 24.153q-11.38 24.565-20.439 50.107c-3.848-11.69-7.803-23.35-11.534-35.074-3.1-9.718-7.164-19.087-10.365-28.764-1.932-6.352-3.809-12.708-5.754-19.046-.848-2.762-1.501-5.863-3.773-7.836-1.899-.97-4.644-.763-5.953 1.094-2.679 3.309-4.461 7.223-6.426 10.979-5.506 10.671-9.719 21.932-14.32 33.001-6.128 14.204-11.376 28.773-17.546 42.952-6.327-7.927-10.87-17.048-16.923-25.158a219.963 219.963 0 0 1-13.359-20.654c-3.905-6.99-8.888-13.267-13.267-19.942-1.534-1.916-3.242-4.56-6.02-4.378-2.694-.207-4.137 2.413-5.339 4.386-5.506 9.254-11.244 18.416-15.597 28.292-7.81 17.014-15.995 33.988-21.492 51.923-5.771-8.682-11.073-17.665-17.363-25.987-8.91-11.787-18.532-22.985-27.455-34.75-1.666-1.866-3.407-4.76-6.351-3.964-1.99.19-1.65 2.786-1.6 4.237 2.056 15 2.437 30.157 3.731 45.232ZM565.133 1622.524c4.362 10.613 8.01 21.517 12.836 31.948 7.09 14.975 15.348 29.361 23.118 43.988.282.507.552 1.033.821 1.564h2.899c-.648-1.16-1.324-2.306-1.938-3.463-8.78-17.396-17.67-34.8-24.858-52.935-5.531-14.228-11.468-28.316-18.292-41.956a55.837 55.837 0 0 0-1.708-6.07c-2.902 1.816-1.404 5.332-.456 7.878 2.384 6.4 5.116 12.67 7.578 19.046ZM731.914 1636.935c-12.512.157-24.875-1.907-37.296-3.06a9.532 9.532 0 0 0-4.66.29c-2.18-.165-4.395.241-5.854 2.007a78.885 78.885 0 0 0 9.9.116 198.56 198.56 0 0 0 38.74 3.665c10.464-.705 21.4.166 31.26-4.08-.233-.522-.456-1.02-.68-1.509-10.133 3.334-20.92 2.38-31.41 2.571Z"/><path fill="#4f2a4d" d="M1125.02 1638.51c.995 5.465 3.47 10.55 5.439 15.722 3.417 8.97 6.61 18.026 10.572 26.774 2.964 6.329 5.763 12.732 8.805 19.018h5.608c-.723-2.313-1.786-4.562-2.68-6.78-4.237-9.577-8.971-18.921-12.827-28.664-4.088-9.602-8.806-18.906-13.375-28.275-.473-.83-.937-1.634-1.393-2.421-.456.306-1.36.92-1.815 1.227.464 1.41.961 2.802 1.558 4.212ZM1068.237 1688.228c1.966 3.932 3.878 7.901 5.93 11.796h4.406c-2.03-4.952-4.486-9.737-6.803-14.55-7.844-15.347-13.317-31.757-20.373-47.453-1.181-2.628-1.609-6.666-5.1-7.09a29.907 29.907 0 0 0 3.01 9.744c5.572 16.11 11.128 32.338 18.93 47.553ZM952.136 1640.053c8.98 18.607 18.748 36.973 31.078 53.598a21.004 21.004 0 0 0 1.832 6.373h6.202c-7.366-14.452-16.822-27.763-24.7-41.945-3.682-6.675-7.687-13.155-11.452-19.76a5.798 5.798 0 0 0-4.228-2.835 45.249 45.249 0 0 0 .721 4.892ZM1201.528 1691.81c.901 2.717 1.73 5.51 2.75 8.214h5.543c-1.677-7.588-4.394-14.929-6.568-22.385-2.462-7.836-4.51-15.787-7.123-23.573a22.042 22.042 0 0 0-2.86.53c-.175 3.367.63 6.675 1.243 9.975a240.958 240.958 0 0 0 7.015 27.24ZM1123.934 1684.057a152.664 152.664 0 0 0 7.51 15.967h5.015c-1.588-6.501-4.875-12.573-7.467-18.72-3.758-8.909-7.587-17.786-11.667-26.55-1.385.357-3.665.298-2.72 2.388 2.173 9.254 5.78 18.11 9.329 26.915ZM1058.428 1700.024h4.824c-3.47-8.966-8.165-17.4-12.303-26.066-2.935-6.053-5.68-12.197-9.088-17.994-.223-.232-.663-.704-.887-.945-.514 0-1.55.009-2.073.017a88.862 88.862 0 0 0-.149 3.681l.456-.398a237.226 237.226 0 0 0 19.22 41.705ZM953.355 1686.221c2.974 4.643 6.52 8.934 9.128 13.803h5.476a3.198 3.198 0 0 0-.707-.668c-6.866-11.286-13.001-23.06-20.332-34.063-1.036-2.048-4.195-4.361-5.779-1.567.124 2.14 1.46 3.914 2.43 5.771 3.093 5.663 6.294 11.277 9.784 16.724ZM889.218 1674.223c3.814 8.168 7.801 16.277 12.222 24.137q.466.828.931 1.664h5.393a142.365 142.365 0 0 1-3.082-4.964c-4.27-7.189-8.812-14.228-12.71-21.625q-2.917-5.53-6.212-10.82c-.44.025-1.327.083-1.766.107a90.611 90.611 0 0 0 4.776 11.625ZM1039.42 1700.024h5.959c-2.94-7.027-6.206-13.917-9.678-20.702-1.228-2.4-2.853-4.726-5.614-5.356-.14 1.634-.622 3.408.199 4.975 3.046 7.022 5.708 14.233 9.135 21.083ZM1108.85 1696.544c.55 1.16 1.11 2.325 1.69 3.48h6.456a76.613 76.613 0 0 0-4.862-10.13c-2.479-4.95-6.086-9.187-8.698-14.03a16.816 16.816 0 0 0-3.084-1.384 9.011 9.011 0 0 0 .456 5.183l8.043 16.881ZM1186.6 1700.024h5.763c-1.12-4.378-2.12-8.786-3.488-13.098-1.343-4.088-2.106-8.499-4.619-12.08-.68.305-2.03.92-2.703 1.226-.505 4.926 1.161 9.669 2.231 14.411a89.989 89.989 0 0 0 2.816 9.54ZM982.832 1661.752c7.56 12.073 12.741 25.35 18.643 38.272h4.997a413.09 413.09 0 0 1-2.67-5.478c.257-1.086.572-2.147.721-3.217a18.314 18.314 0 0 0-3.946-5.124c-3.55-6.401-7.09-12.811-10.49-19.295-5.43-10.125-11.875-19.63-17.976-29.353-3.085-4.917-5.912-10.017-9.502-14.577-.838-1.526-2.745-.92-4.13-1.037.398 3.035 2.504 5.382 3.88 8.019 6.078 11.06 13.84 21.069 20.473 31.79ZM886.868 1700.024h4.895c-1.543-3.239-3.15-6.446-4.883-9.59-.431-1.294-1.882-1.393-2.935-1.85-.564 3.765 1.425 7.107 2.595 10.556.106.295.22.589.328.884ZM939.916 1700.024h6.17c-2.86-4.007-5.801-7.954-8.701-11.92-.18-.246-.514-.738-.688-.979-.722.058-2.165.19-2.886.249.2 1.21.448 2.438.738 3.665 1.794 2.977 3.541 6.006 5.367 8.985Z"/><path fill="#fff" d="M1028.052 850.688c52.815-3.912 83.621-7.602 86.385-4.492s5.184 6.911-4.146 16.24-34.9 25.225-77.401 24.189c-42.502-1.037-64.962-7.948-77.401-15.55-12.44-7.602-12.094-15.204-3.456-16.24 8.639-1.037 57.36-2.764 76.02-4.147Z"/></svg>