<svg xmlns="http://www.w3.org/2000/svg" fill="none" viewBox="0 0 2000 2000"><path fill="#3A3A3A" d="M1355.81 1003.12C1355.31 1003.12 1354.82 1003.07 1354.33 1002.98C1251.34 981.635 1166.57 972.935 1061.75 972.935C1034.31 972.935 1010.56 960.474 998.203 939.601C987.688 921.816 987.064 901.003 996.364 882.028C991.75 868.341 986.391 853.368 983.855 847.564C982.93 846.897 982.176 846.02 981.656 845.004C981.136 843.989 980.864 842.865 980.863 841.724C980.757 839.87 981.338 838.042 982.495 836.59C983.653 835.138 985.305 834.164 987.136 833.853C993.468 832.832 995.788 838.564 998.251 844.668C999.681 848.201 1001.52 853.08 1003.73 859.281C1007.44 869.687 1010.94 880.274 1011.01 880.37C1011.33 881.313 1011.45 882.312 1011.36 883.302C1011.27 884.293 1010.97 885.254 1010.5 886.126C1002.18 901.279 1002.23 918.091 1010.62 932.283C1020.35 948.722 1039.46 958.539 1061.75 958.539C1167.63 958.539 1253.24 967.323 1357.26 988.882C1359 989.25 1360.55 990.248 1361.6 991.686C1362.65 993.123 1363.13 994.897 1362.94 996.667C1362.76 998.437 1361.94 1000.08 1360.62 1001.27C1359.3 1002.47 1357.59 1003.14 1355.81 1003.15V1003.12Z"/><path fill="#3A3A3A" d="M995.655 852.059C994.228 852.058 992.834 851.634 991.649 850.84C990.464 850.046 989.541 848.918 988.996 847.6C988.452 846.281 988.311 844.831 988.592 843.432C988.872 842.033 989.561 840.749 990.572 839.742L1005.27 825.082C1006.64 823.81 1008.45 823.118 1010.31 823.154C1012.18 823.189 1013.96 823.948 1015.28 825.27C1016.6 826.593 1017.36 828.376 1017.39 830.244C1017.42 832.112 1016.72 833.919 1015.45 835.284L1000.75 849.957C999.397 851.305 997.565 852.061 995.655 852.059Z"/><path fill="#3A3A3A" d="M1041.99 812.392C1040.48 812.392 1039 811.916 1037.78 811.031C1036.55 810.147 1035.63 808.898 1035.15 807.462C1034.67 806.027 1034.66 804.477 1035.11 803.032C1035.56 801.588 1036.45 800.322 1037.67 799.414L1054.49 786.833C1055.25 786.265 1056.11 785.851 1057.03 785.616C1057.94 785.381 1058.9 785.329 1059.83 785.463C1060.77 785.597 1061.67 785.914 1062.49 786.397C1063.3 786.879 1064.01 787.517 1064.58 788.275C1065.15 789.032 1065.56 789.894 1065.8 790.811C1066.03 791.729 1066.09 792.683 1065.95 793.62C1065.82 794.558 1065.5 795.459 1065.02 796.274C1064.54 797.089 1063.9 797.801 1063.14 798.369L1046.32 810.95C1045.07 811.886 1043.55 812.392 1041.99 812.392Z"/><path fill="#3A3A3A" d="M1149.06 731.76C1147.26 731.768 1145.52 731.103 1144.19 729.896C1142.86 728.689 1142.02 727.026 1141.85 725.235C1140.15 707.21 1138.01 684.883 1147.86 665.68C1150.96 659.82 1155.25 654.67 1160.45 650.561C1165.65 646.452 1171.65 643.473 1178.07 641.815C1188.09 639.351 1197.84 640.986 1205.5 646.405C1214.58 652.798 1218.72 662.339 1222.75 671.568C1225.42 677.733 1227.95 683.585 1231.75 687.923C1239.56 696.912 1253.13 700.036 1265.4 701.899C1293.65 706.193 1322.35 706.598 1350.71 703.1C1352.6 702.892 1354.49 703.435 1355.98 704.612C1357.47 705.79 1358.43 707.506 1358.66 709.389C1358.89 711.273 1358.37 713.171 1357.21 714.673C1356.05 716.175 1354.35 717.159 1352.47 717.412C1322.79 721.061 1292.75 720.625 1263.18 716.114C1248.36 713.843 1231.74 709.842 1220.86 697.332C1215.61 691.324 1212.51 684.114 1209.52 677.276C1206.15 669.525 1202.96 662.207 1197.19 658.133C1191.79 654.324 1185.69 654.745 1181.51 655.73C1177.09 656.902 1172.97 658.967 1169.39 661.8C1165.81 664.632 1162.85 668.169 1160.69 672.193C1152.74 687.647 1154.69 707.679 1156.19 723.781C1156.28 724.725 1156.18 725.678 1155.9 726.584C1155.63 727.491 1155.17 728.334 1154.57 729.065C1153.97 729.796 1153.22 730.401 1152.39 730.845C1151.55 731.289 1150.63 731.563 1149.69 731.652C1149.48 731.698 1149.27 731.734 1149.06 731.76Z"/><path fill="#3A3A3A" d="M1181.3 711.884C1180.02 711.885 1178.75 711.541 1177.64 710.888C1176.53 710.235 1175.62 709.297 1174.99 708.171C1172.15 702.91 1170.98 696.902 1171.64 690.956C1172.31 685.01 1174.78 679.41 1178.72 674.909C1179.99 673.475 1181.79 672.606 1183.7 672.493C1185.62 672.38 1187.5 673.033 1188.93 674.308C1190.37 675.583 1191.24 677.375 1191.35 679.291C1191.46 681.206 1190.81 683.088 1189.53 684.522C1187.61 686.801 1186.4 689.601 1186.07 692.566C1185.74 695.532 1186.29 698.53 1187.67 701.178C1188.28 702.275 1188.59 703.513 1188.58 704.768C1188.56 706.024 1188.22 707.253 1187.58 708.335C1186.94 709.416 1186.03 710.313 1184.94 710.935C1183.85 711.558 1182.62 711.885 1181.36 711.884H1181.3Z"/><path fill="#3A3A3A" d="M1086.43 652.883C1047.8 650.644 1009.25 658.452 974.53 675.547C965.085 680.209 955.508 686.014 950.497 695.291C945.486 704.567 947.192 718.122 956.505 723.049C933.218 735.957 914.055 755.187 901.228 778.519C895.22 789.598 893.213 807.599 905.35 811.132C908.835 812.142 912.86 811.541 915.84 813.608C919.878 816.42 919.71 822.38 918.833 827.223C916.501 840.105 912.211 852.854 912.884 865.929C913.557 879.003 920.984 893.039 933.745 895.971C945.293 898.626 957.13 891.224 964.004 881.55C970.877 871.877 974.122 860.221 978.628 849.273C986.474 830.509 998.132 813.579 1012.86 799.554C1027.59 785.53 1045.07 774.717 1064.2 767.8C1091.17 758.186 1128.68 746.23 1149.93 727.051C1142.44 682.721 1156.21 665.765 1160.3 660.55C1102.36 602.329 1084.92 649.435 1086.43 652.883Z"/><path fill="#3A3A3A" d="M938.72 903.741C936.5 903.744 934.286 903.494 932.123 902.996C915.047 899.078 906.431 881.221 905.686 866.296C905.145 855.938 907.356 846.084 909.495 836.567C910.324 832.962 911.105 829.429 911.73 825.932C912.643 820.945 911.73 819.515 911.73 819.503C910.727 819.215 909.695 819.038 908.654 818.974C906.872 818.821 905.106 818.511 903.378 818.049C900.633 817.284 898.103 815.892 895.989 813.981C893.874 812.071 892.232 809.695 891.193 807.042C887.084 797.164 890.124 783.861 894.943 775.053C906.906 753.398 924.058 735.053 944.86 721.663C943.587 719.674 942.597 717.518 941.916 715.258C939.605 707.468 940.42 699.084 944.187 691.885C950.196 680.625 961.287 674.04 971.333 669.053C1005.29 652.296 1042.84 644.161 1080.69 645.368C1083.27 639.094 1087.57 633.678 1093.1 629.746C1105.81 621.07 1128.67 618.499 1165.4 655.45C1166.64 656.697 1167.39 658.353 1167.49 660.108C1167.59 661.863 1167.05 663.595 1165.97 664.979L1165.84 665.148C1161.96 670.087 1150.15 685.108 1157.04 725.832C1157.24 727.028 1157.14 728.255 1156.74 729.4C1156.34 730.544 1155.66 731.57 1154.76 732.382C1134.33 750.803 1100.96 762.52 1074.12 771.929C1071.54 772.834 1069.03 773.715 1066.6 774.572C1048.44 781.158 1031.83 791.439 1017.84 804.765C1003.84 818.091 992.763 834.173 985.297 851.997C984.179 854.724 983.146 857.464 982.052 860.408C978.844 868.964 975.515 877.821 969.867 885.752C963.558 894.608 952.094 903.741 938.72 903.741ZM1073.31 659.704C1040.17 659.706 1007.47 667.337 977.75 682.007C969.759 685.961 961.035 691.032 956.925 698.699C954.985 702.514 954.556 706.921 955.723 711.04C956.346 713.408 957.879 715.434 959.989 716.676C961.139 717.284 962.103 718.191 962.779 719.303C963.455 720.414 963.818 721.687 963.829 722.988C963.84 724.289 963.499 725.568 962.842 726.691C962.185 727.814 961.237 728.738 960.098 729.365C938.015 741.63 919.829 759.861 907.62 781.975C904.015 788.5 902.693 797.08 904.532 801.514C904.749 802.168 905.127 802.757 905.631 803.227C906.135 803.698 906.749 804.034 907.416 804.206C908.353 804.421 909.305 804.566 910.264 804.638C913.722 804.797 917.079 805.849 920.01 807.691C923.963 810.43 928.193 816.271 926.018 828.492C925.333 832.301 924.48 836.074 923.615 839.727C921.608 848.692 919.697 857.176 920.13 865.551C920.646 875.549 926.054 886.797 935.403 888.936C944.043 890.919 953.068 884.562 958.235 877.388C962.789 871.007 965.637 863.4 968.666 855.349C969.747 852.465 970.865 849.485 972.066 846.553C980.316 826.864 992.558 809.099 1008.02 794.38C1023.48 779.66 1041.82 768.304 1061.89 761.03L1069.46 758.362C1093.76 749.842 1123.69 739.351 1142.28 724.222C1137.12 688.941 1145.11 670.447 1150.91 661.398C1132.23 643.746 1116.14 636.079 1105.25 639.768C1097.38 642.424 1094.24 650.211 1093.72 652.242C1093.88 653.942 1093.43 655.641 1092.46 657.048C1091.76 658.063 1090.8 658.879 1089.69 659.418C1088.57 659.957 1087.34 660.2 1086.11 660.125C1081.8 659.844 1077.52 659.704 1073.27 659.704H1073.31Z"/><path fill="#fff" d="M1001.23 707.594C999.55 707.601 997.92 707.02 996.622 705.953C995.324 704.885 994.439 703.397 994.121 701.747C993.803 700.097 994.072 698.387 994.881 696.914C995.69 695.44 996.988 694.296 998.551 693.678C1023.58 683.714 1051.28 682.721 1076.96 690.866C1077.89 691.134 1078.75 691.584 1079.5 692.19C1080.25 692.796 1080.87 693.546 1081.32 694.396C1081.77 695.245 1082.05 696.177 1082.14 697.137C1082.23 698.096 1082.12 699.063 1081.83 699.981C1081.54 700.899 1081.06 701.749 1080.44 702.481C1079.81 703.213 1079.05 703.812 1078.18 704.242C1077.32 704.673 1076.38 704.927 1075.42 704.988C1074.46 705.05 1073.5 704.918 1072.59 704.601C1050.08 697.58 1025.84 698.453 1003.9 707.077C1003.05 707.417 1002.14 707.592 1001.23 707.594Z"/><path fill="#fff" d="M1007.47 730.389C1005.56 730.478 1003.69 729.804 1002.27 728.515C1000.86 727.226 1000.01 725.428 999.921 723.516C999.832 721.603 1000.51 719.734 1001.79 718.319C1003.08 716.904 1004.88 716.058 1006.79 715.969L1029.87 713.782C1030.81 713.693 1031.76 713.79 1032.67 714.069C1033.57 714.347 1034.41 714.801 1035.14 715.405C1035.87 716.009 1036.48 716.75 1036.92 717.587C1037.36 718.424 1037.64 719.34 1037.73 720.283C1037.81 721.226 1037.72 722.177 1037.44 723.082C1037.16 723.988 1036.71 724.829 1036.1 725.559C1035.5 726.289 1034.76 726.892 1033.92 727.336C1033.08 727.779 1032.17 728.053 1031.22 728.142L1008.16 730.329C1007.93 730.361 1007.7 730.381 1007.47 730.389Z"/><path fill="#fff" d="M944.404 795.428C942.924 795.427 941.48 794.971 940.268 794.122C939.056 793.272 938.135 792.071 937.629 790.679C937.124 789.288 937.059 787.775 937.444 786.346C937.828 784.917 938.643 783.64 939.777 782.69C956.423 768.735 976.6 759.649 998.083 756.434C999.034 756.257 1000.01 756.274 1000.96 756.483C1001.9 756.692 1002.79 757.089 1003.58 757.651C1004.37 758.212 1005.04 758.927 1005.54 759.752C1006.05 760.577 1006.39 761.495 1006.53 762.452C1006.67 763.41 1006.62 764.386 1006.38 765.323C1006.14 766.26 1005.71 767.139 1005.12 767.907C1004.53 768.676 1003.8 769.317 1002.95 769.795C1002.11 770.272 1001.18 770.575 1000.22 770.685C981.347 773.505 963.619 781.485 948.994 793.746C947.707 794.824 946.083 795.419 944.404 795.428Z"/><path fill="#3A3A3A" d="M1143.67 888.325C1142.27 888.336 1140.9 887.942 1139.72 887.189C1138.55 886.436 1137.61 885.358 1137.04 884.085C1136.46 882.812 1136.27 881.4 1136.48 880.019C1136.69 878.639 1137.3 877.35 1138.23 876.309C1143.44 870.162 1146.92 862.74 1148.32 854.804C1149.72 846.869 1148.98 838.705 1146.18 831.149C1145.8 830.26 1145.61 829.305 1145.62 828.341C1145.62 827.376 1145.81 826.422 1146.19 825.535C1146.57 824.647 1147.12 823.844 1147.81 823.174C1148.51 822.504 1149.33 821.98 1150.23 821.632C1151.13 821.285 1152.09 821.122 1153.05 821.152C1154.02 821.182 1154.97 821.406 1155.84 821.809C1156.72 822.213 1157.5 822.788 1158.15 823.5C1158.8 824.213 1159.3 825.049 1159.62 825.958C1163.34 835.978 1164.32 846.805 1162.46 857.327C1160.61 867.85 1155.99 877.691 1149.07 885.838C1148.4 886.613 1147.57 887.237 1146.64 887.666C1145.71 888.095 1144.69 888.32 1143.67 888.325Z"/><path fill="#3A3A3A" d="M1218.08 504.233C1217.14 504.264 1216.19 504.108 1215.31 503.774C1214.42 503.44 1213.61 502.935 1212.92 502.287C1212.23 501.639 1211.67 500.862 1211.28 499.999C1210.89 499.136 1210.67 498.204 1210.64 497.257C1210.61 496.311 1210.77 495.367 1211.1 494.48C1211.43 493.594 1211.94 492.782 1212.59 492.091C1213.23 491.399 1214.01 490.842 1214.87 490.452C1215.74 490.061 1216.67 489.844 1217.62 489.813C1237.05 488.551 1256.07 480.356 1273.61 471.692C1371.82 423.342 1455.88 350.46 1517.66 260.1C1518.2 259.319 1518.88 258.649 1519.67 258.131C1520.47 257.613 1521.35 257.257 1522.28 257.082C1523.21 256.906 1524.17 256.916 1525.1 257.11C1526.02 257.305 1526.9 257.68 1527.69 258.214C1528.47 258.748 1529.14 259.431 1529.65 260.224C1530.17 261.016 1530.53 261.903 1530.7 262.834C1530.88 263.765 1530.87 264.721 1530.68 265.648C1530.48 266.574 1530.11 267.454 1529.57 268.236C1466.39 360.647 1380.42 435.181 1279.98 484.622C1261.04 493.947 1240.5 502.767 1218.55 504.209L1218.08 504.233Z"/><path fill="#3A3A3A" d="M1309.5 693.439C1308.42 693.442 1307.35 693.202 1306.38 692.738C1305.41 692.274 1304.55 691.598 1303.87 690.76C1293.29 677.637 1286.56 662.628 1288.13 632.07C1288.37 627.263 1288.72 622.456 1289.06 617.794C1290.02 604.479 1290.92 591.898 1289.77 579.28C1288.31 563.514 1273.84 554.333 1257.09 543.698C1247.61 537.69 1237.8 531.453 1229.97 523.498C1229.3 522.824 1228.77 522.025 1228.42 521.147C1228.06 520.268 1227.88 519.328 1227.88 518.38C1227.89 517.431 1228.08 516.493 1228.45 515.619C1228.82 514.746 1229.36 513.953 1230.03 513.288C1230.71 512.622 1231.51 512.096 1232.39 511.741C1233.27 511.385 1234.21 511.207 1235.16 511.215C1236.11 511.224 1237.04 511.419 1237.92 511.791C1238.79 512.162 1239.58 512.702 1240.24 513.38C1246.91 520.157 1256.02 525.938 1264.83 531.525C1283.11 543.134 1302.08 555.138 1304.13 577.958C1305.33 591.753 1304.4 605.513 1303.44 618.815C1303.12 623.406 1302.77 628.152 1302.53 632.791C1301.05 661.703 1307.92 672.795 1315.1 681.687C1315.95 682.745 1316.49 684.023 1316.65 685.374C1316.81 686.725 1316.58 688.094 1316 689.321C1315.41 690.549 1314.49 691.586 1313.34 692.313C1312.19 693.039 1310.86 693.426 1309.5 693.427V693.439Z"/><path fill="#3A3A3A" d="M1374.75 978.138C1374.27 978.143 1373.79 978.095 1373.32 977.994C1371.44 977.614 1369.8 976.506 1368.74 974.913C1367.68 973.32 1367.3 971.372 1367.68 969.498C1386.35 875.757 1376.03 778.553 1338.07 690.829C1337.35 689.084 1337.35 687.126 1338.06 685.376C1338.76 683.627 1340.13 682.224 1341.86 681.471C1343.59 680.717 1345.55 680.672 1347.31 681.346C1349.08 682.019 1350.5 683.357 1351.29 685.073C1390.42 775.509 1401.06 875.719 1381.81 972.358C1381.48 973.989 1380.6 975.455 1379.31 976.509C1378.02 977.562 1376.41 978.138 1374.75 978.138Z"/><path fill="#3A3A3A" d="M1221.13 1237.83C1219.69 1237.83 1218.28 1237.4 1217.09 1236.59C1215.89 1235.79 1214.97 1234.64 1214.44 1233.3C1213.9 1231.97 1213.78 1230.5 1214.08 1229.09C1214.39 1227.69 1215.11 1226.4 1216.15 1225.41C1265.98 1177.89 1303.37 1118.85 1325.02 1053.48C1326.22 1049.78 1327.43 1045.95 1328.63 1042.26C1333.43 1027.11 1338.34 1011.45 1346.56 997.162C1358.87 975.808 1377.13 961.748 1396.64 958.6C1397.58 958.449 1398.53 958.484 1399.45 958.703C1400.38 958.921 1401.25 959.319 1402.01 959.874C1402.78 960.428 1403.43 961.129 1403.93 961.935C1404.43 962.741 1404.76 963.637 1404.91 964.572C1405.06 965.507 1405.03 966.463 1404.81 967.384C1404.59 968.306 1404.19 969.175 1403.64 969.943C1403.08 970.71 1402.38 971.361 1401.57 971.858C1400.77 972.355 1399.87 972.689 1398.94 972.84C1383.72 975.243 1369.18 986.779 1359.05 1004.36C1351.62 1017.28 1347.13 1031.52 1342.37 1046.59C1341.17 1050.34 1339.97 1054.21 1338.77 1058.01C1316.38 1125.63 1277.71 1186.71 1226.16 1235.86C1224.8 1237.15 1223 1237.85 1221.13 1237.83Z"/><path fill="#3A3A3A" d="M1822.49 444.016C1821.36 444.015 1820.24 443.748 1819.24 443.235C1809.07 438.068 1784.72 438.284 1758.94 438.513C1721.06 438.861 1678.13 439.246 1650.28 424.393C1641.87 419.923 1635.45 413.374 1629.24 407.053C1626.32 404.085 1623.57 401.273 1620.66 398.713C1614.95 393.908 1608.96 389.454 1602.72 385.374C1590.26 376.843 1577.36 368.034 1569.26 354.239C1564.08 345.419 1561.63 335.805 1559.26 326.504C1558.28 322.659 1557.35 319.018 1556.25 315.437C1549.78 294.576 1532.41 276.659 1519 265.291C1518.26 264.684 1517.65 263.937 1517.2 263.092C1516.75 262.248 1516.48 261.322 1516.39 260.37C1516.3 259.419 1516.41 258.459 1516.7 257.547C1516.98 256.636 1517.45 255.791 1518.07 255.061C1518.68 254.331 1519.44 253.731 1520.29 253.297C1521.14 252.862 1522.07 252.601 1523.03 252.528C1523.98 252.456 1524.94 252.574 1525.84 252.875C1526.75 253.177 1527.59 253.655 1528.31 254.284C1543.22 266.889 1562.57 286.993 1570.06 311.171C1571.26 315.1 1572.29 319.09 1573.28 322.947C1575.49 331.66 1577.59 339.879 1581.69 346.981C1588.15 358 1599.17 365.535 1610.84 373.526C1617.57 377.934 1624.02 382.75 1630.16 387.946C1633.48 390.854 1636.54 393.954 1639.51 397.007C1645.22 402.811 1650.6 408.29 1657.05 411.727C1681.67 424.85 1722.65 424.477 1758.79 424.165C1787.63 423.9 1812.45 423.672 1825.75 430.437C1827.19 431.171 1828.35 432.37 1829.03 433.842C1829.71 435.313 1829.87 436.97 1829.5 438.547C1829.12 440.123 1828.22 441.526 1826.95 442.529C1825.68 443.532 1824.1 444.077 1822.48 444.076L1822.49 444.016Z"/><path fill="#3A3A3A" d="M1302.82 512.972C1301.2 512.973 1299.62 512.428 1298.35 511.424C1297.08 510.421 1296.18 509.018 1295.8 507.442C1295.42 505.866 1295.59 504.208 1296.27 502.737C1296.95 501.266 1298.1 500.066 1299.55 499.333C1381.09 457.656 1453.57 400.245 1512.81 330.413C1513.42 329.674 1514.16 329.063 1515.01 328.616C1515.85 328.168 1516.78 327.893 1517.73 327.807C1518.68 327.72 1519.64 327.824 1520.55 328.112C1521.46 328.4 1522.31 328.866 1523.04 329.483C1523.77 330.101 1524.37 330.857 1524.8 331.708C1525.24 332.559 1525.5 333.489 1525.57 334.442C1525.64 335.395 1525.53 336.353 1525.22 337.26C1524.92 338.167 1524.44 339.005 1523.82 339.726C1463.34 411.02 1389.33 469.631 1306.08 512.179C1305.07 512.701 1303.95 512.973 1302.82 512.972Z"/><path fill="#3A3A3A" d="M1503.62 1494.06C1502.19 1494.06 1500.8 1493.64 1499.62 1492.85C1498.43 1492.06 1497.51 1490.94 1496.96 1489.62C1481.57 1452.74 1436.87 1403.58 1377.34 1358.12C1318.46 1313.08 1256.55 1280.24 1211.87 1270.28C1210.94 1270.08 1210.06 1269.7 1209.28 1269.16C1208.49 1268.61 1207.83 1267.92 1207.31 1267.12C1206.8 1266.32 1206.45 1265.42 1206.28 1264.48C1206.12 1263.55 1206.14 1262.58 1206.35 1261.66C1206.56 1260.73 1206.95 1259.85 1207.5 1259.07C1208.04 1258.29 1208.74 1257.63 1209.55 1257.12C1210.36 1256.62 1211.25 1256.28 1212.19 1256.12C1213.13 1255.96 1214.09 1255.99 1215.02 1256.21C1261.62 1266.6 1325.58 1300.42 1386.1 1346.66C1448.45 1394.29 1493.7 1444.38 1510.26 1484.07C1511 1485.83 1511.01 1487.82 1510.28 1489.59C1509.55 1491.36 1508.16 1492.77 1506.39 1493.5C1505.51 1493.87 1504.57 1494.06 1503.62 1494.06Z"/><path fill="#3A3A3A" d="M1510.93 1493.71C1509.14 1493.7 1507.42 1493.03 1506.09 1491.82C1504.77 1490.62 1503.94 1488.96 1503.77 1487.18C1503.6 1485.39 1504.1 1483.61 1505.18 1482.18C1506.25 1480.74 1507.82 1479.76 1509.58 1479.42C1524.38 1476.55 1533 1459.12 1536.81 1448.98C1538.08 1445.63 1539.28 1442.08 1540.41 1438.65C1544.81 1425.68 1549.35 1412.21 1559.22 1401.62C1564.67 1395.73 1571.16 1391.4 1577.42 1387.2C1583.68 1383.01 1589.76 1378.96 1594.17 1373.71C1598.78 1368.21 1601.73 1361.29 1604.86 1353.97C1607.55 1347.68 1610.31 1341.18 1614.35 1335.16C1634 1305.79 1672.16 1300.68 1710.48 1299.55C1714.5 1299.43 1720.43 1299.45 1727.93 1299.55C1752.72 1299.67 1794.19 1299.88 1823.33 1294.65C1824.27 1294.47 1825.24 1294.47 1826.17 1294.67C1827.11 1294.86 1828 1295.24 1828.78 1295.78C1829.57 1296.32 1830.25 1297.01 1830.76 1297.81C1831.28 1298.61 1831.64 1299.51 1831.81 1300.45C1831.97 1301.39 1831.96 1302.36 1831.75 1303.29C1831.54 1304.22 1831.15 1305.1 1830.6 1305.89C1830.05 1306.67 1829.35 1307.33 1828.54 1307.84C1827.73 1308.34 1826.82 1308.68 1825.88 1308.84C1795.43 1314.3 1753.14 1314.1 1727.86 1313.97C1720.51 1313.97 1714.64 1313.97 1710.92 1313.97C1676.45 1314.99 1642.35 1319.25 1626.33 1343.18C1623.05 1348.09 1620.66 1353.7 1618.12 1359.65C1614.72 1367.61 1611.2 1375.86 1605.22 1382.98C1599.49 1389.81 1592.35 1394.58 1585.44 1399.21C1579.61 1403.1 1574.11 1406.79 1569.82 1411.44C1562.05 1419.85 1558.18 1431.22 1554.1 1443.28C1552.9 1446.83 1551.7 1450.49 1550.3 1454.1C1544.29 1469.92 1532.92 1489.62 1512.32 1493.61C1511.86 1493.69 1511.4 1493.72 1510.93 1493.71Z"/><path fill="#3A3A3A" d="M1500.56 1429C1499.38 1429.01 1498.21 1428.72 1497.16 1428.17C1496.12 1427.62 1495.22 1426.82 1494.56 1425.84C1438.32 1343.27 1358.26 1279.8 1265.03 1243.89C1264.14 1243.56 1263.32 1243.06 1262.62 1242.41C1261.92 1241.76 1261.36 1240.98 1260.97 1240.11C1260.57 1239.24 1260.35 1238.3 1260.33 1237.35C1260.3 1236.4 1260.46 1235.45 1260.8 1234.56C1261.14 1233.67 1261.65 1232.85 1262.31 1232.16C1262.96 1231.47 1263.75 1230.92 1264.62 1230.53C1265.5 1230.15 1266.44 1229.94 1267.39 1229.92C1268.34 1229.9 1269.29 1230.07 1270.18 1230.42C1366.18 1267.36 1448.65 1332.69 1506.57 1417.69C1507.31 1418.78 1507.73 1420.04 1507.8 1421.35C1507.87 1422.66 1507.58 1423.97 1506.96 1425.13C1506.34 1426.28 1505.42 1427.25 1504.29 1427.92C1503.16 1428.59 1501.88 1428.94 1500.56 1428.94V1429Z"/><path fill="#3A3A3A" d="M1246.6 1330.46C1244.95 1330.46 1243.35 1329.89 1242.07 1328.85C1234.27 1322.55 1225.2 1318.02 1215.48 1315.55C1214.49 1315.38 1213.55 1315.02 1212.72 1314.47C1211.88 1313.93 1211.17 1313.21 1210.62 1312.38C1210.07 1311.54 1209.71 1310.6 1209.54 1309.62C1209.38 1308.64 1209.42 1307.63 1209.66 1306.66C1209.91 1305.69 1210.35 1304.79 1210.97 1304C1211.58 1303.21 1212.35 1302.56 1213.23 1302.09C1214.11 1301.61 1215.08 1301.33 1216.07 1301.25C1217.07 1301.17 1218.07 1301.29 1219.01 1301.62C1230.75 1304.6 1241.72 1310.09 1251.14 1317.7C1252.3 1318.64 1253.14 1319.91 1253.54 1321.34C1253.95 1322.78 1253.9 1324.3 1253.4 1325.71C1252.9 1327.11 1251.98 1328.33 1250.76 1329.19C1249.54 1330.05 1248.09 1330.51 1246.6 1330.51V1330.46Z"/><path fill="#3A3A3A" d="M700.09 1629.67C690.741 1629.67 680.863 1628.12 673.809 1625.29C659.461 1619.52 645.27 1605.71 645.906 1587.87C646.435 1572.7 657.382 1561.23 666.852 1552.92C685.059 1536.95 705.489 1523.71 727.5 1513.6C728.361 1513.21 729.291 1512.99 730.238 1512.95C731.184 1512.92 732.128 1513.07 733.015 1513.4C733.903 1513.73 734.717 1514.23 735.411 1514.88C736.105 1515.52 736.665 1516.29 737.06 1517.16C737.454 1518.02 737.675 1518.95 737.71 1519.89C737.745 1520.84 737.594 1521.78 737.264 1522.67C736.934 1523.56 736.433 1524.37 735.789 1525.07C735.144 1525.76 734.37 1526.32 733.509 1526.72C712.767 1536.24 693.516 1548.72 676.357 1563.76C669.063 1570.16 660.651 1578.72 660.315 1588.39C659.93 1599.2 669.832 1608.14 679.181 1611.9C687.376 1615.19 701.58 1616.25 710.857 1614.31C711.79 1614.09 712.758 1614.05 713.704 1614.21C714.65 1614.37 715.554 1614.72 716.364 1615.23C717.175 1615.74 717.875 1616.41 718.424 1617.2C718.972 1617.98 719.359 1618.87 719.56 1619.81C719.762 1620.75 719.774 1621.71 719.597 1622.66C719.419 1623.6 719.056 1624.5 718.527 1625.3C717.999 1626.1 717.316 1626.78 716.519 1627.32C715.722 1627.85 714.827 1628.22 713.885 1628.4C709.343 1629.3 704.72 1629.73 700.09 1629.67Z"/><path fill="#3A3A3A" d="M1399.3 1494.07C1397.6 1494.07 1395.9 1493.91 1394.23 1493.59C1392.35 1493.22 1390.69 1492.13 1389.62 1490.54C1388.55 1488.96 1388.15 1487.01 1388.51 1485.13C1388.88 1483.25 1389.97 1481.6 1391.56 1480.53C1393.14 1479.45 1395.09 1479.06 1396.97 1479.42C1399.17 1479.66 1401.41 1479.45 1403.53 1478.8C1405.65 1478.14 1407.61 1477.06 1409.3 1475.62C1410.99 1474.18 1412.37 1472.41 1413.34 1470.42C1414.32 1468.43 1414.88 1466.25 1414.99 1464.04C1414.93 1462.13 1415.64 1460.27 1416.95 1458.87C1418.26 1457.48 1420.07 1456.66 1421.98 1456.6C1423.89 1456.55 1425.75 1457.25 1427.14 1458.56C1428.54 1459.87 1429.35 1461.68 1429.41 1463.59C1429.47 1468 1428.52 1472.36 1426.65 1476.35C1424.77 1480.33 1422.02 1483.85 1418.6 1486.62C1413.25 1491.31 1406.41 1493.95 1399.3 1494.07Z"/><path fill="#3A3A3A" d="M1609.31 1313.63C1608 1313.63 1606.71 1313.27 1605.59 1312.59C1604.47 1311.91 1603.55 1310.94 1602.94 1309.78C1602.33 1308.62 1602.04 1307.31 1602.12 1306C1602.2 1304.69 1602.63 1303.42 1603.38 1302.34C1614.87 1285.73 1632.36 1274.23 1652.15 1270.25C1654.03 1269.88 1655.98 1270.27 1657.57 1271.34C1659.16 1272.41 1660.26 1274.06 1660.63 1275.94C1661 1277.81 1660.61 1279.76 1659.54 1281.35C1658.47 1282.94 1656.82 1284.04 1654.94 1284.41C1638.84 1287.64 1624.62 1297 1615.29 1310.51C1614.62 1311.48 1613.73 1312.27 1612.69 1312.81C1611.65 1313.36 1610.49 1313.64 1609.31 1313.63Z"/><path fill="#3A3A3A" d="M603.536 1559.13C602.354 1559.12 601.191 1558.83 600.15 1558.27C599.108 1557.71 598.221 1556.9 597.566 1555.91C596.91 1554.93 596.507 1553.8 596.392 1552.62C596.276 1551.45 596.452 1550.26 596.903 1549.17C598.778 1544.65 598.681 1540.83 596.578 1537.81C593.526 1533.4 586.472 1530.97 577.724 1531.3C576.777 1531.33 575.833 1531.18 574.944 1530.85C574.055 1530.52 573.24 1530.02 572.545 1529.38C571.85 1528.74 571.288 1527.96 570.892 1527.1C570.496 1526.24 570.274 1525.31 570.238 1524.36C570.201 1523.42 570.352 1522.47 570.681 1521.58C571.01 1520.69 571.51 1519.88 572.154 1519.18C572.798 1518.49 573.572 1517.93 574.433 1517.53C575.294 1517.14 576.225 1516.91 577.171 1516.88C591.075 1516.35 602.467 1520.99 608.415 1529.58C613.354 1536.68 613.991 1545.61 610.193 1554.71C609.644 1556.02 608.718 1557.14 607.534 1557.92C606.349 1558.71 604.958 1559.13 603.536 1559.13Z"/><path fill="#3A3A3A" d="M1385.43 249.264C1383.81 249.265 1382.23 248.719 1380.96 247.714C1379.69 246.708 1378.79 245.303 1378.41 243.725C1377.42 240.549 1375.25 237.876 1372.34 236.258C1369.43 234.641 1366.01 234.204 1362.79 235.037C1360.99 235.599 1359.04 235.433 1357.36 234.573C1355.68 233.713 1354.4 232.228 1353.8 230.438C1353.21 228.647 1353.33 226.694 1354.16 224.997C1354.99 223.3 1356.45 221.994 1358.23 221.362C1361.72 220.32 1365.39 219.988 1369.01 220.385C1372.63 220.782 1376.14 221.899 1379.33 223.672C1382.51 225.444 1385.31 227.836 1387.56 230.706C1389.81 233.576 1391.46 236.867 1392.41 240.384C1392.67 241.444 1392.67 242.547 1392.44 243.61C1392.2 244.674 1391.73 245.67 1391.06 246.525C1390.38 247.379 1389.52 248.07 1388.54 248.544C1387.56 249.019 1386.48 249.265 1385.4 249.264H1385.43Z"/><path fill="#3A3A3A" d="M598.993 478.903H598.513C597.567 478.84 596.643 478.592 595.794 478.172C594.945 477.752 594.186 477.169 593.562 476.456C592.939 475.742 592.461 474.913 592.158 474.016C591.855 473.118 591.732 472.169 591.795 471.224C591.767 467.504 590.264 463.948 587.617 461.335C584.97 458.722 581.395 457.265 577.676 457.284C576.713 457.401 575.737 457.322 574.806 457.053C573.875 456.784 573.008 456.33 572.256 455.718C571.504 455.106 570.884 454.348 570.432 453.491C569.979 452.634 569.705 451.694 569.624 450.728C569.543 449.762 569.658 448.79 569.961 447.869C570.265 446.948 570.751 446.099 571.39 445.37C572.03 444.642 572.809 444.05 573.683 443.629C574.556 443.209 575.506 442.969 576.474 442.924C580.389 442.733 584.301 443.355 587.964 444.751C591.627 446.146 594.961 448.285 597.756 451.033C600.551 453.781 602.747 457.078 604.205 460.716C605.663 464.355 606.352 468.256 606.227 472.173C606.105 474.005 605.288 475.721 603.944 476.972C602.6 478.222 600.829 478.913 598.993 478.903Z"/><path fill="#3A3A3A" d="M1213.71 422.061C1212.36 422.059 1211.03 421.676 1209.89 420.956C1208.74 420.236 1207.82 419.208 1207.23 417.989C1206.64 416.771 1206.41 415.411 1206.55 414.065C1206.7 412.72 1207.22 411.443 1208.06 410.38C1211.54 406.13 1215.41 402.222 1219.64 398.712C1223.2 395.765 1226.47 392.49 1229.42 388.931C1229.99 388.16 1230.72 387.513 1231.55 387.027C1232.38 386.542 1233.3 386.228 1234.26 386.103C1235.21 385.979 1236.18 386.047 1237.11 386.304C1238.04 386.56 1238.9 387 1239.66 387.597C1240.42 388.194 1241.04 388.937 1241.51 389.78C1241.97 390.624 1242.26 391.552 1242.36 392.509C1242.46 393.467 1242.37 394.435 1242.09 395.356C1241.8 396.276 1241.34 397.132 1240.73 397.871C1237.25 402.125 1233.38 406.032 1229.15 409.539C1225.59 412.49 1222.32 415.769 1219.37 419.333C1218.7 420.185 1217.83 420.873 1216.85 421.346C1215.87 421.818 1214.8 422.063 1213.71 422.061Z"/><path fill="#3A3A3A" d="M1231.93 1291.85C1231.93 1291.85 1207.35 1269.66 1208.83 1263.24C1210.31 1256.82 1248.92 1276.7 1248.92 1276.7L1231.93 1291.85Z"/><path fill="#3A3A3A" d="M1231.93 1299.06C1230.15 1299.05 1228.44 1298.38 1227.12 1297.19C1199.48 1272.18 1201.19 1264.55 1201.89 1261.68C1202.18 1260.38 1202.76 1259.17 1203.59 1258.14C1204.43 1257.12 1205.49 1256.29 1206.69 1255.74C1209.17 1254.54 1215.74 1251.5 1252.36 1270.28C1253.4 1270.82 1254.3 1271.6 1254.97 1272.56C1255.64 1273.51 1256.07 1274.62 1256.22 1275.78C1256.37 1276.95 1256.23 1278.13 1255.82 1279.22C1255.41 1280.32 1254.73 1281.3 1253.86 1282.08L1236.87 1297.22C1235.51 1298.44 1233.75 1299.09 1231.93 1299.06ZM1222.98 1272.78C1225.58 1275.69 1228.7 1278.93 1232.03 1282.14L1236.1 1278.54C1231.54 1276.31 1226.98 1274.31 1222.98 1272.78Z"/><path fill="#3A3A3A" d="M1460.91 1471.23C1460.91 1471.23 1494.35 1489.69 1503.62 1486.85C1512.88 1484.02 1479.68 1448.02 1479.68 1448.02L1460.91 1471.23Z"/><path fill="#3A3A3A" d="M1501.55 1494.3C1489.68 1494.3 1469.36 1484.13 1457.42 1477.54C1456.51 1477.03 1455.71 1476.33 1455.1 1475.48C1454.48 1474.63 1454.06 1473.66 1453.85 1472.63C1453.65 1471.6 1453.68 1470.54 1453.93 1469.52C1454.18 1468.5 1454.65 1467.55 1455.31 1466.73L1474.07 1443.5C1474.72 1442.69 1475.54 1442.04 1476.47 1441.58C1477.4 1441.12 1478.41 1440.86 1479.45 1440.83C1480.48 1440.8 1481.51 1440.98 1482.47 1441.38C1483.42 1441.78 1484.28 1442.39 1484.98 1443.15C1515.16 1475.87 1512.86 1484.42 1512.1 1487.23C1511.69 1488.77 1510.89 1490.19 1509.77 1491.33C1508.66 1492.48 1507.26 1493.32 1505.73 1493.77C1504.37 1494.15 1502.96 1494.32 1501.55 1494.3ZM1472.04 1468.94C1479.44 1472.77 1487.13 1476.03 1495.02 1478.71C1490.43 1471.87 1485.39 1465.34 1479.95 1459.15L1472.04 1468.94Z"/><path fill="#3A3A3A" d="M1240.55 468.578C1240.55 468.578 1211.7 488.49 1213.83 495.496C1215.96 502.502 1256.42 483.118 1256.42 483.118L1240.55 468.578Z"/><path fill="#3A3A3A" d="M1217.21 504.246C1215.43 504.291 1213.67 503.95 1212.04 503.248C1210.83 502.737 1209.74 501.967 1208.86 500.991C1207.98 500.015 1207.32 498.858 1206.93 497.6C1205 491.255 1209.34 484.382 1221.74 473.903C1228.86 467.895 1236.16 462.86 1236.45 462.644C1237.79 461.717 1239.41 461.275 1241.04 461.389C1242.67 461.502 1244.21 462.165 1245.41 463.268L1261.29 477.809C1262.15 478.605 1262.82 479.601 1263.21 480.711C1263.6 481.822 1263.72 483.012 1263.55 484.177C1263.38 485.343 1262.92 486.448 1262.22 487.397C1261.53 488.347 1260.61 489.11 1259.54 489.621C1259.17 489.801 1250.56 493.923 1240.92 497.733C1228.68 502.575 1221.78 504.246 1217.21 504.246ZM1239.98 477.809C1235.86 480.861 1231.95 484.021 1228.74 486.869C1233.07 485.355 1238.18 483.348 1243.51 481.041L1239.98 477.809Z"/><path fill="#3A3A3A" d="M1460.98 286.198C1460.98 286.198 1518.66 256.949 1523.62 259.761C1528.59 262.573 1488.24 304.319 1488.24 304.319L1460.98 286.198Z"/><path fill="#3A3A3A" d="M1488.23 311.557C1486.81 311.56 1485.42 311.142 1484.23 310.355L1456.98 292.21C1455.93 291.511 1455.09 290.551 1454.52 289.424C1453.96 288.297 1453.71 287.043 1453.78 285.787C1453.86 284.53 1454.26 283.315 1454.95 282.262C1455.64 281.209 1456.59 280.355 1457.71 279.784C1457.86 279.712 1472.42 272.334 1487.41 265.364C1520.86 249.886 1523.79 251.569 1527.19 253.516C1528.26 254.127 1529.18 254.978 1529.87 256.001C1530.56 257.024 1531.01 258.193 1531.17 259.416C1531.64 262.744 1532.53 268.945 1493.41 309.345C1492.74 310.043 1491.94 310.598 1491.05 310.978C1490.16 311.357 1489.2 311.554 1488.23 311.557ZM1475.33 287.09L1487.19 294.997C1494.59 287.199 1502.13 278.835 1507.79 272.081C1498.77 275.903 1486.95 281.394 1475.33 287.09Z"/><path fill="#3A3A3A" d="M905.806 1507.1C896.597 1507.21 887.466 1505.42 878.972 1501.87C865.754 1496.18 857.342 1486.6 855.131 1474.92C850.685 1451.51 872.735 1428.32 905.349 1422.12C937.962 1415.92 966.983 1429.42 971.441 1452.82C975.887 1476.23 953.825 1499.43 921.223 1505.63C916.142 1506.6 910.98 1507.1 905.806 1507.1ZM920.574 1435C916.368 1435.01 912.172 1435.42 908.041 1436.21C884.199 1440.74 866.451 1457.2 869.299 1472.15C870.596 1479 876.064 1484.81 884.692 1488.55C894.306 1492.7 906.322 1493.71 918.531 1491.37C942.373 1486.84 960.109 1470.38 957.273 1455.43C955.002 1443.18 939.308 1435 920.574 1435Z"/><path fill="#3A3A3A" d="M920.226 1469.71C919.717 1469.71 919.21 1469.66 918.712 1469.56L890.437 1463.55C888.566 1463.15 886.931 1462.02 885.891 1460.42C884.85 1458.81 884.491 1456.86 884.891 1454.99C885.291 1453.12 886.418 1451.48 888.023 1450.44C889.629 1449.4 891.582 1449.04 893.453 1449.44L921.728 1455.45C923.473 1455.82 925.019 1456.82 926.067 1458.26C927.116 1459.71 927.593 1461.48 927.406 1463.26C927.219 1465.03 926.382 1466.67 925.056 1467.86C923.73 1469.06 922.009 1469.72 920.226 1469.71Z"/><path fill="#3A3A3A" d="M913.28 1482.54C912.033 1482.54 910.808 1482.21 909.724 1481.6C908.64 1480.98 907.735 1480.09 907.097 1479.02C906.459 1477.95 906.11 1476.73 906.084 1475.48C906.057 1474.24 906.355 1473 906.947 1471.91L913.881 1459.07C914.309 1458.2 914.909 1457.43 915.644 1456.79C916.378 1456.16 917.233 1455.68 918.157 1455.39C919.081 1455.09 920.055 1454.99 921.021 1455.08C921.986 1455.17 922.924 1455.45 923.777 1455.91C924.63 1456.37 925.382 1457 925.987 1457.76C926.592 1458.52 927.037 1459.39 927.297 1460.33C927.556 1461.26 927.625 1462.24 927.498 1463.2C927.371 1464.16 927.052 1465.09 926.559 1465.92L919.625 1478.76C919.007 1479.9 918.091 1480.86 916.974 1481.52C915.857 1482.19 914.581 1482.54 913.28 1482.54Z"/><path fill="#007FFE" d="M553.186 1576.25H175.21C173.298 1576.25 171.464 1575.49 170.112 1574.14C168.76 1572.79 168 1570.95 168 1569.04V1159.27C168 1157.36 168.76 1155.52 170.112 1154.17C171.464 1152.82 173.298 1152.06 175.21 1152.06H783.799C785.712 1152.06 787.546 1152.82 788.898 1154.17C790.25 1155.52 791.01 1157.36 791.01 1159.27V1411.85C791.01 1413.76 790.25 1415.6 788.898 1416.95C787.546 1418.3 785.712 1419.06 783.799 1419.06C781.887 1419.06 780.053 1418.3 778.701 1416.95C777.349 1415.6 776.589 1413.76 776.589 1411.85V1166.53H182.42V1561.88H553.186C555.098 1561.88 556.932 1562.64 558.284 1563.99C559.636 1565.34 560.396 1567.18 560.396 1569.09C560.396 1571 559.636 1572.83 558.284 1574.19C556.932 1575.54 555.098 1576.3 553.186 1576.3V1576.25Z"/><path fill="#007FFE" d="M784.568 854.81H175.979C174.066 854.81 172.232 854.051 170.88 852.699C169.528 851.346 168.769 849.512 168.769 847.6V435.425C168.769 433.513 169.528 431.679 170.88 430.327C172.232 428.974 174.066 428.215 175.979 428.215H588.022C589.934 428.215 591.768 428.974 593.12 430.327C594.472 431.679 595.232 433.513 595.232 435.425C595.232 437.337 594.472 439.171 593.12 440.523C591.768 441.875 589.934 442.635 588.022 442.635H183.189V840.39H777.358V475.837C777.358 473.925 778.118 472.091 779.47 470.739C780.822 469.387 782.656 468.627 784.568 468.627C786.48 468.627 788.314 469.387 789.666 470.739C791.019 472.091 791.778 473.925 791.778 475.837V847.6C791.778 849.512 791.019 851.346 789.666 852.699C788.314 854.051 786.48 854.81 784.568 854.81Z"/><path fill="#007FFE" d="M632.616 366.533H175.979C174.066 366.533 172.232 365.774 170.88 364.422C169.528 363.069 168.769 361.236 168.769 359.323V149.21C168.769 147.298 169.528 145.464 170.88 144.112C172.232 142.76 174.066 142 175.979 142C177.891 142 179.725 142.76 181.077 144.112C182.429 145.464 183.189 147.298 183.189 149.21V352.113H632.616C634.528 352.113 636.362 352.873 637.714 354.225C639.066 355.577 639.826 357.411 639.826 359.323C639.826 361.236 639.066 363.069 637.714 364.422C636.362 365.774 634.528 366.533 632.616 366.533Z"/><path fill="#007FFE" d="M784.568 238.651C782.656 238.651 780.822 237.891 779.47 236.539C778.118 235.187 777.358 233.353 777.358 231.441V149.21C777.358 147.298 778.118 145.464 779.47 144.112C780.822 142.76 782.656 142 784.568 142C786.481 142 788.315 142.76 789.667 144.112C791.019 145.464 791.779 147.298 791.779 149.21V231.441C791.779 233.353 791.019 235.187 789.667 236.539C788.315 237.891 786.481 238.651 784.568 238.651Z"/><path fill="#007FFE" d="M784.568 1858C782.656 1858 780.822 1857.24 779.47 1855.88C778.118 1854.53 777.358 1852.7 777.358 1850.79V1647.56C777.358 1645.65 778.118 1643.81 779.47 1642.46C780.822 1641.11 782.656 1640.35 784.568 1640.35C786.481 1640.35 788.315 1641.11 789.667 1642.46C791.019 1643.81 791.779 1645.65 791.779 1647.56V1850.79C791.779 1852.7 791.019 1854.53 789.667 1855.88C788.315 1857.24 786.481 1858 784.568 1858Z"/><path fill="#007FFE" d="M175.979 1857.99C174.066 1857.99 172.232 1857.23 170.88 1855.88C169.528 1854.53 168.769 1852.7 168.769 1850.78V1640.67C168.769 1638.76 169.528 1636.92 170.88 1635.57C172.232 1634.22 174.066 1633.46 175.979 1633.46H725.914C727.826 1633.46 729.66 1634.22 731.013 1635.57C732.365 1636.92 733.124 1638.76 733.124 1640.67C733.124 1642.58 732.365 1644.42 731.013 1645.77C729.66 1647.12 727.826 1647.88 725.914 1647.88H183.189V1850.78C183.189 1852.7 182.429 1854.53 181.077 1855.88C179.725 1857.23 177.891 1857.99 175.979 1857.99Z"/><path fill="#007FFE" d="M354.139 921.336H175.979V1085.59H354.139V921.336Z"/><path fill="#007FFE" d="M354.163 1092.8H175.979C174.066 1092.8 172.232 1092.04 170.88 1090.69C169.528 1089.34 168.769 1087.5 168.769 1085.59V921.335C168.769 919.423 169.528 917.589 170.88 916.237C172.232 914.885 174.066 914.125 175.979 914.125H354.163C356.076 914.125 357.909 914.885 359.262 916.237C360.614 917.589 361.373 919.423 361.373 921.335V1085.59C361.373 1087.5 360.614 1089.34 359.262 1090.69C357.909 1092.04 356.076 1092.8 354.163 1092.8ZM183.213 1078.38H346.953V928.545H183.189L183.213 1078.38Z"/><path fill="#007FFE" d="M568.579 921.336H390.418V1085.59H568.579V921.336Z"/><path fill="#007FFE" d="M568.579 1092.8H390.418C388.506 1092.8 386.672 1092.04 385.32 1090.69C383.968 1089.34 383.208 1087.5 383.208 1085.59V921.335C383.208 919.423 383.968 917.589 385.32 916.237C386.672 914.885 388.506 914.125 390.418 914.125H568.579C570.491 914.125 572.325 914.885 573.677 916.237C575.029 917.589 575.789 919.423 575.789 921.335V1085.59C575.789 1087.5 575.029 1089.34 573.677 1090.69C572.325 1092.04 570.491 1092.8 568.579 1092.8ZM397.628 1078.38H561.369V928.545H397.628V1078.38Z"/><path fill="#007FFE" d="M783.03 921.336H604.869V1085.59H783.03V921.336Z"/><path fill="#007FFE" d="M783.03 1092.8H604.869C602.957 1092.8 601.123 1092.04 599.771 1090.69C598.419 1089.34 597.659 1087.5 597.659 1085.59V921.335C597.659 919.423 598.419 917.589 599.771 916.237C601.123 914.885 602.957 914.125 604.869 914.125H783.03C784.942 914.125 786.776 914.885 788.128 916.237C789.48 917.589 790.24 919.423 790.24 921.335V1085.59C790.24 1087.5 789.48 1089.34 788.128 1090.69C786.776 1092.04 784.942 1092.8 783.03 1092.8ZM612.079 1078.38H775.82V928.545H612.079V1078.38Z"/><path fill="#007FFE" d="M747.076 1682.01H211.933V1729.01H747.076V1682.01Z"/><path fill="#007FFE" d="M747.112 1736.23H211.933C210.02 1736.23 208.187 1735.47 206.834 1734.12C205.482 1732.77 204.723 1730.93 204.723 1729.02V1682.01C204.723 1680.1 205.482 1678.26 206.834 1676.91C208.187 1675.56 210.02 1674.8 211.933 1674.8H747.112C749.024 1674.8 750.858 1675.56 752.21 1676.91C753.562 1678.26 754.322 1680.1 754.322 1682.01V1729.02C754.322 1730.93 753.562 1732.77 752.21 1734.12C750.858 1735.47 749.024 1736.23 747.112 1736.23ZM219.179 1721.81H739.902V1689.22H219.143L219.179 1721.81Z"/><path fill="#3A3A3A" d="M424.089 1788.56H211.933C210.02 1788.56 208.187 1787.8 206.834 1786.45C205.482 1785.1 204.723 1783.26 204.723 1781.35C204.723 1779.44 205.482 1777.6 206.834 1776.25C208.187 1774.9 210.02 1774.14 211.933 1774.14H424.089C426.001 1774.14 427.835 1774.9 429.187 1776.25C430.539 1777.6 431.299 1779.44 431.299 1781.35C431.299 1783.26 430.539 1785.1 429.187 1786.45C427.835 1787.8 426.001 1788.56 424.089 1788.56Z"/><path fill="#3A3A3A" d="M502.066 1830.22H211.933C210.02 1830.22 208.187 1829.47 206.834 1828.11C205.482 1826.76 204.723 1824.93 204.723 1823.01C204.723 1821.1 205.482 1819.27 206.834 1817.92C208.187 1816.56 210.02 1815.8 211.933 1815.8H502.066C503.978 1815.8 505.812 1816.56 507.164 1817.92C508.516 1819.27 509.276 1821.1 509.276 1823.01C509.276 1824.93 508.516 1826.76 507.164 1828.11C505.812 1829.47 503.978 1830.22 502.066 1830.22Z"/><path fill="#3A3A3A" d="M650.342 1312.43H308.657C300.781 1312.43 293.231 1309.29 287.662 1303.72C282.093 1298.15 278.961 1290.6 278.951 1282.73V1259.56C278.961 1251.69 282.093 1244.14 287.662 1238.57C293.231 1233 300.781 1229.87 308.657 1229.86H650.342C658.217 1229.87 665.767 1233 671.336 1238.57C676.905 1244.14 680.037 1251.69 680.047 1259.56V1282.69C680.047 1290.57 676.918 1298.13 671.349 1303.71C665.779 1309.29 658.223 1312.43 650.342 1312.43ZM308.657 1244.3C304.609 1244.31 300.728 1245.92 297.864 1248.78C294.999 1251.64 293.384 1255.51 293.371 1259.56V1282.69C293.368 1284.7 293.761 1286.69 294.528 1288.55C295.294 1290.41 296.419 1292.1 297.839 1293.52C299.259 1294.94 300.945 1296.07 302.801 1296.84C304.657 1297.62 306.647 1298.01 308.657 1298.01H650.342C654.394 1298.01 658.281 1296.4 661.146 1293.53C664.012 1290.67 665.624 1286.78 665.627 1282.73V1259.56C665.624 1255.51 664.012 1251.62 661.146 1248.76C658.281 1245.89 654.394 1244.28 650.342 1244.28L308.657 1244.3Z"/><path fill="#007FFE" d="M731.695 1371.38H228.601C226.688 1371.38 224.855 1370.63 223.502 1369.27C222.15 1367.92 221.391 1366.09 221.391 1364.17C221.391 1362.26 222.15 1360.43 223.502 1359.08C224.855 1357.72 226.688 1356.96 228.601 1356.96H731.695C733.607 1356.96 735.441 1357.72 736.793 1359.08C738.145 1360.43 738.905 1362.26 738.905 1364.17C738.905 1366.09 738.145 1367.92 736.793 1369.27C735.441 1370.63 733.607 1371.38 731.695 1371.38Z"/><path fill="#007FFE" d="M676.621 1423.53H283.673C281.761 1423.53 279.927 1422.77 278.575 1421.42C277.223 1420.07 276.463 1418.23 276.463 1416.32C276.463 1414.41 277.223 1412.57 278.575 1411.22C279.927 1409.87 281.761 1409.11 283.673 1409.11H676.621C678.534 1409.11 680.368 1409.87 681.72 1411.22C683.072 1412.57 683.831 1414.41 683.831 1416.32C683.831 1418.23 683.072 1420.07 681.72 1421.42C680.368 1422.77 678.534 1423.53 676.621 1423.53Z"/><path fill="#007FFE" d="M523.936 1475.65H436.346C434.434 1475.65 432.6 1474.89 431.248 1473.54C429.895 1472.19 429.136 1470.36 429.136 1468.44C429.136 1466.53 429.895 1464.7 431.248 1463.35C432.6 1461.99 434.434 1461.23 436.346 1461.23H523.936C525.848 1461.23 527.682 1461.99 529.034 1463.35C530.386 1464.7 531.146 1466.53 531.146 1468.44C531.146 1470.36 530.386 1472.19 529.034 1473.54C527.682 1474.89 525.848 1475.65 523.936 1475.65Z"/><path fill="#007FFE" d="M701.568 647.891H258.979C244.385 647.891 232.554 659.721 232.554 674.316V782.851C232.554 797.445 244.385 809.276 258.979 809.276H701.568C716.162 809.276 727.993 797.445 727.993 782.851V674.316C727.993 659.721 716.162 647.891 701.568 647.891Z"/><path fill="#007FFE" d="M701.569 816.489H258.979C250.055 816.489 241.497 812.944 235.187 806.634C228.877 800.324 225.332 791.765 225.332 782.842V674.342C225.332 665.419 228.877 656.86 235.187 650.55C241.497 644.24 250.055 640.695 258.979 640.695H701.569C710.492 640.695 719.051 644.24 725.361 650.55C731.671 656.86 735.216 665.419 735.216 674.342V782.89C735.203 791.805 731.652 800.351 725.344 806.651C719.035 812.95 710.484 816.489 701.569 816.489ZM258.979 655.115C253.88 655.115 248.989 657.141 245.384 660.747C241.778 664.353 239.752 669.243 239.752 674.342V782.89C239.752 787.989 241.778 792.88 245.384 796.485C248.989 800.091 253.88 802.117 258.979 802.117H701.569C706.668 802.117 711.558 800.091 715.164 796.485C718.77 792.88 720.796 787.989 720.796 782.89V674.342C720.796 669.243 718.77 664.353 715.164 660.747C711.558 657.141 706.668 655.115 701.569 655.115H258.979Z"/><path fill="#fff" d="M693.95 735.799H261.791C259.879 735.799 258.045 735.039 256.693 733.687C255.341 732.335 254.581 730.501 254.581 728.589C254.581 726.677 255.341 724.843 256.693 723.491C258.045 722.138 259.879 721.379 261.791 721.379H693.95C695.863 721.379 697.696 722.138 699.049 723.491C700.401 724.843 701.16 726.677 701.16 728.589C701.16 730.501 700.401 732.335 699.049 733.687C697.696 735.039 695.863 735.799 693.95 735.799Z"/><path fill="#fff" d="M407.253 806.875C405.341 806.875 403.507 806.116 402.155 804.763C400.803 803.411 400.043 801.577 400.043 799.665V657.519C400.043 655.606 400.803 653.773 402.155 652.42C403.507 651.068 405.341 650.309 407.253 650.309C409.165 650.309 410.999 651.068 412.351 652.42C413.703 653.773 414.463 655.606 414.463 657.519V799.665C414.463 801.577 413.703 803.411 412.351 804.763C410.999 806.116 409.165 806.875 407.253 806.875Z"/><path fill="#fff" d="M552.718 806.875C550.806 806.875 548.972 806.116 547.62 804.763C546.267 803.411 545.508 801.577 545.508 799.665V657.519C545.508 655.606 546.267 653.773 547.62 652.42C548.972 651.068 550.806 650.309 552.718 650.309C554.63 650.309 556.464 651.068 557.816 652.42C559.168 653.773 559.928 655.606 559.928 657.519V799.665C559.928 801.577 559.168 803.411 557.816 804.763C556.464 806.116 554.63 806.875 552.718 806.875Z"/><path fill="#3A3A3A" d="M320.649 581.813C321.25 559.39 309.269 557.96 304.451 553.49C302.42 551.532 301.057 548.984 300.557 546.207C300.056 543.431 300.443 540.568 301.663 538.024C302.17 537.01 302.782 536.051 303.489 535.164C306.8 530.786 308.529 525.414 308.392 519.927C308.392 508.859 302.155 499.883 294.465 499.883C286.774 499.883 280.537 508.859 280.537 519.927C280.402 525.412 282.126 530.782 285.428 535.164C285.797 535.623 286.142 536.1 286.461 536.594C288.078 539.253 288.722 542.391 288.284 545.472C287.845 548.553 286.352 551.387 284.058 553.49C279.251 557.732 266.862 558.657 267.451 581.813H320.649Z"/><path fill="#3A3A3A" d="M320.649 589.023H267.427C265.545 589.024 263.738 588.289 262.391 586.976C261.044 585.662 260.264 583.874 260.217 581.993C259.628 559.162 270.791 552.949 276.788 549.548C277.656 549.106 278.488 548.596 279.275 548.022C280.276 547.058 280.927 545.788 281.125 544.412C281.323 543.037 281.057 541.635 280.369 540.427C280.202 540.173 280.022 539.929 279.828 539.694C275.487 534.016 273.192 527.037 273.315 519.891C273.315 504.605 282.592 492.637 294.453 492.637C306.313 492.637 315.59 504.653 315.59 519.891C315.729 527.056 313.437 534.058 309.089 539.754C308.712 540.224 308.386 540.731 308.116 541.269C307.58 542.414 307.408 543.696 307.623 544.942C307.838 546.188 308.429 547.338 309.317 548.238C310.128 548.872 310.983 549.446 311.877 549.957C318.065 553.73 328.412 560.063 327.823 582.041C327.764 583.908 326.983 585.678 325.645 586.98C324.307 588.282 322.516 589.015 320.649 589.023ZM274.985 574.603H313.127C311.925 566.84 308.32 564.581 304.414 562.214C302.7 561.233 301.09 560.082 299.608 558.777C297.245 556.553 295.456 553.791 294.392 550.726C293.265 553.884 291.355 556.703 288.841 558.921C287.317 560.178 285.661 561.266 283.902 562.166C279.888 564.389 276.055 566.504 274.961 574.603H274.985ZM294.489 507.093C291.749 507.093 287.771 512.092 287.771 519.927C287.66 523.75 288.809 527.503 291.04 530.61C291.589 531.281 292.098 531.983 292.566 532.713C293.336 533.933 293.968 535.235 294.453 536.594C294.679 535.993 294.936 535.403 295.222 534.828C295.961 533.322 296.873 531.906 297.937 530.61C300.168 527.503 301.317 523.75 301.206 519.927C301.182 512.116 297.204 507.093 294.465 507.093H294.489Z"/><path fill="#007FFE" d="M477.864 504.237H384.566C382.653 504.237 380.819 503.477 379.467 502.125C378.115 500.773 377.355 498.939 377.355 497.026C377.355 495.114 378.115 493.28 379.467 491.928C380.819 490.576 382.653 489.816 384.566 489.816H477.864C479.776 489.816 481.61 490.576 482.962 491.928C484.314 493.28 485.074 495.114 485.074 497.026C485.074 498.939 484.314 500.773 482.962 502.125C481.61 503.477 479.776 504.237 477.864 504.237Z"/><path fill="#007FFE" d="M535.184 548.061H384.566C382.653 548.061 380.819 547.301 379.467 545.949C378.115 544.597 377.355 542.763 377.355 540.851C377.355 538.938 378.115 537.105 379.467 535.752C380.819 534.4 382.653 533.641 384.566 533.641H535.184C537.096 533.641 538.93 534.4 540.282 535.752C541.634 537.105 542.394 538.938 542.394 540.851C542.394 542.763 541.634 544.597 540.282 545.949C538.93 547.301 537.096 548.061 535.184 548.061Z"/><path fill="#007FFE" d="M672.933 589.026H384.53C382.618 589.026 380.784 588.266 379.432 586.914C378.08 585.562 377.32 583.728 377.32 581.816C377.32 579.903 378.08 578.069 379.432 576.717C380.784 575.365 382.618 574.605 384.53 574.605H672.933C674.845 574.605 676.679 575.365 678.031 576.717C679.383 578.069 680.143 579.903 680.143 581.816C680.143 583.728 679.383 585.562 678.031 586.914C676.679 588.266 674.845 589.026 672.933 589.026Z"/><path fill="#007FFE" d="M406.088 174.576H242.504C240.592 174.576 238.758 173.817 237.406 172.465C236.054 171.112 235.294 169.279 235.294 167.366C235.294 165.454 236.054 163.62 237.406 162.268C238.758 160.916 240.592 160.156 242.504 160.156H406.088C408.001 160.156 409.834 160.916 411.187 162.268C412.539 163.62 413.298 165.454 413.298 167.366C413.298 169.279 412.539 171.112 411.187 172.465C409.834 173.817 408.001 174.576 406.088 174.576Z"/><path fill="#007FFE" d="M642.831 234.53H242.504C240.592 234.53 238.758 233.77 237.406 232.418C236.054 231.066 235.294 229.232 235.294 227.319C235.294 225.407 236.054 223.573 237.406 222.221C238.758 220.869 240.592 220.109 242.504 220.109H642.831C644.743 220.109 646.577 220.869 647.929 222.221C649.281 223.573 650.041 225.407 650.041 227.319C650.041 229.232 649.281 231.066 647.929 232.418C646.577 233.77 644.743 234.53 642.831 234.53Z"/><path fill="#007FFE" d="M372.814 300.057H310.903C308.991 300.057 307.157 299.297 305.805 297.945C304.453 296.593 303.693 294.759 303.693 292.847C303.693 290.935 304.453 289.101 305.805 287.748C307.157 286.396 308.991 285.637 310.903 285.637H372.85C374.762 285.637 376.596 286.396 377.948 287.748C379.3 289.101 380.06 290.935 380.06 292.847C380.06 294.759 379.3 296.593 377.948 297.945C376.596 299.297 374.762 300.057 372.85 300.057H372.814Z"/><path fill="#3A3A3A" d="M261.226 318.778C256.097 318.781 251.082 317.262 246.816 314.414C242.55 311.566 239.224 307.517 237.26 302.778C235.295 298.04 234.78 292.826 235.779 287.795C236.778 282.763 239.247 278.142 242.873 274.514C246.5 270.886 251.12 268.415 256.151 267.413C261.182 266.412 266.396 266.924 271.135 268.887C275.875 270.849 279.925 274.173 282.775 278.438C285.625 282.703 287.147 287.717 287.147 292.846C287.14 299.72 284.408 306.31 279.549 311.172C274.689 316.033 268.1 318.769 261.226 318.778ZM261.226 281.334C258.949 281.332 256.722 282.005 254.827 283.268C252.933 284.532 251.455 286.329 250.582 288.432C249.709 290.536 249.479 292.851 249.922 295.085C250.365 297.319 251.46 299.371 253.07 300.982C254.679 302.593 256.731 303.691 258.964 304.136C261.198 304.581 263.513 304.354 265.617 303.483C267.721 302.612 269.52 301.137 270.786 299.243C272.051 297.35 272.727 295.124 272.727 292.846C272.707 289.807 271.488 286.897 269.334 284.753C267.18 282.608 264.266 281.401 261.226 281.394V281.334Z"/><path fill="#007FFE" d="M588.023 300.057H526.076C524.164 300.057 522.33 299.297 520.978 297.945C519.626 296.593 518.866 294.759 518.866 292.847C518.866 290.935 519.626 289.101 520.978 287.748C522.33 286.396 524.164 285.637 526.076 285.637H588.023C589.935 285.637 591.769 286.396 593.121 287.748C594.473 289.101 595.233 290.935 595.233 292.847C595.233 294.759 594.473 296.593 593.121 297.945C591.769 299.297 589.935 300.057 588.023 300.057Z"/><path fill="#3A3A3A" d="M476.434 318.778C471.305 318.778 466.292 317.258 462.027 314.408C457.762 311.559 454.439 307.509 452.476 302.77C450.513 298.032 450 292.817 451 287.787C452.001 282.757 454.471 278.136 458.097 274.509C461.724 270.883 466.345 268.413 471.375 267.412C476.405 266.412 481.619 266.925 486.358 268.888C491.096 270.851 495.147 274.175 497.996 278.439C500.845 282.704 502.366 287.717 502.366 292.846C502.36 299.722 499.626 306.314 494.764 311.176C489.902 316.038 483.31 318.772 476.434 318.778ZM476.434 281.334C474.157 281.334 471.932 282.009 470.038 283.274C468.145 284.539 466.67 286.337 465.798 288.441C464.927 290.544 464.699 292.859 465.143 295.092C465.587 297.325 466.684 299.377 468.294 300.987C469.904 302.597 471.955 303.693 474.188 304.137C476.421 304.581 478.736 304.353 480.84 303.482C482.943 302.611 484.741 301.135 486.006 299.242C487.271 297.349 487.946 295.123 487.946 292.846C487.927 289.804 486.706 286.894 484.55 284.748C482.393 282.603 479.476 281.397 476.434 281.394V281.334Z"/><path fill="#fff" d="M231.388 1055.88C227.807 1055.86 224.379 1054.42 221.849 1051.89C219.32 1049.36 217.893 1045.93 217.881 1042.34V964.584C217.882 962.213 218.506 959.885 219.692 957.832C220.878 955.78 222.583 954.075 224.636 952.89C226.69 951.705 229.018 951.082 231.389 951.082C233.759 951.082 236.088 951.706 238.141 952.892L305.435 991.766C307.489 992.951 309.194 994.656 310.38 996.71C311.566 998.763 312.19 1001.09 312.19 1003.46C312.19 1005.84 311.566 1008.16 310.38 1010.22C309.194 1012.27 307.489 1013.98 305.435 1015.16L238.141 1054.04C236.092 1055.24 233.762 1055.87 231.388 1055.88ZM232.301 966.17V1040.76L296.903 1003.51L232.301 966.17Z"/><path fill="#fff" d="M484.065 1053.3C468.743 1053.3 449.757 1045.65 438.641 1037.25C423.777 1026.03 424.221 1015.8 425.88 1010.7C428.499 1002.42 435.637 997.675 445.467 997.663C459.743 997.663 478.934 1007.55 491.9 1019.73C491.575 1017.32 491.155 1014.47 490.626 1011.31C488.403 998.095 484.99 983.05 482.503 972.031C480.796 964.496 479.558 959.041 479.078 956.001C479.078 955.868 479.078 955.748 479.078 955.628C479.03 955.177 479.03 954.721 479.078 954.27C479.174 953.031 479.588 951.838 480.281 950.806C480.973 949.775 481.921 948.939 483.031 948.382C502.907 937.927 528.335 953.729 536.47 960.723C538.693 962.622 543.884 967.092 541.889 972.74C541.287 974.408 540.275 975.898 538.946 977.072C537.616 978.246 536.013 979.066 534.283 979.457C525.643 981.74 509.048 975.311 496.706 969.147C509.636 1026.32 510.622 1042.94 501.165 1048.24C500.701 1048.65 500.212 1049.02 499.699 1049.36C495.493 1052.12 490.049 1053.3 484.065 1053.3ZM445.491 1012.08C440.576 1012.08 439.963 1014.02 439.639 1015.05C439.014 1017.01 441.153 1021.06 447.329 1025.73C460.548 1035.68 480.604 1040.67 489.28 1038.36C481.373 1026.11 458.962 1012.08 445.491 1012.08Z"/><path fill="#fff" d="M773.236 1076.6C771.901 1076.6 770.592 1076.23 769.454 1075.52C768.317 1074.82 767.396 1073.82 766.795 1072.63C753.877 1046.99 736.97 1017.6 729.928 1010.51C725.35 1014.26 716.421 1026.04 710.821 1033.43C695.668 1053.41 689.251 1061 681.981 1061.33H681.645C672.812 1061.33 666.612 1052.92 660.615 1044.75C658.116 1041.35 653.129 1034.56 650.521 1033.38C645.534 1037.25 631.499 1055.28 620.684 1070.9C619.594 1072.47 617.923 1073.55 616.041 1073.89C614.158 1074.23 612.216 1073.81 610.644 1072.72C609.071 1071.63 607.995 1069.96 607.654 1068.08C607.312 1066.19 607.733 1064.25 608.823 1062.68C638.456 1019.95 645.438 1019.18 648.418 1018.85C658.717 1017.75 665.915 1027.54 672.272 1036.19C674.771 1039.58 678.761 1045.02 681.104 1046.54C685.069 1043.5 693.553 1032.31 699.333 1024.69C715.328 1003.59 722.598 995.037 730.577 995.218C735.948 995.35 741.993 998.246 761.52 1032.4C771.061 1049.08 779.545 1065.95 779.653 1066.12C780.207 1067.22 780.47 1068.44 780.418 1069.67C780.366 1070.89 780.001 1072.09 779.356 1073.14C778.712 1074.19 777.81 1075.05 776.737 1075.65C775.664 1076.25 774.455 1076.57 773.224 1076.57L773.236 1076.6Z"/><path fill="#fff" d="M640.319 956.772C645.257 956.772 649.26 952.769 649.26 947.831C649.26 942.893 645.257 938.891 640.319 938.891C635.382 938.891 631.379 942.893 631.379 947.831C631.379 952.769 635.382 956.772 640.319 956.772Z"/><path fill="#fff" d="M640.32 963.95C637.125 963.95 634.003 963.002 631.347 961.228C628.691 959.453 626.621 956.931 625.398 953.98C624.176 951.028 623.856 947.781 624.479 944.648C625.102 941.515 626.641 938.637 628.899 936.379C631.158 934.12 634.036 932.582 637.169 931.959C640.302 931.336 643.549 931.655 646.5 932.878C649.451 934.1 651.974 936.17 653.748 938.826C655.523 941.482 656.47 944.605 656.47 947.799C656.464 952.08 654.76 956.185 651.733 959.212C648.705 962.24 644.601 963.943 640.32 963.95ZM640.32 946.069C639.977 946.069 639.643 946.17 639.358 946.36C639.074 946.55 638.852 946.821 638.721 947.137C638.59 947.453 638.556 947.801 638.622 948.137C638.689 948.472 638.854 948.781 639.096 949.023C639.338 949.265 639.646 949.429 639.982 949.496C640.318 949.563 640.665 949.529 640.982 949.398C641.298 949.267 641.568 949.045 641.758 948.76C641.948 948.476 642.05 948.141 642.05 947.799C642.037 947.347 641.85 946.918 641.527 946.602C641.204 946.286 640.771 946.108 640.32 946.105V946.069Z"/><path fill="#fff" d="M679.723 943.829C677.81 943.929 675.937 943.266 674.513 941.985C673.09 940.703 672.234 938.909 672.134 936.997C672.034 935.085 672.697 933.211 673.978 931.788C675.259 930.365 677.053 929.509 678.965 929.409L705.306 926.561C706.252 926.45 707.21 926.528 708.126 926.789C709.041 927.051 709.896 927.492 710.64 928.085C711.384 928.679 712.004 929.414 712.462 930.249C712.921 931.083 713.21 932 713.312 932.947C713.415 933.893 713.329 934.851 713.059 935.764C712.789 936.677 712.341 937.528 711.741 938.267C711.141 939.006 710.4 939.619 709.562 940.07C708.723 940.522 707.804 940.802 706.856 940.897L680.516 943.745C680.254 943.791 679.989 943.819 679.723 943.829Z"/><path fill="#fff" d="M690.525 968.126C690.057 968.125 689.59 968.077 689.131 967.982L678.725 965.939C676.897 965.523 675.303 964.411 674.282 962.84C673.26 961.268 672.89 959.36 673.251 957.521C673.612 955.681 674.675 954.055 676.216 952.986C677.756 951.917 679.651 951.49 681.501 951.796L691.907 953.838C693.668 954.18 695.238 955.166 696.311 956.603C697.384 958.04 697.882 959.825 697.71 961.61C697.537 963.395 696.705 965.052 695.377 966.257C694.049 967.462 692.319 968.128 690.525 968.126Z"/><path fill="#fff" d="M613.558 995.934C612.209 995.932 610.889 995.552 609.745 994.837C608.602 994.122 607.682 993.101 607.09 991.889C606.498 990.678 606.258 989.325 606.397 987.984C606.535 986.642 607.047 985.367 607.874 984.302L614.387 975.89C614.967 975.139 615.69 974.509 616.514 974.038C617.337 973.567 618.246 973.262 619.188 973.143C620.13 973.024 621.086 973.092 622.001 973.343C622.916 973.594 623.773 974.023 624.522 974.606C625.271 975.189 625.898 975.914 626.366 976.74C626.834 977.566 627.135 978.476 627.251 979.418C627.366 980.36 627.295 981.316 627.04 982.23C626.785 983.144 626.353 984 625.767 984.746L619.254 993.158C618.578 994.024 617.714 994.724 616.727 995.205C615.74 995.686 614.656 995.936 613.558 995.934Z"/><g opacity=".2"><path fill="#007FFE" d="M1134.44 798.668C1144.62 790.907 1149.36 780.011 1145.04 774.332C1140.71 768.653 1128.94 770.341 1118.76 778.103C1108.58 785.864 1103.84 796.76 1108.17 802.439C1112.5 808.118 1124.26 806.43 1134.44 798.668Z"/><path fill="#007FFE" d="M1116.4 813.093C1110.48 813.093 1105.51 810.918 1102.44 806.892C1095.48 797.76 1100.62 782.955 1114.39 772.452C1119.83 768.164 1126.25 765.301 1133.07 764.125C1140.63 763.043 1147.08 765.206 1150.77 770.049C1154.47 774.856 1154.84 781.693 1151.79 788.687C1148.75 794.892 1144.31 800.303 1138.81 804.491C1133.32 808.68 1126.93 811.53 1120.14 812.817C1118.9 812.996 1117.65 813.088 1116.4 813.093ZM1136.83 778.244C1136.24 778.247 1135.66 778.291 1135.07 778.376C1130.68 779.206 1126.55 781.099 1123.06 783.892C1114.44 790.465 1113.13 797.231 1113.83 798.132C1113.94 798.276 1115.11 798.937 1118.01 798.517C1122.35 797.574 1126.44 795.685 1129.97 792.985C1133.5 790.285 1136.39 786.84 1138.44 782.895C1139.64 780.215 1139.28 778.905 1139.17 778.761C1138.48 778.361 1137.67 778.188 1136.88 778.268L1136.83 778.244Z"/></g><path fill="#3A3A3A" d="M1019.23 860.603C1021.68 860.603 1023.67 858.618 1023.67 856.169C1023.67 853.72 1021.68 851.734 1019.23 851.734C1016.78 851.734 1014.8 853.72 1014.8 856.169C1014.8 858.618 1016.78 860.603 1019.23 860.603Z"/><path fill="#3A3A3A" d="M1019.22 867.816C1017.4 867.807 1015.6 867.369 1013.98 866.539C1012.35 865.709 1010.95 864.508 1009.87 863.035C1008.8 861.562 1008.08 859.857 1007.79 858.058C1007.49 856.258 1007.62 854.414 1008.17 852.675C1008.72 850.935 1009.67 849.349 1010.94 848.043C1012.21 846.737 1013.78 845.749 1015.5 845.157C1017.23 844.566 1019.07 844.387 1020.87 844.637C1022.68 844.887 1024.4 845.557 1025.9 846.594C1027.95 848.009 1029.49 850.041 1030.29 852.394C1031.1 854.747 1031.13 857.296 1030.39 859.668C1029.64 862.041 1028.15 864.112 1026.14 865.578C1024.13 867.044 1021.71 867.828 1019.22 867.816ZM1020.81 853.888L1017.66 858.455C1018.27 858.869 1019.01 859.029 1019.74 858.899C1020.28 858.799 1020.77 858.541 1021.16 858.158C1021.56 857.776 1021.83 857.286 1021.94 856.75C1022.06 856.214 1022.01 855.657 1021.81 855.147C1021.61 854.638 1021.26 854.2 1020.81 853.888ZM1019.24 853.396C1018.65 853.394 1018.07 853.582 1017.6 853.932C1017.12 854.282 1016.77 854.776 1016.59 855.341C1016.41 855.906 1016.42 856.513 1016.61 857.074C1016.8 857.634 1017.17 858.118 1017.66 858.455L1020.81 853.888C1020.35 853.565 1019.8 853.393 1019.24 853.396Z"/><path fill="#3A3A3A" d="M1063.2 827.591C1065.65 827.591 1067.63 825.606 1067.63 823.157C1067.63 820.708 1065.65 818.723 1063.2 818.723C1060.75 818.723 1058.77 820.708 1058.77 823.157C1058.77 825.606 1060.75 827.591 1063.2 827.591Z"/><path fill="#3A3A3A" d="M1063.15 834.8C1061.33 834.797 1059.53 834.364 1057.9 833.538C1056.28 832.711 1054.87 831.513 1053.79 830.041C1052.71 828.57 1051.99 826.865 1051.69 825.064C1051.39 823.264 1051.52 821.418 1052.06 819.676C1052.61 817.935 1053.56 816.345 1054.83 815.037C1056.1 813.729 1057.66 812.738 1059.39 812.144C1061.12 811.551 1062.96 811.372 1064.77 811.621C1066.57 811.87 1068.3 812.54 1069.8 813.579C1071.84 814.991 1073.38 817.021 1074.19 819.37C1075 821.719 1075.03 824.265 1074.29 826.636C1073.55 829.006 1072.07 831.077 1070.06 832.546C1068.06 834.015 1065.64 834.805 1063.15 834.8ZM1061.6 825.439C1062.21 825.856 1062.96 826.015 1063.68 825.882C1064.4 825.75 1065.04 825.335 1065.46 824.73C1065.88 824.124 1066.04 823.378 1065.9 822.655C1065.77 821.932 1065.36 821.291 1064.75 820.873C1064.45 820.665 1064.12 820.519 1063.76 820.443C1063.41 820.367 1063.04 820.362 1062.69 820.428C1062.15 820.527 1061.65 820.784 1061.25 821.165C1060.86 821.547 1060.59 822.037 1060.47 822.573C1060.36 823.109 1060.4 823.667 1060.6 824.177C1060.81 824.687 1061.15 825.126 1061.6 825.439Z"/><path fill="#3A3A3A" d="M906.695 1429.15C913.157 1427.91 919.756 1427.54 926.318 1428.04C915.503 1414.27 902.609 1402.95 887.672 1395.86C878.362 1392.7 868.399 1392 858.737 1393.8C849.075 1395.6 840.037 1399.86 832.491 1406.15C832.491 1406.15 850 1418.68 869.599 1449.41C877.482 1439.81 890.773 1432.18 906.695 1429.15Z"/><path fill="#3A3A3A" d="M869.599 1456.63H869.154C868.02 1456.56 866.918 1456.23 865.938 1455.65C864.959 1455.07 864.13 1454.27 863.518 1453.32C845.048 1424.39 828.441 1412.2 828.273 1412.07C827.374 1411.43 826.637 1410.58 826.117 1409.61C825.597 1408.63 825.309 1407.55 825.276 1406.44C825.242 1405.33 825.463 1404.24 825.923 1403.23C826.382 1402.22 827.067 1401.33 827.924 1400.63C836.462 1393.49 846.709 1388.68 857.663 1386.68C868.617 1384.69 879.901 1385.57 890.412 1389.24C890.547 1389.29 890.679 1389.35 890.808 1389.41C905.913 1396.62 919.781 1408.1 932.038 1423.65C932.905 1424.75 933.432 1426.08 933.554 1427.48C933.675 1428.88 933.387 1430.28 932.724 1431.51C932.061 1432.75 931.051 1433.77 929.82 1434.44C928.588 1435.11 927.187 1435.4 925.789 1435.29C919.87 1434.84 913.918 1435.18 908.088 1436.3C894.353 1438.91 882.36 1445.37 875.198 1454.04C874.515 1454.86 873.659 1455.52 872.69 1455.96C871.722 1456.41 870.666 1456.64 869.599 1456.63ZM844.267 1406.78C854.164 1416.22 863.026 1426.7 870.704 1438.02C879.801 1430.27 891.974 1424.61 905.336 1422.06C907.115 1421.72 908.941 1421.45 910.672 1421.22C903.174 1413.55 894.425 1407.22 884.8 1402.49C878.128 1400.29 871.067 1399.53 864.08 1400.26C857.093 1400.98 850.341 1403.19 844.267 1406.72V1406.78Z"/><path fill="#3A3A3A" d="M955.123 1480.36C947.084 1488.91 934.623 1495.69 919.878 1498.49C911.528 1500.12 902.956 1500.26 894.559 1498.9C903.634 1522.3 910.392 1546.54 914.735 1571.26C914.735 1571.26 943.923 1585.93 972.415 1571.26C973.124 1547.02 967.536 1512.74 955.123 1480.36Z"/><path fill="#3A3A3A" d="M944.788 1585.02C933.292 1585 921.937 1582.5 911.489 1577.71C910.491 1577.2 909.623 1576.48 908.953 1575.58C908.284 1574.69 907.831 1573.65 907.632 1572.55C903.366 1548.29 896.742 1524.5 887.852 1501.53C887.385 1500.34 887.242 1499.05 887.438 1497.79C887.634 1496.53 888.161 1495.34 888.967 1494.35C889.773 1493.36 890.827 1492.6 892.023 1492.15C893.218 1491.7 894.512 1491.57 895.771 1491.79C903.321 1493.01 911.027 1492.88 918.531 1491.4C931.161 1489 942.565 1483.18 949.859 1475.43C950.698 1474.53 951.751 1473.87 952.92 1473.49C954.088 1473.12 955.333 1473.05 956.536 1473.29C957.739 1473.53 958.861 1474.07 959.796 1474.87C960.73 1475.66 961.446 1476.68 961.876 1477.83C973.808 1508.95 980.454 1543.93 979.636 1571.56C979.599 1572.85 979.217 1574.11 978.53 1575.2C977.843 1576.29 976.877 1577.18 975.731 1577.77C966.149 1582.63 955.535 1585.12 944.788 1585.02ZM921.115 1566.15C928.325 1568.86 946.783 1574.24 965.264 1566.64C965.264 1544.77 960.265 1517.6 951.902 1492.72C942.735 1499.19 932.264 1503.58 921.223 1505.57C915.975 1506.57 910.643 1507.06 905.301 1507.03C912.076 1526.3 917.362 1546.07 921.115 1566.15Z"/><path fill="#3A3A3A" d="M635.356 380.063C633.509 380.066 631.731 379.359 630.389 378.089C629.047 376.819 628.245 375.082 628.146 373.238C626.271 338.245 646.255 304.898 687.509 274.099C716.962 252.121 758.408 231.428 801.067 217.344C952.588 167.54 1113.95 155.344 1271.24 181.81C1275.35 182.507 1279.46 183.224 1283.59 183.961C1307.35 188.131 1331.92 192.445 1355.91 191.171L1358.48 191.039C1375.71 190.126 1397.17 188.972 1408.5 205.219C1412.11 210.314 1413.62 216.034 1414.99 221.177C1415.68 223.713 1416.33 226.116 1417.17 228.315C1420.77 237.857 1429.18 245.872 1436.62 252.938L1493.19 306.929C1493.9 307.575 1494.48 308.358 1494.88 309.23C1495.29 310.103 1495.52 311.048 1495.55 312.01C1495.59 312.972 1495.43 313.932 1495.09 314.832C1494.75 315.732 1494.23 316.555 1493.56 317.252C1492.9 317.948 1492.1 318.505 1491.22 318.888C1490.34 319.272 1489.39 319.475 1488.42 319.485C1487.46 319.495 1486.51 319.312 1485.61 318.947C1484.72 318.582 1483.91 318.042 1483.24 317.36L1426.67 263.368C1418.16 255.245 1408.52 246.04 1403.7 233.471C1402.68 230.669 1401.8 227.817 1401.08 224.927C1399.88 220.601 1398.79 216.515 1396.68 213.463C1389.94 203.849 1373.63 204.678 1359.23 205.435L1356.64 205.568C1331.03 206.865 1305.64 202.407 1281.09 198.105C1277 197.384 1272.91 196.663 1268.82 195.978C1113.86 169.92 954.883 181.955 805.61 231.043C728.27 256.543 639.177 308.888 642.566 372.469C642.668 374.377 642.007 376.249 640.729 377.67C639.452 379.092 637.661 379.949 635.753 380.051L635.356 380.063Z"/><path fill="#3A3A3A" d="M633.866 416.199C632.342 416.2 630.857 415.717 629.625 414.821C628.392 413.925 627.475 412.662 627.005 411.212C621.741 394.905 630.478 374.897 636.162 364.419C645.018 348.1 657.383 334.137 669.244 327.071C670.058 326.58 670.96 326.255 671.9 326.115C672.84 325.974 673.798 326.02 674.719 326.251C675.641 326.482 676.508 326.893 677.27 327.46C678.033 328.027 678.675 328.74 679.162 329.556C679.648 330.372 679.968 331.277 680.103 332.217C680.239 333.158 680.187 334.116 679.951 335.036C679.715 335.956 679.299 336.821 678.728 337.58C678.157 338.339 677.441 338.978 676.622 339.46C657.095 351.092 634.84 388.549 640.728 406.754C641.079 407.836 641.168 408.986 640.99 410.109C640.811 411.233 640.369 412.298 639.7 413.218C639.031 414.138 638.153 414.887 637.14 415.403C636.126 415.919 635.004 416.188 633.866 416.187V416.199Z"/><path fill="#3A3A3A" d="M586.772 517.126C575.38 517.126 564.89 512.776 558.292 505.025C549.881 495.099 548.054 479.79 553.726 466.115C557.848 456.129 565.298 447.188 577.183 437.971C589.56 428.358 603.331 420.751 616.658 413.397C633.914 403.868 650.209 394.879 663.607 381.961C664.984 380.634 666.832 379.908 668.744 379.943C670.656 379.978 672.476 380.771 673.804 382.147C675.131 383.524 675.857 385.372 675.822 387.284C675.787 389.196 674.994 391.016 673.617 392.344C658.849 406.584 640.944 416.461 623.627 425.991C610.794 433.081 597.515 440.411 586.027 449.339C576.209 456.958 570.177 464.024 567.053 471.594C564.072 478.804 563.616 489.007 569.276 495.628C573.95 501.132 582.819 503.727 591.867 502.237C601.264 500.699 609.988 495.568 618.028 490.22C626.067 484.873 634.046 479.057 641.821 473.337C667.693 454.326 694.454 434.667 727.236 431.206C729.111 431.055 730.972 431.642 732.42 432.843C733.868 434.045 734.789 435.764 734.987 437.635C735.184 439.506 734.643 441.381 733.477 442.858C732.312 444.335 730.616 445.298 728.75 445.542C699.85 448.594 675.804 466.259 650.353 484.957C642.434 490.773 634.25 496.793 625.983 502.249C617.054 508.149 606.311 514.446 594.21 516.429C591.754 516.862 589.266 517.095 586.772 517.126Z"/><path fill="#3A3A3A" d="M730.085 496.088C704.08 496.088 676.081 490.224 659.931 477.33C658.482 476.123 657.563 474.397 657.372 472.521C657.181 470.645 657.732 468.769 658.908 467.295C660.084 465.82 661.79 464.865 663.661 464.634C665.533 464.403 667.42 464.914 668.919 466.058C687.329 480.743 729.003 484.745 756.305 479.277C790.878 472.355 818.24 438.816 834.595 418.772C843.175 408.258 846.816 403.932 850.949 402.297C852.464 401.697 1004.94 343.139 1215.84 407.981C1216.88 408.297 1217.84 408.848 1218.64 409.592C1227.43 417.787 1234.6 432.015 1241.47 445.762C1247.83 458.38 1254.39 471.418 1261.3 477.859C1262.7 479.162 1263.52 480.968 1263.59 482.879C1263.66 484.79 1262.96 486.65 1261.66 488.049C1260.36 489.448 1258.55 490.272 1256.64 490.34C1254.73 490.407 1252.87 489.713 1251.47 488.41C1242.67 480.214 1235.51 465.998 1228.64 452.239C1222.63 440.307 1216.44 427.989 1209.94 421.248C1129.76 396.806 1048.77 387.601 969.207 393.85C901.204 399.185 860.359 414.158 856.549 415.6C854.747 416.91 849.988 422.738 845.734 427.893C828.154 449.427 798.749 485.478 759.093 493.421C749.533 495.244 739.818 496.138 730.085 496.088Z"/><path fill="#3A3A3A" d="M645.907 1499.09C645.452 1499.09 644.997 1499.05 644.549 1498.97C642.675 1498.61 641.02 1497.52 639.945 1495.95C638.871 1494.37 638.465 1492.43 638.817 1490.56C645.162 1457.23 670.469 1432.88 714.006 1418.07C739.722 1409.35 766.88 1406.45 793.173 1403.65C798.412 1403.09 803.639 1402.53 808.794 1401.93C894.979 1391.98 980.334 1369.01 1062.88 1346.78C1074.33 1343.69 1093.02 1337.24 1114.66 1329.76C1147.23 1318.51 1184.08 1305.73 1210.09 1299.72L1244.23 1271.14C1245.71 1269.97 1247.58 1269.41 1249.46 1269.6C1251.33 1269.79 1253.06 1270.7 1254.27 1272.15C1255.48 1273.59 1256.07 1275.45 1255.93 1277.33C1255.78 1279.21 1254.91 1280.96 1253.49 1282.2L1218.01 1311.89C1217.13 1312.63 1216.09 1313.15 1214.96 1313.39C1189.65 1319.07 1152.32 1331.96 1119.37 1343.34C1097.46 1350.91 1078.51 1357.44 1066.63 1360.64C983.578 1383.02 897.694 1406.14 810.453 1416.21C805.189 1416.82 799.914 1417.41 794.639 1417.94C769.139 1420.66 742.786 1423.47 718.584 1431.67C680.323 1444.67 658.224 1465.32 652.925 1493.21C652.616 1494.85 651.748 1496.34 650.468 1497.41C649.188 1498.48 647.576 1499.07 645.907 1499.09Z"/><path fill="#3A3A3A" d="M588.78 1600.26C573.915 1600.26 556.671 1593.81 549.016 1578.63C540.28 1561.33 548.235 1540.96 559.326 1529.36C570.863 1517.35 586.364 1510.78 600.039 1505.04L704.669 1461.1C705.546 1460.71 706.491 1460.5 707.449 1460.48C708.407 1460.46 709.36 1460.63 710.251 1460.98C711.142 1461.34 711.954 1461.87 712.638 1462.54C713.323 1463.21 713.867 1464.01 714.238 1464.89C714.61 1465.78 714.801 1466.72 714.802 1467.68C714.802 1468.64 714.612 1469.59 714.241 1470.47C713.87 1471.36 713.327 1472.16 712.643 1472.83C711.959 1473.5 711.148 1474.03 710.257 1474.39L605.627 1518.33C592.637 1523.79 579.19 1529.43 569.745 1539.32C561.814 1547.63 556.527 1561.57 561.886 1572.13C567.125 1582.49 580.74 1586.44 591.195 1585.73C604.173 1584.84 616.586 1578.72 628.603 1572.79C632.833 1570.7 640.223 1566.92 647.385 1563.25C654.547 1559.58 662.058 1555.75 666.396 1553.64C667.246 1553.22 668.17 1552.97 669.115 1552.91C670.061 1552.85 671.009 1552.97 671.906 1553.28C672.803 1553.58 673.632 1554.06 674.344 1554.68C675.056 1555.31 675.638 1556.07 676.057 1556.92C676.476 1557.77 676.724 1558.69 676.786 1559.64C676.848 1560.58 676.723 1561.53 676.418 1562.43C676.113 1563.32 675.635 1564.15 675.01 1564.87C674.386 1565.58 673.627 1566.16 672.777 1566.58C668.535 1568.67 661.121 1572.45 653.947 1576.19C646.773 1579.93 639.31 1583.68 634.984 1585.81C622.33 1592.04 607.994 1599.12 592.168 1600.23C591.063 1600.23 589.921 1600.26 588.78 1600.26Z"/><path fill="#3A3A3A" d="M760.235 1658.31C755.693 1658.33 751.16 1657.93 746.692 1657.11C727.345 1653.5 711.134 1641.33 704.417 1625.3C703.848 1623.94 703.707 1622.45 704.014 1621.01C704.321 1619.57 705.062 1618.26 706.136 1617.25L744.012 1581.69C744.7 1581.03 745.512 1580.51 746.403 1580.16C747.293 1579.81 748.244 1579.64 749.2 1579.67C750.156 1579.69 751.097 1579.9 751.97 1580.29C752.843 1580.68 753.629 1581.24 754.283 1581.94C754.938 1582.64 755.447 1583.46 755.781 1584.35C756.115 1585.25 756.268 1586.2 756.23 1587.16C756.192 1588.11 755.965 1589.05 755.561 1589.92C755.157 1590.79 754.585 1591.56 753.878 1592.21L719.943 1624.06C725.747 1633.52 736.574 1640.57 749.324 1642.93C761.857 1645.26 776.41 1643.4 792.584 1637.41C819.353 1627.4 842.665 1609.88 859.722 1586.94L861.272 1584.82C865.586 1578.81 870.489 1572.12 878.096 1568.15C884.849 1564.62 892.083 1564.08 899.509 1563.79C927.485 1562.73 955.808 1563.57 983.206 1564.38C1002.04 1564.93 1021.5 1565.49 1040.59 1565.45C1128.77 1565.21 1224.74 1551.7 1334.02 1524.18L1337.08 1523.41C1364.63 1516.45 1393.13 1509.26 1421.94 1513.98C1425.78 1514.6 1432.21 1515.66 1433.82 1513.71C1434.63 1512.74 1434.94 1510.19 1435.23 1507.93L1435.35 1506.9C1436.88 1495.47 1440.85 1484.51 1447.01 1474.77C1453.16 1465.02 1461.35 1456.71 1471 1450.42C1471.8 1449.86 1472.7 1449.46 1473.65 1449.26C1474.6 1449.05 1475.58 1449.04 1476.54 1449.23C1477.5 1449.41 1478.4 1449.79 1479.21 1450.34C1480.02 1450.88 1480.7 1451.59 1481.23 1452.4C1481.76 1453.22 1482.11 1454.14 1482.27 1455.1C1482.44 1456.06 1482.41 1457.04 1482.18 1457.99C1481.95 1458.93 1481.54 1459.82 1480.96 1460.61C1480.38 1461.39 1479.64 1462.04 1478.8 1462.53C1470.91 1467.68 1464.22 1474.46 1459.19 1482.43C1454.16 1490.39 1450.91 1499.34 1449.65 1508.68L1449.54 1509.64C1449.04 1513.65 1448.42 1518.64 1444.93 1522.86C1438.04 1531.16 1426.9 1529.35 1419.62 1528.15C1393.76 1523.92 1366.75 1530.73 1340.61 1537.33L1337.54 1538.11C1227.12 1565.91 1129.99 1579.55 1040.62 1579.81C1021.32 1579.81 1001.72 1579.28 982.786 1578.72C955.628 1577.93 927.509 1577.1 900.062 1578.14C894.054 1578.36 888.863 1578.72 884.777 1580.86C880.199 1583.27 876.69 1588.07 872.964 1593.23L871.354 1595.44C852.621 1620.65 827.004 1639.92 797.583 1650.92C784.365 1655.84 771.795 1658.31 760.235 1658.31Z"/><path fill="#3A3A3A" d="M874.406 1823.34C872.693 1823.34 871.036 1822.72 869.732 1821.61C868.428 1820.5 867.564 1818.96 867.292 1817.27C860.167 1772.79 850.469 1728.76 838.248 1685.4C837.99 1684.48 837.915 1683.53 838.026 1682.59C838.137 1681.65 838.433 1680.74 838.895 1679.92C839.358 1679.09 839.979 1678.36 840.722 1677.78C841.466 1677.19 842.317 1676.75 843.229 1676.5C844.14 1676.24 845.093 1676.17 846.033 1676.28C846.974 1676.39 847.883 1676.68 848.709 1677.15C849.536 1677.61 850.263 1678.23 850.849 1678.97C851.436 1679.72 851.87 1680.57 852.127 1681.48C864.499 1725.38 874.317 1769.96 881.532 1815C881.681 1815.93 881.644 1816.89 881.422 1817.81C881.201 1818.74 880.799 1819.6 880.241 1820.37C879.683 1821.14 878.979 1821.79 878.169 1822.28C877.36 1822.78 876.461 1823.11 875.524 1823.25C875.154 1823.31 874.78 1823.34 874.406 1823.34Z"/><path fill="#3A3A3A" d="M906.142 1757.15C904.652 1757.15 903.199 1756.69 901.984 1755.83C900.768 1754.97 899.849 1753.75 899.352 1752.34L881.255 1701.43C880.912 1700.53 880.753 1699.57 880.787 1698.61C880.82 1697.65 881.045 1696.71 881.449 1695.83C881.853 1694.96 882.427 1694.18 883.138 1693.53C883.849 1692.88 884.682 1692.39 885.588 1692.06C886.495 1691.74 887.456 1691.61 888.416 1691.66C889.376 1691.72 890.315 1691.97 891.177 1692.39C892.04 1692.82 892.809 1693.41 893.439 1694.14C894.069 1694.86 894.547 1695.71 894.846 1696.62L912.871 1747.54C913.511 1749.34 913.409 1751.32 912.589 1753.05C911.769 1754.77 910.297 1756.1 908.497 1756.74C907.739 1757.01 906.944 1757.14 906.142 1757.15Z"/><path fill="#3A3A3A" d="M852.607 609.994C851.144 609.994 849.716 609.549 848.512 608.719C847.308 607.888 846.385 606.711 845.866 605.343C835.195 577.308 825.341 548.54 816.593 519.844C816.277 518.928 816.148 517.958 816.216 516.992C816.283 516.025 816.544 515.082 816.984 514.219C817.423 513.356 818.033 512.59 818.775 511.967C819.517 511.345 820.377 510.878 821.304 510.595C822.231 510.312 823.205 510.219 824.168 510.321C825.132 510.424 826.065 510.719 826.911 511.189C827.758 511.66 828.501 512.297 829.097 513.061C829.692 513.825 830.127 514.702 830.376 515.638C839.04 544.022 848.786 572.478 859.337 600.212C859.675 601.098 859.836 602.041 859.809 602.988C859.783 603.935 859.57 604.868 859.182 605.733C858.795 606.598 858.241 607.378 857.552 608.029C856.863 608.68 856.052 609.188 855.167 609.525C854.348 609.832 853.481 609.991 852.607 609.994Z"/><path fill="#3A3A3A" d="M872.327 554.175C871.061 554.176 869.816 553.843 868.72 553.21C867.623 552.577 866.712 551.667 866.078 550.57L842.045 508.115C841.105 506.45 840.865 504.479 841.377 502.637C841.89 500.794 843.114 499.231 844.779 498.291C846.444 497.351 848.414 497.111 850.257 497.623C852.099 498.136 853.662 499.36 854.602 501.025L878.576 543.48C879.514 545.145 879.752 547.115 879.238 548.956C878.724 550.797 877.501 552.359 875.836 553.298C874.762 553.888 873.553 554.19 872.327 554.175Z"/><path fill="#3A3A3A" d="M897.85 481.798C896.744 481.798 895.653 481.543 894.661 481.053C893.669 480.563 892.803 479.852 892.13 478.974L879.008 461.91C878.431 461.159 878.007 460.302 877.76 459.387C877.514 458.472 877.451 457.517 877.573 456.578C877.696 455.638 878.003 454.732 878.476 453.911C878.949 453.09 879.579 452.37 880.33 451.792C881.081 451.215 881.939 450.791 882.854 450.545C883.769 450.298 884.723 450.235 885.663 450.358C886.602 450.48 887.508 450.787 888.33 451.26C889.151 451.733 889.871 452.363 890.448 453.114L903.57 470.19C904.392 471.258 904.898 472.534 905.032 473.875C905.165 475.215 904.92 476.566 904.325 477.775C903.729 478.983 902.807 480.001 901.663 480.712C900.518 481.423 899.198 481.799 897.85 481.798Z"/></svg>