<svg xmlns="http://www.w3.org/2000/svg" viewBox="0 0 1718.23 308.08"><g data-name="Layer 2"><g data-name="solid II"><path fill="none" stroke="#fe7624" stroke-linecap="round" stroke-linejoin="round" stroke-width="7" d="M3.5 168.66h1711.23"/><circle cx="1053.57" cy="171.27" r="129.89" fill="#fff"/><g data-name="computer screen"><path fill="#fe7624" d="M1071.27 132H929.72a130.05 130.05 0 0 0 48.6 145.13h92.95a11 11 0 0 0 11-11V143a11 11 0 0 0-11-11Z"/><path fill="#fff" d="M1051.76 143.36H926.69a130.92 130.92 0 0 0-3 27.91 129.45 129.45 0 0 0 36.82 90.59h91.26a11 11 0 0 0 11-11v-96.5a11 11 0 0 0-11.01-11Z"/><path fill="none" stroke="#2e186a" stroke-linecap="round" stroke-linejoin="round" stroke-width="5" d="M1072.72 135.73v136.7"/></g><path fill="none" stroke="#2e186a" stroke-linecap="round" stroke-linejoin="round" stroke-width="5" d="M956.27 258.29V152.34h95.56v107.84"/><path fill="none" stroke="#2e186a" stroke-linecap="round" stroke-linejoin="round" stroke-width="5" d="M967.36 162.39h27v8.93h-27zM967.36 183.18h27M972.64 190.37h17.77M972.64 197.19h9.41M972.64 204.01h5.98M972.64 210.82h14.81M967.36 218.59h27M972.64 225.78h17.77M972.64 232.6h9.41M1001.68 180.27h39.77v31.88h-39.77zM1001.68 219.63h10.66v10.66h-10.66zM1016.23 219.63h10.66v10.66h-10.66zM1030.79 219.63h10.66v10.66h-10.66zM1001.68 168.07h12.56M1023.68 168.07h17.04M1001.68 237.53h40.26v19.13h-40.26zM926.34 152.34h15.19v80.26"/><g><path fill="#fff" stroke="#2e186a" stroke-linecap="round" stroke-linejoin="round" stroke-width="5" d="m1081.35 173.13 14.18 13.7 34.76-8.42-30.05-24.87-18.89 19.59z"/><path fill="#5d21d1" d="m1170.92 227-11.42-31.72a32.26 32.26 0 0 0-38.2-20.28c-8.33 2.08-18.46 5.05-30.38 9.29-39.77 14.14-27.55 48.68-25.78 61.79l56.27-8.32-5.89 38h15.28a130.4 130.4 0 0 0 40.12-48.76Z"/><path fill="#fff" stroke="#2e186a" stroke-linecap="round" stroke-linejoin="round" stroke-width="5" d="M1052.27 143.38c.15 6.13 4 34.17 23.61 35s31.6-17.71 32.44-36-8.27-33-20.66-33.78-36.44-9.6-35.39 34.78Z"/><path fill="#fe7624" d="M1106.88 86.07h7.04v12.39h-7.04z" transform="rotate(19.06 1110.168 92.196)"/><circle cx="1116.34" cy="77.33" r="12.39" fill="#2e186a"/><path fill="#2e186a" d="M1106.33 93.14c-10.82-4.06-22.55-6.3-33.16-2.72-32.24 12.57-33.57 36.31-20.9 47.83.38-16.85 4.92-24.79 10.91-28.33 5.78 10.41 25.73 20.2 44.4 21.4l.09.51c5.16-.37 13.2.52 13.27 9.63.11 12.57-12.6 11.2-14.22 11-.64 2.33.09 3.81-.9 6l9.36 8.46 34.63-6.42a3.73 3.73 0 0 0 3.71-4.73c-4.22-15.19-12.45-49.03-47.19-62.63Z" data-name="hair"/><path fill="#fff" stroke="#2e186a" stroke-linecap="round" stroke-linejoin="round" stroke-width="5" d="m1104.06 151.77 2.49.64s14.51 2.48 14.39-10.95c-.08-10.19-10.12-10.1-15-9.46"/><path fill="none" stroke="#2e186a" stroke-linecap="round" stroke-linejoin="round" stroke-width="5" d="M1072.93 163.14s4.34 2.47 7.07-2.79"/><path fill="none" stroke="#2e186a" stroke-linecap="round" stroke-linejoin="round" stroke-width="5" d="m1071.64 152.47-5.85.4 2.45-23.34"/><path fill="none" stroke="#2e186a" stroke-linecap="round" stroke-linejoin="round" stroke-width="5" d="M1089.26 127.75s-4.35-4.12-7.92-.9"/><path fill="none" stroke="#2e186a" stroke-linecap="round" stroke-linejoin="round" stroke-width="5" d="M1061.38 130.24s-4.87-3.48-8 .21" data-name="eyebrow"/><ellipse cx="1082.27" cy="139.25" fill="#2e186a" rx="1.94" ry="3.01" transform="rotate(-4.56 1082.216 139.185)"/><ellipse cx="1061.75" cy="140.95" fill="#2e186a" data-name="eye II" rx="1.94" ry="3.01" transform="rotate(-4.56 1061.646 140.882)"/><g><ellipse cx="1086.11" cy="134.98" fill="none" stroke="#fe7624" stroke-linecap="round" stroke-linejoin="round" stroke-width="5" rx="12.34" ry="16.27" transform="rotate(-5.6 1085.292 134.959)"/><ellipse cx="1051.31" cy="139.09" fill="none" stroke="#fe7624" stroke-linecap="round" stroke-linejoin="round" stroke-width="5" rx="12.34" ry="16.27" transform="rotate(-5.6 1050.56 138.999)"/><path fill="none" stroke="#fe7624" stroke-linecap="round" stroke-linejoin="round" stroke-width="5" d="m1063.82 135.47 9.75-.99M1098.49 131.25l11.52.68"/></g><path fill="#fff" stroke="#2e186a" stroke-linecap="round" stroke-linejoin="round" stroke-width="5" d="m1067.06 245.66 2.21 11s-53.47-2.65-70.27 19h120.33a9.24 9.24 0 0 0 9-11.56l-6.87-26.44Z"/><path fill="#2e186a" d="M1130.8 275.71H976.34a129.91 129.91 0 0 0 154.46 0Z"/></g><circle cx="1053.57" cy="171.27" r="129.89" fill="none" stroke="#fe7624" stroke-linecap="round" stroke-linejoin="round" stroke-width="7"/><g data-name="thinking woman"><circle cx="314.9" cy="173.5" r="131.08" fill="#fff"/><g data-name="thinking woman"><path fill="#5d21d1" d="M200 184.43v54.14a131.68 131.68 0 0 0 50.33 49.63h99.36V143.58H240.8a40.85 40.85 0 0 0-40.8 40.85Z"/><path fill="#fe7624" d="M313.76 304.58a130.42 130.42 0 0 0 67.46-18.68c-4.85-39.38-15-122-14.94-122.3s-82.85 1.31-90.94 2.07c-9.8.93-19.12 9.16-21.6 18.38h-.1l-32.15 82.55a130.66 130.66 0 0 0 92.27 37.98Z"/><g data-name="head"><path fill="none" stroke="#fe7624" stroke-linecap="round" stroke-linejoin="round" stroke-width="5" d="M297.26 156c-4.58.65-9.28-4.68-10.55-12a18.12 18.12 0 0 1 1.05-10.5M360.66 152.56c-4.58.65-9.28-4.68-10.55-12a18 18 0 0 1 1.05-10.5" data-name="earring back"/><path fill="#fff" stroke="#2e186a" stroke-linecap="round" stroke-linejoin="round" stroke-width="5" d="m332.41 149.31 2.67 12.55 11 .49c.9 1.61 6.72 31.32-21.17 32.34-18.29.67-29.41-14.87-36.74-28.67l15.35-1.57-6.11-34.59Z"/><ellipse cx="292.77" cy="124.69" fill="#fff" stroke="#2e186a" stroke-linecap="round" stroke-linejoin="round" stroke-width="5" data-name="ear II" rx="8.59" ry="9.03" transform="rotate(-65.58 292.785 124.686)"/><ellipse cx="354.72" cy="120.63" fill="#fff" stroke="#2e186a" stroke-linecap="round" stroke-linejoin="round" stroke-width="5" data-name="ear" rx="8.59" ry="9.03" transform="rotate(-65.58 354.74 120.624)"/><ellipse cx="324.08" cy="120.81" fill="#fff" stroke="#2e186a" stroke-linecap="round" stroke-linejoin="round" stroke-width="5" data-name="face" rx="28.53" ry="36.67" transform="rotate(-11.48 324.094 120.807)"/><path fill="none" stroke="#2e186a" stroke-linecap="round" stroke-linejoin="round" stroke-width="5" d="m329.3 130.51 5.43-.29a.88.88 0 0 0 .8-1.11l-4.2-14.74" data-name="nose"/><path fill="none" stroke="#2e186a" stroke-linecap="round" stroke-linejoin="round" stroke-width="5" d="M313.88 106.25s4.73-4.41 8.81-.88" data-name="brow II"/><path fill="none" stroke="#2e186a" stroke-linecap="round" stroke-linejoin="round" stroke-width="5" d="M335.81 104.47s6.11-2.41 8.68 2.24"/><ellipse cx="322.02" cy="116.99" fill="#2e186a" data-name="eye II" rx="3.25" ry="2.18" transform="rotate(-89.21 322.006 116.988)"/><ellipse cx="342.31" cy="117.37" fill="#2e186a" data-name="eye" rx="2.17" ry="3.26" transform="rotate(-5.21 342.54 117.45)"/><path fill="none" stroke="#2e186a" stroke-linecap="round" stroke-linejoin="round" stroke-width="5" d="M330.37 141.78s-10.06 8.57-13.2-8.77Z" data-name="mouth"/><path fill="#2e186a" d="M287.69 88.8c5.65-6.31 15.94-10.76 25.19-12.29l.06-.09c59.6-11.16 50.56 24.88 50.56 24.88l-10.63-.47c2.6 6.9 2.59 13.45-.27 17.71a2.42 2.42 0 0 1 0-.25 45.73 45.73 0 0 0-6.2-17.75l-31.43-1.39c.93-4.52-3.09-8.55-6.15-10.9.06 1.78.49 23-13.61 28.62a47.32 47.32 0 0 0 .4 6.45c.08.6.18 1.2.28 1.79-.89 0-1.76-.09-2.61-.2-10.47-1.41-15.61-24.91-5.59-36.11Z" data-name="hair"/><path fill="none" stroke="#fe7624" stroke-linecap="round" stroke-linejoin="round" stroke-width="5" d="M356.15 125.65c4.63-.8 9.42 4.56 10.71 12s-1.42 14.09-6 14.89h-.16M292.75 129.07c4.63-.81 9.43 4.56 10.71 12s-1.41 14.09-6 14.89h-.16" data-name="earring front"/></g><path fill="#fff" stroke="#2e186a" stroke-linecap="round" stroke-linejoin="round" stroke-width="5" d="M386.07 173.74c-5.81-4.71-10.71-9.22-13.59-13-2.51-3-4.6-5.33-6.33-7.17a21.76 21.76 0 0 0-15.88-6.85c-4.61 0-10 .2-12.54.92-5 1.4-21.47 5.7-20.72 8.31.53 1.85 9.37 1.4 13.91 1l7.77 11.63s4.07-.88 6.36-.49c4.68.79 9.8 3 12.54 1.71a133.58 133.58 0 0 0 9.47 16.33" data-name="hand"/><path fill="#fff" stroke="#2e186a" stroke-linecap="round" stroke-linejoin="round" stroke-width="5" d="M339.39 151.35s-11.09 5.47-10.61 9.66 3.83 3.27 3.83 3.27" data-name="finger III"/><path fill="#fff" stroke="#2e186a" stroke-linecap="round" stroke-linejoin="round" stroke-width="5" d="M341.44 155.85s-9.46 5.72-8.68 9.86 4.07 3 4.07 3" data-name="finger II"/><path fill="#fff" stroke="#2e186a" stroke-linecap="round" stroke-linejoin="round" stroke-width="5" d="M344.1 161.35s-11.26 7.06-5.08 9.77 8.38 1.41 8.38 1.41 2.62-3.29-3.94-4.74"/><path fill="#fe7624" d="M428.52 236.89c-7.15-15.94-29.3-68.94-38.8-75.45l-31.58 20.47 42.19 90a131.6 131.6 0 0 0 28.19-35.02Z"/><path fill="none" stroke="#2e186a" stroke-linecap="round" stroke-linejoin="round" stroke-width="5" d="m285.49 221.05-13.04 31.43 75.61 1.48" data-name="line"/><path fill="#2e186a" d="M342.24 194.82a3.29 3.29 0 0 0-3.12 2.82l-13.93 73.78-18.26-.08s-2.27 15.13 13.06 15c1.81 0 30.13.09 60.22.15a131.14 131.14 0 0 0 62.92-91.84Z"/></g><circle cx="314.9" cy="173.5" r="131.08" fill="none" stroke="#fe7624" stroke-linecap="round" stroke-linejoin="round" stroke-width="7"/><path fill="#2e186a" d="M288.21 82.27c9.61-8.34 13.23-48.34-16.54-72.62-30.13-24.58-51.28 4.65-55.89 12.28s-6.94 27.77 18.77 44.6 42.69 25.27 53.66 15.74Z"/><path fill="#fe7624" d="m285.78 90.33-2.13-2.53a7.81 7.81 0 0 1 1.14-11.35l.6-.46a8.74 8.74 0 0 1 11.87 1.4l3.06 3.61c-5.69 2.29-10.94 5.46-14.54 9.33Z"/><g><path fill="#fff" stroke="#2e186a" stroke-linecap="round" stroke-linejoin="round" stroke-width="6" d="M392.25 80.74c.58 1 1.18 2 1.82 3 2.11 3.25 8.27 13.61 8.27 23.88V121a9.81 9.81 0 0 0 9.81 9.81h12.14a9.81 9.81 0 0 0 9.81-9.81v-13.41c0-12.38 10.3-25.44 10.3-25.44l2.88-5.29a31 31 0 1 0-56.74.93Z"/><path fill="none" stroke="#2e186a" stroke-linecap="round" stroke-linejoin="round" stroke-width="6" d="M422.47 105c-.33-15.61-.73-41 4.64-44l.07-.07a5.25 5.25 0 0 1 3.45-1.34 5.31 5.31 0 0 1 2.2 10.18l-.21.08c-1.79 1.16-5.36.81-5.36.81-19.36-.48-17.4-.49-22.41-.49l-.38-.07a5.31 5.31 0 0 1 1.27-10.47 12.39 12.39 0 0 1 2.41.58c5.55 1 6.15 13.19 5.83 17.23V105M402.33 106.75h31.79M402.33 114.23h31.79M402.33 121.71h31.79"/></g></g><g><circle cx="1403.61" cy="170.27" r="131.08" fill="#fff"/><path fill="#2e186a" d="M1410.2 301.18a131.08 131.08 0 0 0 124.5-130.91v-2.49a56.79 56.79 0 0 0-28.45-7.6h-96Z"/><path fill="#fe7624" d="M1470.73 187.1c6.93-13.72 4.27-28-28-33.74-63-11.67-68.79 11.73-68.7 27-12.39 9.77-30.69 29.12-37.8 43.54l-20.61 43.46a131.11 131.11 0 0 0 204.48-36.92c-18.26-25.01-37.98-37.63-49.37-43.34Z"/><path fill="#2e186a" d="M1470.73 187.1c-7.18 14.23-24.68 27.86-30.17 30.73 14.14-.53 43.27-16.39 48.39-19.33a119.71 119.71 0 0 0-18.22-11.4Z"/><path fill="#2e186a" d="M1374.32 187.83c-.09-2-.3-4.58-.32-7.43q-5.77 4.54-10.86 9.22c4.07 7.88 12.3 19.82 21.29 25.37-2.69-5.61-9.5-13.08-10.11-27.16Z" data-name="shape II"/><path fill="#fff" d="m1450.48 171.42 6.58 6.77s-31.34 23.84-41.54 81.29c-6.63 37.32-4.37 41.52-4.37 41.52l-19.44-1s10.83-62.08 4.09-81.72-.58-41.7 4-45.28 50.68-1.58 50.68-1.58Z"/><path fill="#fff" stroke="#2e186a" stroke-linecap="round" stroke-linejoin="round" stroke-width="5" d="m1414.27 268.76-30 3.18-7.54 20.83s32.55.2 33.14 0 15.51-13.49 4.4-24.01Z" data-name="hand II"/><path fill="none" stroke="#2e186a" stroke-linecap="round" stroke-linejoin="round" stroke-width="5" d="M1478.62 251.21s-9.91 1-12.43 14M1437.83 214s-13.47 23.5-14.86 37.8M1388.66 214.67s3.93 20.24 2.41 34.53"/><path fill="none" stroke="#2e186a" stroke-linecap="round" stroke-linejoin="round" stroke-width="5" d="M1414.43 295.46c-4.28-1.65-5.65-3-5.65-3 5.55-8.86 0-23.54 0-23.54s1.45-.4 6-1.33 3-5.55 9.13-6.08 58.29 5.49 58.29 5.49"/><path fill="#2e186a" d="M1413.71 296.07c-4.64-1.74-6.12-3.14-6.12-3.14 6-9.39 0-24.94 0-24.94s1.57-.42 6.44-1.4a5.58 5.58 0 0 0 3.7-2.55c10 11.31 4 31.17 1.32 38.37-2.34-2.06-1.83-5.01-5.34-6.34Z"/><path fill="#5d21d1" d="M1403.61 301.35a134.06 134.06 0 0 0 15.48-.91l-.6-.22-5.79-5.37h-19.28l-16.49-69.79a3.36 3.36 0 0 0-3.26-2.59h-90.32a131.11 131.11 0 0 0 120.26 78.88Z"/><g data-name="head"><path fill="#fff" stroke="#2e186a" stroke-linecap="round" stroke-linejoin="round" stroke-width="5" d="M1447.19 128.52s11.72.22 9.62 10.71-15 4.43-15 4.43l1.73-14.92Z" data-name="ear"/><path fill="#fff" stroke="#2e186a" stroke-linecap="round" stroke-linejoin="round" stroke-width="5" d="M1413.79 95.44c-3.09-.25-24.26-1.58-26.57 16.08s.18 37.15 2.14 46.06 42.48 4.78 44.77 4a17.67 17.67 0 0 0 5-3.49l5.56-27.12s2.31-32.77-30.9-35.53Z" data-name="face"/><path fill="#fff" stroke="#2e186a" stroke-linecap="round" stroke-linejoin="round" stroke-width="5" d="m1442.8 144.15.77 20.68 6.22 7.14h0a179.82 179.82 0 0 0-36 31.4 72.34 72.34 0 0 1-16.92-39l36.38-9Z" data-name="neck"/><path fill="#968bb4" d="M1440.68 130.73c-2 2-7.4 13.17-8.71 18.4 0 0-13.34-4.4-32.45-4.66 0 0-10.42.2-14.57 1.41 0 0 .9 18.52 9.34 28.11s26.31 6.91 34.69 1.14 9.76-8.52 11.7-14.69 7.06-29.17 7.06-29.17Z"/><path fill="#2e186a" d="M1446.16 134.69s5.51-8.52 7.64-17.38a18.29 18.29 0 0 0-9.59-20.79c-6.45-3.13-11.24-.68-11.24-.68s6.85-11.66-3.42-22a18.74 18.74 0 0 0-13.76-5.48 18 18 0 0 0-16.42 11s-13.43-24.68-41-10.07c-2.78 1.47-5.91 5.58-7.41 8.34-9.09 16.76 20.88 36.62 36.49 38.19 17.14 1.72 27.17-1.12 32.69-5.31-4.08 2.49.54 28.13 26.02 24.18Z" data-name="hair"/><ellipse cx="1393.49" cy="136.21" fill="#2e186a" data-name="eye II" rx="1.65" ry="2.56"/><ellipse cx="1408.71" cy="135.79" fill="#2e186a" data-name="eye" rx="1.65" ry="2.56"/><path fill="none" stroke="#2e186a" stroke-linecap="round" stroke-linejoin="round" stroke-width="5" d="M1417.38 125.5a7.58 7.58 0 0 0-7.18-2.82" data-name="brow II"/><path fill="none" stroke="#2e186a" stroke-linecap="round" stroke-linejoin="round" stroke-width="5" d="M1395 122.41s-4.59-1.19-5.73 2.56" data-name="brow"/><path fill="none" stroke="#2e186a" stroke-linecap="round" stroke-linejoin="round" stroke-width="5" d="M1412.84 157.29s-.78 4.89-5.28 4.1" data-name="mouth"/><path fill="none" stroke="#2e186a" stroke-linecap="round" stroke-linejoin="round" stroke-width="5" d="m1400.24 137.34-1.85 16.13 5.69-1.45" data-name="nose"/></g><circle cx="1403.61" cy="170.27" r="131.08" fill="none" stroke="#fe7624" stroke-linecap="round" stroke-linejoin="round" stroke-width="7"/><g data-name="code lines"><rect width="170.41" height="97.76" x="1481" y="42.39" fill="#fff" stroke="#2e186a" stroke-linecap="round" stroke-linejoin="round" stroke-width="5" rx="21.86"/><g data-name="code lines"><path fill="#fe7624" d="m1510.56 62.47 10-6a1 1 0 0 1 .5-.13 1 1 0 0 1 1 1 1 1 0 0 1-.51.87l-8.55 5.16 8.57 5.14a1 1 0 0 1 .22 1.58 1 1 0 0 1-.71.29 1 1 0 0 1-.5-.12l-10-6a1 1 0 0 1 0-1.8ZM1532.35 52.63a1 1 0 0 1 .7-.28.94.94 0 0 1 .71.29 1 1 0 0 1 .3.71 1 1 0 0 1-.09.42l-8 20a1.05 1.05 0 0 1-.2.27 1 1 0 0 1-.71.3 1 1 0 0 1-.71-.29 1 1 0 0 1-.3-.71 1.07 1.07 0 0 1 .09-.43l8-20a1.32 1.32 0 0 1 .21-.28ZM1548.09 63.37a1 1 0 0 1-.55.9l-10 6a1 1 0 0 1-.5.12 1 1 0 0 1-.71-.29 1 1 0 0 1 .22-1.58l8.57-5.14-8.57-5.14a1 1 0 0 1-.51-.87 1 1 0 0 1 1-1 1 1 0 0 1 .5.13l10 6a1 1 0 0 1 .55.87Z" data-name="&lt;/&gt;"/><rect width="33.54" height="6.68" x="1508.19" y="90.51" fill="#5d21d1" rx="3.34"/><rect width="36.58" height="6.68" x="1508.19" y="121.54" fill="#5d21d1" rx="3.34"/><rect width="56.73" height="6.68" x="1517.44" y="111.21" fill="#feba91" rx="3.34"/><rect width="30.64" height="6.68" x="1577.34" y="111.21" fill="#feba91" rx="3.34"/><rect width="4.88" height="6.68" x="1613.47" y="100.88" fill="#5d21d1" rx="2.44"/><rect width="4.88" height="6.68" x="1622.01" y="90.51" fill="#5d21d1" rx="2.44"/><rect width="58.66" height="6.68" x="1508.19" y="100.86" fill="#5d21d1" rx="3.34"/><rect width="40.57" height="6.68" x="1543.61" y="90.51" fill="#feba91" rx="3.34"/><rect width="33.54" height="6.68" x="1586.76" y="90.51" fill="#fe7624" rx="3.34"/><rect width="4.88" height="6.68" x="1543.61" y="80.49" fill="#feba91" rx="2.44"/><rect width="33.54" height="6.68" x="1508.19" y="80.49" fill="#5d21d1" rx="3.34"/><rect width="33.54" height="6.68" x="1550.63" y="80.49" fill="#5d21d1" rx="3.34"/><rect width="41.38" height="6.72" x="1569.47" y="100.84" fill="#fe7624" rx="3.36"/></g></g></g><g data-name="man"><circle cx="683.29" cy="171.93" r="130.67" fill="#fff"/><g data-name="cap man"><path fill="#2e186a" d="M704.52 151h-77.88a46.33 46.33 0 0 0-46.33 46.33v52.63a131 131 0 0 0 61.31 45.25h62.9a3.91 3.91 0 0 0 3.91-3.9V154.86a3.91 3.91 0 0 0-3.91-3.86Z"/><path fill="#5d21d1" d="M746.84 170.26a40.79 40.79 0 0 0-27.17-12.69l-50.26 1.5a55.1 55.1 0 0 0-36.78 16c-11.88 11.55-22.31 52.78-24.29 77.54-1.57 19.7 41.32 42.6 52.07 48q3.92.69 7.91 1.14l32.37-.29a130.65 130.65 0 0 0 92.36-58.6 217 217 0 0 0-46.21-72.6Z"/><g data-name="lines"><path fill="none" stroke="#2e186a" stroke-linecap="round" stroke-linejoin="round" stroke-width="5" d="M628.75 236s10.76-5 25.49 5.08c0 0 16.62-28.29 14.86-43.26M686.93 265.47c-1.59-.88-33.09-24.25-33.09-24.25M744.38 188.54s2.65 28.06-3.3 31.69"/><path fill="#fff" stroke="#2e186a" stroke-linecap="round" stroke-linejoin="round" stroke-width="5" d="m673.65 161.34 13.37-34.13 29.32 18.68-3.59 16.51.94 35.1-40.04-36.16z" data-name="neck"/></g><g data-name="head"><path fill="#2e186a" d="M731.92 83.89s-24.84 15.82-12.68 30.49c0 0 5.43 6.14 9.87 4.9 0 0-3.29-5.21.47-7.94 0 0 1.24 15.68 14.07 12.42 0 0-4.75-6.92-3.53-15.25 2.53-17.38-1.53-27.79-8.2-24.62Z" data-name="hair back"/><path fill="#fff" stroke="#2e186a" stroke-linecap="round" stroke-linejoin="round" stroke-width="5" d="M680.4 109s-5-30.58 26-36.09c2.88-.51 22.65-3.62 26.38 12.77a135.34 135.34 0 0 1 2.8 32.1s-.17 17.47-7 27.19-22.07 8.93-30.16 4.22-9.62-7.19-11.92-12.83-6.08-27.36-6.08-27.36Z" data-name="face"/><path fill="none" stroke="#2e186a" stroke-linecap="round" stroke-linejoin="round" stroke-width="5" d="m722.75 111.07 3.16 15-5.48-.87" data-name="nose"/><ellipse cx="729.72" cy="109.87" fill="#2e186a" data-name="eye II" rx="1.56" ry="2.41" transform="rotate(-5.34 729.094 109.754)"/><ellipse cx="714.91" cy="111.54" fill="#2e186a" data-name="eye" rx="2.41" ry="1.56" transform="rotate(-84.56 714.914 111.53)"/><path fill="none" stroke="#2e186a" stroke-linecap="round" stroke-linejoin="round" stroke-width="5" d="M706.07 100.77a7.14 7.14 0 0 1 6.66-2.91" data-name="brow II"/><path fill="none" stroke="#2e186a" stroke-linecap="round" stroke-linejoin="round" stroke-width="5" d="M726.35 96.59s5.36-2.46 7.74.77" data-name="brow"/><path fill="#2e186a" d="M704.54 86s12 41-15.26 45.36c0 0-15.88 2.93-19.55-2.66 0 0 11.48-6.2 10-12.77 0 0-12.85 14.3-24.2 4.18 0 0 18.79-3.27 17-20.19-1.3-12.15 27.75-23.75 32.01-13.92Z" data-name="hair front"/><path fill="#fe7624" d="m654.7 92.12 16.6-2.63c1.64-11.21 8-27.28 31-30.11 35.82-4.43 37.14 30.45 37.14 30.45l-83 13a5.42 5.42 0 1 1-1.7-10.7Z"/><path fill="none" stroke="#2e186a" stroke-linecap="round" stroke-linejoin="round" stroke-width="5" d="M709.45 128.88s2.3 5.3 9.78 4.06" data-name="mouth"/></g><path fill="#fe7624" d="M702.61 212.28a3.55 3.55 0 0 0-3.46 2.74l-17 72h-31.6s-1.62 8.39 4.72 12.52a131.88 131.88 0 0 0 13.87 2.26h28.05a130.81 130.81 0 0 0 110.41-89.52Z"/></g><circle cx="683.29" cy="171.93" r="130.67" fill="none" stroke="#fe7624" stroke-linecap="round" stroke-linejoin="round" stroke-width="7"/><path fill="#fff" stroke="#2e186a" stroke-linecap="round" stroke-linejoin="round" stroke-width="5" d="M759.04 28.6h52.1v52.1h-52.1z" transform="rotate(1.49 783.326 54.423)"/><path fill="#fff" stroke="#2e186a" stroke-linecap="round" stroke-linejoin="round" stroke-width="5" d="m758.38 79.56 53.43-50.28M759.72 27.93l50.74 53.44"/><g><g data-name="button"><rect width="54.85" height="17.87" x="767.73" y="93.62" fill="none" stroke="#2e186a" stroke-linecap="round" stroke-linejoin="round" stroke-width="5" rx="7.8"/><circle cx="812.75" cy="102.19" r="13.83" fill="#5d21d1"/></g></g></g></g></g></svg>