<svg xmlns="http://www.w3.org/2000/svg" enable-background="new 0 0 156 156" viewBox="0 0 156 156"><path d="M41.9601135,84.5694122c1.1201172-0.6430664,1.7509766-2.0786133,1.4667969-3.3388672
			c-0.2851563-1.2607422-1.4716797-2.2861328-2.7597656-2.3842773c-0.5496597-0.0465317-1.1085052,0.062088-1.7080078-0.1191406
			c-1.5146484-0.4609375-1.9365234-2.4238281-1.5712891-4.1245117c1.0022583-4.6813354,5.1957779-8.4408035,5.0722656-10.1713867
			c-0.0962753-1.3329506-1.8209-1.8940887-2.9921875-2.8007774c-2.0957031-1.6171875-2.4267578-4.6254883-2.4804688-7.0654297
			c-0.1132813-5.1791992,0.2988281-10.3896484,1.2255859-15.487793c0.0610466-0.3251839,0.5505676-0.2359276,0.4921875,0.0898438
			c-0.9208984,5.0644531-1.3310547,10.2416992-1.2177734,15.387207c0.0546875,2.4731445,0.3691406,5.2011719,2.2851563,6.6806641
			c1.1795197,0.9083443,3.068573,1.5238647,3.1855469,3.1601524c0.1495667,2.0645676-4.071022,5.6013718-5.0820313,10.3120117
			c-0.2558594,1.1953125-0.140625,3.1245117,1.2285156,3.5415039c0.4880829,0.1482849,1.0380859,0.0560303,1.6015625,0.0986328
			c1.5224609,0.1166992,2.8720703,1.2827148,3.2089844,2.7729492c0.3359375,1.4902344-0.3818359,3.1230469-1.7070313,3.8828125
			C41.9221764,85.16745,41.6727142,84.7341461,41.9601135,84.5694122z"/><path fill="#5fff9f" d="M43.1197395,127.9459076c-2.6465683-3.1284866-2.0992928-6.2542801-1.3477936-9.930069
			c0.805954-3.9290085,1.8760109-7.8035583,3.2074699-11.5882797c2.12397-6.0597839,2.2040749-6.4292755,6.9404335-11.6454468
			c4.2813759-4.7190247,10.9629517-5.4328461,17.0774498-5.9901657c5.4837341-0.4982681,10.9048462,0.2423401,16.4103622,0.2314529
			c5.5055161-0.0081787,11.321434,0.8468094,15.615303,4.2938614c3.7438583,3.0032425,5.8458633,7.6020737,7.2154388,12.2063446
			c0.9150467,3.0762253,0.7464142,2.30513-0.2240295,9.6180725c-1.1333847,8.540802-1.746315,9.1763458-1.7337723,13.7165985
			L43.1197395,127.9459076z"/><path d="M94.8651123,54.9995499c-1.7800293,0-3.6699219,0.7900391-4.3499756,2.4299316l-0.0400391,0.5300293
			c-0.1482849-0.5931511-0.2388077-3.7900467-1.5499268-6.3601074c-1.6000977-3.1599121-4.4699707-5.4697266-7.6800537-6.1499023
			c-3.5999756-0.7700195-7.289917-1.0300293-10.9500732-0.7800293c-6.2563705,0.4153786-9.409256,2.4021759-12.4799156,7.2199707
			c-0.960022,1.5100098-1.4500122,4.130127-1.6099854,6.3400879l-0.1700439-1.0998535
			c-0.7099609-1.6000977-2.5899658-2.3400879-4.3599854-2.3200684c0.4280205-3.4375572,1.6818733-8.4168663,4.0800171-10.8500977
			c2.2199707-2.2700195,6.1400146-2.579834,8.6899986-0.7099609c0.3499756,0.25,0.8699951,0.1699219,1.0899658-0.1899414
			c2.1171341-3.3463936,6.3081512-4.2737465,10.249939-4.4799805c4.75-0.25,9.5500488,0.4599609,13.1000977,3.7199707
			S93.7750244,50.3796768,94.8651123,54.9995499z"/><path d="M51.8204651,70.3643341c-5.2411919,0-8.4398956-4.9906616-7.6816406-9.2680626
			c0.5976563-3.3676758,3.6201172-6.1645508,7.0322266-6.5053711c1.8544922-0.1772461,4.2402344,0.512207,5.0927734,2.4375
			c0.1340675,0.3034134-0.3240128,0.5043602-0.4570313,0.2021484c-0.7529297-1.6992188-2.90625-2.3071289-4.5878906-2.1420898
			c-3.1953125,0.3193359-6.0283203,2.9399414-6.5878906,6.0947266c-0.5615234,3.164547,1.1933594,6.5996056,4.0820313,7.9912071
			c2.8125,1.3676758,6.5527344,0.6557617,8.6982422-1.6547852c0.2309036-0.2426834,0.5895309,0.1001358,0.3671875,0.3398438
			C56.2726135,69.4810333,54.0314026,70.3643341,51.8204651,70.3643341z"/><path d="M94.717926,70.6460724c-1.9765625,0-3.8652344-0.7973633-5.2890625-2.3310547
			c-0.224556-0.2420959,0.1413727-0.5821152,0.3671875-0.3398438c2.1367188,2.3022461,5.40625,2.8193359,8.3291016,1.3188477
			c2.8554688-1.4667969,4.5273438-4.9443359,3.8896484-8.0893517c-0.6376953-3.1445313-3.5332031-5.6958008-6.7363281-5.9345703
			c-1.6835938-0.1274414-3.8242188,0.5288086-4.5361328,2.2529297c-0.1257019,0.3049355-0.5891647,0.1149292-0.4628906-0.1914063
			c0.8076172-1.9526367,3.1757813-2.6943359,5.0361328-2.5605469c3.4179688,0.2553711,6.5087891,2.9780273,7.1894531,6.3339844
			C103.4452438,65.7420425,99.8310928,70.6440125,94.717926,70.6460724z"/><path d="M57.5538635,68.230545c-3.2304688-6.9296837-2.1240234-17.3837852,4.1904297-21.0024376
			c0.2870369-0.1658707,0.5348816,0.2703552,0.2480469,0.4335938c-6.0859375,3.487793-7.1240234,13.6245117-3.9853516,20.3579063
			c2.3876953,5.1254883,7.9130859,8.2939453,13.4599609,7.7036133c0.3394547-0.0249176,0.3743515,0.4628601,0.0527344,0.4970703
			C65.7396927,76.8338852,60.0174713,73.5194397,57.5538635,68.230545z"/><path d="M79.5890198,75.7544708c6.4101563-1.1450195,10.0654297-6.8012695,10.84375-11.8994102
			c0.8178329-5.5896187-0.7214355-7.3803368-0.0068359-7.5268555c0.1318359-0.0263672,0.2666016,0.0595703,0.2949219,0.1953125
			c2.1225967,10.4259224-3.5627975,18.3867912-11.0439453,19.7231407
			C79.3444901,76.302063,79.2685318,75.8121185,79.5890198,75.7544708z"/><path d="M71.4610901,87.7276154c-0.0820847-4.2187119-0.1253281-7.1631927-0.2109375-11.8149414
			c-0.0070801-0.3325577,0.4931107-0.3348465,0.5-0.0087891c0.0856018,4.6501312,0.1283264,7.5692673,0.2109375,11.8139648
			C71.9681168,88.0493774,71.4682693,88.061409,71.4610901,87.7276154z"/><path d="M80.9532776,86.8335724c0.0078201-2.2171402-0.6552124-8.8402939-0.6474609-11.0698242
			c0-0.3303375,0.5-0.3330841,0.5,0.0019531c-0.007843,2.2184906,0.6571121,8.8419952,0.6474609,11.0698242
			C81.4509048,87.1702576,80.9509354,87.1644135,80.9532776,86.8335724z"/><path d="M52.5353088,62.1280098c-1.2636719-1.3056641-3.4326172-1.6547852-5.046875-0.809082
			c-0.2954292,0.1535759-0.5236435-0.2897835-0.2324219-0.4423828c1.8017578-0.9443359,4.2255859-0.5561523,5.6386719,0.9038086
			C53.1249809,62.0188751,52.7637978,62.3656425,52.5353088,62.1280098z"/><path d="M49.8673401,64.022049c-0.2548828-0.9999962-0.0595703-2.1015587,0.5214844-2.9472618
			c0.1927414-0.2726593,0.5979233,0.0126114,0.4121094,0.2832031c-0.5009766,0.7285156-0.6689453,1.6787109-0.4492188,2.5410156
			C50.4335365,64.2192764,49.9475136,64.3427505,49.8673401,64.022049z"/><path d="M93.764801,61.9995918c1.3779297-1.4926758,3.7919922-1.940918,5.6152344-1.0395508
			c0.298317,0.1468086,0.0739517,0.5955696-0.2207031,0.4482422c-1.6347656-0.8061523-3.7939453-0.4067383-5.0273438,0.9301758
			C93.9113312,62.5811768,93.5388565,62.2443619,93.764801,61.9995918z"/><path d="M96.358551,64.0552521c0.1992188-0.8632774,0.0087891-1.8085899-0.5107422-2.5292931
			c-0.1914749-0.2673645,0.2102127-0.5615425,0.40625-0.2919922c0.6015625,0.8354492,0.8232422,1.9321289,0.5908203,2.9335899
			C96.771492,64.4896545,96.2834854,64.3778,96.358551,64.0552521z"/><path d="M73.8644104,61.0972481c0.9787598-0.3252411,1.7466812-0.356987,2.5683594-0.9033203
			c1.0078125-0.6645508,0.8710938-1.4916992,0.6826172-2.6367188c-0.0559235-0.335556-1.0030441-6.8089066-1.0849609-7.4179688
			c-0.0435028-0.3205566,0.4499588-0.4051361,0.4960938-0.0664063c0.0849533,0.631794,1.0342636,7.1147232,1.0820313,7.402832
			c0.1855469,1.1269531,0.3779297,2.2924805-0.8994141,3.1352539c-0.9091949,0.6037598-1.7229767,0.6397552-2.6865234,0.9609375
			C73.7045135,61.6778908,73.5542679,61.2002411,73.8644104,61.0972481z"/><path fill="#5fff9f" d="M80.9383774,90.8337555c1.4343491-0.2024765,2.666214-1.4132538,2.8982315-2.8412552
			c0.2320328-1.4301529-0.5568695-2.9657516-1.852005-3.6112137c0.8120956-0.5863953,0.6981964-1.9279404,0.0063248-2.6535492
			c-0.6939697-0.7235031-1.7444229-0.9639664-2.740036-1.0757828c-2.763237-0.3058624-5.6087494,0.1434555-8.1336365,1.3056946
			c-0.8732758,0.4028702-2.071373,0.7425003-2.3055115,1.8140335c-0.2003937,0.9070053,0.3163986,1.5609283,1.1664658,1.8583298
			c0.2151566,0.0759277,0.4767151,0.1392365,0.5631943,0.3501511c0.0738297,0.1856155-0.0358582,0.4029083-0.1919479,0.5294647
			c-0.1582031,0.1265488-0.3543777,0.189827-0.5336685,0.2826538c-1.3247223,0.6882782-1.2259445,2.6396179,0.1666412,3.1871948
			C75.7875977,92.2708893,79.4418716,90.8921509,80.9383774,90.8337555z"/><path d="M69.7833557,86.4575958c-0.9921875-0.5102539-1.1591797-1.7836914-1.1933594-2.8359375
			c-0.0096054-0.3398514,0.4888992-0.3307877,0.5-0.0166016c0.0783844,2.4397888,0.8912201,2.7275162,2.4931641,2.4760742
			l7.3808594-1.1582031c0.3400955-0.0427933,0.3958054,0.4438629,0.078125,0.4941406
			C71.0689163,86.6488495,70.6376648,86.8983154,69.7833557,86.4575958z"/><path d="M73.037262,90.4190216c-0.3250351-0.0572891-0.2381744-0.550827,0.0878906-0.4921875
			c2.3876953,0.4248047,4.8222656,0.4912109,7.234375,0.2006836c0.8144531-0.0976563,1.6533203-0.253418,2.2773438-0.7290039
			c0.8720703-0.6669922,1.1826172-1.9648438,0.7060547-2.9541016c-0.1428452-0.2985611,0.3081741-0.5145111,0.4511719-0.2167969
			c0.5751953,1.1948242,0.2001953,2.762207-0.8544922,3.5683594c-0.71875,0.5483398-1.6357422,0.722168-2.5205078,0.8276367
			C77.9623795,90.9211121,75.4779434,90.8532715,73.037262,90.4190216z"/><path d="M70.3103256,53.2447166c0.5038834,0.2809296,0.6722565,0.7916679,0.1114655,1.330719
			c-0.70121,0.6740341-2.2490616,1.2855949-3.2161026,1.3011131c-0.7322083,0.0117531-1.2388382-0.5244904-0.6102753-1.163662
			c0.3914871-0.3981056,0.873909-0.6993713,1.3641434-0.949604C68.7102966,53.380085,69.5166473,52.8022232,70.3103256,53.2447166z"/><path d="M83.9169312,52.4815674c0.1687393,0.2395859,0.2505493,0.5677605,0.1149368,0.8275299
			c-0.1148376,0.2199516-0.3558731,0.3425179-0.591629,0.4198723c-0.5964661,0.1957054-1.2394562,0.1894722-1.8654099,0.1420326
			c-2.7035904-0.2048874-3.163765-1.8677826-0.0009766-1.9417C82.4165039,51.9096107,83.393692,51.7386398,83.9169312,52.4815674z"/><ellipse cx="81.383" cy="55.474" rx=".628" ry=".992"/><path d="M68.7530823,67.9903107c-0.8742218-1.0622482-1.084671-2.8795319,0.1689453-3.5756836
			c1.3622513-0.7610397,2.4417419,0.4048538,3.4072266,1.6137695l0,0c0.9931793,1.2399139,1.5891876,0.2150345,2.5449219,0.5498047
			c0.2880859,0.1010742,0.5185547,0.328125,0.6464844,0.6386719C76.4901505,69.5598068,71.3354874,71.1241455,68.7530823,67.9903107
			z M69.1651917,64.8511505c-0.9643021,0.536377-0.6772232,2.0295563-0.0253906,2.8217773
			c2.2083588,2.6835251,6.6352615,1.4659729,5.9189453-0.2651367c-0.4569931-1.1079788-1.7210312,0.6793747-3.1201172-1.0668945
			l-0.0576172-0.0717773C71.1174469,65.3135605,70.2214584,64.2624588,69.1651917,64.8511505z"/><path d="M69.8417664,66.0188904c0.9137802,2.2503052,2.0435562,2.4761505,2.1120148,3.1398468
			c-0.9656143,0.1718521-2.4966965-0.7711487-3.0958786-1.4771957c-0.4596863-0.5416794-0.9305649-1.6639862-0.4183121-2.3295593
			C69.0205917,64.597084,69.6015778,65.4274063,69.8417664,66.0188904z"/><path d="M69.0431213,57.3892403c0.4277954-0.6533432,1.2336273-0.686573,2.0009766-0.559082
			c0.3311539,0.0547943,0.2370453,0.5522537-0.0820313,0.4931641c-0.5414124-0.0902367-1.1994553-0.1213722-1.5009766,0.3393555
			C69.384758,57.7795181,68.8614273,57.6641083,69.0431213,57.3892403z"/><path d="M73.5468445,49.4048462c0.3763885,0.3949661,0.7773285,0.7986107,1.2931747,0.9763031
			c0.1686325,0.0580864,0.3697357,0.085537,0.5135727-0.0199089c0.2934799-0.2151375,0.5636063-1.7143593,0.609314-2.0754967
			c0.9324646,0.4020538,3.3957443,3.0084991,8.1109161,3.0288658c1.22686,0.0052986,3.2463989-0.3230019,3.4984055-1.4519234
			c0.1044922-0.4681015-0.1456375-0.9348145-0.388916-1.3481598c-1.5519638-2.636879-3.3487396-5.3603439-6.1356201-6.6232758
			c-0.8357239-0.3787231-1.7316513-0.6096497-2.6346664-0.7722206c-3.091095-0.5564957-4.8437729-0.1095581-7.7160797,1.1762924
			c-1.2559509,0.562252-1.4085007,2.0422134-0.697937,3.0929108C70.9772797,46.8347893,72.3450089,48.1436882,73.5468445,49.4048462
			z"/><path d="M89.0050354,52.279377c-0.2501602-0.6436234-1.0716629-2.1161118-1.4335938-2.4609375
			c0.0171356,0.1071091,0.0398941,0.2415352,0.0039063,0.3544922c-0.1191406,0.3696289-0.5429688,0.5395508-0.7705078,0.6303711
			c-3.6240234,1.4506836-8.0664063,0.5019531-10.8320313-2.237793c0.006485,0.7015648-0.0706558,1.5486526-0.6875,1.7822266
			c-0.4746094,0.1791992-1.0625-0.0576172-1.3691406-0.2158203c-0.4355469-0.2231445-0.7910156-0.5512695-1.0810547-0.8432617
			c-3.1371613-3.1594391-1.5808029-3.330658-1.46875-2.8637695c0.2001953,0.875,1.2158203,1.8994141,1.8232422,2.5112305
			c0.2617188,0.2636719,0.5810547,0.5595703,0.9550781,0.7509766c0.390625,0.2016602,0.75,0.2714844,0.9638672,0.1928711
			c0.4580078-0.173954,0.3661575-1.474968,0.3339844-1.9633789c-0.017334-0.2372169,0.2804794-0.3616791,0.4375-0.1806641
			c2.5751953,2.9672852,7.0927734,4.0600586,10.7392578,2.6035156c0.1181641-0.0473633,0.4326172-0.1738281,0.4794922-0.3193359
			c-0.0469894-0.2853889-0.0871124-0.4771156,0.0429688-0.6474609c0.1258392-0.1638527,0.3887634-0.2314262,0.6445313-0.0283203
			c0.5438538,0.4280319,1.4324799,2.1049309,1.6855469,2.753418C89.5911179,52.4064865,89.1268921,52.5870667,89.0050354,52.279377z
			"/><path d="M71.1179886,42.2143059c-0.0929871,3.0612526-2.715744,5.1403961-4.9255981,6.8248062
			c-2.2127151,1.6865997-3.6306915,2.4876556-7.5475655,1.4210434c-0.6725693-0.1831512-1.4366989-0.4931946-1.613842-1.1673698
			L71.1179886,42.2143059z"/><path d="M122.6351318,63.9695206c-0.6345825,0.7404938-4.1665497,1.1441345-5.1199951,0.4199219
			c0.0453339-0.4544067,0.1300049-1.0154762,0.1300049-1.3498535c0.3100586-0.0500488,0.6699219-0.0400391,0.8599854-0.0600586
			c1.1800537-0.119873,2.3699951-0.130127,3.5499268-0.0400391c0.2399902,0.0200195,0.5100098,0.0600586,0.6600342,0.2600098
			C122.8851318,63.4194717,122.8150635,63.7595596,122.6351318,63.9695206z"/><path fill="#f6d356" d="M121.9403076,52.6306534c0.0439453-3.2402344,0.2167969-6.5087891,0.5166016-9.7670898
				c-0.5498047,0.0957031-1.1123047,0.1411133-1.6767578,0.128418c0.2495117,3.3237305-0.3140869,6.6943359-1.6591797,9.8085938
				c1.0097656-0.027832,2.0196533-0.0058594,3.0273438,0.0666504
				C122.0316162,52.8445206,121.9385986,52.7534561,121.9403076,52.6306534z"/><path fill="#f6d356" d="M120.1287842,19.6675205c-8.1372757,0.3251686-14.5857925,6.8052616-14.432373,13.2443829
				c0.1663132,7.332119,8.5641098,13.0238609,7.7285156,20.4616699c-0.1826172,0.0842285-0.3270264,0.2070313-0.4488525,0.3479004
				c0.28479-0.217041,0.6907959-0.3237305,1.1043701-0.3730469c1.9387207-0.2374763,2.2269974-0.4228134,4.4851074-0.5263672
				c1.390625-3.119873,1.9726563-6.5131836,1.7116699-9.8554688c-3.1679688-0.2553711-6.0283203-2.2568359-6.9169922-4.8974609
				c-1.4234924-4.2229004,3.913063-6.4052505,6.0029297-1.1884766c0.7255859,1.8085938,1.1826172,3.6982422,1.3730469,5.6103516
				c0.5691757,0.0177879,1.1560974-0.0296783,1.7695313-0.1508789c0.1591797-1.65625,0.3515625-3.3100586,0.5751953-4.9555664
				c0.2705078-2.0009766,1.0166016-3.1269531,2.2802734-3.4433594c2.0699005-0.5155144,4.3102722,1.4782104,3.1044922,4.4658203
				c-0.8554688,2.125-3.0039063,3.7636719-5.4970703,4.3515625c-0.8670654,9.2900162-0.198761,10.0471764-0.751709,10.114502
				c1.0303421,0.0766983,3.28965,0.2899551,4.2341309,0.7016602c0.3244095-1.4456863,0.2768936-3.6205864,3.4638672-8.4804688
				c1.885498-2.8757324,4.1038818-5.6535645,5.0021973-8.9194336
				C137.2251282,27.7896042,130.0427551,19.2713737,120.1287842,19.6675205z"/><path fill="#f6d356" d="M115.5838623,34.3376846c-1.415451,0.1612091-2.433136,1.5500908-1.7490234,3.5717773
				c0.8037109,2.3925781,3.4941406,4.2773438,6.3955078,4.550293
				C119.9161758,39.427536,118.6074448,33.9721985,115.5838623,34.3376846z"/><path fill="#f6d356" d="M125.9647217,34.3679581c-1.572937,0-2.1781006,1.5287323-2.3876953,3.0839844
				c-0.2158203,1.5839844-0.4023438,3.1757813-0.5576172,4.7700195c2.2568359-0.5932617,4.2197266-2.1064453,4.9833984-4.0014648
				C128.9169464,35.9508133,127.6274643,34.3679581,125.9647217,34.3679581z"/><path fill="#f6d356" d="M113.5130615,56.4761124c0.1577148-0.0900879,0.3251953-0.1628418,0.5041504-0.2004395
				c-0.7632675-0.2682724-1.389801-0.8779526-1.4212646-1.7111816
				C112.4509888,55.439045,112.8406448,56.1056747,113.5130615,56.4761124z"/><path fill="#f6d356" d="M120.5227051,62.8620987c1.0858078-0.0087318,2.3123779-0.0704041,3.3717041-0.2858887
				C123.7398682,62.5945206,121.675415,62.7942352,120.5227051,62.8620987z"/><path fill="#f6d356" d="M113.6617432,60.4050674c0.1175537-0.1967773,0.2900391-0.3491211,0.52771-0.3986816
				c-0.0362549-0.0041504-0.0705566-0.0166016-0.1063232-0.0231934
				C113.8837891,60.074501,113.7479248,60.2253799,113.6617432,60.4050674z"/><path fill="#f6d356" d="M112.6591797,57.4531631c-0.7180252,1.1127281,0.1385651,2.2974701,1.2283936,2.487793
				C112.9454041,59.6540222,112.1999817,58.5736427,112.6591797,57.4531631z"/><path fill="#f6d356" d="M127.123291,54.034462c0.1101074,0.1142578,0.2174072,0.2314453,0.2874756,0.3815918
				c0.2438965,0.5212402,0.112793,1.1484375-0.217041,1.6259766
				C127.7859039,55.3750916,127.6178513,54.4451294,127.123291,54.034462z"/><path fill="#f6d356" d="M125.3996582,59.7563858c-0.0614014,0.0141602-0.1182861,0.0446777-0.1815186,0.0490723
				c0.1835938,0.0009766,0.3499756,0.0712891,0.4929199,0.1787109
				C125.6268311,59.8874893,125.5198975,59.8137589,125.3996582,59.7563858z"/><path fill="#f6d356" d="M126.0101318,56.9304581c-0.1938477,0.0773926-0.3919678,0.1445313-0.5939941,0.1918945
				c0.9500732,0.2115746,1.4749298,1.4474564,0.6608887,2.2712402
				C126.9522705,58.8364639,126.8797607,57.5754776,126.0101318,56.9304581z"/><path d="M117.5733948,63.1490059c-0.3364563-0.0155106-0.3013229-0.526268,0.0234375-0.4990234
			c2.4314499,0.1103058,6.3426971-0.3143082,6.6875-0.3852539c2.1666336-0.4025841,1.8005219-2.2050781,0.9306641-2.2050781
			c-0.3197327,0-0.336113-0.4747581-0.0195313-0.4990234c0.6244049-0.0482101,1.2070923-0.7301636,0.9824219-1.4125977
			c-0.0632553-0.1004181-0.1799469-0.5857468-0.7236328-0.7490234c-0.3110886-0.0750885-0.2925339-0.4795265-0.0927734-0.5234375
			c1.6370392-0.3590431,2.2036667-1.5402985,1.8271484-2.3505859c-0.3115234-0.65625-1.1494141-0.8886719-1.9277344-1.0292969
			c-5.1981735-0.9326019-8.4218216-0.243412-11.1445313,0.1020508c-0.5917969,0.0678711-0.9794922,0.230957-1.15625,0.4848633
			c-0.3233261,0.4668884-0.0290146,1.534996,1.140625,1.9619141c0.2362518,0.0872154,0.2093277,0.429287-0.0351563,0.4794922
			c-0.7519531,0.1557617-1.3359375,0.9067383-1.3007813,1.6743164c0.0341797,0.7661133,0.6855469,1.4672852,1.4511719,1.5629883
			c0.2787933,0.0348511,0.2952118,0.4361839,0.0195313,0.4926758c-0.6285095,0.1303558-0.9910431,1.6050797,0.8427734,2.0839844
			c0.3189621,0.0832596,0.1945877,0.5688438-0.1269531,0.4833984c-0.6357422-0.1655273-1.0947266-0.4399414-1.4033203-0.8388672
			c-0.4191055-0.5367699-0.4092331-1.4066772,0.0224609-1.8891602c-1.6416931-0.7331734-1.7614212-2.9467659-0.1777344-3.8417969
			c-0.5039063-0.3178711-0.8662109-0.777832-0.9912109-1.2817383c-0.2325821-0.9361801,0.17453-1.698761,1.6552734-1.8686523
			c2.8805237-0.3655815,5.9754257-1.0525627,11.2919922-0.0976563c0.8515625,0.1538086,1.8808594,0.4414063,2.2919922,1.309082
			c0.4492493,0.9645653-0.0629425,2.2917938-1.5478516,2.8652344c0.8844376,0.7024651,0.8475952,2.027359-0.1679688,2.6513672
			c0.2947845,0.2484398,0.4501953,0.6669502,0.4501953,0.7705078c0.1693649,0.5971298-0.2253342,1.2930412-0.796875,1.6943359
			c-0.6093674,0.4313507-1.3685074,0.5034065-2.1181641,0.5742188
			C121.5588684,63.0540504,119.5275497,63.2410278,117.5733948,63.1490059z"/><path d="M122.5675354,56.9458809c-1.1305466-0.0237923-3.8797379,0.0149345-8.3017578-0.3310547
			c-0.3439713-0.0268364-0.2758331-0.5551224,0.0390625-0.4980469c7.8737946,0.6147003,8.5126953,0.0212479,8.5126953,0.5795898
			C122.8175354,56.8340645,122.7052307,56.9458809,122.5675354,56.9458809z"/><g><path d="M114.5157776,60.2232246c-0.3170242,0-0.3374023-0.4710159-0.0214844-0.4990234
			c2.4892578-0.2177734,5.0263672-0.3154297,7.5214844-0.2939453c0.3295212,0.003479,0.3276901,0.5-0.0019531,0.5
			c-2.6254501,0-4.7183762,0.0502548-7.4765625,0.2919922C114.530426,60.2227364,114.5226135,60.2232246,114.5157776,60.2232246z"/></g><g><path d="M133.3673401,23.116291c0.0732422-0.9926758,0.3652344-1.9814453,0.8427734-2.8588867
			c0.16008-0.2900105,0.5964203-0.0512371,0.4394531,0.2392578c-0.4443359,0.8154297-0.7158203,1.734375-0.7841797,2.6567383
			C133.8406219,23.4865532,133.3415222,23.4472275,133.3673401,23.116291z"/></g><g><path d="M135.4571838,25.6646309c1.7041016-1.6220703,3.5117188-3.1689453,5.3720703-4.5976563
			c0.2686462-0.2008934,0.5641174,0.1972752,0.3046875,0.3964844c-1.8466797,1.4179688-3.640625,2.9536133-5.3330078,4.5634766
			C135.5625305,26.2556019,135.2168121,25.8921623,135.4571838,25.6646309z"/></g><g><path d="M136.577301,28.7925606c1.7626953-0.5654297,3.5683594-1.0517578,5.3671875-1.4453125
			c0.3289642-0.0685329,0.4262085,0.4189796,0.1074219,0.4882813c-1.7841797,0.390625-3.5742188,0.8725586-5.3222656,1.4335938
			C136.4080505,29.3680725,136.2672119,28.8924809,136.577301,28.7925606z"/></g><g><path d="M25.974762,124.5103302c-5.1347656-2.3139648-9.25-7.0463867-11.00879-12.6586914
			c-1.3339844-4.2573242-2.1630859-9.909668,0.7871094-13.9101563c-0.7197266-1.2104492-0.9072266-2.6459961-0.9863281-3.7998047
			c-0.6123047-8.8803711,4.2773447-17.918457,12.1669931-22.4902344c0.2822132-0.1671906,0.5387669,0.2659302,0.25,0.4326172
			C19.4552307,76.562088,14.6661673,85.412674,15.2648001,94.1074982c0.0722656,1.0410156,0.234375,2.3212891,0.82129,3.4082031
			c2.8964405-3.4767532,5.6935368-2.1389008,5.5039063,0.1064453c-0.2374744,2.8304062-3.7759476,3.1077576-5.5351563,0.7709961
			c-0.0009766-0.0024414-0.0029297-0.0048828-0.0048828-0.0073242c-2.7001963,3.8310547-1.8867197,9.2304688-0.6074228,13.3164063
			c1.7167978,5.4785156,5.7304697,10.0961914,10.7373056,12.3520508
			C26.4817295,124.1900101,26.2746849,124.6470642,25.974762,124.5103302z M16.3644104,97.9673615
			c1.4689693,2.1055298,4.5254173,2.0124969,4.7275391-0.3876953
			C21.2425613,95.8007355,18.9439926,94.7319565,16.3644104,97.9673615z"/></g><g><path fill="#2c56fe" d="M95.8199539,26.3312359c0.0669937-0.0098629,1.9917145,0.3266582,2.0818787,0.4305992
			c0.1979828,0.2282219-0.065712,0.2852592-0.5904083,0.5614376c-0.7642365,0.4022617-2.860199,1.5054893-3.65271,1.9226322
			c-25.2500305,13.290556-24.4419937,12.8782368-24.4762726,12.8832836l-7.9533005,0.6226578
			c-0.4107246-0.0613632-22.914875-3.423317-22.9910393-3.4361839c-0.8399048-0.14188-0.3945313-0.1758003,27.9362526-17.8019753
			C67.0369186,20.9770374,65.8406906,20.9809246,95.8199539,26.3312359z"/></g><g><path fill="#2c56fe" d="M91.2512741,44.010849c0.2781677-0.7170982-0.0590515-1.6516685-0.1895142-2.3671989
			c-0.422287-2.3161201-1.3042526-7.1536942-1.5763168-8.6459389c-0.1728439-0.9480553-0.1298447-1.7915325-1.001976-2.3898392
			c-0.9020691-0.6188412-2.0654449-0.7131462-3.1115723-0.9042168c-12.9901581-2.3725948-24.41436,0.2463036-34.3261299,6.9712868
			c-0.5715675,0.3878021-2.473732,1.67099-2.9748611,2.2163506c-1.0633507,1.1572037-0.1998672,3.2666206,0.0809288,4.6083221
			c0.3510208,1.6772575,0.7020454,3.3545189,1.0530701,5.0317802c0.2979622,1.4237366,0.5280838,2.8520508,2.070015,3.4281998
			c0.8537216,0.3189964,0.5044823-0.2015915,6.79216-2.756916c11.6642151-4.7403603,21.0456085-5.5843506,31.1126404-4.9441605
			C89.7447052,44.294445,90.9932785,44.6759567,91.2512741,44.010849z"/><path d="M51.1876526,52.1939278c-1.6035156-0.5991211-1.9003906-2.0341797-2.1875-3.421875l-1.09375-5.2211914
			c-0.2955132-1.4292564-1.1885605-3.5556755-0.0205078-4.8286133c0.5282745-0.5729218,2.4882851-1.8938637,3.0195313-2.2543945
			c8.8785248-6.022543,18.6975861-8.5970459,29.359375-7.7001953c2.7061768,0.2276001,4.5276642,0.5898743,5.6884766,0.78125
			c0.921875,0.1508789,1.8759766,0.3071289,2.671875,0.8530273c0.9558182,0.6552544,0.9242859,1.542841,1.1064453,2.5507813
			c1.6444168,8.9787064,1.5253296,8.4539757,1.6787109,9.1245117c0.1474304,0.6385536,0.3964767,1.7583313-0.0810547,2.2739258
			c-0.0009766,0.0004883-0.0009766,0.0009766-0.0009766,0.0014648c-0.3974609,0.4208984-1.1513672,0.3032227-1.7587891,0.2084961
			c-0.5265808-0.0811386-1.2464371-0.0889015-2.09375-0.1464844c-9.4367828-0.632225-19.222908,0.9183502-29.3144531,5.0195313
			C51.9999809,51.938633,52.1663322,52.557354,51.1876526,52.1939278z M51.186676,36.881916
			c-0.5845032,0.3959045-2.4584389,1.6633873-2.9326172,2.1787109c-0.9544449,1.0401154-0.128891,3.0881577,0.1425781,4.3876953
			l1.0927734,5.222168c0.2714844,1.3125,0.5283203,2.5527344,1.8730469,3.0546875
			c0.4725189,0.1779861,0.750248-0.104969,1.2773438-0.3637695c23.3354416-11.4165955,37.9256668-6.2392159,38.3779297-7.4394531
			c0.2439728-0.6305771-0.0714645-1.5277214-0.2021484-2.2333984c-1.6495972-9.0826492-1.5566254-8.4706726-1.6542969-9.1401367
			c-0.1054688-0.7275391-0.1894531-1.3022461-0.8193359-1.734375c-0.8526459-0.5850124-1.9953537-0.6776657-3.0146484-0.8642578
			C72.7638702,27.6554413,61.3414688,29.9858665,51.186676,36.881916z M91.1456604,44.1812325h0.0058594H91.1456604z"/></g><g><path fill="#b0d8ff" d="M44.5400429,86.7508469c-0.4873161,2.3072357-1.7139244,4.5727921-2.0015106,4.7348328
			c-0.6540451,0.3685226-4.6539383-1.9281158-4.9050484-2.0592728c-0.7042961-0.3678513-0.7377052-0.6528549-0.6074409-1.1317749
			c0.6178627-2.2716293,2.1253967-4.4496155,4.360569-5.1885834c0.5930176-0.1960602,1.2278328-0.1306686,1.8169518,0.0642471
			C44.7573471,83.6843948,44.828186,85.3866043,44.5400429,86.7508469z"/></g><g><path d="M105.9044495,128.4458771c2.2380066-21.3905869,7.7044144-44.9898911,8.2353516-48.6625977
				c0.5675278-3.935585-1.6937332-6.8320999-2.1220703-10.6723633c-0.7258224-6.4652596,6.6591187-9.8872604,5.7177734-5.348629
				c-0.4323044,2.0330772-0.8680954,3.7294502,0.7890625,5.0248985c1.4314346,1.1197281,3.5053787,0.3829727,4.4453125-1.0908203
				c0.9128113-1.428627,1.2227783-3.1279297,1.0419922-4.0654259c-0.2182465-1.1082726-0.0779648-1.3578377,0.9375-1.6401367
				c0.2949219-0.0830078,0.5498047-0.1542969,0.7460938-0.3642578c0.4665985-0.4973488,0.246994-1.3256798-0.4121094-1.5214844
				c-0.2624817-0.0778542-0.2251358-0.4630356,0.0478516-0.4887695c0.9214859-0.0852432,1.4213943-1.3657455,0.3203125-2.0170898
				c-0.2257538-0.1324692-0.4499359-0.2510262-0.4189453-0.4560547c0.035202-0.2328644,0.272644-0.2106018,1.0712891-0.5996094
				c0.2431259-0.1103439,0.408287-0.0740128,0.5888672,0.1030273c0.7832031,0.7631836,1.4355469,1.8056641,2.0527344,3.2802734
				c2.3424072,5.6035652-0.2466278,11.8158531-5.5498047,14.2094688c-0.300972,0.1363831-0.5069122-0.3191757-0.2050781-0.4560547
				c4.954071-2.2361221,7.5679932-8.1195984,5.2939453-13.5605431c-0.5908203-1.4106445-1.2070313-2.4003906-1.9414063-3.1152344
				l-0.5361328,0.2246094c1.0614166,0.6555824,1.0135422,2.1243286-0.0410156,2.7026367
				c0.6223068,0.5597763,0.6182175,1.4775047,0.0947266,2.0366211c-0.4798813,0.5127792-1.1429977,0.4534798-1.5654297,0.7338867
				c-0.2017822,0.1345215,0.0955429,1.0564575,0.0830078,1.4189415c-0.0458984,1.3710938-0.4560547,2.7006836-1.1865234,3.8447266
				c-1.107193,1.7337723-3.5131302,2.5145264-5.1757813,1.2148438c-2.8978653-2.2657852-0.1810684-5.8653526-1.0810547-6.8056602
				c-0.924202-0.9653358-5.1579056,1.8782463-4.6210938,6.680172c0.4183273,3.7266006,2.7054596,6.7583618,2.1201172,10.7993164
				c-0.5248718,3.639183-5.9984131,27.2896576-8.2314453,48.6430664
				C106.3672562,128.8286133,105.87146,128.7769928,105.9044495,128.4458771z"/><path d="M130.615387,136.0977325c-0.0019531-5.8085938-0.8095703-11.8745117-1.5898438-17.7407227
				c-1.0875397-8.1744385-3.0578995-26.8527527-3.0927734-32.3168945c-0.0085526-1.6078262-0.2383652-3.9070969,1.0263672-5.0991211
				c0.6591797-0.6206055,1.5664063-0.7060547,2.4433594-0.7885742c0.1000977-0.0284576,3.694809-0.1364594,6.453125-3.0537109
				c0.6054688-0.6391602,0.8818359-1.1801758,0.8691406-1.7026367c-0.0134277-0.5515671-0.5876312-1.1363297-1.0800781-0.940918
				c-0.3086395,0.1204224-0.490387-0.3440399-0.1835938-0.4658203c0.844101-0.3291931,1.7422028,0.5083771,1.7636719,1.394043
				c0.0214844,0.871582-0.5644531,1.5927734-1.0058594,2.059082c-2.942276,3.1114273-6.6609192,3.1765976-6.7695313,3.2075195
				c-0.7929688,0.074707-1.6132813,0.1518555-2.1464844,0.6552734c-0.9599609,0.9033203-0.9140625,2.7705078-0.8808594,4.1337891
				c0.1137238,4.9016037,0.0289459,3.4641495,0.7626953,11.375c2.3049164,24.9189072,3.9273987,29.5221405,3.9306641,39.2836914
				C131.115387,136.4285583,130.615387,136.4283752,130.615387,136.0977325z"/><path d="M125.5724182,76.0147247c4.9916077-1.9913788,7.7896271-6.6174927,7.71875-8.8364258
				c-0.0557709-1.6732101-1.5225525-3.0026321-2.921875-2.1142578c-0.3710938,0.2358398-0.59375,0.5722656-0.6279297,0.9477539
				c-0.0276184,0.3221283-0.5288086,0.2887955-0.4980469-0.0449219c0.1115875-1.2262421,1.5956879-1.984169,2.7529297-1.5625
				c1.1914063,0.4335938,1.7597656,1.6977539,1.7949219,2.7578125c0.0772095,2.4294968-2.8292542,7.2407532-8.0332031,9.3173828
				C125.4417648,76.6019745,125.2719498,76.1351471,125.5724182,76.0147247z"/><path d="M126.6954651,78.718338c-0.315155,0-0.3392563-0.4677582-0.0244141-0.4990234
				c4.6144409-0.4547272,8.2836151-3.3599854,9.1767578-5.40625c0.4150391-0.9467773,0.4160156-1.9702148,0.0029297-2.7387695
				c-0.4521484-0.8413086-1.4472656-1.3149414-2.2734375-1.0800781c-0.1318359,0.0395508-0.2714844-0.0390625-0.3085938-0.1713867
				c-0.1843109-0.6427231,2.1252594-0.6571579,3.0234375,1.0151367c0.484375,0.9023438,0.4892578,2.0893555,0.0146484,3.175293
				c-0.95755,2.1942825-4.770874,5.228241-9.5869141,5.7041016C126.7120667,78.7178497,126.7032776,78.718338,126.6954651,78.718338
				z"/></g></svg>