<svg xmlns="http://www.w3.org/2000/svg" enable-background="new 0 0 600 500" viewBox="0 0 600 500"><path fill="#d2e4ff" d="M541.3 440.3c1.2-4.7 1-10.1-.5-14.6-3.2-9.9-10.2-18-13.4-27.9-8.3-25.5 10.1-51.1 19.1-76.4 8.9-25.3 8.2-54.2-1.9-78.9-10.2-24.7-29.7-45-53.2-55.3-14.2-6.2-31.6-10.6-37.5-25.6-10.4-26.3 25.9-54.9 15.1-81-4-9.6-13.7-15.4-23.4-16.9-9.8-1.5-19.7.7-29.2 3.3-32.8 9-64.1 23-96.9 31.4-32.8 8.4-68.3 11-99.4-2.9-24.8-11-46.2-32.1-73-35.5-23.1-2.9-47.2 9.4-59.5 30.2-12.3 20.9-12.1 49.3.5 69.9 5.3 8.7 12.6 16.1 17.3 25.2 14.3 27.9.8 62.6-16.6 88.4-17.5 25.8-39.6 50.3-44.3 81.6-5.4 36.7 15.5 74.7 53 84.9h443.8z" opacity=".3"/><path fill="#c6e2fa" d="M127.1 108.5H97.8c-.2 0-.4-.2-.4-.4s.2-.4.4-.4h29.3c.2 0 .4.2.4.4s-.2.4-.4.4zM127.1 123.1H97.8c-.2 0-.4-.2-.4-.4s.2-.4.4-.4h29.3c.2 0 .4.2.4.4s-.2.4-.4.4zM121.8 115.8H80.4c-.2 0-.4-.2-.4-.4s.2-.4.4-.4h41.4c.2 0 .4.2.4.4s-.2.4-.4.4z"/><path fill="#c6e2fa" d="M103.9 108.5c-.2 0-.4-.2-.4-.4V102c0-.2.2-.4.4-.4s.4.2.4.4v6.2c-.1.2-.2.3-.4.3zM114.1 115.8c-.2 0-.4-.2-.4-.4v-7.3c0-.2.2-.4.4-.4s.4.2.4.4v7.3c0 .2-.2.4-.4.4zM106.3 122.8c-.2 0-.4-.2-.4-.4v-7c0-.2.2-.4.4-.4s.4.2.4.4v7c0 .2-.2.4-.4.4z"/><path fill="#060405" d="M172.7 371.8c-4.7 0-9.4-.3-13.8-.7l.1-2c10.4.8 22.2 1.7 32.5-2.2 9.6-3.6 18.8-13 17.8-23.9-.5-6.1-4.2-12-5.7-18.2-1.8-7.6-.1-16 4.5-22.3 4.6-6.3 12-10.6 19.8-11.3l.2 2c-7.2.7-14.1 4.6-18.3 10.5-4.2 5.9-5.8 13.6-4.2 20.7 1.4 6.3 5.1 11.8 5.7 18.4 1.1 12-8.8 22.1-19.1 26-6.3 2.4-13 3-19.5 3z"/><path fill="#bdd6ff" d="M349.2 98.3v187.4c0 .7-.1 1.3-.2 2-1 4.6-5.2 8.1-10.3 8.1h-213c-5.8 0-10.5-4.5-10.5-10V98.3c0-5.5 4.7-10 10.5-10h213c5.7-.1 10.5 4.3 10.5 10z"/><path fill="#fff" d="M338.1 285h-76.8c-2.4 0-4.4-2-4.4-4.4V103.3c0-2.4 2-4.4 4.4-4.4h76.8c2.4 0 4.4 2 4.4 4.4v177.3c0 2.4-2 4.4-4.4 4.4z"/><path fill="#ff7545" d="M308.7 232c.8 0 1.5.7 1.5 1.5s-.7 1.5-1.5 1.5h-5.6c-.8 0-1.5-.6-1.5-1.5s.7-1.5 1.5-1.5h5.6z"/><path fill="#bdd6ff" d="M336.1 221.6c0 .8-.6 1.5-1.5 1.5h-20.4c-.8 0-1.5-.7-1.5-1.5s.7-1.5 1.5-1.5h20.4c.8.1 1.5.7 1.5 1.5zM336.1 197.9c0 .8-.6 1.5-1.5 1.5h-27.1c-.8 0-1.5-.6-1.5-1.5 0-.8.6-1.5 1.5-1.5h27.1c.8 0 1.5.7 1.5 1.5z"/><path fill="#6193f6" d="M290.5 197.9c0-.8.7-1.5 1.5-1.5h6.6c.8 0 1.5.7 1.5 1.5s-.7 1.5-1.5 1.5H292c-.8 0-1.5-.7-1.5-1.5z"/><path fill="#ff7545" d="M297.3 258.7H292c-.8 0-1.5-.7-1.5-1.5s.7-1.5 1.5-1.5h5.2c.8 0 1.5.6 1.5 1.5s-.6 1.5-1.4 1.5z"/><path fill="#bdd6ff" d="M290.5 209.8c0-.8.7-1.5 1.5-1.5h28.3c.8 0 1.5.7 1.5 1.5s-.6 1.5-1.5 1.5H292c-.8-.1-1.5-.7-1.5-1.5zM275.3 114.9c0 .8-.6 1.5-1.5 1.5h-9.1c-.8 0-1.5-.6-1.5-1.5s.6-1.5 1.5-1.5h9.1c.9 0 1.5.6 1.5 1.5z"/><path fill="#ff7545" d="M290.5 174.2c0-.8.7-1.5 1.5-1.5h12.8c.8 0 1.5.7 1.5 1.5s-.7 1.5-1.5 1.5H292c-.8-.1-1.5-.7-1.5-1.5z"/><path fill="#6193f6" d="M336.1 186c0 .8-.6 1.5-1.5 1.5h-6.9c-.8 0-1.5-.7-1.5-1.5s.6-1.5 1.5-1.5h6.9c.8.1 1.5.7 1.5 1.5z"/><path fill="#bdd6ff" d="M275.3 257.2c0 .8-.6 1.5-1.5 1.5h-9.1c-.8 0-1.5-.7-1.5-1.5s.6-1.5 1.5-1.5h9.1c.9.1 1.5.7 1.5 1.5zM275.3 233.5c0 .8-.6 1.5-1.5 1.5h-9.1c-.8 0-1.5-.6-1.5-1.5s.6-1.5 1.5-1.5h9.1c.9 0 1.5.7 1.5 1.5zM290.5 186c0-.8.7-1.5 1.5-1.5h16.5c.8 0 1.5.6 1.5 1.5 0 .8-.7 1.5-1.5 1.5H292c-.8 0-1.5-.7-1.5-1.5zM290.5 150.4c0-.8.7-1.5 1.5-1.5h25.6c.8 0 1.5.7 1.5 1.5s-.7 1.5-1.5 1.5H292c-.8 0-1.5-.6-1.5-1.5zM275.3 221.6c0 .8-.6 1.5-1.5 1.5h-9.1c-.8 0-1.5-.7-1.5-1.5s.6-1.5 1.5-1.5h9.1c.9.1 1.5.7 1.5 1.5zM275.3 186c0 .8-.6 1.5-1.5 1.5h-9.1c-.8 0-1.5-.7-1.5-1.5s.6-1.5 1.5-1.5h9.1c.9.1 1.5.7 1.5 1.5zM275.3 245.4c0 .8-.6 1.5-1.5 1.5h-9.1c-.8 0-1.5-.6-1.5-1.5s.6-1.5 1.5-1.5h9.1c.9 0 1.5.6 1.5 1.5zM275.3 174.2c0 .8-.6 1.5-1.5 1.5h-9.1c-.8 0-1.5-.7-1.5-1.5s.6-1.5 1.5-1.5h9.1c.9 0 1.5.7 1.5 1.5zM275.3 138.6c0 .8-.6 1.5-1.5 1.5h-9.1c-.8 0-1.5-.7-1.5-1.5s.6-1.5 1.5-1.5h9.1c.9 0 1.5.7 1.5 1.5zM275.3 162.3c0 .8-.6 1.5-1.5 1.5h-9.1c-.8 0-1.5-.6-1.5-1.5 0-.8.6-1.5 1.5-1.5h9.1c.9 0 1.5.7 1.5 1.5zM275.3 126.7c0 .8-.6 1.5-1.5 1.5h-9.1c-.8 0-1.5-.7-1.5-1.5s.6-1.5 1.5-1.5h9.1c.9 0 1.5.7 1.5 1.5zM275.3 197.9c0 .8-.6 1.5-1.5 1.5h-9.1c-.8 0-1.5-.6-1.5-1.5 0-.8.6-1.5 1.5-1.5h9.1c.9 0 1.5.7 1.5 1.5z"/><path fill="#6193f6" d="M290.5 233.5c0-.8.7-1.5 1.5-1.5h3.2c.8 0 1.5.7 1.5 1.5s-.6 1.5-1.5 1.5H292c-.8-.1-1.5-.7-1.5-1.5z"/><path fill="#bdd6ff" d="M275.3 269.1c0 .8-.6 1.5-1.5 1.5h-9.1c-.8 0-1.5-.7-1.5-1.5s.6-1.5 1.5-1.5h9.1c.9 0 1.5.7 1.5 1.5zM290.5 245.4c0-.8.7-1.5 1.5-1.5h9.7c.8 0 1.5.7 1.5 1.5s-.7 1.5-1.5 1.5H292c-.8-.1-1.5-.7-1.5-1.5z"/><path fill="#ff7545" d="M290.5 138.6c0-.8.7-1.5 1.5-1.5h11.2c.8 0 1.5.6 1.5 1.5 0 .8-.7 1.5-1.5 1.5H292c-.8-.1-1.5-.7-1.5-1.5z"/><path fill="#bdd6ff" d="M275.3 209.8c0 .8-.6 1.5-1.5 1.5h-9.1c-.8 0-1.5-.7-1.5-1.5s.6-1.5 1.5-1.5h9.1c.9 0 1.5.7 1.5 1.5zM290.5 221.6c0-.8.7-1.5 1.5-1.5h14.1c.8 0 1.5.6 1.5 1.5 0 .8-.7 1.5-1.5 1.5H292c-.8 0-1.5-.7-1.5-1.5zM310.7 269.1c0 .8-.6 1.5-1.5 1.5H299c-.8 0-1.5-.7-1.5-1.5s.7-1.5 1.5-1.5h10.2c.8 0 1.5.7 1.5 1.5zM318.7 257.2c0 .8-.7 1.5-1.5 1.5h-11.4c-.8 0-1.5-.7-1.5-1.5s.7-1.5 1.5-1.5h11.4c.9.1 1.5.7 1.5 1.5zM275.3 150.4c0 .8-.6 1.5-1.5 1.5h-9.1c-.8 0-1.5-.6-1.5-1.5s.6-1.5 1.5-1.5h9.1c.9.1 1.5.7 1.5 1.5zM328.6 269.1c0 .8-.7 1.5-1.5 1.5h-6.8c-.8 0-1.5-.7-1.5-1.5s.7-1.5 1.5-1.5h6.8c.9 0 1.5.7 1.5 1.5z"/><path fill="#6193f6" d="M325 151.9c-.8 0-1.5-.6-1.5-1.5s.6-1.5 1.5-1.5h5.1c.8 0 1.5.7 1.5 1.5s-.7 1.5-1.5 1.5H325z"/><path fill="#bdd6ff" d="M336.1 257.2c0 .8-.6 1.5-1.5 1.5h-7.9c-.8 0-1.5-.7-1.5-1.5s.7-1.5 1.5-1.5h7.9c.8.1 1.5.7 1.5 1.5zM336.1 245.4c0 .8-.6 1.5-1.5 1.5h-24.7c-.8 0-1.5-.6-1.5-1.5s.6-1.5 1.5-1.5h24.7c.8 0 1.5.6 1.5 1.5zM290.5 114.9c0-.8.7-1.5 1.5-1.5h19.3c.8 0 1.5.7 1.5 1.5s-.7 1.5-1.5 1.5H292c-.8-.1-1.5-.7-1.5-1.5zM336.1 233.5c0 .8-.6 1.5-1.5 1.5h-12.7c-.8 0-1.5-.6-1.5-1.5s.7-1.5 1.5-1.5h12.7c.8 0 1.5.7 1.5 1.5z"/><path fill="#6193f6" d="M320.9 114.9c0-.8.6-1.5 1.5-1.5h12.2c.8 0 1.5.7 1.5 1.5s-.6 1.5-1.5 1.5h-12.2c-.8-.1-1.5-.7-1.5-1.5z"/><path fill="#bdd6ff" d="M336.1 126.7c0 .8-.6 1.5-1.5 1.5h-35.8c-.8 0-1.5-.7-1.5-1.5s.7-1.5 1.5-1.5h35.8c.8 0 1.5.7 1.5 1.5zM336.1 174.2c0 .8-.6 1.5-1.5 1.5h-17.8c-.8 0-1.5-.7-1.5-1.5s.7-1.5 1.5-1.5h17.8c.8 0 1.5.7 1.5 1.5zM336.1 138.6c0 .8-.6 1.5-1.5 1.5h-18c-.8 0-1.5-.7-1.5-1.5s.7-1.5 1.5-1.5h18c.8 0 1.5.7 1.5 1.5zM336.1 162.3c0 .8-.6 1.5-1.5 1.5h-28.3c-.8 0-1.5-.6-1.5-1.5 0-.8.7-1.5 1.5-1.5h28.3c.8 0 1.5.7 1.5 1.5z"/><path fill="#fff" d="M131 99.7c0 1.7-1.5 3.1-3.2 3.1-1.8 0-3.2-1.4-3.2-3.1 0-1.7 1.4-3.1 3.2-3.1 1.7.1 3.2 1.4 3.2 3.1zM149.1 99.7c0 1.7-1.5 3.1-3.2 3.1s-3.2-1.4-3.2-3.1c0-1.7 1.4-3.1 3.2-3.1s3.2 1.4 3.2 3.1zM140 99.7c0 1.7-1.5 3.1-3.2 3.1-1.8 0-3.2-1.4-3.2-3.1 0-1.7 1.4-3.1 3.2-3.1 1.8.1 3.2 1.4 3.2 3.1zM519.7 343.6c0 .6 27.2 96 27.2 96"/><path fill="#060405" d="M546.2 439.8c-12.4-43.6-27.2-95.6-27.2-96.2h1.5-.8l.7-.1c.3 1.5 17.9 63.4 27.2 95.9l-1.4.4z"/><path fill="#fff" d="M487.3 343.6c0 .6-27.2 96-27.2 96"/><path fill="#060405" d="m460.8 439.8-1.4-.4c9.3-32.5 26.9-94.4 27.2-95.9l.6.1h.9c-.1.6-14.9 52.6-27.3 96.2z"/><path fill="#6193f6" d="m483.7 421.5-2.4-2.2 13.1-14.4c4.9 4.1 14 11.7 14.1 11.6L487.2 440c-8.5-6.3-3.5-18.5-3.5-18.5z"/><path fill="#060405" d="M484.1 436.6c.7 1.2 1.7 2.4 3.1 3.4l21.3-23.5s-1.5-1.1-3.6-2.8l-20.8 22.9z"/><path fill="#fff" d="M555.1 257.7c1.1-5.2 2.8-18.4-14.9-15.2-10.7 1.9-28 22.6-28 22.6h-5.7l-31.1 59.1v22.7"/><path fill="#060405" d="M476 346.9h-1V324l.1-.1 31.2-59.4h5.7c1.8-2.2 17.9-20.8 28.2-22.6 5.2-.9 9.2-.5 11.9 1.2l-.5.8c-2.5-1.6-6.2-1.9-11.2-1-10.4 1.8-27.6 22.2-27.7 22.4l-.1.2H507l-31 58.8v22.6z"/><path fill="#060405" d="M401.3 318.8c-6.7 34.6 79.8 99.3 79.8 99.3 1.2 1.4 15.6-12 14.3-13.4l-46-72.6 31-14.6-3-17.5-23.1-.9c.2 0-50.1 4.7-53 19.7z"/><path fill="#6193f6" d="M390.8 425v-3.3h19.5c.3 6.3.8 18.2.9 18.2h-31.7c-1.1-10.4 11.3-14.9 11.3-14.9z"/><path fill="#060405" d="M379.9 435.4c-.4 1.4-.6 2.9-.4 4.5h31.7c-.1 0-.2-1.9-.3-4.5h-31zM420.1 315c-16.8 18.6-29.3 108.5-29.3 108.5 0 2 19.6 3.3 19.6 1.4l39-81.4s49.2 7.2 59.8 0c10.6-7.2 15.7-33.6 15.7-33.6L495 306s-61.8-5.4-74.9 9z"/><path fill="#fff" d="m408.8 341.7-.5-.1c2.2-7.6 4.5-15.4 8.2-22.5 1-1.9 2.2-3.9 3.9-5.5 1.8-1.7 4.1-2.6 6.2-2.4v.5c-2-.1-4.1.7-5.8 2.3-1.6 1.5-2.8 3.5-3.7 5.4-3.8 6.9-6.1 14.7-8.3 22.3zM433.7 375.8l-.4-.3c4.5-6.2 8-13.1 10.3-20.4l.5.1c-2.4 7.4-5.8 14.4-10.4 20.6zM475.5 346.9h51.8c3 0 5.6-2 6.3-4.9l21.5-84.3"/><path fill="#060405" d="M527.3 347.4h-51.8v-1h51.8c2.8 0 5.2-1.9 5.8-4.5l21.5-84.3 1 .2-21.5 84.3c-.8 3.1-3.6 5.3-6.8 5.3z"/><path fill="#fff" d="M449.4 234.8c-.7-.1-15.1 29.9-15.1 29.9l-51.9 9.5-.9 14 76.6 2.2 5.8-53.9-14.5-1.7z"/><path fill="#060405" d="M458.5 291h-.5l-77.1-2.2.9-14.9 52.1-9.5c14.5-30.1 15.1-30.1 15.5-30l15 1.8-5.9 54.8zm-76.5-3.2 75.6 2.2 5.7-52.9-13.8-1.7c-1.3 1.8-9.5 18.5-14.9 29.6l-.1.2-51.8 9.5-.7 13.1z"/><path fill="#fe6021" d="m456.3 214.8-12.3 21 12.2 9.6z"/><path fill="#fe6021" d="M543.2 215.8c-2.4-7.7-28.1-23.1-28.1-23.1l-26-.8s-25.9 12.8-32.6 22.6c-3.4 5-11 87.7-11 87.7h80.9c0 .1 20.2-75.6 16.8-86.4z"/><path fill="#fff" d="M489.8 181.3s1.7 6.2-.9 10.8c-2 3.5-1.2 9.5 3.7 10.8 7.9 2.1 21.8-10.2 21.8-10.2l-6.5-34.5-18.1 23.1z"/><path fill="#060405" d="M492.5 203.4c-2-.5-3.5-1.9-4.4-3.8-1-2.4-.9-5.5.4-7.7 1.7-3 1.6-7.4.8-10.7l19-24.2 6.7 35.9-.2.2c-5.1 4.4-15.8 12-22.3 10.3zm-2.2-22c.3 1.2 1.4 6.7-1 11-1.1 2-1.2 4.7-.3 6.8.5 1.2 1.6 2.7 3.7 3.3 7 1.8 19.4-8.4 21.1-9.9l-6.2-33.2-17.3 22z"/><path fill="#fff" d="M508 154.4c-.2.5 1.5 28.5-15.4 29.3-17 .8-18.1-34.3-11.9-43.1 6.2-8.8 22.5-4.4 22.5-4.4l6.9 11.2-2.1 7z"/><path fill="#060405" d="M492 184.2c-4.6 0-8.4-2.6-11.1-7.5-5.8-10.6-5.3-29.8-.7-36.4 6.3-9 22.3-4.8 23-4.6l.2.1 7.1 11.5-2.1 7.2v.8c-.1 18.1-5.8 28.4-15.9 28.9h-.5zm2.3-48.6c-4.7 0-10.2 1.1-13.2 5.3-4.4 6.2-4.8 25.2.7 35.4 2.7 4.8 6.3 7.2 10.7 7 9.6-.5 14.8-10.1 14.9-27.9 0-.8 0-1 .1-1.1l2-6.8-6.7-10.8c-.8-.3-4.4-1.1-8.5-1.1z"/><path fill="#060405" d="M510.8 173.1s9-18.1.2-34.7-27.6-12.7-33.7-18.5c0 0-10.2 6.5-2.2 15.3 0 0-4.5 2.5-9.5-1.6 0 0-1 6.2 3.2 11.6 7.6 9.8 26.7-1.8 29.5-1.3-.9 7.1 9.7 15.8 9.7 15.8l2.8 13.4z"/><path fill="#fff" d="M475.5 346.9s2.8-26.9 12.6-36c14.6-13.6 39.5-12.9 46.3-21.5 4.5-6.3 6.6-13.8 10.2-27.8l5.6 11.8s-14.6 36.4-14.9 37c-.4.7-33 29.6-33 29.6l-26.8 6.9z"/><path fill="#060405" d="m476 346.9-1-.1c.1-1.1 2.9-27.2 12.8-36.3 8-7.4 18.9-10.6 28.5-13.4 7.9-2.3 14.7-4.2 17.7-8 3.6-5 5.7-11.1 8.1-19.9l1 .3c-2.4 8.9-4.6 15.1-8.3 20.3-3.2 4.1-10.2 6.1-18.2 8.4-9.5 2.7-20.3 5.9-28.1 13.1-9.6 8.8-12.5 35.3-12.5 35.6z"/><path fill="#060405" d="M527.3 347.4h-51.8v-1h51.8c2.8 0 5.2-1.9 5.8-4.5l21.5-84.3c1.4-6.8.3-11.4-3.1-13.6l.5-.8c3.9 2.4 5.1 7.4 3.6 14.7l-21.5 84.3c-.8 3-3.6 5.2-6.8 5.2z"/><path fill="#fff" d="M315.6 296.1h70.6v9.2h-70.6z"/><path fill="#060405" d="M386.6 305.8H315v-10.2h71.6v10.2zm-70.5-1h69.6v-8.2h-69.6v8.2z"/><path fill="#bdd6ff" d="M386.1 296.1h149v9.2h-149z"/><path fill="#060405" d="M535.6 305.8h-150v-10.2h150v10.2zm-149-1h148v-8.2h-148v8.2z"/><path fill="#060405" d="M445.2 234h15.6v1h-15.6z" transform="rotate(-83.835 452.997 234.488)"/><path fill="#fff" d="m496 305.3 25.1 134.3"/><path fill="#060405" d="M507.8 304.1h1.5v136.6h-1.5z" transform="rotate(-10.597 508.5 372.407)"/><path fill="#fff" d="m348.6 305.3-25.1 134.3"/><path fill="#060405" d="M267.7 371.7h136.6v1.5H267.7z" transform="rotate(-79.42 336.072 372.431)"/><ellipse cx="494.2" cy="156.8" fill="#060405" rx="1.2" ry="1.7" transform="rotate(-6.88 494.26 156.76)"/><ellipse cx="483.2" cy="158.5" fill="#060405" rx="1.2" ry="1.7" transform="rotate(-6.88 483.238 158.43)"/><path fill="#060405" d="M490.3 168.2c-.2-.1-.4-.1-1.1-.1-.8 0-1.4-.3-1.6-.9-.3-.7.2-1.3.5-1.7 1.2-1.8 1.5-4.1.7-6.1l.9-.4c.9 2.3.6 5-.8 7-.2.3-.4.6-.4.8.1.1.4.3.7.3.6 0 1.1-.1 1.6.2l-.5.9zM492.2 176.3l.2-1c.7.2 1.5 0 2.1-.4.6-.4 1.1-1 1.2-1.8l1 .2c-.2 1-.8 1.8-1.7 2.4-.8.7-1.9.9-2.8.6z"/><path fill="#fff" d="m547.8 243-17.4 47.6c-1.2 3.2-4.4 5.1-7.7 4.5l-70.1-12.4c-4.1-.4-6 .3-9.1 2.3-3.1 2.1-6.4-.2-6.4-.2s-4.6 4.3-6.7 5.3c-2.1 1-4.7 0-4.7 0s13.6-14.4 16.3-16.3c4.2-3 10.1-3.9 10.1-3.9l57.6-2.7 14.5-33.9 23.6 9.7z"/><path fill="#060405" d="M523.9 295.7c-.4 0-.9 0-1.3-.1l-70.1-12.4c-4-.4-5.7.2-8.8 2.2-2.8 1.8-5.6.5-6.6 0-1.1 1-4.7 4.2-6.5 5.1-2.2 1-4.9.1-5 0l-.7-.3.5-.5c.6-.6 13.6-14.5 16.3-16.4 4.3-3 10.1-4 10.3-4l57.3-2.7 14.6-34.1 24.5 10.2-17.5 48.1c-1.1 3-3.9 4.9-7 4.9zm-73.3-13.5c.6 0 1.3 0 2 .1l70.2 12.4c3.1.5 6.1-1.2 7.2-4.1l17.2-47.2-22.7-9.4-14.5 33.6-57.9 2.7s-5.8.9-9.9 3.8c-2.3 1.6-13 12.9-15.6 15.6.9.2 2.3.4 3.5-.2 2-.9 6.5-5.1 6.6-5.2l.3-.3.3.2c.1.1 3 2.1 5.8.2 2.7-1.4 4.5-2.2 7.5-2.2z"/><path fill="#fe6021" d="M542.3 213.7s5.2 7.5 6.2 10.3c2.9 8.4.4 34.6.4 34.6l-36-5.9 6.4-16.1"/><path fill="#060405" d="m548.8 259.1-36.6-6 4.9-11.3.9.3-4.4 10.2 35.4 5.9z"/><path fill="#fff" d="M416.2 288.3c-93.8 0-88.4.1-89.5-.1-2.4-.4-4.5-2.1-5.4-4.5l-14.8-42.5c-1.8-4.7 1.7-9.7 6.7-9.7H391c3 0 5.6 1.8 6.7 4.6l18.5 52.2z"/><path fill="#bdd6ff" d="M324.5 282.1c.8 2 1.5 4 2.2 6.1-2.4-.4-4.5-2.1-5.4-4.5l-14.8-42.5c-1.8-4.7 1.7-9.7 6.7-9.7h22.9c-5.3 1.8-9.7 4.3-12.9 9.1-3.9 6-5 13.6-4.3 20.8.7 7 3.1 13.9 5.6 20.7z"/><path fill="#060405" d="M416.9 288.8c-94.2 0-89.1.1-90.3-.1-2.6-.5-4.8-2.3-5.8-4.8L306 241.3c-1.9-5 1.8-10.4 7.2-10.4H391c3.2 0 6.1 2 7.2 4.9l18.7 53zm-103.7-56.9c-4.7 0-7.9 4.7-6.2 9l14.8 42.5c.8 2.1 2.8 3.8 5 4.2 1.1.2-4.1.1 88.7.1l-18.3-51.6c-1-2.6-3.5-4.3-6.2-4.3h-77.8z"/><path fill="#fff" d="M385 235.4c2.7 0 5 1.6 6 4.1l14 39.5"/><path fill="#060405" d="m404.5 279.2-14-39.5c-.9-2.3-3.1-3.8-5.5-3.8v-1c2.9 0 5.4 1.8 6.5 4.5l14 39.5-1 .3zM456.5 292.1v1.4c0 1.5-1.2 2.6-2.6 2.6H331.3c-2.2 0-3.9-1.8-3.9-3.9 0-2.2 1.8-3.9 3.9-3.9h121.4c2.1 0 3.8 1.7 3.8 3.8z"/><path fill="#060405" d="M453.8 296.6H331.3c-2.4 0-4.4-2-4.4-4.4 0-2.4 2-4.4 4.4-4.4h121.4c2.4 0 4.3 1.9 4.3 4.3v1.4c0 1.7-1.4 3.1-3.2 3.1zm-122.5-7.8c-1.9 0-3.4 1.5-3.4 3.4s1.5 3.4 3.4 3.4h122.5c1.2 0 2.1-1 2.1-2.1v-1.4c0-1.8-1.5-3.3-3.3-3.3H331.3z"/><ellipse cx="355.9" cy="262.7" fill="#bdd6ff" rx="4.4" ry="6.6" transform="rotate(-30.952 355.9 262.666)"/><path fill="#fff" d="M228.8 125.9h-88.6c-6.2 0-11.2 5-11.2 11.2 0 6.2 5 11.2 11.2 11.2h88.6v-22.4z"/><path fill="#060405" d="M229.3 148.8h-89.1c-6.4 0-11.7-5.2-11.7-11.7s5.2-11.7 11.7-11.7h89.1v23.4zm-89.1-22.4c-5.9 0-10.7 4.8-10.7 10.7s4.8 10.7 10.7 10.7h88.1v-21.4h-88.1z"/><path fill="#060405" d="M245.6 137.1c0 3.8-1.5 7.3-4 9.8-2.5 2.5-5.9 4-9.8 4-7.6 0-13.8-6.2-13.8-13.8 0-3.8 1.5-7.3 4-9.8 2.5-2.5 5.9-4 9.8-4 3.8 0 7.3 1.5 9.8 4 2.4 2.6 4 6 4 9.8z"/><path fill="#fff" d="M232.8 141.8c-1.5 0-2.9-.6-4-1.7-2.2-2.2-2.2-5.9 0-8.1 2.2-2.2 5.9-2.2 8.1 0 2.2 2.2 2.2 5.9 0 8.1-1.1 1.1-2.6 1.7-4.1 1.7zm0-8.5c-.7 0-1.4.3-2 .8-1.1 1.1-1.1 2.8 0 3.9s2.8 1.1 3.9 0 1.1-2.8 0-3.9c-.4-.6-1.2-.8-1.9-.8z"/><path fill="#fff" d="M226.4 143.9c-.4 0-.8-.1-1-.4-.6-.6-.6-1.5 0-2.1l3.4-3.4c.6-.6 1.5-.6 2.1 0 .6.6.6 1.5 0 2.1l-3.4 3.4c-.3.3-.7.4-1.1.4zM183.9 209.3h-55.4c-1.9 0-3.5-1.5-3.5-3.5v-42.5c0-1.9 1.5-3.5 3.5-3.5h55.4c1.9 0 3.5 1.5 3.5 3.5v42.5c0 1.9-1.6 3.5-3.5 3.5z"/><path fill="#060405" d="M175.1 197.2h-37.8c-.9 0-1.4-1.1-.8-1.8l8.3-9.7c.4-.5 1.2-.5 1.7 0l4.1 4.8c.5.5 1.3.5 1.7-.1l9.2-12.4c.4-.6 1.3-.6 1.8 0l12.9 17.5c.3.7-.2 1.7-1.1 1.7z"/><circle cx="148.6" cy="175.9" r="4" fill="#060405"/><path fill="#fff" d="M194.8 162.9h51.5v13h-51.5zM194.8 181.8h47.7v2.7h-47.7zM194.8 188.7h47.7v2.7h-47.7zM194.8 195.6h47.7v2.7h-47.7zM194.8 202.5h15.5v2.7h-15.5zM216.1 202.5h7v2.7h-7zM241.7 281.3H129.5c-2.5 0-4.5-2-4.5-4.5v-53.5c0-2.5 2-4.5 4.5-4.5h112.2c2.5 0 4.5 2 4.5 4.5v53.5c0 2.4-2 4.5-4.5 4.5z"/><path fill="#d2e4ff" d="M221.3 230.8c0 .8.7 1.5 1.5 1.5h12.5c.8 0 1.5-.7 1.5-1.5s-.7-1.5-1.5-1.5h-12.5c-.8 0-1.5.7-1.5 1.5zM204 229.3h-68c-.8 0-1.5.7-1.5 1.5s.7 1.5 1.5 1.5h68c.8 0 1.5-.7 1.5-1.5s-.7-1.5-1.5-1.5zM168.4 238.9H136c-.8 0-1.5.7-1.5 1.5s.7 1.5 1.5 1.5h32.4c.8 0 1.5-.7 1.5-1.5s-.6-1.5-1.5-1.5zM180 240.4c0 .8.7 1.5 1.5 1.5h53.7c.8 0 1.5-.7 1.5-1.5s-.7-1.5-1.5-1.5h-53.7c-.8 0-1.5.7-1.5 1.5zM202.9 248.5H136c-.8 0-1.5.7-1.5 1.5s.7 1.5 1.5 1.5h66.9c.8 0 1.5-.7 1.5-1.5s-.7-1.5-1.5-1.5zM217.9 250c0 .8.7 1.5 1.5 1.5h15.9c.8 0 1.5-.7 1.5-1.5s-.7-1.5-1.5-1.5h-15.9c-.8 0-1.5.7-1.5 1.5zM155.3 258.1H136c-.8 0-1.5.7-1.5 1.5s.7 1.5 1.5 1.5h19.4c.8 0 1.5-.7 1.5-1.5s-.7-1.5-1.6-1.5zM161.6 259.6c0 .8.7 1.5 1.5 1.5h72.2c.8 0 1.5-.7 1.5-1.5s-.7-1.5-1.5-1.5h-72.2c-.9 0-1.5.7-1.5 1.5zM169.4 267.7H136c-.8 0-1.5.7-1.5 1.5s.7 1.5 1.5 1.5h33.4c.8 0 1.5-.7 1.5-1.5 0-.9-.6-1.5-1.5-1.5zM198.9 267.7h-15.7c-.8 0-1.5.7-1.5 1.5s.7 1.5 1.5 1.5h15.7c.8 0 1.5-.7 1.5-1.5 0-.9-.7-1.5-1.5-1.5z"/><path fill="#6193f6" d="M171.3 312.8v69.7c0 4.4-3.6 7.9-7.9 7.9H71.1c-4.4 0-7.9-3.5-7.9-7.9v-69.7c0-4.4 3.5-7.9 7.9-7.9h92.3c4.4-.1 7.9 3.4 7.9 7.9z"/><circle cx="74.5" cy="313.1" r="2" fill="#fff"/><circle cx="81" cy="313.1" r="2" fill="#fff"/><circle cx="87.4" cy="313.1" r="2" fill="#fff"/><path fill="#fff" d="M109.5 325.2H98c-.5 0-.8-.4-.8-.8 0-.5.4-.8.8-.8h11.5c.5 0 .8.4.8.8s-.4.8-.8.8zM92.7 325.2h-15c-.5 0-.8-.4-.8-.8 0-.5.4-.8.8-.8h15c.5 0 .8.4.8.8.1.4-.3.8-.8.8zM133.8 331.9h-10.9c-.5 0-.8-.4-.8-.8s.4-.8.8-.8h10.9c.5 0 .8.4.8.8s-.3.8-.8.8zM118.3 331.9h-11.8c-.5 0-.8-.4-.8-.8s.4-.8.8-.8h11.8c.5 0 .8.4.8.8s-.4.8-.8.8zM101.7 331.9H83.6c-.5 0-.8-.4-.8-.8s.4-.8.8-.8h18.2c.5 0 .8.4.8.8s-.4.8-.9.8zM154.2 338.6h-21.8c-.5 0-.8-.4-.8-.8s.4-.8.8-.8h21.8c.5 0 .8.4.8.8s-.4.8-.8.8zM128.7 338.6h-14.8c-.5 0-.8-.4-.8-.8s.4-.8.8-.8h14.8c.5 0 .8.4.8.8s-.4.8-.8.8zM108.5 338.6h-25c-.5 0-.8-.4-.8-.8s.4-.8.8-.8h25c.5 0 .8.4.8.8s-.3.8-.8.8zM128.4 345.3H83.6c-.5 0-.8-.4-.8-.8s.4-.8.8-.8h44.8c.5 0 .8.4.8.8s-.4.8-.8.8zM154.2 352h-24.5c-.5 0-.8-.4-.8-.8s.4-.8.8-.8h24.5c.5 0 .8.4.8.8s-.4.8-.8.8zM122.1 352h-13.6c-.5 0-.8-.4-.8-.8s.4-.8.8-.8h13.6c.5 0 .8.4.8.8s-.3.8-.8.8zM104.3 352H83.6c-.5 0-.8-.4-.8-.8s.4-.8.8-.8h20.7c.5 0 .8.4.8.8s-.4.8-.8.8zM123.3 358.8h-8.8c-.5 0-.8-.4-.8-.8 0-.5.4-.8.8-.8h8.8c.5 0 .8.4.8.8s-.4.8-.8.8zM109.9 358.8H83.6c-.5 0-.8-.4-.8-.8 0-.5.4-.8.8-.8H110c.5 0 .8.4.8.8s-.4.8-.9.8zM113.9 365.5H99.2c-.5 0-.8-.4-.8-.8 0-.5.4-.8.8-.8H114c.5 0 .8.4.8.8-.1.4-.4.8-.9.8zM94.9 365.5H77.7c-.5 0-.8-.4-.8-.8 0-.5.4-.8.8-.8h17.2c.5 0 .8.4.8.8s-.3.8-.8.8zM135 372.2h-17.5c-.5 0-.8-.4-.8-.8s.4-.8.8-.8H135c.5 0 .8.4.8.8s-.3.8-.8.8zM112.4 372.2H83c-.5 0-.8-.4-.8-.8s.4-.8.8-.8h29.4c.5 0 .8.4.8.8s-.4.8-.8.8zM130.4 378.9h-25.5c-.5 0-.8-.4-.8-.8s.4-.8.8-.8h25.5c.5 0 .8.4.8.8s-.3.8-.8.8zM99.4 378.9H83c-.5 0-.8-.4-.8-.8s.4-.8.8-.8h16.4c.5 0 .8.4.8.8s-.3.8-.8.8z"/><path fill="#060405" d="M386.8 159c7.6 2.4 15.6 1.2 21.9-2.8l-3.9-5.3c.1-.1 2-1.5 1.9-1.4l3.9 5.3c4-3.1 7.2-7.4 8.9-12.6 4.4-13.6-3.2-28.2-16.8-32.6-13.6-4.4-28.2 3.2-32.6 16.8-4.4 13.7 3.1 28.3 16.7 32.6z"/><path fill="#060405" d="m421.2 166-1.5 1.1-13.6-18.2 1.5-1.1z"/><path fill="#fff" d="m386.4 129.7-8.5 3.8c-.6.3-1.1.9-1.1 1.6v.2c0 .7.4 1.3 1.1 1.6l8.5 3.8c1.7.6 2.7-1.8 1-2.5l-6.7-3 6.7-3c1.7-.7.7-3.2-1-2.5zM396.3 125.6l-5.7 16.6c-.6 1.8 2 2.6 2.6.9l5.7-16.6c.6-1.8-2-2.6-2.6-.9zM411.6 133.5l-8.5-3.8c-1.7-.7-2.7 1.8-1 2.5l6.7 3-6.7 3c-.3.1-.5.3-.6.5-.8 1.1.4 2.6 1.6 2l8.5-3.8c.6-.3 1.1-.9 1.1-1.6v-.2c0-.7-.4-1.3-1.1-1.6z"/><path fill="#060405" d="M63.1 193.2c7.6 2.4 15.6 1.2 21.9-2.8l-3.9-5.3.9-.7.9-.7 3.9 5.3c4-3.1 7.2-7.4 8.9-12.6 4.4-13.6-3.2-28.2-16.8-32.6-13.6-4.4-28.2 3.2-32.6 16.8-4.4 13.7 3.1 28.3 16.8 32.6z"/><path fill="#060405" d="m97.4 200.2-1.5 1.1-13.6-18.2 1.6-1.1z"/><path fill="#fff" d="M59.7 164.8c.6-.3 1.2-.5 2-.5.5 0 1 .1 1.4.2.4.1.8.3 1.3.5.4.2.9.1 1.2-.2.2-.2.3-.4.3-.7 0-.4-.2-.7-.5-.9-.6-.3-1.1-.6-1.7-.7-.6-.2-1.2-.3-2-.3-1.1 0-2.1.2-2.9.7-.9.5-1.6 1.2-2.1 2.1-.5.9-.7 1.9-.7 3.1 0 1.2.2 2.2.7 3.1.5.9 1.2 1.6 2.1 2.1.9.5 1.8.7 2.9.7.7 0 1.4-.1 2-.3.6-.2 1.1-.4 1.7-.7.3-.2.5-.5.5-.9 0-.3-.1-.5-.3-.7-.3-.3-.8-.4-1.2-.2-.4.2-.8.4-1.2.5-.4.1-.9.2-1.4.2-.8 0-1.5-.2-2-.5-.6-.3-1-.8-1.2-1.3-.3-.6-.4-1.2-.4-2 0-.7.1-1.4.4-2 .1-.5.5-.9 1.1-1.3zM74.9 167.2h-2.1v-2.1c0-.3-.1-.5-.3-.7-.4-.4-1-.4-1.4 0-.2.2-.3.4-.3.7v2.1h-2.1c-.3 0-.5.1-.7.3-.2.2-.3.4-.3.7 0 .3.1.5.3.7.2.2.4.3.7.3h2.1v2.1c0 .3.1.5.3.7.2.2.4.3.7.3.3 0 .5-.1.7-.3.2-.2.3-.4.3-.7v-2.1h2.1c.3 0 .5-.1.7-.3.2-.2.3-.4.3-.7 0-.3-.1-.5-.3-.7-.1-.2-.4-.3-.7-.3zM85.7 167.5c-.2-.2-.4-.3-.7-.3h-2.1v-2.1c0-.3-.1-.5-.3-.7-.4-.4-1-.4-1.4 0-.2.2-.3.4-.3.7v2.1h-2.1c-.3 0-.5.1-.7.3-.2.2-.3.4-.3.7 0 .3.1.5.3.7.2.2.4.3.7.3H81v2.1c0 .3.1.5.3.7.2.2.4.3.7.3.3 0 .5-.1.7-.3.2-.2.3-.4.3-.7v-2.1h2c.3 0 .5-.1.7-.3.2-.2.3-.4.3-.7 0-.3-.1-.5-.3-.7z"/><path fill="#c6e2fa" d="M305.9 356.8h-29.3c-.2 0-.4-.2-.4-.4s.2-.4.4-.4h29.3c.2 0 .4.2.4.4s-.1.4-.4.4zM305.9 371.4h-29.3c-.2 0-.4-.2-.4-.4s.2-.4.4-.4h29.3c.2 0 .4.2.4.4s-.1.4-.4.4zM300.6 364.1h-41.4c-.2 0-.4-.2-.4-.4s.2-.4.4-.4h41.4c.2 0 .4.2.4.4s-.2.4-.4.4z"/><path fill="#c6e2fa" d="M282.7 356.8c-.2 0-.4-.2-.4-.4v-6.2c0-.2.2-.4.4-.4s.4.2.4.4v6.2c0 .3-.2.4-.4.4zM293 364.1c-.2 0-.4-.2-.4-.4v-7.3c0-.2.2-.4.4-.4s.4.2.4.4v7.3c0 .2-.2.4-.4.4zM285.2 371.1c-.2 0-.4-.2-.4-.4v-7c0-.2.2-.4.4-.4s.4.2.4.4v7c-.1.2-.2.4-.4.4zM409.7 191.3h-29.3c-.2 0-.4-.2-.4-.4s.2-.4.4-.4h29.3c.2 0 .4.2.4.4s-.2.4-.4.4zM409.7 205.8h-29.3c-.2 0-.4-.2-.4-.4s.2-.4.4-.4h29.3c.2 0 .4.2.4.4s-.2.4-.4.4zM404.4 198.5H363c-.2 0-.4-.2-.4-.4s.2-.4.4-.4h41.4c.2 0 .4.2.4.4s-.2.4-.4.4z"/><path fill="#c6e2fa" d="M386.5 191.3c-.2 0-.4-.2-.4-.4v-6.2c0-.2.2-.4.4-.4s.4.2.4.4v6.2c-.1.2-.2.4-.4.4zM396.7 198.5c-.2 0-.4-.2-.4-.4v-7.3c0-.2.2-.4.4-.4s.4.2.4.4v7.3c0 .2-.2.4-.4.4zM388.9 205.5c-.2 0-.4-.2-.4-.4v-7c0-.2.2-.4.4-.4s.4.2.4.4v7c0 .2-.2.4-.4.4z"/></svg>