<svg xmlns="http://www.w3.org/2000/svg" fill="none" viewBox="0 0 2000 2000"><path fill="#2BEF3E" d="M1555.76 1435.32C1558.04 1446.67 1410.73 1439.86 1397.12 1435.32C1383.52 1430.78 1344.95 1315.62 1247.55 1310.68C1180.46 1307.28 1152.37 1326.54 1152.37 1326.54C1152.37 1326.54 1190.9 1457.93 1177.31 1562.27C1163.73 1666.61 1138.78 1732.31 1141.05 1741.31C1143.31 1750.32 1196.4 1834.97 1181.16 1847.43C1174.14 1853.23 1047.41 1763.98 1053.44 1745.83C1059.47 1727.69 1068.53 1600.8 1032.18 1512.42C1009.81 1458.21 981.729 1406.52 948.422 1358.25C948.422 1358.25 694.605 1335.62 649.275 1020.61C625.316 854.169 661.487 703.958 718.314 586.595C706.74 568.905 693.277 552.527 678.162 537.748C624.156 483.646 575.928 510.697 508.861 497.036C436.808 482.39 401.332 410.898 394.859 364.602C389.623 326.653 407.342 305.225 405.1 319.484C402.859 333.744 417.099 367.481 426.103 367.481C435.108 367.481 435.765 335.986 444.092 339.734C452.42 343.483 443.764 382.436 451.261 395.923C458.758 409.41 507.663 436.828 551.737 434.471C677.428 427.766 685.253 399.285 763.47 399.285C790.521 399.285 810.345 407.884 824.74 419.941C845.455 394.506 867.8 370.445 891.634 347.907C1009.6 237.152 1144.02 204.71 1231.63 298.346C1357.22 432.423 1247.63 531.102 1152.41 629.664C1165 652.619 1197.06 682.298 1261.75 737.057C1356.08 816.916 1405.03 828.954 1450.26 857.106C1484.54 878.457 1503.53 896.659 1500.75 903.267C1494.29 918.609 1434.12 877.414 1427.32 887.809C1420.52 898.205 1436.48 913.624 1427.32 919.266C1418.16 924.908 1388.33 872.487 1367.42 864.429C1347.5 856.7 1155.25 771.296 1055.08 764.746C1009.92 873.878 1009.69 1020.67 1076.34 1056.36C1139.75 1090.27 1217.83 1075.54 1308.47 1152.6C1399.11 1229.66 1433.35 1353.67 1442.41 1367.27C1451.48 1380.87 1553.5 1423.94 1555.76 1435.32Z"/><path fill="#fff" d="M1231.01 463.495L1118.65 341.093C1105.21 326.447 1082.44 325.473 1067.79 338.917L1017 385.537C1002.36 398.982 1001.38 421.753 1014.83 436.399L1127.18 558.801C1140.63 573.447 1163.4 574.421 1178.05 560.977L1228.83 514.356C1243.48 500.912 1244.45 478.141 1231.01 463.495Z"/><path fill="#570EF1" d="M1153.8 576.219C1148.01 576.223 1142.28 575.023 1136.97 572.695C1131.67 570.366 1126.91 566.96 1123 562.693L1010.62 440.268C1003.13 432.102 999.191 421.298 999.665 410.229C1000.14 399.16 1004.99 388.733 1013.15 381.238L1063.93 334.614C1072.09 327.117 1082.9 323.17 1093.97 323.641C1105.05 324.112 1115.48 328.963 1122.98 337.126L1235.36 459.532C1242.85 467.696 1246.8 478.503 1246.33 489.577C1245.86 500.65 1241.01 511.083 1232.84 518.581L1182.05 565.205C1174.35 572.298 1164.26 576.23 1153.8 576.219ZM1131.54 554.964C1136.96 560.852 1144.5 564.35 1152.49 564.69C1160.49 565.031 1168.3 562.186 1174.2 556.781L1225 510.002C1230.9 504.584 1234.4 497.046 1234.74 489.046C1235.08 481.045 1232.23 473.237 1226.82 467.338L1114.44 344.99C1111.76 342.066 1108.53 339.7 1104.93 338.025C1101.34 336.35 1097.45 335.401 1093.49 335.23C1089.52 335.06 1085.57 335.672 1081.84 337.031C1078.12 338.391 1074.69 340.472 1071.77 343.154L1021.01 389.798C1018.09 392.478 1015.72 395.707 1014.05 399.302C1012.37 402.897 1011.42 406.787 1011.25 410.749C1011.08 414.712 1011.7 418.669 1013.06 422.394C1014.42 426.12 1016.5 429.541 1019.18 432.462L1131.54 554.964Z"/><path fill="#fff" d="M1252.49 486.897L1140.14 364.495C1126.69 349.849 1103.92 348.875 1089.28 362.319L1038.49 408.94C1023.84 422.384 1022.87 445.155 1036.31 459.801L1148.67 582.203C1162.11 596.849 1184.88 597.823 1199.53 584.379L1250.32 537.759C1264.96 524.315 1265.94 501.543 1252.49 486.897Z"/><path fill="#570EF1" d="M1175.32 599.639H1173.39C1167.91 599.412 1162.52 598.1 1157.54 595.779C1152.57 593.457 1148.1 590.172 1144.41 586.113L1032.11 463.63C1024.62 455.461 1020.68 444.654 1021.15 433.581C1021.63 422.509 1026.48 412.079 1034.64 404.581L1085.44 357.956C1093.6 350.475 1104.4 346.539 1115.47 347.01C1126.54 347.48 1136.96 352.32 1144.47 360.468L1256.84 482.952C1260.56 486.991 1263.44 491.723 1265.32 496.877C1267.21 502.031 1268.06 507.505 1267.82 512.987C1267.59 518.469 1266.28 523.852 1263.96 528.827C1261.65 533.802 1258.38 538.272 1254.33 541.981L1203.53 588.645C1195.85 595.731 1185.78 599.657 1175.32 599.639ZM1153.03 578.268C1155.71 581.192 1158.93 583.559 1162.53 585.233C1166.12 586.908 1170.01 587.858 1173.98 588.028C1177.94 588.199 1181.9 587.586 1185.62 586.227C1189.35 584.867 1192.77 582.787 1195.69 580.104L1246.49 533.46C1252.38 528.043 1255.89 520.505 1256.23 512.505C1256.57 504.504 1253.72 496.696 1248.3 490.797L1135.93 368.39C1130.5 362.503 1122.97 359.005 1114.97 358.665C1106.97 358.324 1099.17 361.168 1093.26 366.574L1042.48 413.199C1039.55 415.872 1037.18 419.096 1035.49 422.688C1033.81 426.279 1032.85 430.168 1032.67 434.13C1032.49 438.092 1033.1 442.051 1034.45 445.78C1035.8 449.509 1037.87 452.935 1040.55 455.862L1153.03 578.268Z"/><path fill="#fff" d="M1008.44 266.967C1008.44 266.967 1011.53 316.49 1053.44 349.009L1027.8 375.674C1027.8 375.674 982.161 333.764 981.117 280.995L1008.44 266.967Z"/><path fill="#570EF1" d="M1027.8 381.47C1026.37 381.456 1024.99 380.912 1023.94 379.943C1022 378.166 976.46 335.734 975.398 281.033C975.376 279.947 975.659 278.877 976.216 277.944C976.773 277.011 977.581 276.254 978.547 275.758L1005.87 261.807C1006.72 261.375 1007.67 261.16 1008.62 261.181C1009.58 261.203 1010.51 261.46 1011.35 261.931C1012.18 262.401 1012.88 263.07 1013.39 263.878C1013.9 264.686 1014.21 265.607 1014.27 266.561C1014.27 267.063 1018.14 316.798 1057.48 347.173C1058.14 347.69 1058.69 348.346 1059.08 349.096C1059.46 349.845 1059.68 350.67 1059.72 351.513C1059.75 352.355 1059.6 353.195 1059.28 353.974C1058.96 354.753 1058.47 355.452 1057.85 356.023L1031.78 379.943C1030.7 380.939 1029.27 381.485 1027.8 381.47ZM987.068 284.395C989.445 323.774 1017.66 356.795 1027.97 367.635L1045.03 351.984C1015.61 326.208 1006.49 291.679 1003.76 275.855L987.068 284.395Z"/><path fill="#570EF1" d="M985.155 481.02C974.644 473.291 963.901 458.915 961.795 446.839C959.186 431.961 965.002 416.29 969.408 408.194C970.837 405.566 966.355 403.344 964.055 405.257C952.81 414.59 932.038 435.651 939.149 459.05C946.259 482.45 970.354 485.966 982.527 486.275C985.31 486.411 987.416 482.662 985.155 481.02Z"/><path fill="#570EF1" d="M1207.16 489.385C1206.39 489.385 1205.61 489.227 1204.9 488.921C1204.18 488.616 1203.53 488.169 1202.99 487.607L1132.39 414.318C1131.83 413.776 1131.39 413.127 1131.09 412.412C1130.79 411.696 1130.64 410.927 1130.64 410.152C1130.65 409.376 1130.81 408.609 1131.11 407.895C1131.42 407.182 1131.86 406.537 1132.42 405.999C1132.98 405.461 1133.64 405.041 1134.36 404.763C1135.09 404.485 1135.86 404.355 1136.64 404.381C1137.41 404.407 1138.17 404.589 1138.88 404.915C1139.58 405.241 1140.21 405.705 1140.73 406.28L1211.34 479.569C1212.13 480.388 1212.66 481.421 1212.86 482.539C1213.07 483.657 1212.94 484.81 1212.5 485.857C1212.05 486.903 1211.31 487.795 1210.36 488.422C1209.41 489.049 1208.3 489.384 1207.16 489.385Z"/><path fill="#570EF1" d="M1517.08 1595.78C1476.29 1595.78 1431.36 1591.74 1382.67 1583.55C1196.81 1552.28 977.908 1464.4 766.291 1336.1C554.674 1207.81 375.518 1054.37 261.826 904.041C147.052 752.245 112.562 621.279 164.732 535.237C201.038 475.338 277.4 442.007 385.527 438.858C387.064 438.814 388.556 439.383 389.674 440.439C390.792 441.496 391.444 442.953 391.488 444.49C391.532 446.028 390.963 447.519 389.906 448.637C388.85 449.755 387.393 450.408 385.855 450.451C281.863 453.465 208.825 484.883 174.702 541.246C149.854 582.209 146.028 634.457 163.302 696.539C180.228 757.346 216.515 824.8 271.139 897.046C383.962 1046.23 561.958 1198.65 772.358 1326.19C982.758 1453.74 1200.15 1541.08 1384.6 1572.11C1473.91 1587.14 1550.45 1588.18 1612.28 1574.99C1675.31 1561.6 1719.86 1534.02 1744.69 1493.06C1817.92 1372.3 1703.75 1151.98 1453.87 931.768C1453.3 931.26 1452.84 930.645 1452.5 929.958C1452.17 929.271 1451.98 928.525 1451.93 927.762C1451.89 926.999 1451.99 926.236 1452.24 925.514C1452.49 924.792 1452.88 924.127 1453.39 923.556C1453.9 922.985 1454.51 922.52 1455.2 922.186C1455.89 921.853 1456.63 921.659 1457.4 921.614C1458.16 921.569 1458.92 921.675 1459.64 921.925C1460.37 922.175 1461.03 922.565 1461.6 923.073C1584.09 1031.01 1676.77 1141.41 1729.62 1242.1C1784.5 1346.75 1793.17 1435.61 1754.74 1499.09C1716.31 1562.56 1633.53 1595.78 1517.08 1595.78Z"/><path fill="#fff" d="M1583.74 1259.42C1667.26 1259.42 1734.97 1191.71 1734.97 1108.18C1734.97 1024.66 1667.26 956.945 1583.74 956.945C1500.21 956.945 1432.5 1024.66 1432.5 1108.18C1432.5 1191.71 1500.21 1259.42 1583.74 1259.42Z"/><path fill="#570EF1" d="M1583.74 1265.21C1552.68 1265.21 1522.32 1256 1496.49 1238.75C1470.67 1221.49 1450.54 1196.97 1438.66 1168.27C1426.77 1139.58 1423.66 1108.01 1429.72 1077.54C1435.78 1047.08 1450.74 1019.1 1472.7 997.142C1494.66 975.181 1522.64 960.225 1553.1 954.166C1583.56 948.107 1615.14 951.216 1643.83 963.102C1672.52 974.987 1697.05 995.114 1714.3 1020.94C1731.56 1046.76 1740.77 1077.12 1740.77 1108.18C1740.72 1149.81 1724.16 1189.73 1694.72 1219.17C1665.29 1248.61 1625.37 1265.17 1583.74 1265.21ZM1583.74 962.761C1554.97 962.761 1526.85 971.291 1502.93 987.273C1479.02 1003.26 1460.37 1025.97 1449.37 1052.55C1438.36 1079.12 1435.48 1108.37 1441.09 1136.58C1446.71 1164.79 1460.56 1190.71 1480.9 1211.05C1501.25 1231.39 1527.16 1245.24 1555.38 1250.85C1583.59 1256.46 1612.83 1253.57 1639.41 1242.56C1665.98 1231.55 1688.7 1212.91 1704.67 1188.99C1720.65 1165.07 1729.18 1136.95 1729.18 1108.18C1729.13 1069.62 1713.79 1032.66 1686.53 1005.4C1659.26 978.136 1622.29 962.802 1583.74 962.761Z"/><path fill="#570EF1" d="M1669.91 1171.77C1641.07 1171.77 1609.84 1170.15 1577.81 1166.92C1516.4 1160.72 1459.19 1149.32 1416.68 1134.83C1370.46 1119.06 1347.91 1102.15 1349.69 1084.59C1352.18 1059.95 1401.55 1050.48 1442.43 1046.89C1443.2 1046.82 1443.96 1046.91 1444.69 1047.14C1445.42 1047.37 1446.1 1047.74 1446.68 1048.23C1447.27 1048.73 1447.75 1049.33 1448.1 1050.01C1448.45 1050.68 1448.67 1051.42 1448.73 1052.19C1448.8 1052.95 1448.71 1053.71 1448.48 1054.44C1448.25 1055.17 1447.88 1055.85 1447.39 1056.43C1446.9 1057.02 1446.3 1057.5 1445.62 1057.85C1444.94 1058.2 1444.2 1058.42 1443.44 1058.48C1384.2 1063.68 1362.07 1076.45 1361.13 1085.81C1359.19 1105.5 1441.02 1141.55 1578.87 1155.37C1716.71 1169.18 1804.15 1150.34 1806.14 1130.63C1807.06 1121.47 1788.51 1104.84 1733.2 1088.12C1732.45 1087.92 1731.75 1087.57 1731.14 1087.09C1730.53 1086.61 1730.03 1086.01 1729.66 1085.34C1729.28 1084.66 1729.05 1083.91 1728.97 1083.14C1728.88 1082.37 1728.96 1081.59 1729.18 1080.85C1729.41 1080.11 1729.78 1079.42 1730.27 1078.83C1730.77 1078.23 1731.38 1077.74 1732.06 1077.39C1732.75 1077.03 1733.5 1076.82 1734.27 1076.76C1735.05 1076.7 1735.82 1076.79 1736.56 1077.03C1774.91 1088.63 1820.13 1107.58 1817.71 1131.85C1815.93 1149.43 1790.49 1161.51 1742.04 1167.71C1718.11 1170.57 1694.02 1171.92 1669.91 1171.77Z"/><path fill="#fff" d="M1649.41 1196.99C1666.73 1196.99 1680.77 1182.95 1680.77 1165.63C1680.77 1148.31 1666.73 1134.27 1649.41 1134.27C1632.09 1134.27 1618.05 1148.31 1618.05 1165.63C1618.05 1182.95 1632.09 1196.99 1649.41 1196.99Z"/><path fill="#570EF1" d="M1649.41 1202.78C1642.06 1202.78 1634.88 1200.6 1628.77 1196.52C1622.66 1192.44 1617.9 1186.63 1615.08 1179.84C1612.27 1173.06 1611.54 1165.58 1612.97 1158.38C1614.4 1151.17 1617.94 1144.55 1623.14 1139.35C1628.34 1134.16 1634.96 1130.62 1642.16 1129.18C1649.37 1127.75 1656.84 1128.48 1663.63 1131.3C1670.42 1134.11 1676.22 1138.87 1680.31 1144.98C1684.39 1151.09 1686.57 1158.28 1686.57 1165.63C1686.56 1175.48 1682.64 1184.92 1675.67 1191.89C1668.71 1198.85 1659.26 1202.77 1649.41 1202.78ZM1649.41 1140.08C1644.36 1140.08 1639.41 1141.58 1635.21 1144.39C1631 1147.2 1627.73 1151.19 1625.79 1155.87C1623.86 1160.54 1623.35 1165.68 1624.34 1170.64C1625.33 1175.6 1627.77 1180.15 1631.34 1183.73C1634.92 1187.3 1639.48 1189.73 1644.44 1190.72C1649.4 1191.7 1654.54 1191.19 1659.21 1189.26C1663.88 1187.32 1667.87 1184.04 1670.68 1179.83C1673.48 1175.63 1674.98 1170.68 1674.98 1165.63C1674.97 1158.85 1672.28 1152.35 1667.48 1147.56C1662.69 1142.77 1656.19 1140.08 1649.41 1140.08Z"/><path fill="#fff" d="M1337.03 1646.28C1382.91 1646.28 1420.1 1609.09 1420.1 1563.22C1420.1 1517.34 1382.91 1480.15 1337.03 1480.15C1291.15 1480.15 1253.96 1517.34 1253.96 1563.22C1253.96 1609.09 1291.15 1646.28 1337.03 1646.28Z"/><path fill="#570EF1" d="M1337.03 1652.08C1319.45 1652.08 1302.27 1646.87 1287.65 1637.1C1273.03 1627.34 1261.64 1613.45 1254.91 1597.21C1248.19 1580.97 1246.43 1563.1 1249.86 1545.86C1253.29 1528.62 1261.75 1512.78 1274.18 1500.35C1286.61 1487.92 1302.45 1479.45 1319.69 1476.02C1336.93 1472.59 1354.8 1474.35 1371.04 1481.08C1387.29 1487.81 1401.17 1499.2 1410.93 1513.82C1420.7 1528.44 1425.91 1545.62 1425.91 1563.2C1425.91 1586.77 1416.55 1609.38 1399.88 1626.05C1383.21 1642.72 1360.6 1652.08 1337.03 1652.08ZM1337.03 1485.91C1321.74 1485.91 1306.8 1490.44 1294.09 1498.94C1281.38 1507.43 1271.47 1519.5 1265.63 1533.62C1259.78 1547.74 1258.24 1563.28 1261.23 1578.28C1264.21 1593.27 1271.57 1607.04 1282.38 1617.85C1293.19 1628.66 1306.96 1636.02 1321.95 1639C1336.95 1641.98 1352.49 1640.45 1366.61 1634.6C1380.73 1628.75 1392.8 1618.85 1401.29 1606.14C1409.79 1593.43 1414.32 1578.49 1414.32 1563.2C1414.31 1542.71 1406.16 1523.06 1391.67 1508.57C1377.18 1494.09 1357.52 1485.95 1337.03 1485.95V1485.91Z"/><path fill="#fff" d="M360.216 1159.87C462.181 1159.87 544.84 1077.21 544.84 975.242C544.84 873.277 462.181 790.618 360.216 790.618C258.251 790.618 175.592 873.277 175.592 975.242C175.592 1077.21 258.251 1159.87 360.216 1159.87Z"/><path fill="#570EF1" d="M360.198 1165.66C322.53 1165.67 285.708 1154.5 254.388 1133.58C223.067 1112.65 198.655 1082.91 184.238 1048.11C169.822 1013.31 166.049 975.019 173.397 938.076C180.744 901.132 198.882 867.197 225.517 840.563C252.152 813.928 286.086 795.79 323.03 788.443C359.974 781.095 398.266 784.868 433.065 799.284C467.865 813.701 497.607 838.113 518.531 869.433C539.456 900.754 550.622 937.576 550.618 975.244C550.557 1025.73 530.475 1074.13 494.778 1109.82C459.08 1145.52 410.681 1165.6 360.198 1165.66ZM360.198 796.397C324.824 796.393 290.244 806.879 260.83 826.529C231.417 846.178 208.491 874.109 194.951 906.789C181.412 939.468 177.867 975.429 184.766 1010.12C191.664 1044.82 208.696 1076.69 233.708 1101.7C258.719 1126.71 290.587 1143.75 325.28 1150.65C359.973 1157.55 395.934 1154.01 428.615 1140.48C461.297 1126.94 489.23 1104.02 508.882 1074.61C528.535 1045.2 539.025 1010.62 539.025 975.244C538.974 927.83 520.117 882.372 486.592 848.843C453.067 815.315 407.612 796.453 360.198 796.397Z"/><path fill="#570EF1" d="M238.467 1006.58H238.215C229.54 1006.39 224.69 996.266 219.415 985.561C216.787 980.151 211.28 968.848 208.227 968.732H207.995C199.571 968.732 187.63 985.117 181.775 996.903C181.451 997.609 180.989 998.242 180.415 998.765C179.842 999.289 179.169 999.691 178.437 999.95C177.705 1000.21 176.929 1000.32 176.154 1000.27C175.379 1000.22 174.622 1000.02 173.927 999.674C173.232 999.329 172.613 998.847 172.108 998.258C171.602 997.669 171.22 996.984 170.985 996.244C170.749 995.505 170.664 994.725 170.735 993.952C170.807 993.179 171.032 992.429 171.399 991.744C173.196 988.131 189.465 956.462 208.652 957.138C218.661 957.525 224.342 969.195 229.907 980.499C232.264 985.368 236.167 993.387 238.505 994.875C240.479 993.15 242.049 991.013 243.104 988.614C249.693 976.499 259.644 973.639 267.624 971.359C275.044 969.215 280.415 967.688 283.797 959.998C287.178 952.308 282.85 943.381 278.116 934.184C273.131 924.522 267.489 913.431 271.836 902.167C276.184 890.902 289.671 887.559 302.616 884.525C315.562 881.492 328.933 878.342 334.324 867.831C342.401 852.045 315.388 832.916 295.68 818.926C291.332 815.854 287.217 812.937 283.777 810.27C282.56 809.33 281.766 807.944 281.571 806.419C281.375 804.893 281.793 803.352 282.734 802.135C283.674 800.918 285.06 800.125 286.585 799.929C288.111 799.733 289.651 800.152 290.868 801.092C294.134 803.623 298.134 806.464 302.462 809.478C325.649 825.902 357.376 848.393 344.72 873.125C336.894 888.409 320.122 892.332 305.341 895.81C294.868 898.264 284.956 900.582 282.734 906.36C280.241 912.775 284.086 920.252 288.531 928.889C294.018 939.594 300.22 951.709 294.501 964.693C288.917 977.33 278.947 980.151 270.928 982.489C263.508 984.615 257.654 986.354 253.403 994.082C250.292 999.435 245.616 1006.58 238.467 1006.58Z"/><path fill="#570EF1" d="M526.135 1003.76C521.257 1003.72 516.444 1002.65 512.01 1000.61C499.316 994.99 487.606 981.465 490.138 966.625C491.123 960.829 488.341 957.911 482.95 952.752C475.762 945.873 465.927 936.463 473.192 915.885C474.524 911.742 476.7 907.921 479.583 904.661C482.467 901.402 485.995 898.776 489.944 896.949C507.895 888.621 531.313 897.355 532.299 897.742C533.736 898.287 534.898 899.382 535.528 900.784C536.159 902.186 536.206 903.782 535.661 905.219C535.115 906.657 534.02 907.818 532.618 908.449C531.216 909.079 529.62 909.127 528.183 908.581C527.797 908.427 508.204 901.239 494.794 907.48C492.259 908.668 490.001 910.374 488.164 912.487C486.327 914.6 484.952 917.074 484.128 919.75C479.356 933.275 484.225 937.932 490.949 944.366C496.61 949.776 503.624 956.5 501.557 968.577C500.243 976.306 506.909 985.658 516.725 990.024C521.034 991.957 531.951 995.338 539.776 985.387C540.247 984.788 540.831 984.288 541.495 983.915C542.159 983.542 542.89 983.303 543.646 983.213C544.403 983.122 545.169 983.181 545.903 983.387C546.636 983.593 547.322 983.941 547.921 984.411C548.519 984.882 549.02 985.466 549.393 986.13C549.766 986.794 550.005 987.525 550.095 988.281C550.186 989.038 550.127 989.804 549.921 990.538C549.715 991.271 549.367 991.957 548.896 992.556C546.228 996.057 542.783 998.891 538.833 1000.84C534.884 1002.78 530.537 1003.78 526.135 1003.76Z"/><path fill="#570EF1" d="M365.993 1165.66C364.918 1165.66 363.864 1165.37 362.949 1164.8C362.033 1164.24 361.293 1163.43 360.81 1162.47C360.327 1161.51 360.12 1160.44 360.213 1159.36C360.306 1158.29 360.695 1157.27 361.336 1156.41C362.032 1155.5 363.635 1153.32 360.699 1148.56C354.361 1138.26 336.217 1129.84 329.648 1130.96C321.03 1132.47 314.48 1125.55 308.683 1119.37C299.022 1109.3 295.37 1107.12 288.897 1112.02C287.654 1112.8 286.62 1113.86 285.886 1115.13C285.151 1116.4 284.739 1117.83 284.685 1119.29C284.395 1128.33 296.278 1140.54 300.336 1144.16C300.927 1144.65 301.415 1145.25 301.77 1145.94C302.126 1146.62 302.342 1147.36 302.406 1148.13C302.47 1148.9 302.381 1149.67 302.144 1150.4C301.907 1151.13 301.527 1151.81 301.026 1152.39C300.525 1152.97 299.912 1153.45 299.224 1153.8C298.537 1154.14 297.787 1154.35 297.02 1154.4C296.253 1154.45 295.483 1154.35 294.755 1154.1C294.027 1153.85 293.356 1153.46 292.781 1152.95C290.713 1151.17 272.608 1135.17 273.092 1118.96C273.213 1115.77 274.069 1112.64 275.594 1109.84C277.119 1107.03 279.271 1104.61 281.883 1102.77C297.611 1090.87 309.34 1103.21 317.088 1111.39C320.682 1115.25 325.184 1119.91 327.658 1119.46C340.024 1117.32 362.438 1129.32 370.572 1142.4C375.132 1149.78 375.152 1157.18 370.572 1163.25C370.048 1163.98 369.362 1164.58 368.567 1164.99C367.772 1165.41 366.891 1165.64 365.993 1165.66Z"/><path fill="#570EF1" d="M390.165 1045.23H388.677C374.069 1044.67 363.79 1036.45 362.495 1024.3C361.491 1014.99 355.385 1008.13 349.472 1001.5C342.226 993.385 334.014 984.111 341.086 972.324C350.458 956.634 360.834 957.33 372.852 958.142C380.752 958.903 388.715 958.683 396.561 957.485C411.052 955.108 421.042 957.04 427.051 963.397C436.596 973.483 432.848 990.835 429.08 1007.63C428.249 1011.37 427.476 1014.93 426.838 1018.39C423.573 1036.01 405.816 1045.23 390.165 1045.23ZM365.046 969.349C358.65 969.349 355.385 970.933 350.999 978.256C348.622 982.217 350.38 985.135 358.09 993.714C364.544 1000.96 372.582 1009.96 373.973 1022.99C374.978 1032.3 385.779 1033.44 389.083 1033.56C400.232 1034 413.216 1028.05 415.4 1016.17C416.076 1012.51 416.907 1008.71 417.718 1005.02C420.636 991.82 423.921 976.884 418.607 971.261C414.743 967.146 405.449 967.648 398.396 968.808C389.677 970.153 380.825 970.419 372.041 969.6C369.355 969.464 367.075 969.31 365.085 969.31L365.046 969.349Z"/><path fill="#fff" d="M532.241 432.443C608.083 432.443 669.564 370.961 669.564 295.12C669.564 219.279 608.083 157.797 532.241 157.797C456.4 157.797 394.918 219.279 394.918 295.12C394.918 370.961 456.4 432.443 532.241 432.443Z"/><path fill="#570EF1" d="M532.165 438.24C503.858 438.24 476.188 429.846 452.652 414.12C429.116 398.393 410.772 376.041 399.939 349.889C389.107 323.738 386.273 294.961 391.795 267.199C397.317 239.436 410.948 213.935 430.964 193.919C450.979 173.903 476.481 160.272 504.243 154.75C532.006 149.228 560.783 152.062 586.934 162.894C613.086 173.727 635.438 192.071 651.164 215.607C666.891 239.143 675.285 266.813 675.285 295.12C675.238 333.063 660.145 369.44 633.315 396.27C606.485 423.1 570.108 438.194 532.165 438.24ZM532.165 163.593C506.151 163.593 480.722 171.307 459.093 185.76C437.463 200.212 420.605 220.754 410.65 244.787C400.695 268.82 398.091 295.266 403.166 320.779C408.241 346.293 420.767 369.729 439.162 388.123C457.556 406.517 480.992 419.044 506.505 424.119C532.019 429.194 558.464 426.589 582.498 416.634C606.531 406.679 627.073 389.821 641.525 368.192C655.977 346.563 663.691 321.133 663.691 295.12C663.65 260.249 649.78 226.819 625.123 202.162C600.466 177.505 567.035 163.634 532.165 163.593Z"/><path fill="#570EF1" d="M572.372 358.574C565.851 358.578 559.476 356.648 554.053 353.028C548.629 349.408 544.401 344.261 541.903 338.238C539.406 332.215 538.75 325.587 540.02 319.191C541.289 312.796 544.427 306.92 549.037 302.308C553.646 297.696 559.52 294.555 565.914 293.281C572.309 292.008 578.938 292.659 584.963 295.154C590.987 297.648 596.136 301.873 599.759 307.295C603.382 312.716 605.316 319.09 605.316 325.61C605.306 334.346 601.832 342.722 595.657 348.901C589.481 355.08 581.108 358.559 572.372 358.574ZM572.372 304.259C568.139 304.255 564.001 305.508 560.482 307.86C556.962 310.211 554.22 313.554 552.603 317.465C550.986 321.376 550.567 325.68 551.399 329.83C552.231 333.98 554.276 337.789 557.276 340.775C560.275 343.761 564.094 345.789 568.248 346.602C572.401 347.415 576.703 346.976 580.607 345.342C584.511 343.707 587.841 340.95 590.176 337.42C592.511 333.89 593.746 329.746 593.723 325.514C593.687 319.871 591.423 314.471 587.424 310.49C583.425 306.509 578.015 304.269 572.372 304.259Z"/><path fill="#570EF1" d="M528.761 216.304C524.363 216.304 520.063 215 516.406 212.556C512.748 210.112 509.898 206.639 508.214 202.575C506.531 198.511 506.091 194.039 506.949 189.725C507.807 185.411 509.925 181.448 513.035 178.338C516.146 175.228 520.108 173.11 524.423 172.252C528.737 171.393 533.208 171.834 537.272 173.517C541.336 175.2 544.809 178.051 547.253 181.708C549.697 185.366 551.001 189.665 551.001 194.064C550.996 199.961 548.651 205.615 544.482 209.784C540.312 213.954 534.658 216.299 528.761 216.304ZM528.761 183.456C526.656 183.456 524.597 184.081 522.846 185.25C521.096 186.42 519.731 188.083 518.925 190.028C518.119 191.974 517.909 194.115 518.319 196.18C518.73 198.245 519.744 200.142 521.233 201.631C522.722 203.12 524.619 204.134 526.684 204.545C528.75 204.956 530.89 204.745 532.836 203.939C534.781 203.133 536.444 201.768 537.614 200.018C538.784 198.267 539.408 196.208 539.408 194.103C539.408 191.279 538.286 188.571 536.29 186.575C534.293 184.578 531.585 183.456 528.761 183.456Z"/><path fill="#570EF1" d="M450.796 261.423C447.241 261.427 443.765 260.376 440.807 258.404C437.849 256.431 435.543 253.626 434.18 250.343C432.817 247.06 432.458 243.446 433.15 239.959C433.841 236.472 435.551 233.268 438.063 230.753C440.575 228.238 443.777 226.525 447.264 225.83C450.75 225.135 454.364 225.49 457.649 226.849C460.933 228.209 463.741 230.512 465.716 233.468C467.692 236.423 468.746 239.898 468.746 243.453C468.741 248.214 466.849 252.779 463.484 256.147C460.119 259.515 455.557 261.413 450.796 261.423ZM450.796 237.096C449.533 237.092 448.297 237.463 447.246 238.163C446.194 238.862 445.374 239.857 444.889 241.023C444.404 242.189 444.276 243.473 444.522 244.712C444.767 245.95 445.375 247.088 446.268 247.981C447.161 248.874 448.298 249.482 449.537 249.727C450.776 249.973 452.059 249.845 453.225 249.36C454.391 248.875 455.387 248.054 456.086 247.003C456.785 245.951 457.156 244.716 457.153 243.453C457.148 241.769 456.476 240.155 455.285 238.964C454.094 237.773 452.48 237.101 450.796 237.096Z"/><path fill="#570EF1" d="M511.275 400.078C507.51 400.078 503.831 398.962 500.701 396.871C497.571 394.78 495.131 391.807 493.691 388.329C492.25 384.852 491.874 381.025 492.608 377.333C493.342 373.641 495.155 370.25 497.817 367.588C500.478 364.926 503.87 363.114 507.562 362.379C511.253 361.645 515.08 362.022 518.558 363.462C522.036 364.903 525.008 367.342 527.099 370.472C529.191 373.602 530.307 377.282 530.307 381.046C530.302 386.092 528.295 390.93 524.727 394.498C521.159 398.067 516.321 400.073 511.275 400.078ZM511.275 373.607C509.803 373.607 508.365 374.043 507.142 374.861C505.918 375.678 504.965 376.84 504.402 378.199C503.839 379.559 503.691 381.054 503.978 382.497C504.266 383.94 504.974 385.266 506.014 386.306C507.055 387.347 508.38 388.055 509.823 388.342C511.266 388.629 512.762 388.482 514.121 387.919C515.481 387.356 516.643 386.402 517.46 385.179C518.277 383.956 518.714 382.517 518.714 381.046C518.709 379.075 517.923 377.186 516.529 375.792C515.135 374.398 513.246 373.612 511.275 373.607Z"/><path fill="#570EF1" d="M614.709 253.983C611.326 253.986 608.018 252.987 605.204 251.11C602.389 249.233 600.194 246.564 598.897 243.44C597.6 240.315 597.258 236.877 597.916 233.558C598.574 230.24 600.201 227.191 602.592 224.798C604.982 222.404 608.029 220.774 611.347 220.112C614.664 219.451 618.104 219.788 621.229 221.082C624.355 222.376 627.027 224.568 628.907 227.38C630.787 230.193 631.79 233.499 631.79 236.882C631.785 241.413 629.984 245.756 626.783 248.962C623.581 252.167 619.24 253.972 614.709 253.983ZM614.709 231.395C613.619 231.391 612.551 231.711 611.643 232.315C610.734 232.919 610.025 233.778 609.606 234.785C609.187 235.792 609.076 236.901 609.288 237.971C609.5 239.041 610.025 240.024 610.796 240.796C611.567 241.567 612.55 242.092 613.62 242.304C614.69 242.516 615.799 242.405 616.806 241.986C617.813 241.566 618.673 240.858 619.277 239.949C619.88 239.041 620.201 237.973 620.197 236.882C620.192 235.429 619.612 234.036 618.584 233.008C617.556 231.98 616.163 231.4 614.709 231.395Z"/><path fill="#570EF1" d="M528.762 281.401C532.838 281.401 536.143 278.096 536.143 274.02C536.143 269.943 532.838 266.639 528.762 266.639C524.685 266.639 521.381 269.943 521.381 274.02C521.381 278.096 524.685 281.401 528.762 281.401Z"/><path fill="#570EF1" d="M633.391 318.944C637.467 318.944 640.772 315.639 640.772 311.563C640.772 307.486 637.467 304.182 633.391 304.182C629.314 304.182 626.01 307.486 626.01 311.563C626.01 315.639 629.314 318.944 633.391 318.944Z"/><path fill="#570EF1" d="M458.178 326.344C462.254 326.344 465.559 323.04 465.559 318.963C465.559 314.887 462.254 311.582 458.178 311.582C454.102 311.582 450.797 314.887 450.797 318.963C450.797 323.04 454.102 326.344 458.178 326.344Z"/><path fill="#fff" d="M310.364 692.694C322.102 692.694 331.618 683.179 331.618 671.44C331.618 659.701 322.102 650.186 310.364 650.186C298.625 650.186 289.109 659.701 289.109 671.44C289.109 683.179 298.625 692.694 310.364 692.694Z"/><path fill="#fff" d="M593.375 1391.25C617.685 1391.25 637.391 1371.54 637.391 1347.23C637.391 1322.93 617.685 1303.22 593.375 1303.22C569.066 1303.22 549.359 1322.93 549.359 1347.23C549.359 1371.54 569.066 1391.25 593.375 1391.25Z"/><path fill="#fff" d="M1169.62 915.421C1183.51 915.421 1194.76 904.166 1194.76 890.283C1194.76 876.399 1183.51 865.145 1169.62 865.145C1155.74 865.145 1144.48 876.399 1144.48 890.283C1144.48 904.166 1155.74 915.421 1169.62 915.421Z"/><path fill="#fff" d="M1477.62 628.197C1502.54 628.197 1522.74 607.997 1522.74 583.079C1522.74 558.162 1502.54 537.962 1477.62 537.962C1452.7 537.962 1432.5 558.162 1432.5 583.079C1432.5 607.997 1452.7 628.197 1477.62 628.197Z"/><path fill="#570EF1" d="M1477.6 633.993C1467.53 633.993 1457.69 631.007 1449.32 625.413C1440.94 619.818 1434.42 611.866 1430.56 602.563C1426.71 593.26 1425.7 583.023 1427.67 573.146C1429.63 563.27 1434.48 554.198 1441.6 547.077C1448.72 539.957 1457.79 535.108 1467.67 533.143C1477.55 531.179 1487.78 532.187 1497.09 536.041C1506.39 539.894 1514.34 546.42 1519.94 554.793C1525.53 563.166 1528.52 573.009 1528.52 583.079C1528.5 596.578 1523.13 609.519 1513.59 619.064C1504.04 628.609 1491.1 633.978 1477.6 633.993ZM1477.6 543.778C1469.82 543.778 1462.22 546.084 1455.75 550.406C1449.29 554.727 1444.25 560.869 1441.27 568.056C1438.3 575.242 1437.52 583.149 1439.04 590.777C1440.56 598.405 1444.3 605.411 1449.8 610.909C1455.31 616.408 1462.31 620.151 1469.94 621.666C1477.57 623.181 1485.48 622.4 1492.66 619.421C1499.85 616.441 1505.99 611.399 1510.31 604.93C1514.62 598.461 1516.93 590.857 1516.92 583.079C1516.91 572.656 1512.77 562.662 1505.39 555.293C1498.02 547.925 1488.03 543.783 1477.6 543.778Z"/><path fill="#fff" d="M1503.72 807.544C1515.13 807.544 1524.38 798.297 1524.38 786.889C1524.38 775.481 1515.13 766.233 1503.72 766.233C1492.32 766.233 1483.07 775.481 1483.07 786.889C1483.07 798.297 1492.32 807.544 1503.72 807.544Z"/><path fill="#fff" d="M1643.94 1442.34C1654.15 1442.34 1662.42 1434.07 1662.42 1423.87C1662.42 1413.66 1654.15 1405.39 1643.94 1405.39C1633.74 1405.39 1625.47 1413.66 1625.47 1423.87C1625.47 1434.07 1633.74 1442.34 1643.94 1442.34Z"/><path fill="#fff" d="M1678.73 1633.67C1685.33 1633.67 1690.69 1628.31 1690.69 1621.71C1690.69 1615.1 1685.33 1609.75 1678.73 1609.75C1672.12 1609.75 1666.77 1615.1 1666.77 1621.71C1666.77 1628.31 1672.12 1633.67 1678.73 1633.67Z"/><path fill="#fff" d="M1841.77 1435.83C1847.77 1435.83 1852.64 1430.96 1852.64 1424.95C1852.64 1418.94 1847.77 1414.07 1841.77 1414.07C1835.76 1414.07 1830.89 1418.94 1830.89 1424.95C1830.89 1430.96 1835.76 1435.83 1841.77 1435.83Z"/><path fill="#fff" d="M570.749 571.409C576.586 571.409 581.318 566.677 581.318 560.84C581.318 555.003 576.586 550.271 570.749 550.271C564.912 550.271 560.18 555.003 560.18 560.84C560.18 566.677 564.912 571.409 570.749 571.409Z"/><path fill="#fff" d="M476.921 1201.64C484.146 1201.64 490.002 1195.79 490.002 1188.56C490.002 1181.34 484.146 1175.48 476.921 1175.48C469.696 1175.48 463.84 1181.34 463.84 1188.56C463.84 1195.79 469.696 1201.64 476.921 1201.64Z"/><path fill="#570EF1" d="M310.364 698.509C305.013 698.509 299.783 696.923 295.335 693.951C290.886 690.978 287.419 686.753 285.372 681.81C283.324 676.867 282.789 671.428 283.832 666.181C284.876 660.934 287.452 656.113 291.236 652.33C295.019 648.547 299.839 645.971 305.086 644.927C310.334 643.883 315.773 644.419 320.716 646.466C325.659 648.514 329.883 651.981 332.856 656.43C335.828 660.878 337.415 666.108 337.415 671.458C337.415 678.633 334.565 685.513 329.492 690.586C324.419 695.659 317.538 698.509 310.364 698.509ZM310.364 656.001C307.306 656.001 304.318 656.907 301.776 658.606C299.234 660.304 297.252 662.718 296.083 665.543C294.913 668.367 294.606 671.476 295.203 674.474C295.799 677.473 297.272 680.227 299.433 682.389C301.595 684.55 304.349 686.023 307.348 686.619C310.346 687.216 313.455 686.909 316.279 685.74C319.104 684.57 321.518 682.588 323.216 680.046C324.915 677.504 325.821 674.516 325.821 671.458C325.824 669.427 325.426 667.415 324.65 665.537C323.875 663.659 322.736 661.953 321.301 660.516C319.865 659.078 318.16 657.938 316.284 657.16C314.407 656.382 312.395 655.981 310.364 655.981V656.001Z"/><path fill="#570EF1" d="M593.356 1397.05C583.505 1397.04 573.876 1394.12 565.687 1388.64C557.498 1383.17 551.116 1375.39 547.349 1366.28C543.582 1357.18 542.598 1347.17 544.522 1337.5C546.446 1327.84 551.192 1318.97 558.159 1312C565.126 1305.04 574.002 1300.3 583.664 1298.38C593.327 1296.46 603.341 1297.44 612.442 1301.22C621.543 1304.99 629.322 1311.37 634.794 1319.56C640.267 1327.75 643.188 1337.38 643.188 1347.23C643.173 1360.44 637.917 1373.11 628.574 1382.45C619.232 1391.79 606.566 1397.04 593.356 1397.05ZM593.356 1309.02C585.798 1309.02 578.41 1311.26 572.128 1315.47C565.845 1319.67 560.949 1325.64 558.06 1332.62C555.17 1339.61 554.416 1347.29 555.893 1354.7C557.369 1362.12 561.011 1368.92 566.357 1374.27C571.703 1379.61 578.513 1383.25 585.926 1384.72C593.339 1386.19 601.023 1385.44 608.006 1382.54C614.988 1379.65 620.956 1374.75 625.155 1368.47C629.354 1362.18 631.595 1354.79 631.595 1347.23C631.584 1337.1 627.552 1327.38 620.382 1320.21C613.213 1313.05 603.493 1309.02 593.356 1309.02Z"/><path fill="#570EF1" d="M1169.62 921.218C1163.51 921.218 1157.53 919.405 1152.45 916.008C1147.36 912.611 1143.4 907.782 1141.06 902.133C1138.72 896.484 1138.11 890.268 1139.3 884.271C1140.49 878.274 1143.44 872.765 1147.76 868.442C1152.09 864.118 1157.59 861.174 1163.59 859.981C1169.59 858.788 1175.8 859.4 1181.45 861.74C1187.1 864.08 1191.93 868.042 1195.33 873.127C1198.73 878.211 1200.54 884.188 1200.54 890.302C1200.54 898.502 1197.28 906.365 1191.48 912.163C1185.69 917.961 1177.82 921.218 1169.62 921.218ZM1169.62 870.98C1165.8 870.98 1162.07 872.113 1158.89 874.236C1155.71 876.36 1153.23 879.377 1151.77 882.908C1150.31 886.439 1149.93 890.324 1150.67 894.072C1151.42 897.82 1153.26 901.263 1155.96 903.965C1158.66 906.667 1162.1 908.508 1165.85 909.253C1169.6 909.999 1173.49 909.616 1177.02 908.154C1180.55 906.691 1183.57 904.215 1185.69 901.037C1187.81 897.86 1188.94 894.124 1188.94 890.302C1188.95 887.763 1188.45 885.249 1187.48 882.902C1186.51 880.556 1185.09 878.423 1183.29 876.627C1181.5 874.831 1179.37 873.406 1177.02 872.433C1174.68 871.461 1172.16 870.961 1169.62 870.961V870.98Z"/><path fill="#570EF1" d="M1503.72 813.362C1498.49 813.362 1493.38 811.811 1489.03 808.904C1484.68 805.998 1481.29 801.866 1479.29 797.033C1477.28 792.199 1476.76 786.881 1477.78 781.75C1478.8 776.618 1481.32 771.905 1485.02 768.206C1488.72 764.506 1493.43 761.987 1498.56 760.966C1503.69 759.946 1509.01 760.469 1513.85 762.472C1518.68 764.474 1522.81 767.864 1525.72 772.214C1528.62 776.564 1530.18 781.678 1530.18 786.91C1530.17 793.924 1527.38 800.649 1522.42 805.609C1517.46 810.569 1510.74 813.357 1503.72 813.362ZM1503.72 772.051C1500.78 772.051 1497.91 772.923 1495.47 774.555C1493.02 776.188 1491.12 778.509 1490 781.224C1488.87 783.939 1488.58 786.927 1489.15 789.809C1489.72 792.691 1491.14 795.339 1493.22 797.417C1495.29 799.495 1497.94 800.91 1500.82 801.483C1503.71 802.057 1506.69 801.763 1509.41 800.638C1512.12 799.513 1514.45 797.609 1516.08 795.165C1517.71 792.722 1518.58 789.849 1518.58 786.91C1518.58 782.968 1517.02 779.186 1514.23 776.397C1511.45 773.607 1507.67 772.037 1503.72 772.032V772.051Z"/><path fill="#570EF1" d="M1643.95 1448.13C1639.15 1448.12 1634.46 1446.67 1630.48 1443.99C1626.5 1441.31 1623.41 1437.51 1621.59 1433.07C1619.77 1428.63 1619.3 1423.75 1620.26 1419.04C1621.21 1414.34 1623.54 1410.03 1626.94 1406.64C1630.35 1403.26 1634.68 1400.97 1639.39 1400.05C1644.1 1399.13 1648.98 1399.63 1653.41 1401.48C1657.83 1403.33 1661.61 1406.45 1664.26 1410.45C1666.92 1414.45 1668.33 1419.14 1668.31 1423.94C1668.28 1430.38 1665.7 1436.54 1661.13 1441.08C1656.56 1445.61 1650.38 1448.15 1643.95 1448.13ZM1643.95 1411.19C1641.45 1411.21 1639.01 1411.97 1636.94 1413.37C1634.87 1414.77 1633.26 1416.75 1632.31 1419.06C1631.36 1421.38 1631.12 1423.92 1631.62 1426.37C1632.11 1428.82 1633.32 1431.07 1635.09 1432.84C1636.85 1434.6 1639.11 1435.81 1641.56 1436.3C1644.01 1436.79 1646.55 1436.54 1648.86 1435.59C1651.17 1434.64 1653.15 1433.03 1654.55 1430.95C1655.95 1428.88 1656.7 1426.44 1656.72 1423.94C1656.73 1422.26 1656.4 1420.6 1655.76 1419.05C1655.12 1417.5 1654.18 1416.09 1652.99 1414.9C1651.8 1413.72 1650.39 1412.78 1648.84 1412.14C1647.29 1411.5 1645.62 1411.18 1643.95 1411.19Z"/><path fill="#570EF1" d="M1678.73 1639.44C1675.21 1639.44 1671.78 1638.4 1668.86 1636.45C1665.94 1634.5 1663.66 1631.72 1662.32 1628.48C1660.98 1625.23 1660.62 1621.66 1661.31 1618.22C1662 1614.77 1663.69 1611.61 1666.18 1609.12C1668.66 1606.64 1671.83 1604.95 1675.27 1604.27C1678.72 1603.59 1682.29 1603.94 1685.53 1605.29C1688.78 1606.63 1691.55 1608.91 1693.5 1611.84C1695.45 1614.76 1696.49 1618.19 1696.48 1621.71C1696.48 1626.41 1694.6 1630.92 1691.28 1634.25C1687.95 1637.58 1683.43 1639.44 1678.73 1639.44ZM1678.73 1615.54C1677.51 1615.54 1676.32 1615.9 1675.3 1616.58C1674.29 1617.26 1673.5 1618.22 1673.03 1619.35C1672.56 1620.47 1672.44 1621.71 1672.68 1622.91C1672.92 1624.1 1673.51 1625.2 1674.37 1626.06C1675.23 1626.93 1676.33 1627.51 1677.52 1627.75C1678.72 1627.99 1679.96 1627.87 1681.08 1627.4C1682.21 1626.93 1683.17 1626.14 1683.85 1625.13C1684.53 1624.12 1684.89 1622.93 1684.89 1621.71C1684.89 1620.07 1684.24 1618.5 1683.08 1617.35C1681.93 1616.19 1680.36 1615.54 1678.73 1615.54Z"/><path fill="#570EF1" d="M1841.77 1441.62C1838.47 1441.62 1835.24 1440.65 1832.5 1438.81C1829.76 1436.98 1827.62 1434.38 1826.36 1431.33C1825.1 1428.28 1824.77 1424.93 1825.41 1421.7C1826.06 1418.46 1827.64 1415.49 1829.98 1413.16C1832.31 1410.83 1835.28 1409.24 1838.51 1408.59C1841.75 1407.95 1845.1 1408.28 1848.15 1409.54C1851.2 1410.8 1853.8 1412.94 1855.63 1415.68C1857.46 1418.43 1858.44 1421.65 1858.44 1424.95C1858.44 1429.37 1856.69 1433.61 1853.56 1436.74C1850.43 1439.87 1846.19 1441.62 1841.77 1441.62ZM1841.77 1419.89C1840.76 1419.89 1839.78 1420.18 1838.94 1420.74C1838.11 1421.3 1837.45 1422.1 1837.07 1423.03C1836.69 1423.96 1836.59 1424.98 1836.78 1425.97C1836.98 1426.95 1837.47 1427.86 1838.18 1428.57C1838.89 1429.28 1839.8 1429.76 1840.79 1429.95C1841.77 1430.15 1842.8 1430.04 1843.72 1429.66C1844.65 1429.27 1845.45 1428.62 1846 1427.78C1846.56 1426.94 1846.85 1425.95 1846.85 1424.95C1846.85 1424.28 1846.72 1423.62 1846.46 1423.01C1846.21 1422.39 1845.83 1421.83 1845.36 1421.36C1844.89 1420.89 1844.33 1420.52 1843.71 1420.27C1843.09 1420.01 1842.43 1419.88 1841.77 1419.89Z"/><path fill="#570EF1" d="M570.808 577.206C567.571 577.202 564.409 576.239 561.72 574.438C559.032 572.637 556.937 570.08 555.701 567.089C554.465 564.098 554.144 560.808 554.778 557.635C555.411 554.462 556.972 551.547 559.261 549.26C561.551 546.973 564.467 545.417 567.641 544.787C570.815 544.157 574.105 544.482 577.094 545.721C580.084 546.961 582.639 549.058 584.436 551.749C586.233 554.44 587.193 557.604 587.193 560.84C587.188 565.182 585.459 569.345 582.387 572.413C579.315 575.482 575.15 577.206 570.808 577.206ZM570.808 556.067C569.864 556.071 568.944 556.354 568.161 556.881C567.379 557.407 566.77 558.154 566.412 559.027C566.054 559.899 565.962 560.858 566.148 561.782C566.335 562.707 566.791 563.556 567.459 564.221C568.127 564.887 568.978 565.339 569.903 565.522C570.828 565.704 571.787 565.609 572.658 565.247C573.529 564.885 574.273 564.273 574.796 563.489C575.32 562.705 575.599 561.783 575.599 560.84C575.594 559.572 575.087 558.358 574.189 557.464C573.291 556.569 572.075 556.067 570.808 556.067Z"/><path fill="#570EF1" d="M476.921 1207.53C473.187 1207.53 469.537 1206.43 466.433 1204.35C463.328 1202.28 460.909 1199.33 459.48 1195.88C458.051 1192.43 457.677 1188.64 458.406 1184.97C459.134 1181.31 460.932 1177.95 463.572 1175.31C466.212 1172.67 469.576 1170.87 473.238 1170.14C476.9 1169.41 480.696 1169.79 484.145 1171.22C487.594 1172.65 490.543 1175.06 492.617 1178.17C494.691 1181.27 495.799 1184.92 495.799 1188.66C495.793 1193.66 493.803 1198.46 490.264 1202C486.725 1205.54 481.926 1207.53 476.921 1207.53ZM476.921 1181.37C475.48 1181.37 474.072 1181.8 472.874 1182.6C471.676 1183.4 470.742 1184.54 470.191 1185.87C469.639 1187.2 469.495 1188.67 469.776 1190.08C470.057 1191.49 470.751 1192.79 471.77 1193.81C472.789 1194.83 474.087 1195.52 475.5 1195.8C476.913 1196.08 478.377 1195.94 479.708 1195.39C481.04 1194.84 482.177 1193.9 482.978 1192.7C483.778 1191.51 484.205 1190.1 484.205 1188.66C484.218 1187.69 484.039 1186.73 483.679 1185.84C483.318 1184.94 482.784 1184.13 482.106 1183.44C481.428 1182.76 480.621 1182.21 479.731 1181.84C478.841 1181.47 477.886 1181.28 476.921 1181.28V1181.37Z"/><path fill="#570EF1" d="M945.966 261.423C944.847 261.424 943.751 261.101 942.811 260.493C941.87 259.885 941.126 259.018 940.669 257.996C940.211 256.974 940.059 255.842 940.231 254.735C940.403 253.629 940.892 252.596 941.638 251.762C983.026 205.292 1055.12 204.712 1058.17 204.712C1059.71 204.712 1061.18 205.323 1062.27 206.41C1063.36 207.497 1063.97 208.971 1063.97 210.509C1063.97 212.046 1063.36 213.52 1062.27 214.607C1061.18 215.695 1059.71 216.305 1058.17 216.305C1057.47 216.305 988.185 216.885 950.295 259.413C949.757 260.036 949.093 260.537 948.347 260.884C947.601 261.23 946.789 261.414 945.966 261.423Z"/><path fill="#570EF1" d="M850.48 287.198C849.29 287.206 848.127 286.841 847.156 286.154C846.533 285.717 846.002 285.161 845.594 284.518C845.186 283.875 844.909 283.158 844.778 282.408C844.647 281.658 844.665 280.89 844.831 280.147C844.997 279.404 845.308 278.7 845.746 278.078C914.398 180.114 1021.73 162.608 1026.25 161.912C1027.77 161.677 1029.32 162.054 1030.57 162.962C1031.81 163.87 1032.64 165.233 1032.87 166.753C1033.11 168.272 1032.73 169.823 1031.82 171.064C1030.91 172.305 1029.55 173.135 1028.03 173.37C1026.97 173.525 920.967 190.954 855.233 284.744C854.696 285.504 853.984 286.125 853.156 286.552C852.329 286.979 851.411 287.2 850.48 287.198Z"/><path fill="#570EF1" d="M1285.57 1093.53C1284.79 1093.53 1284.02 1093.38 1283.31 1093.07C1282.59 1092.77 1281.94 1092.32 1281.4 1091.76C1251.64 1060.84 1199.53 1054.75 1198.99 1054.7C1198.23 1054.61 1197.49 1054.38 1196.82 1054.01C1196.15 1053.64 1195.56 1053.15 1195.08 1052.55C1194.6 1051.95 1194.24 1051.26 1194.03 1050.53C1193.82 1049.79 1193.75 1049.02 1193.83 1048.26C1193.92 1047.5 1194.15 1046.76 1194.52 1046.09C1194.89 1045.42 1195.38 1044.83 1195.98 1044.35C1196.58 1043.87 1197.26 1043.51 1198 1043.3C1198.73 1043.09 1199.5 1043.02 1200.27 1043.1C1202.57 1043.35 1257.03 1049.69 1289.75 1083.68C1290.54 1084.5 1291.07 1085.53 1291.27 1086.65C1291.48 1087.77 1291.35 1088.92 1290.9 1089.97C1290.46 1091.01 1289.72 1091.91 1288.77 1092.53C1287.82 1093.16 1286.71 1093.49 1285.57 1093.5V1093.53Z"/><path fill="#570EF1" d="M1316.65 1074.21C1315.73 1074.21 1314.82 1073.99 1314 1073.57C1313.18 1073.15 1312.47 1072.54 1311.93 1071.8C1277.96 1024.53 1204.23 1011.9 1203.5 1011.76C1201.98 1011.51 1200.63 1010.66 1199.74 1009.4C1198.84 1008.15 1198.49 1006.59 1198.74 1005.08C1199 1003.56 1199.85 1002.21 1201.1 1001.32C1202.36 1000.42 1203.91 1000.07 1205.43 1000.32C1208.66 1000.84 1284.65 1013.85 1321.36 1065.03C1322.26 1066.28 1322.62 1067.83 1322.37 1069.34C1322.13 1070.86 1321.29 1072.21 1320.05 1073.11C1319.06 1073.83 1317.87 1074.21 1316.65 1074.21Z"/><path fill="#570EF1" d="M1028.01 1763.38C1027.72 1763.4 1027.42 1763.4 1027.12 1763.38C1025.61 1763.15 1024.25 1762.32 1023.34 1761.09C1022.43 1759.85 1022.05 1758.31 1022.27 1756.79C1028.9 1712.93 1018.1 1639.77 1017.98 1639.04C1017.84 1638.28 1017.86 1637.49 1018.02 1636.73C1018.19 1635.97 1018.51 1635.25 1018.96 1634.62C1019.41 1633.98 1019.99 1633.45 1020.65 1633.04C1021.32 1632.63 1022.05 1632.37 1022.82 1632.25C1023.59 1632.13 1024.38 1632.17 1025.13 1632.37C1025.88 1632.56 1026.59 1632.91 1027.21 1633.38C1027.83 1633.85 1028.34 1634.45 1028.73 1635.12C1029.11 1635.8 1029.35 1636.55 1029.44 1637.32C1029.91 1640.39 1040.63 1712.93 1033.73 1758.51C1033.51 1759.87 1032.82 1761.1 1031.77 1762C1030.72 1762.89 1029.39 1763.38 1028.01 1763.38Z"/><path fill="#570EF1" d="M988.167 1756.87C987.731 1756.86 987.297 1756.81 986.872 1756.71C985.373 1756.37 984.071 1755.45 983.252 1754.15C982.434 1752.85 982.165 1751.27 982.505 1749.78C988.148 1725.04 980.399 1685.47 980.322 1685.09C980.183 1683.65 980.582 1682.22 981.443 1681.06C982.303 1679.91 983.562 1679.11 984.975 1678.84C986.389 1678.56 987.854 1678.82 989.087 1679.56C990.32 1680.31 991.232 1681.48 991.645 1682.86C991.993 1684.58 999.973 1725.26 993.77 1752.42C993.468 1753.68 992.751 1754.81 991.736 1755.61C990.72 1756.42 989.463 1756.86 988.167 1756.87Z"/><path fill="#570EF1" d="M738.022 655.983C736.595 655.992 735.214 655.475 734.145 654.531C733.075 653.586 732.392 652.28 732.225 650.862C729.482 627.772 715.318 594.615 715.183 594.287C714.621 592.883 714.629 591.315 715.207 589.918C715.784 588.521 716.885 587.404 718.274 586.807C719.663 586.209 721.23 586.178 722.642 586.72C724.053 587.262 725.197 588.334 725.83 589.707C726.429 591.118 740.785 624.719 743.741 649.49C743.833 650.248 743.774 651.016 743.568 651.751C743.362 652.486 743.013 653.173 742.541 653.773C742.069 654.372 741.483 654.873 740.817 655.245C740.151 655.618 739.418 655.855 738.66 655.944L738.022 655.983Z"/><path fill="#570EF1" d="M864.681 516.107C864.151 516.113 863.624 516.041 863.116 515.895C862.382 515.689 861.696 515.342 861.097 514.871C860.498 514.401 859.998 513.817 859.624 513.153C859.251 512.489 859.013 511.758 858.922 511.002C858.831 510.245 858.891 509.479 859.097 508.745C870.922 466.758 826.597 428.056 826.152 427.592C824.984 426.593 824.26 425.17 824.141 423.638C824.021 422.105 824.515 420.587 825.515 419.419C826.514 418.25 827.936 417.527 829.469 417.407C831.002 417.288 832.519 417.782 833.688 418.781C835.755 420.559 884.1 462.643 870.265 511.818C869.934 513.047 869.208 514.132 868.199 514.908C867.19 515.683 865.953 516.104 864.681 516.107Z"/><path fill="#570EF1" d="M1056.82 765.056C1056.25 765.055 1055.68 764.977 1055.14 764.824C1053.67 764.378 1052.43 763.366 1051.71 762.011C1050.98 760.656 1050.83 759.069 1051.27 757.598C1074.9 679.208 1141.02 631.211 1143.83 629.202C1145.08 628.33 1146.62 627.986 1148.12 628.245C1149.63 628.505 1150.97 629.345 1151.85 630.586C1152.74 631.826 1153.1 633.366 1152.86 634.872C1152.62 636.378 1151.8 637.728 1150.57 638.631C1149.91 639.095 1084.87 686.415 1062.36 760.941C1062 762.131 1061.27 763.173 1060.27 763.914C1059.27 764.655 1058.06 765.056 1056.82 765.056Z"/><path fill="#570EF1" d="M993.965 1372.57C967.474 1372.57 953.156 1364.51 952.325 1364.04C950.993 1363.28 950.021 1362.01 949.622 1360.52C949.223 1359.04 949.431 1357.45 950.2 1356.12C950.969 1354.79 952.235 1353.82 953.721 1353.42C955.206 1353.02 956.79 1353.23 958.122 1354C958.547 1354.23 983.454 1367.72 1028.92 1356.39C1049.03 1351.39 1067.22 1344.26 1083.25 1337.96C1106.81 1328.68 1127.21 1320.57 1147.85 1320.86C1149.38 1320.86 1150.86 1321.47 1151.95 1322.56C1153.03 1323.64 1153.64 1325.12 1153.64 1326.66C1153.64 1328.19 1153.03 1329.67 1151.95 1330.75C1150.86 1331.84 1149.38 1332.45 1147.85 1332.45H1147.29C1128.99 1332.45 1109.76 1340.01 1087.52 1348.74C1071.16 1355.18 1052.61 1362.46 1031.76 1367.66C1019.41 1370.82 1006.72 1372.47 993.965 1372.57Z"/><path fill="#2BEF3E" d="M678.163 537.749C624.158 483.647 575.929 510.698 508.862 497.037C436.809 482.391 401.334 415.285 392.272 367.81C385.084 330.17 388.967 326.345 391.673 325.61C399.401 323.524 406.454 370.65 426.163 367.482C435.051 366.052 430.162 343.445 442.258 347.406C450.876 350.208 443.823 382.437 451.32 395.924C458.817 409.411 507.722 436.829 551.796 434.472C677.487 427.767 685.312 399.286 763.529 399.286L678.163 537.749Z"/></svg>