<svg xmlns="http://www.w3.org/2000/svg" enable-background="new 0 0 5000 5000" viewBox="0 0 5000 5000"><circle cx="2460.615" cy="2328.011" r="1917.758" fill="#f0f0f0"/><path fill="#262525" d="M2085.632,3556.382c234.413-598.417,699.392-1077.582,1290.495-1329.868l106.814-45.589
						l265.624,539.011L2659.711,3814.269L2085.632,3556.382z"/><path fill="#262525" d="M2659.709,3822.269c-1.107,0-2.223-0.23-3.275-0.703l-574.08-257.887
						c-3.892-1.748-5.727-6.242-4.17-10.215c58.242-148.683,131.633-292.073,218.135-426.189
						c85.676-132.836,184.949-257.725,295.062-371.196c110.112-113.472,231.961-216.452,362.164-306.081
						c131.456-90.492,272.577-168.157,419.442-230.84l106.815-45.589c3.908-1.667,8.438,0.011,10.315,3.821L3755.74,2716.4
						c1.511,3.066,0.906,6.755-1.505,9.179L2665.382,3819.911C2663.848,3821.452,2661.795,3822.269,2659.709,3822.269z
						 M2095.87,3552.212l562.073,252.493l1080.92-1086.359l-259.748-527.089l-99.847,42.615
						C2796.305,2482.682,2328.923,2962.902,2095.87,3552.212z"/><path fill="#fff" d="M4315.289,3467.311L2941.023,2031.154c-247.216-258.355-656.958-267.674-915.672-20.833
						c-259.24,247.349-268.587,658.114-20.856,917.001l1421.394,1485.414L4315.289,3467.311z"/><path fill="#262525" d="M3425.888,4420.734c-2.182,0-4.27-0.892-5.778-2.469L1998.716,2932.853
						c-61.298-64.058-108.201-138.213-139.407-220.406c-30.138-79.38-44.437-162.864-42.497-248.132
						c1.94-85.269,20.019-168.016,53.735-245.943c34.911-80.688,85.137-152.634,149.283-213.837
						c64.02-61.082,138.086-107.816,220.142-138.905c79.257-30.029,162.598-44.279,247.71-42.336
						c85.111,1.936,167.718,19.956,245.527,53.558c80.557,34.789,152.421,84.844,213.595,148.774l1374.265,1436.158
						c2.941,3.073,2.963,7.913,0.047,11.012l-889.399,945.424c-1.504,1.598-3.598,2.509-5.792,2.518
						C3425.911,4420.734,3425.899,4420.734,3425.888,4420.734z M2472.606,1839.499c-158.909,0-318.044,58.597-441.733,176.609
						c-123.833,118.153-194.174,277.458-198.067,448.569c-3.892,171.111,59.134,333.451,177.468,457.114l1415.564,1479.321
						l878.422-933.755L2935.244,2036.684C2809.767,1905.553,2641.314,1839.499,2472.606,1839.499z"/><path fill="#c994eb" d="M4457.143,3316.526l-974.206-1135.599l-8.555,23.862
							c-229.667,640.617-742.14,1139.379-1388.751,1351.594l1171.935,1035.283L4457.143,3316.526z"/><path fill="#262525" d="M3257.563,4599.666c-1.885,0-3.775-0.662-5.294-2.004L2080.334,3562.379
							c-2.148-1.898-3.117-4.802-2.539-7.609c0.579-2.809,2.616-5.093,5.34-5.986
							c648.894-212.964,1153.238-703.814,1383.716-1346.693l8.556-23.862c0.962-2.682,3.277-4.65,6.079-5.167
							c2.81-0.52,5.668,0.496,7.522,2.658l974.205,1135.598c2.661,3.103,2.556,7.713-0.245,10.69L3263.392,4597.148
							C3261.82,4598.818,3259.695,4599.666,3257.563,4599.666z M2101.351,3559.598l1155.7,1020.941L4446.392,3316.28
							l-960.567-1119.702l-3.912,10.911c-56.996,158.98-132.28,311.473-223.763,453.241
							c-90.348,140.013-196.736,269.963-316.21,386.239c-119.474,116.277-252.26,219.104-394.671,305.623
							C2407.04,3437.785,2257.077,3507.396,2101.351,3559.598z"/><path fill="#d9f04c" d="M2286.639,4045.018c767.069-251.746,1385.167-871.737,1657.621-1631.698l-461.319-232.395
							c-229.668,640.616-750.7,1163.244-1397.308,1375.456L2286.639,4045.018z"/><path fill="#262525" d="M2286.639,4053.019c-3.161,0-6.134-1.886-7.397-4.958l-201.006-488.637
							c-0.846-2.056-0.798-4.371,0.132-6.391c0.93-2.019,2.659-3.56,4.771-4.253
							c639.349-209.828,1159.825-722.186,1392.273-1370.555c0.773-2.157,2.436-3.879,4.563-4.729c2.129-0.85,4.52-0.746,6.565,0.285
							l461.318,232.395c3.608,1.818,5.295,6.041,3.932,9.844c-67.666,188.743-157.455,371.022-266.871,541.775
							c-108.363,169.11-235.663,326.447-378.362,467.641c-143.486,141.972-302.091,267.161-471.407,372.093
							c-172.728,107.046-356.435,192.871-546.016,255.09C2288.308,4052.89,2287.466,4053.019,2286.639,4053.019z M2096.298,3561.281
							l194.906,473.807c753.476-249.792,1366.926-853.751,1643.128-1617.811l-446.931-225.147
							c-56.707,156.163-131.378,306.994-222.018,448.444c-91.396,142.631-198.763,275.332-319.119,394.417
							c-121.021,119.743-254.792,225.332-397.599,313.834C2405.46,3437.576,2253.312,3509.029,2096.298,3561.281z"/><g><path fill="#fff" d="M2281.242,2892.875l224.786-26.246c389.877-44.295,670.027-396.261,625.731-786.138
						l-58.195-508.601l-1636.651,186.652l58.194,508.602C1539.401,2657.02,1891.366,2937.169,2281.242,2892.875z"/><path fill="#262525" d="M3080.391,2445.268c-1.04,0-2.098-0.204-3.116-0.636c-4.068-1.723-5.969-6.418-4.246-10.486
						c46.87-110.643,64.431-232.623,50.782-352.752l-58.194-508.594c-0.503-4.389,2.648-8.354,7.038-8.857
						c4.383-0.495,8.354,2.649,8.856,7.039l58.195,508.601c7.093,62.423,6.065,125.284-3.051,186.841
						c-8.844,59.722-25.295,118.252-48.895,173.963C3086.469,2443.437,3083.507,2445.268,3080.391,2445.268z"/><path fill="#262525" d="M2200.292,2905.479c-38.866,0-77.79-3.158-115.958-9.421
						c-76.362-12.527-149.895-37.284-218.556-73.583c-67.642-35.76-128.899-81.824-182.071-136.912
						c-53.739-55.677-97.835-119.157-131.063-188.678c-34.372-71.914-56.404-148.906-65.485-228.837l-58.193-508.596
						c-0.502-4.389,2.648-8.354,7.038-8.856c4.385-0.502,8.354,2.648,8.856,7.038l58.194,508.602
						c35.326,310.934,275.421,563.432,583.869,614.036c42.789,7.019,86.56,10.049,130.09,9.01c4.402-0.136,8.083,3.39,8.188,7.806
						c0.106,4.417-3.389,8.083-7.806,8.188C2211.7,2905.411,2205.993,2905.479,2200.292,2905.479z"/><path fill="#fff" d="M1824.641,1831.119l392.561-48.278l-106.811-858.789
							c-11.91-104.831-106.546-180.158-211.377-168.248c-104.831,11.911-180.158,106.548-168.249,211.378L1824.641,1831.119z"/><path fill="#262525" d="M1822.224,1816.969c-4.031,0-7.498-3.037-7.943-7.136l-91.468-841.786
							c-12.384-109.006,66.252-207.801,175.298-220.191c52.823-6.003,104.823,8.927,146.419,42.036
							c41.596,33.108,67.809,80.434,73.81,133.258l106.801,858.705c0.545,4.384-2.566,8.38-6.951,8.926
							c-4.377,0.544-8.38-2.566-8.926-6.951L2102.453,925.04c-5.529-48.662-29.634-92.183-67.886-122.63
							c-38.252-30.447-86.072-44.174-134.649-38.657C1799.636,775.147,1727.321,866,1738.714,966.28l91.473,841.824
							c0.477,4.392-2.696,8.34-7.088,8.817C1822.805,1816.953,1822.513,1816.969,1822.224,1816.969z"/><path fill="#fff" d="M2053.196,1082.901c76.028-73.361,78.072-194.502,4.564-270.386l-328.234-345.796
							c-73.26-75.923-194.196-78.083-270.119-4.823c-75.923,73.261-78.082,194.198-4.823,270.121l328.75,346.33
							C1856.642,1154.023,1977.378,1156.06,2053.196,1082.901z"/><path fill="#262525" d="M1747.227,1126.765c-4.031,0-7.498-3.037-7.943-7.136l-9.217-84.823l-281.292-297.292
							c-76.151-78.919-73.897-205.169,5.079-281.375c38.257-36.916,88.576-56.704,141.756-55.774
							c53.155,0.949,102.759,22.542,139.674,60.799l328.279,345.843c31.785,32.812,51.441,75.973,55.303,121.487l17.211,137.265
							c0.55,4.383-2.558,8.383-6.942,8.933c-4.379,0.545-8.382-2.559-8.932-6.942l-17.232-137.426
							c-0.013-0.108-0.025-0.217-0.034-0.326c-3.52-41.906-21.604-81.652-50.922-111.917l-328.29-345.854
							c-33.903-35.135-79.52-54.992-128.402-55.864c-48.877-0.871-95.179,17.342-130.361,51.29
							c-72.627,70.081-74.7,186.182-4.621,258.81l283.198,299.305c1.201,1.27,1.953,2.897,2.142,4.634l9.508,87.5
							c0.477,4.392-2.696,8.339-7.088,8.817C1747.807,1126.75,1747.515,1126.765,1747.227,1126.765z"/><path fill="#262525" d="M1737.732,1039.267c-3.139,0-6.118-1.859-7.394-4.939c-1.691-4.082,0.247-8.761,4.328-10.452
							l162.638-67.383c4.081-1.692,8.761,0.246,10.452,4.328c1.691,4.082-0.247,8.761-4.328,10.452l-162.638,67.383
							C1739.789,1039.07,1738.752,1039.267,1737.732,1039.267z"/><path fill="#fff" d="M1514.182,2371.052l353.016-146.135l-200.151-480.969
							c-40.354-97.483-152.092-143.795-249.575-103.442c-97.484,40.354-143.795,152.094-103.442,249.576L1514.182,2371.052z"/><path fill="#262525" d="M1514.185,2379.054c-3.135,0-6.109-1.854-7.389-4.928l-200.151-480.969
							c-20.34-49.135-20.328-103.235,0.027-152.348c20.355-49.113,58.618-87.359,107.74-107.693
							c49.12-20.334,103.22-20.322,152.333,0.033c49.112,20.355,87.358,58.618,107.692,107.74l200.146,480.956
							c1.698,4.079-0.233,8.761-4.312,10.458c-4.081,1.697-8.762-0.233-10.458-4.312l-200.151-480.969
							c-18.706-45.187-53.877-80.374-99.042-99.093c-45.165-18.72-94.916-18.73-140.088-0.031
							c-45.173,18.7-80.36,53.871-99.08,99.036c-18.719,45.165-18.73,94.916-0.03,140.089l200.146,480.956
							c1.697,4.079-0.233,8.761-4.312,10.458C1516.25,2378.856,1515.209,2379.054,1514.185,2379.054z"/><path fill="#fff" d="M1329.02,1908.333c57.657,88.523,176.217,113.442,264.632,55.62l197.219-129.484
								c88.407-57.581,113.396-175.927,55.815-264.334c-57.581-88.408-175.929-113.396-264.335-55.815l-197.815,129.874
								C1296.354,1701.863,1271.515,1820.043,1329.02,1908.333z"/><path fill="#262525" d="M1367.417,2026.369c-3.195,0-6.214-1.928-7.45-5.083
								c-2.19-5.591-53.702-137.076-58.653-151.107c-14.568-41.28-14.966-87.029-1.122-128.817
								c14.267-43.066,41.919-78.981,79.967-103.863l197.803-129.866c44.572-29.03,97.753-38.961,149.77-27.979
								c52.017,10.983,96.644,41.566,125.659,86.115c59.896,91.961,33.809,215.506-58.152,275.403l-197.195,129.468
								c-3.692,2.423-8.653,1.397-11.077-2.297c-2.425-3.693-1.396-8.652,2.297-11.077l197.22-129.484
								c84.594-55.098,108.583-168.712,53.502-253.281c-26.683-40.967-67.722-69.092-115.558-79.192
								c-47.837-10.102-96.742-0.968-137.709,25.715l-197.79,129.858c-70.823,46.316-100.643,134.303-72.526,213.974
								c4.861,13.776,57.927,149.229,58.463,150.595c1.612,4.114-0.417,8.755-4.53,10.367
								C1369.375,2026.191,1368.388,2026.369,1367.417,2026.369z"/><path fill="#262525" d="M1513.487,1635.442c-28.175,0-55.959-5.711-81.338-17.406
								c-4.012-1.849-5.766-6.601-3.917-10.613c1.85-4.012,6.601-5.764,10.613-3.917c62.194,28.662,140.354,18.145,199.123-26.792
								l19.815-15.085c3.516-2.676,8.536-1.996,11.21,1.519c2.676,3.516,1.996,8.535-1.519,11.21l-19.802,15.075
								C1608.1,1619.691,1560.263,1635.442,1513.487,1635.442z"/><path fill="#262525" d="M2431.324,2632.621c-2.415,0-4.8-1.089-6.375-3.159l-208.829-274.724l-351.55-122.265
							c-4.173-1.452-6.379-6.011-4.928-10.183c1.452-4.174,6.01-6.378,10.184-4.928l353.83,123.058
							c1.487,0.517,2.788,1.461,3.741,2.715l210.29,276.646c2.674,3.517,1.99,8.536-1.527,11.209
							C2434.712,2632.089,2433.011,2632.621,2431.324,2632.621z"/><g><path fill="#fff" d="M2293.927,1774.332l189.364-21.002l-46.343-405.524
									c-11.373-100.104-94.71-181.943-195.423-179.283c-113.593,3-197.87,102.126-185.323,212.567l47.35,414.355
									L2293.927,1774.332z"/><path fill="#262525" d="M2103.542,1803.446c-4.012,0-7.472-3.011-7.938-7.092l-47.35-414.355
										c-6.281-55.286,11.064-111.085,47.587-153.097c17.887-20.574,39.35-36.975,63.792-48.745
										c25.475-12.267,52.956-18.872,81.68-19.63c50.18-1.335,98.811,17.59,136.894,53.263
										c37.213,34.858,60.896,82.132,66.688,133.113l46.342,405.519c0.501,4.389-2.65,8.354-7.04,8.856
										c-4.39,0.5-8.354-2.651-8.856-7.04L2429,1348.715c-11.252-99.036-93.5-174.676-187.264-172.194
										c-52.244,1.38-99.769,23.71-133.82,62.879c-33.589,38.636-49.541,89.951-43.765,140.789l47.349,414.35
										c0.501,4.389-2.65,8.354-7.04,8.856C2104.151,1803.429,2103.845,1803.446,2103.542,1803.446z"/><path fill="#fff" d="M2582.733,1742.302l189.364-21.002l-46.343-405.524
									c-11.373-100.104-94.709-181.943-195.423-179.283c-113.593,3-197.87,102.126-185.323,212.567l47.35,414.355
									L2582.733,1742.302z"/><path fill="#262525" d="M2392.348,1771.416c-4.012,0-7.472-3.011-7.938-7.092l-47.35-414.355
										c-6.281-55.286,11.064-111.085,47.587-153.097c17.887-20.574,39.35-36.975,63.792-48.745
										c25.475-12.267,52.956-18.872,81.68-19.63c50.177-1.324,98.811,17.591,136.894,53.263
										c37.213,34.858,60.896,82.132,66.688,133.113l46.342,405.519c0.502,4.389-2.649,8.354-7.039,8.856
										c-4.399,0.5-8.354-2.651-8.855-7.04l-46.343-405.524c-11.253-99.036-93.517-174.667-187.265-172.194
										c-52.244,1.38-99.769,23.71-133.82,62.879c-33.589,38.636-49.541,89.951-43.766,140.789l47.35,414.35
										c0.501,4.389-2.65,8.354-7.04,8.856C2392.958,1771.399,2392.651,1771.416,2392.348,1771.416z"/><path fill="#fff" d="M2898.675,1707.262l189.364-21.001l-46.343-405.524
									c-11.373-100.104-94.709-181.943-195.423-179.283c-113.593,3-197.87,102.126-185.323,212.567l47.35,414.355
									L2898.675,1707.262z"/><path fill="#262525" d="M2708.29,1736.376c-4.012,0-7.472-3.011-7.938-7.092l-47.351-414.355
										c-6.281-55.286,11.063-111.086,47.587-153.097c17.887-20.574,39.35-36.975,63.793-48.745
										c25.475-12.267,52.955-18.872,81.68-19.63c50.193-1.331,98.812,17.59,136.894,53.263
										c37.213,34.858,60.896,82.132,66.688,133.113l46.345,417.675c0.487,4.391-2.677,8.346-7.068,8.833
										c-4.375,0.487-8.346-2.677-8.832-7.068l-46.343-417.654c-11.069-97.427-90.906-172.228-182.787-172.228
										c-1.493,0-2.975,0.02-4.475,0.059c-52.243,1.38-99.769,23.71-133.82,62.879c-33.589,38.636-49.541,89.951-43.766,140.789
										l47.35,414.35c0.502,4.389-2.649,8.354-7.039,8.856C2708.899,1736.359,2708.593,1736.376,2708.29,1736.376z"/><path fill="#fff" d="M1907.65,1724.984c77.141,72.1,198.143,67.944,270.155-9.278l204.064-218.829
									c68.795-73.604,76.999-190.116,9.63-265.028c-75.984-84.491-206.094-84.306-281.992-3.103l-211.121,226.388
									C1826.487,1532.232,1830.633,1652.999,1907.65,1724.984z"/><path fill="#262525" d="M2037.921,1784.456c-50.612,0.002-98.57-18.894-135.733-53.628
									c-38.809-36.273-61.185-85.487-63.008-138.577c-1.823-53.089,17.126-103.723,53.355-142.572l211.121-226.388
									c37.997-40.653,91.694-63.678,147.376-63.124c27.261,0.262,53.667,5.953,78.482,16.916
									c25.863,11.425,48.719,28.052,67.933,49.417c33.576,37.335,50.726,86.603,48.29,138.727
									c-2.381,50.933-22.987,99.627-58.023,137.112l-204.058,218.822c-36.287,38.913-85.556,61.348-138.73,63.174
									C2042.588,1784.416,2040.248,1784.456,2037.921,1784.456z M2249.133,1176.157c-50.57,0-99.242,21.097-133.782,58.052
									l-211.115,226.381c-68.755,73.727-64.773,189.712,8.877,258.549l0,0c35.746,33.411,82.355,50.882,131.264,49.207
									c48.9-1.68,94.208-22.312,127.579-58.096l204.064-218.829c68.063-72.821,72.248-184.486,9.533-254.223
									c-34.947-38.859-82.774-60.535-134.673-61.033C2250.297,1176.159,2249.713,1176.157,2249.133,1176.157z"/><path fill="#fff" d="M2083.946,1985.287c104.986-11.928,180.348-106.815,168.198-211.775l-22.827-197.188
									c-11.373-100.104-94.709-181.943-195.423-179.283c-113.593,3-197.87,102.126-185.323,212.567l24.048,207.829
									C1884.728,1922.087,1979.271,1997.179,2083.946,1985.287z"/><path fill="#262525" d="M2061.998,1994.533c-44.731,0.001-87.858-14.972-123.403-43.204
										c-41.568-33.016-67.821-80.24-73.923-132.973l-24.048-207.829c-3.598-31.665,0.221-62.729,11.346-92.345
										c10.57-28.139,27.713-53.961,49.585-74.695l85.035-94.664c2.952-3.287,8.009-3.558,11.297-0.605
										c3.287,2.953,3.558,8.01,0.605,11.297l-85.252,94.905c-0.146,0.163-0.299,0.319-0.458,0.469
										c-42.32,39.982-62.828,96.046-56.265,153.816l24.046,207.812c10.77,93.073,90.135,161.998,181.715,162
										c6.862,0,13.788-0.387,20.762-1.179c48.649-5.527,92.212-29.686,122.664-68.027
										c30.452-38.341,44.121-86.242,38.491-134.879l-22.827-197.188c-0.508-4.389,2.638-8.358,7.026-8.866
										c4.385-0.51,8.358,2.638,8.866,7.026l22.827,197.188c6.123,52.889-8.742,104.977-41.855,146.669
										s-80.484,67.963-133.386,73.973C2077.206,1994.103,2069.578,1994.533,2061.998,1994.533z"/><path fill="#262525" d="M2061.824,1883.023c-4.007,0-7.465-3.004-7.937-7.08l-2.862-24.722
									c-11.328-99.703-87.939-173.483-179.139-173.483c-1.493,0-2.976,0.02-4.477,0.059c-4.403,0.1-8.091-3.369-8.208-7.786
									c-0.117-4.416,3.369-8.091,7.786-8.208c49.933-1.316,97.966,17.848,135.172,53.971
									c35.936,34.889,58.935,82.344,64.76,133.624l2.86,24.705c0.508,4.389-2.638,8.358-7.026,8.866
									C2062.441,1883.006,2062.13,1883.023,2061.824,1883.023z"/><g><path fill="#fff" d="M2196.456,1692.953c77.141,72.1,198.143,67.944,270.155-9.278l204.064-218.829
									c68.795-73.604,76.999-190.116,9.63-265.028c-75.984-84.491-206.094-84.306-281.992-3.103l-211.121,226.388
									C2115.293,1500.202,2119.439,1620.969,2196.456,1692.953z"/><path fill="#262525" d="M2326.727,1752.425c-50.612,0.002-98.57-18.894-135.733-53.628
									c-38.809-36.273-61.186-85.487-63.008-138.577c-1.823-53.089,17.126-103.723,53.356-142.572l211.121-226.388
									c37.563-40.189,90.494-63.133,145.477-63.133c0.636,0,1.264,0.003,1.898,0.009c27.262,0.262,53.667,5.953,78.481,16.916
									c25.863,11.425,48.719,28.052,67.934,49.417c33.576,37.335,50.726,86.603,48.289,138.727
									c-2.381,50.933-22.987,99.627-58.023,137.112l-204.057,218.822c-36.287,38.913-85.556,61.348-138.73,63.174
									C2331.395,1752.385,2329.054,1752.425,2326.727,1752.425z M2537.938,1144.126c-50.57,0-99.241,21.097-133.782,58.052
									l-211.115,226.381c-68.755,73.727-64.773,189.711,8.877,258.549l0,0c35.747,33.411,82.349,50.886,131.264,49.207
									c48.9-1.68,94.208-22.312,127.579-58.096l204.063-218.829c68.063-72.821,72.248-184.486,9.532-254.223
									c-34.946-38.859-82.774-60.535-134.672-61.033C2539.104,1144.129,2538.52,1144.126,2537.938,1144.126z"/><path fill="#fff" d="M2372.752,1953.257c104.986-11.928,180.348-106.815,168.197-211.775l-22.827-197.188
									c-11.373-100.104-94.709-181.943-195.423-179.283c-113.593,3-197.87,102.126-185.323,212.567l24.049,207.829
									C2173.534,1890.056,2268.077,1965.149,2372.752,1953.257z"/><path fill="#262525" d="M2350.804,1962.503c-44.731,0.001-87.858-14.972-123.403-43.204
										c-41.568-33.016-67.821-80.24-73.923-132.973l-24.048-207.829c-6.166-54.271,9.618-107.324,44.442-149.402
										c0.072-0.087,0.146-0.173,0.223-0.258l94.067-104.288c2.958-3.281,8.017-3.541,11.298-0.582
										c3.281,2.959,3.541,8.017,0.582,11.298l-93.952,104.16c-31.952,38.676-46.427,87.41-40.765,137.25l24.046,207.812
										c10.77,93.073,90.135,161.998,181.715,162c6.862,0,13.788-0.387,20.763-1.179c48.649-5.527,92.212-29.686,122.663-68.027
										c30.452-38.341,44.121-86.242,38.491-134.879l-22.827-197.188c-0.508-4.389,2.638-8.358,7.026-8.866
										c4.396-0.509,8.358,2.638,8.866,7.026l22.827,197.188c6.123,52.889-8.742,104.977-41.854,146.669
										c-33.114,41.692-80.484,67.963-133.386,73.973C2366.012,1962.073,2358.384,1962.503,2350.804,1962.503z"/><path fill="#262525" d="M2343.76,1831.191c-4.007,0-7.465-3.004-7.937-7.08l-2.862-24.722
									c-11.513-101.335-90.472-175.875-183.616-173.424c-4.435,0.106-8.092-3.37-8.208-7.785
									c-0.117-4.417,3.369-8.091,7.786-8.208c49.953-1.315,97.965,17.848,135.172,53.971
									c35.936,34.889,58.935,82.344,64.76,133.624l2.86,24.705c0.508,4.389-2.638,8.358-7.026,8.866
									C2344.377,1831.173,2344.066,1831.191,2343.76,1831.191z"/></g><g><path fill="#fff" d="M2512.398,1657.914c77.141,72.1,198.143,67.945,270.155-9.278l204.064-218.829
									c68.795-73.604,76.999-190.116,9.63-265.028c-75.984-84.491-206.094-84.306-281.992-3.103l-211.121,226.388
									C2431.234,1465.162,2435.381,1585.929,2512.398,1657.914z"/><path fill="#262525" d="M2642.669,1717.386c-50.611,0-98.57-18.894-135.732-53.628
										c-38.809-36.273-61.186-85.487-63.009-138.577c-1.823-53.09,17.126-103.723,53.355-142.572l211.121-226.388
										c37.997-40.653,91.759-63.652,147.377-63.124c27.262,0.262,53.666,5.953,78.481,16.916
										c25.863,11.426,48.719,28.052,67.933,49.417c31.47,34.993,48.689,81.058,48.516,129.761l18.268,159.824
										c0.502,4.39-2.649,8.354-7.039,8.856c-4.396,0.498-8.354-2.651-8.855-7.039l-18.322-160.296
										c-0.037-0.317-0.054-0.637-0.052-0.956c0.266-44.889-15.506-87.312-44.411-119.452
										c-34.946-38.859-82.773-60.534-134.671-61.033c-0.581-0.006-1.166-0.008-1.746-0.008
										c-50.57,0-99.242,21.097-133.783,58.052l-211.114,226.381c-68.755,73.727-64.773,189.712,8.877,258.55
										c35.746,33.411,82.362,50.887,131.263,49.207c48.9-1.679,94.209-22.312,127.579-58.096l171.9-184.338
										c3.012-3.231,8.074-3.409,11.307-0.395c3.23,3.013,3.407,8.075,0.395,11.306l-171.9,184.338
										c-36.287,38.913-85.557,61.348-138.731,63.174C2647.335,1717.346,2644.995,1717.386,2642.669,1717.386z"/><path fill="#fff" d="M2688.693,1918.217c104.986-11.928,180.348-106.815,168.197-211.775l-22.827-197.188
									c-11.373-100.104-94.709-181.943-195.423-179.283c-113.593,3-197.87,102.126-185.323,212.567l24.049,207.829
									C2489.476,1855.016,2584.019,1930.109,2688.693,1918.217z"/><path fill="#262525" d="M2666.746,1927.463c-44.731,0-87.858-14.972-123.403-43.204
										c-41.568-33.016-67.821-80.24-73.923-132.973l-24.048-207.829c-5.824-51.263,8.178-102.072,39.425-143.085
										c0.127-0.167,0.262-0.33,0.403-0.487l96.505-107.802c2.946-3.291,8.002-3.573,11.296-0.625
										c3.291,2.947,3.571,8.004,0.624,11.295l-96.292,107.563c-28.602,37.671-41.409,84.294-36.067,131.318l24.046,207.812
										c10.77,93.072,90.136,161.997,181.716,162c6.862,0,13.787-0.386,20.762-1.179c48.649-5.527,92.213-29.687,122.664-68.028
										c30.451-38.341,44.12-86.242,38.49-134.879l-22.827-197.188c-0.508-4.389,2.638-8.358,7.026-8.866
										c4.396-0.507,8.358,2.638,8.866,7.026l22.827,197.188c6.123,52.889-8.742,104.977-41.854,146.669
										c-33.113,41.693-80.484,67.964-133.386,73.974C2681.954,1927.033,2674.326,1927.463,2666.746,1927.463z"/><path fill="#262525" d="M2655.241,1811.031c-4.007,0-7.465-3.004-7.937-7.08l-2.862-24.722
									c-11.513-101.335-90.449-175.87-183.616-173.424c-4.413,0.113-8.091-3.369-8.208-7.785
									c-0.117-4.417,3.369-8.091,7.785-8.208c49.959-1.312,97.967,17.848,135.173,53.971
									c35.935,34.889,58.934,82.344,64.76,133.624l2.86,24.705c0.508,4.389-2.638,8.358-7.026,8.866
									C2655.858,1811.013,2655.548,1811.031,2655.241,1811.031z"/></g></g></g></svg>