<svg xmlns="http://www.w3.org/2000/svg" data-name="A Man Playing Social Media" viewBox="0 0 1500 1500"><path fill="#7ca563" d="m1495.52,854.43s-117.78,101.87-160.5,250.66c-19.84,69.13-166.06,89.08-244.72,94.84-.82.06-1.64.13-2.44.16-15.21,1.08-27.71,1.62-36.04,1.88-7.23.24-11.3.27-11.3.27l7.43-16.92,18.04-41.14c9.06-20.63,19.28-40.46,30.56-59.41l2.65-4.41c14.91-24.46,31.61-47.4,49.88-68.54.94-1.11,1.88-2.2,2.83-3.26,6.22-7.1,12.62-13.98,19.19-20.65,3.71-3.77,7.49-7.49,11.32-11.13,28.47-27.04,59.85-50.2,93.53-68.75,23.29-12.88,47.69-23.53,72.97-31.76,24.3-7.9,50.1-14.25,77.16-18.04,22.34-3.16,45.54-4.62,69.44-3.78Z"/><path fill="#5a7749" d="m1073.3,1194.97c.63-.84,25.99-29.6,64.59-69.76,51.77-3.87,100.45-11.3,140.45-23.93l-1.29-3.14c-38.75,12.23-85.7,19.56-135.73,23.5,9.26-9.6,19.24-19.81,29.78-30.41-.19,1.57-.39,3.13-.58,4.71-.05.43-.15,1.3-.15,1.3l2.89-2.03s.14-1.19.22-1.79c.21-1.75.44-3.5.66-5.24,10.83-10.85,22.22-22.08,34.03-33.47,51.4-3.89,99.71-11.3,139.45-23.85l-1.29-3.14c-38.41,12.13-84.88,19.43-134.42,23.39,9.98-9.58,20.23-19.25,30.68-28.89l1.1-.58s.06-.25.14-.57c10.78-9.93,21.75-19.8,32.81-29.48.27-.05.6-.1.82-.14,41.37-7.12,79.99-16.87,111.16-30.15l-1.27-2.41c-30.07,12.81-67.11,22.31-106.88,29.34,47.28-41.11,96-78.36,138.24-100.37l-1.05-2.51c-26.02,13.56-54.57,32.84-83.77,55.19,0,0,0,0,0,0,6.77-19.91,14.31-38.33,22.7-54.51l-2.3-1.45c-9.01,17.37-17.03,37.3-24.19,58.88,0,0,0,0,0,0-28.26,21.85-57.05,46.47-84.71,71.5,9.85-37.54,21.81-72.23,36.32-100.22l-2.3-1.45c-15.13,29.18-27.49,65.59-37.59,104.91-23.51,21.39-46.14,43.01-66.84,63.4,4.92-35.94,12.07-69.43,22.22-97.31l-2.46-1.14c-10.56,28.99-17.87,63.98-22.83,101.48-59.41,58.69-102.22,106.4-103.03,107.49l4.38,2.85Z"/><path fill="#7ca563" d="m1093.6,598s-31.08,156.17-141.79,269.32c-51.44,52.56,4.68,192.64,39.29,265.49.36.76.72,1.52,1.09,2.25,6.72,14.07,12.56,25.45,16.53,33,3.44,6.54,5.47,10.18,5.47,10.18l11.29-15.16,27.47-36.82c13.77-18.47,26.23-37.58,37.38-57.18l2.59-4.58c14.21-25.61,26.18-52.05,35.74-78.97.51-1.39,1-2.78,1.47-4.16,3.17-9.11,6.05-18.29,8.66-27.5,1.48-5.2,2.88-10.44,4.18-15.69,9.67-38.97,14.4-78.57,13.88-117.89-.31-27.21-3.17-54.28-8.62-80.92-5.25-25.6-12.64-51.74-22.93-77.72-8.48-21.46-18.9-42.82-31.71-63.65Z"/><path fill="#5a7749" d="m1004.1,1145.41c.43-.98,13.19-38.06,29.4-92.66-22.71-47.99-40.7-95.02-49.67-136.96l3.44-.44c8.69,40.63,25.9,86.07,47.67,132.54,3.86-13.09,7.9-27.11,11.99-41.84-1.3.97-2.59,1.93-3.9,2.89-.36.26-1.08.79-1.08.79l.34-3.6s.99-.73,1.48-1.1c1.45-1.08,2.89-2.16,4.32-3.24,4.18-15.11,8.41-30.91,12.57-47.16-22.5-47.67-40.32-94.36-49.23-136.03l3.44-.44c8.62,40.28,25.61,85.28,47.1,131.33,3.48-13.71,6.9-27.72,10.19-41.86l-.04-1.27s.19-.18.43-.42c3.38-14.6,6.62-29.34,9.64-44.06-.1-.26-.21-.59-.29-.8-14.57-40.38-25.41-79.64-29.35-114.06l2.78-.09c3.8,33.21,14.06,70.94,27.9,109.85,12.67-62.8,21.17-124.94,19.41-173.62l2.76-.34c1.09,29.99-1.63,65.1-6.76,102.36,0,0,0,0,0,0,14.29-16.08,26.86-32.08,37-47.72l2.45,1.31c-10.89,16.78-24.56,33.98-40.13,51.24,0,0,0,0,0,0-5.15,36.16-12.5,74.2-20.79,111.43,28.4-27.72,53.21-55.88,70.76-82.92l2.45,1.31c-18.3,28.19-44.43,57.57-74.29,86.41-7.14,31.71-14.94,62.75-22.6,91.45,29.46-22.53,55.63-45.8,75.3-68.91l2.26,1.61c-20.44,24.03-47.86,48.21-78.7,71.56-22.17,82.47-42.97,144.63-43.53,145.9l-4.75-2.45Z"/><path fill="#c9db5d" d="m1307.11,656.92s-80.6,149-228.55,229.11c-68.74,37.21-55.75,197.36-43.47,282.36.12.89.25,1.77.4,2.63,2.41,16.42,4.76,29.84,6.43,38.77,1.44,7.74,2.36,12.08,2.36,12.08l16.23-11.85,39.45-28.78c19.78-14.44,38.44-29.94,55.92-46.35l4.07-3.84c22.47-21.56,42.93-44.67,61.09-69.02.96-1.26,1.89-2.51,2.8-3.77,6.08-8.27,11.89-16.68,17.43-25.23,3.14-4.82,6.2-9.71,9.17-14.64,22.05-36.58,39.29-75.35,51.12-115.49,8.23-27.77,13.83-56.2,16.66-85,2.71-27.69,3.42-56.6,1.12-86.26-1.87-24.5-5.74-49.51-12.21-74.73Z"/><path fill="#eaf2a2" d="m1044.33,1185.31c.75-.86,25.34-34.54,58.95-84.94-7.99-55.96-11.49-109.46-7.43-154.94l3.63.64c-3.93,44.06-.73,95.7,6.78,149.82,8.03-12.09,16.53-25.08,25.32-38.76-1.62.57-3.23,1.15-4.86,1.71-.45.15-1.34.46-1.34.46l1.48-3.55s1.23-.43,1.85-.65c1.81-.64,3.61-1.28,5.41-1.93,8.99-14.04,18.24-28.78,27.57-43.99-7.88-55.57-11.31-108.68-7.28-153.86l3.63.64c-3.9,43.67-.78,94.8,6.59,148.41,7.84-12.84,15.71-26.01,23.49-39.36l.35-1.3s.25-.13.57-.29c8.02-13.78,15.94-27.74,23.63-41.76-.01-.3-.03-.66-.04-.91-2.11-45.66-.79-89,6.02-125.25l2.85.79c-6.57,34.96-8,76.57-6.17,120.5,32.58-59.87,60.73-120.36,74.23-170.41l2.91.53c-8.31,30.84-22.1,65.69-39.01,101.95,0,0,0,0,0,0,19.56-11.84,37.35-24.15,52.56-36.84l2.08,2.1c-16.33,13.63-35.61,26.81-56.84,39.44,0,0,0,0,0,0-16.58,35.14-35.99,71.5-56.1,106.75,37.54-19.23,71.57-40.03,97.89-61.98l2.08,2.1c-27.43,22.89-63.2,44.52-102.57,64.42-17.21,29.99-34.87,59.09-51.67,85.86,36.99-13.61,70.87-29.01,98.1-46.31l1.79,2.35c-28.3,17.98-63.74,33.92-102.38,47.93-48.41,76.86-89.05,133.5-90.02,134.62l-4.05-3.99Z"/><path fill="#7ca563" d="m15.52,851.87s117.78,101.87,160.5,250.66c19.84,69.13,166.06,89.08,244.72,94.84.82.06,1.64.13,2.44.16,15.21,1.08,27.71,1.62,36.04,1.88,7.23.24,11.3.27,11.3.27l-7.43-16.92-18.04-41.14c-9.06-20.63-19.28-40.46-30.56-59.41l-2.65-4.41c-14.91-24.46-31.61-47.4-49.88-68.54-.94-1.11-1.88-2.2-2.83-3.26-6.22-7.1-12.62-13.98-19.19-20.65-3.71-3.77-7.49-7.49-11.32-11.13-28.47-27.04-59.85-50.2-93.53-68.75-23.29-12.88-47.69-23.53-72.97-31.76-24.3-7.9-50.1-14.25-77.16-18.04-22.34-3.16-45.54-4.62-69.44-3.78Z"/><path fill="#5a7749" d="m437.75,1192.41c-.63-.84-25.99-29.6-64.59-69.76-51.77-3.87-100.45-11.3-140.45-23.93l1.29-3.14c38.75,12.23,85.7,19.56,135.73,23.5-9.26-9.6-19.24-19.81-29.78-30.41.19,1.57.39,3.13.58,4.71.05.43.15,1.3.15,1.3l-2.89-2.03s-.14-1.19-.22-1.79c-.21-1.75-.44-3.5-.66-5.24-10.83-10.85-22.22-22.08-34.03-33.47-51.4-3.89-99.71-11.3-139.45-23.85l1.29-3.14c38.41,12.13,84.88,19.43,134.42,23.39-9.98-9.58-20.23-19.25-30.68-28.89l-1.1-.58s-.06-.25-.14-.57c-10.78-9.93-21.75-19.8-32.81-29.48-.27-.05-.6-.1-.82-.14-41.37-7.12-79.99-16.87-111.16-30.15l1.27-2.41c30.07,12.81,67.11,22.31,106.88,29.34-47.28-41.11-96-78.36-138.24-100.37l1.05-2.51c26.02,13.56,54.57,32.84,83.77,55.19,0,0,0,0,0,0-6.77-19.91-14.31-38.33-22.7-54.51l2.3-1.45c9.01,17.37,17.03,37.3,24.19,58.88,0,0,0,0,0,0,28.26,21.85,57.05,46.47,84.71,71.5-9.85-37.54-21.81-72.23-36.32-100.22l2.3-1.45c15.13,29.18,27.49,65.59,37.59,104.91,23.51,21.39,46.14,43.01,66.84,63.4-4.92-35.94-12.07-69.43-22.22-97.31l2.46-1.14c10.56,28.99,17.87,63.98,22.83,101.48,59.41,58.69,102.22,106.4,103.03,107.49l-4.38,2.85Z"/><path fill="#739362" d="m417.45,595.44s31.08,156.17,141.79,269.32c51.44,52.56-4.68,192.64-39.29,265.49-.36.76-.72,1.52-1.09,2.25-6.72,14.07-12.56,25.45-16.53,33-3.44,6.54-5.47,10.18-5.47,10.18l-11.29-15.16-27.47-36.82c-13.77-18.47-26.23-37.58-37.38-57.18l-2.59-4.58c-14.21-25.61-26.18-52.05-35.74-78.97-.51-1.39-1-2.78-1.47-4.16-3.17-9.11-6.05-18.29-8.66-27.5-1.48-5.2-2.88-10.44-4.18-15.69-9.67-38.97-14.4-78.57-13.88-117.89.31-27.21,3.17-54.28,8.62-80.92,5.25-25.6,12.64-51.74,22.93-77.72,8.48-21.46,18.9-42.82,31.71-63.65Z"/><path fill="#5a7749" d="m506.95,1142.85c-.43-.98-13.19-38.06-29.4-92.66,22.71-47.99,40.7-95.02,49.67-136.96l-3.44-.44c-8.69,40.63-25.9,86.07-47.67,132.54-3.86-13.09-7.9-27.11-11.99-41.84,1.3.97,2.59,1.93,3.9,2.89.36.26,1.08.79,1.08.79l-.34-3.6s-.99-.73-1.48-1.1c-1.45-1.08-2.89-2.16-4.32-3.24-4.18-15.11-8.41-30.91-12.57-47.16,22.5-47.67,40.32-94.36,49.23-136.03l-3.44-.44c-8.62,40.28-25.61,85.28-47.1,131.33-3.48-13.71-6.9-27.72-10.19-41.86l.04-1.27s-.19-.18-.43-.42c-3.38-14.6-6.62-29.34-9.64-44.06.1-.26.21-.59.29-.8,14.57-40.38,25.41-79.64,29.35-114.06l-2.78-.09c-3.8,33.21-14.06,70.94-27.9,109.85-12.67-62.8-21.17-124.94-19.41-173.62l-2.76-.34c-1.09,29.99,1.63,65.1,6.76,102.36,0,0,0,0,0,0-14.29-16.08-26.86-32.08-37-47.72l-2.45,1.31c10.89,16.78,24.56,33.98,40.13,51.24,0,0,0,0,0,0,5.15,36.16,12.5,74.2,20.79,111.43-28.4-27.72-53.21-55.88-70.76-82.92l-2.45,1.31c18.3,28.19,44.43,57.57,74.29,86.41,7.14,31.71,14.94,62.75,22.6,91.45-29.46-22.53-55.63-45.8-75.3-68.91l-2.26,1.61c20.44,24.03,47.86,48.21,78.7,71.56,22.17,82.47,42.97,144.63,43.53,145.9l4.75-2.45Z"/><path fill="#c9db5d" d="m203.94,654.36s80.6,149,228.55,229.11c68.74,37.21,55.75,197.36,43.47,282.36-.12.89-.25,1.77-.4,2.63-2.41,16.42-4.76,29.84-6.43,38.77-1.44,7.74-2.36,12.08-2.36,12.08l-16.23-11.85-39.45-28.78c-19.78-14.44-38.44-29.94-55.92-46.35l-4.07-3.84c-22.47-21.56-42.93-44.67-61.09-69.02-.96-1.26-1.89-2.51-2.8-3.77-6.08-8.27-11.89-16.68-17.43-25.23-3.14-4.82-6.2-9.71-9.17-14.64-22.05-36.58-39.29-75.35-51.12-115.49-8.23-27.77-13.83-56.2-16.66-85-2.71-27.69-3.42-56.6-1.12-86.26,1.87-24.5,5.74-49.51,12.21-74.73Z"/><path fill="#eaf2a2" d="m466.72,1182.75c-.75-.86-25.34-34.54-58.95-84.94,7.99-55.96,11.49-109.46,7.43-154.94l-3.63.64c3.93,44.06.73,95.7-6.78,149.82-8.03-12.09-16.53-25.08-25.32-38.76,1.62.57,3.23,1.15,4.86,1.71.45.15,1.34.46,1.34.46l-1.48-3.55s-1.23-.43-1.85-.65c-1.81-.64-3.61-1.28-5.41-1.93-8.99-14.04-18.24-28.78-27.57-43.99,7.88-55.57,11.31-108.68,7.28-153.86l-3.63.64c3.9,43.67.78,94.8-6.59,148.41-7.84-12.84-15.71-26.01-23.49-39.36l-.35-1.3s-.25-.13-.57-.29c-8.02-13.78-15.94-27.74-23.63-41.76.01-.3.03-.66.04-.91,2.11-45.66.79-89-6.02-125.25l-2.85.79c6.57,34.96,8,76.57,6.17,120.5-32.58-59.87-60.73-120.36-74.23-170.41l-2.91.53c8.31,30.84,22.1,65.69,39.01,101.95,0,0,0,0,0,0-19.56-11.84-37.35-24.15-52.56-36.84l-2.08,2.1c16.33,13.63,35.61,26.81,56.84,39.44,0,0,0,0,0,0,16.58,35.14,35.99,71.5,56.1,106.75-37.54-19.23-71.57-40.03-97.89-61.98l-2.08,2.1c27.43,22.89,63.2,44.52,102.57,64.42,17.21,29.99,34.87,59.09,51.67,85.86-36.99-13.61-70.87-29.01-98.1-46.31l-1.79,2.35c28.3,17.98,63.74,33.92,102.38,47.93,48.41,76.86,89.05,133.5,90.02,134.62l4.05-3.99Z"/><ellipse cx="736.28" cy="1290.91" fill="#efeff9" rx="570.28" ry="139.37"/><path fill="#f5f5ff" d="m244,392.01c-64.26,0-116.36,52.1-116.36,116.36s52.1,116.36,116.36,116.36,116.36-52.1,116.36-116.36-52.1-116.36-116.36-116.36Zm-78,406.61c0-21.19-17.17-38.36-38.36-38.36s-38.36,17.17-38.36,38.36,17.17,38.36,38.36,38.36,38.36-17.17,38.36-38.36Zm-20.46,337.57c-21.19,0-38.36,17.17-38.36,38.36s17.17,38.36,38.36,38.36,38.36-17.17,38.36-38.36-17.17-38.36-38.36-38.36Zm1200.66,7.67c-26.13,0-47.31,21.18-47.31,47.31s21.18,47.31,47.31,47.31,47.31-21.18,47.31-47.31-21.18-47.31-47.31-47.31Zm26.85-299.21c15.54,0,28.13-12.59,28.13-28.13s-12.59-28.13-28.13-28.13-28.13,12.59-28.13,28.13,12.59,28.13,28.13,28.13Zm-195.64-444.97c-43.08,0-78,34.92-78,78s34.92,78,78,78,78-34.92,78-78-34.92-78-78-78Z"/><path fill="#f5f5ff" d="m902.51,967.41l-368.25,2.56-206.77-706.3c-15.57-53.2,18.36-108.12,72.88-118.09,88.06-16.11,190.72-28.22,305.23-29.75,120.01-1.61,227.62,8.75,319.64,23.76,60.96,9.94,99.52,70.89,82.12,130.15-68.28,232.56-136.56,465.12-204.84,697.68Z" opacity=".06"/><g><path fill="#f9cbbd" d="m1209.38,1223.23c-.11.34-11.36,38.73-47.35,73.87-15.71,15.34-35.12,13.21-56.45,15.39l-.02.02c-.14.01-.28.02-.42.03-.04,0-.08,0-.12,0-6.97.66-14.09.49-21.19-.61l-110.82-17.18,35.79-84.38,1.3-3.05c.17-.06.88-.27,2.11-.57,2.2-.55,6-1.48,11.07-2.68,30.46-7.19,101.28,1.18,142.56-8.27,24.91-5.69,51.05,3,43.54,27.44Z"/><path fill="#e59c91" d="m1033.4,1304.12l-60.39-9.36,35.79-84.38,3.41-3.63,9.97-10.61s.57,2.94,1.11,7.92c1.37,12.38.39,35.1-9.54,61.63-6.01,16.06,3.14,33.82,19.66,38.42h0Z"/><path fill="#c9c9c9" d="m1056.3,1194l137.02-2.14c20.17-.31,36.68,15.95,36.68,36.11v18.5c0,35.85-27.76,65.63-63.53,68.01-33.61,2.24-76.41,3.13-117.83-1.56-3.88-.44-6.91-3.57-7.16-7.47-1.16-18.14-1.33-38.76.48-61.34,1.23-15.4,3.22-29.67,5.6-42.7.78-4.24,4.43-7.35,8.74-7.42Z"/><path fill="#f9f9f9" d="m1046.34,1193.89l137.02-2.14c20.17-.31,36.68,15.95,36.68,36.11v18.5c0,35.85-27.76,65.63-63.53,68.01-33.61,2.24-76.41,3.13-117.83-1.56-3.88-.44-6.91-3.57-7.16-7.47-1.16-18.14-1.33-38.76.48-61.34,1.23-15.4,3.22-29.67,5.6-42.7.78-4.24,4.43-7.35,8.74-7.42Z"/><path fill="#c9c9c9" d="m1089.08,1229c-.89-.06-1.64.61-1.7,1.49l-2.46,37.8c-.06.88.61,1.64,1.49,1.7.04,0,.07,0,.11,0,.84,0,1.54-.65,1.59-1.49l2.46-37.8c.06-.88-.61-1.64-1.49-1.7Zm24.97,0c-.89-.06-1.64.61-1.7,1.49l-2.46,37.8c-.06.88.61,1.64,1.49,1.7.04,0,.07,0,.11,0,.84,0,1.54-.65,1.59-1.49l2.46-37.8c.06-.88-.61-1.64-1.49-1.7Zm24.97,0c-.89-.06-1.64.61-1.7,1.49l-2.46,37.8c-.06.88.61,1.64,1.49,1.7.04,0,.07,0,.11,0,.84,0,1.54-.65,1.59-1.49l2.46-37.8c.06-.88-.61-1.64-1.49-1.7Z"/><path fill="#fab346" d="m982.33,1301.02c-29.7-4.71-158.35-25.11-161.66-25.44l169.61-75.75,29.62-13.24c1.96,5.16,2.79,11.08,2.73,17.46.02.07.01.16,0,.24-.28,32.75-23.26,77.4-31.56,92.45-1.73,3.13-5.21,4.84-8.75,4.28Z"/><path fill="#f29f33" d="m1022.64,1204.29c-15.4,10.23-33.05,20.63-52.99,30.37-15.78,7.7-31.18,14.11-45.95,19.44-16.86,6.08-15.17,30.5,2.35,34.31,20.7,4.51,58.59,12.77,58.59,12.77,0,0-160.31-25.24-163.97-25.6l169.61-75.75,32.35,4.23.45.06-.44.18Z"/><path fill="#fab346" d="m229.7,1042.14c1.58,23.66,10.06,43.73,23.64,60.78,37.68,47.18,114.7,71.06,193.47,82.7,5.58.85,11.16,1.61,16.74,2.31,16.76,2.13,33.48,3.73,49.78,4.92,62.61,4.6,119.35,3.17,149.79,1.74,8.27-.4,14.6-.78,18.61-1.05,1.09-.08,2.01-.13,2.72-.21,1.39-.09,2.13-.14,2.13-.14l51.75,87.88.46.76,2.86,4.9c.37.64.8,1.25,1.22,1.81.03.06.06.09.09.11,1.43,1.8,3.21,3.24,5.21,4.23,3.41,1.76,7.42,2.29,11.33,1.25,1.88-.49,3.97-1.04,6.26-1.65,4.47-1.2,9.73-2.59,15.64-4.23.65-.19,1.32-.39,2-.55,5.35-1.48,11.26-3.16,17.6-4.99,2.03-.58,4.12-1.19,6.26-1.8,4.64-1.35,9.52-2.76,14.58-4.3.65-.19,1.29-.38,1.94-.58h.03s0,0,.03,0c2.41-.74,4.88-1.47,7.37-2.24,2.09-.64,4.23-1.28,6.37-1.95,1.26-.38,2.53-.77,3.79-1.15,12.51-3.87,25.9-8.14,39.94-12.78,8.66-2.89,17.58-5.91,26.68-9.04,10.36-3.61,20.95-7.4,31.72-11.35.85-.32,1.73-.63,2.61-.98,5.87-2.18,11.79-4.38,17.74-6.68.85-.31,1.67-.63,2.52-.94,2.29-.88,4.57-1.76,6.86-2.67,1.94-.75,3.87-1.51,5.81-2.26,1.79-.72,3.61-1.44,5.42-2.17,3.26-1.29,6.54-2.6,9.79-3.95,2.7-1.1,5.39-2.2,8.06-3.29,3.46-1.44,6.89-2.88,10.31-4.32.03-.03.06-.03.09-.03,0-.03.03-.03.03-.03,4.39-1.85,8.79-3.75,13.15-5.66l.35-.16c.06-.03.09-.03.15-.06.09-.03.15-.06.23-.12.03,0,.06,0,.09-.03.03,0,.06,0,.09-.03t.06-.03c.06,0,.12-.03.18-.06.41-.19.85-.37,1.26-.56,21.29-9.36,42.33-19.31,62.56-29.87,32.16-16.71,62.18-34.89,87.56-54.31,4.82-3.69,9.47-7.44,13.94-11.21,10.56-8.91,18.37-18.02,23.87-27.2,17.15-28.64,11.71-57.92-3.27-84.35-5.55-9.75-12.08-18.65-19.48-26.59-38.59-41.77-99.51-57.74-155.22-39.89-2.29.73-4.58,1.53-6.87,2.38-4.93,1.86-10.06,3.75-15.28,5.65-13.85,5.05-28.69,10.33-44.08,15.57-6.22,2.13-12.56,4.25-18.99,6.35-2.97.96-5.96,1.94-8.99,2.9-5.49,1.78-11.04,3.54-16.62,5.26-1.62.51-3.2.99-4.82,1.47-.12.03-.2.09-.32.1-3.85,1.18-7.7,2.37-11.55,3.49-3.85,1.15-7.73,2.28-11.58,3.4-.12.03-.24.06-.35.1-.09.03-.15.06-.24.06-3.08.9-6.17,1.77-9.26,2.64-2.65.74-5.29,1.48-7.94,2.19-3.64,1-7.29,1.97-10.94,2.91-3.79,1-7.56,1.95-11.32,2.89-2.53.62-5.03,1.24-7.53,1.83-2.5.59-4.97,1.18-7.44,1.74-.24.06-.44.1-.68.16-2.24.53-4.5,1.02-6.74,1.52-8.15,1.81-16.7,3.16-25.55,4.14h-.06c-13.19,1.43-27.02,1.98-41.26,1.78-.95,0-1.87-.02-2.81-.02-1.57-.02-3.17-.05-4.76-.1-.89,0-1.78-.05-2.69-.09-2.96-.11-5.95-.25-8.94-.39-.38-.02-.8-.04-1.22-.09-3.26-.16-6.52-.38-9.78-.63-6.43-.47-12.89-1.06-19.36-1.77-.47-.02-.95-.07-1.42-.14-3.03-.32-6.08-.69-9.14-1.06-3.32-.4-6.65-.85-9.97-1.31-3.32-.43-6.62-.91-9.94-1.43-3.27-.49-6.5-1-9.74-1.52-.12-.03-.24-.05-.36-.05-3.24-.55-6.44-1.09-9.65-1.67-3.27-.55-6.53-1.15-9.77-1.76-6.65-1.24-13.25-2.57-19.73-3.9-8.68-1.81-17.15-3.72-25.39-5.63-9.58-2.27-18.8-4.57-27.55-6.82-1.19-.33-2.38-.63-3.57-.95h-.03c-2.44-.65-4.85-1.31-7.2-1.93-2.65-.71-5.24-1.42-7.8-2.13-1.99-.54-3.96-1.09-5.92-1.67-2.2-.63-4.38-1.23-6.49-1.86-6.34-1.84-12.27-3.59-17.69-5.24-2.71-.83-5.3-1.62-7.78-2.4-.8-.25-1.61-.5-2.38-.74,0,0-.03,0-.06-.03-2.89-.91-5.57-1.77-8.05-2.57-.27-.08-.51-.17-.75-.25-.98-.3-1.91-.61-2.83-.91-2.3-.75-4.35-1.44-6.2-2.05-.89-.3-1.76-.58-2.56-.86-1.31-.44-2.44-.86-3.43-1.19-2.56-.86-3.91-1.36-3.91-1.36-27.37-10.38-53.81-16.57-78.38-19.85-2.85-.41-5.55-.7-8.01-1-1.22-.15-2.37-.27-3.56-.36-1.1-.12-2.17-.22-3.17-.31-28.61-2.63-54.26-1.5-75.38,1.02-21.65,2.63-41.75,11.25-58.08,24.23-14.61,11.61-26.25,26.7-33.3,44.04-2.66,6.45-4.67,13.18-5.96,20.19h-.03c-.5,2.82-.9,5.7-1.22,8.58-.74,7.5-.88,14.69-.42,21.55Z"/><path fill="#f29f33" d="m417.39,967.01c-.42.87-.71,1.38-.71,1.38,0,0,19.08,7.55,46.72,18.24,1.61.64,3.25,1.26,4.9,1.9.03.03.03,0,.03,0,47.25,18.29,116.04,44.52,158.73,58.89,16.31,5.51,32.46,10.58,47.74,15.14,45.55,13.69,83.27,22.88,93.98,25.44,1.99.49,3.06.73,3.06.73,0,0,.47-.22,1.4-.68,4.65-2.24,20.69-9.97,43.57-21,19.16-9.26,43.18-20.84,69.37-33.48,39.21-18.89,83.3-40.16,123.32-59.48,14.86-7.17,29.14-14.07,42.42-20.47,9.22-4.44,17.94-8.64,26.04-12.55-7.37,2.21-18.59,4.66-32.24,4.17-3.2-.1-6.55-.35-9.99-.84-9.38-1.32-17.27-3.81-23.4-6.33-13.85,5.05-28.69,10.33-44.08,15.57-6.22,2.13-12.56,4.25-18.99,6.35-2.97.96-5.96,1.94-8.99,2.9-5.49,1.78-11.04,3.54-16.62,5.26-1.62.51-3.2.99-4.82,1.47-.12.03-.2.09-.32.1-3.85,1.18-7.7,2.37-11.55,3.49-3.85,1.15-7.73,2.31-11.58,3.4-.12.03-.24.06-.35.1-.09.03-.15.06-.24.06-3.08.9-6.17,1.77-9.26,2.64-2.65.74-5.29,1.48-7.94,2.19-3.64,1-7.29,1.97-10.94,2.91-3.79,1-7.56,1.95-11.32,2.89-2.53.62-5.03,1.24-7.53,1.83-2.74.66-5.44,1.31-8.12,1.9-2.27.55-4.5,1.05-6.74,1.55-8.18,1.81-16.73,3.16-25.55,4.11h-.06c-13.19,1.46-27.02,1.98-41.23,1.81-.95,0-1.89-.02-2.84-.05-1.57,0-3.17-.05-4.76-.1-.89,0-1.78-.05-2.69-.09-2.96-.08-5.95-.22-8.94-.39-.38-.02-.8-.04-1.22-.09-3.26-.16-6.52-.38-9.78-.63-6.43-.47-12.89-1.06-19.36-1.77-.47-.02-.95-.07-1.42-.14-3.06-.32-6.08-.66-9.14-1.06-3.32-.4-6.65-.82-9.97-1.31-3.32-.43-6.62-.91-9.94-1.43-3.24-.49-6.5-1-9.74-1.52-.12-.03-.24-.05-.36-.05-3.24-.55-6.44-1.09-9.65-1.67-3.27-.55-6.53-1.15-9.77-1.76-6.65-1.24-13.25-2.57-19.73-3.9-8.68-1.81-17.15-3.72-25.39-5.63-9.58-2.27-18.8-4.57-27.55-6.82-1.19-.33-2.38-.63-3.57-.95h-.03c-2.44-.65-4.85-1.28-7.2-1.93-2.65-.71-5.24-1.42-7.8-2.13-1.99-.54-3.96-1.09-5.92-1.67-2.2-.63-4.38-1.23-6.49-1.86-6.34-1.81-12.27-3.59-17.69-5.24-2.71-.83-5.3-1.62-7.78-2.4-.8-.25-1.61-.5-2.38-.74,0,0-.03,0-.06-.03-2.89-.88-5.57-1.77-8.05-2.57-.27-.08-.51-.17-.75-.25-.98-.3-1.94-.61-2.83-.91-2.3-.75-4.35-1.44-6.2-2.05-.89-.3-1.76-.58-2.56-.86-1.31-.44-2.44-.86-3.43-1.19-2.56-.86-3.91-1.36-3.91-1.36-27.37-10.38-53.81-16.57-78.38-19.85-2.85-.41-5.55-.7-8.01-1-1.22-.15-2.37-.27-3.56-.36-1.1-.12-2.17-.22-3.17-.31,11.65,4.97,18.69,11.17,19.5,23.19.49,7.27-4.33,17.61-6.2,21.29Z"/><path fill="#ef8821" d="m771.87,1090.31c.74-.02,1.4-.56,1.52-1.32.14-.86-.44-1.68-1.3-1.82-99.33-16.64-352.98-119.27-354.59-120.14-.76-.41-1.72-.16-2.15.58-.43.74-.23,1.67.5,2.13,1.31.83,254.22,103.57,355.72,120.56.1.02.2.02.3.02Z"/><path fill="#f9cbbd" d="m739.81,1281.54l-92.03,26.9-243.8,71.28c-9.41,2.76-19.06-3.89-19.63-13.69-1-17.28,2.25-42.56,25.85-57.59,38.4-24.49,105.65-119.1,105.65-119.1,0,0,22.88-32.57,55.15-17.36,32.25,15.23,100.67-8.7,100.67-8.7l68.15,118.26Z"/><path fill="#c9c9c9" d="m428.29,1379.47c-8.61,1.6-25.49,9.53-52.4,1.81-13.4-3.85-22.33-14.98-28.35-28.99-16.04-37.32-3.1-80.83,29.84-104.61l124.45-89.83c11.71-8.45,26.91-10.7,40.42-5.58.11.04.22.09.34.13,10.75,4.13,18.14,10.09,22.32,14.01l-136.61,213.07Z"/><path fill="#f9f9f9" d="m641.57,1165.37c2.9-.59,5.74,1.24,6.42,4.12l30.85,132.38c.57,2.84-1.15,5.64-3.94,6.41l-122.6,33.94-123.77,37.44c-38.72,9.02-74.45-23.59-69-62.97h0c2-14.45,9.49-27.57,20.92-36.63l129.32-102.6c16.94-13.44,39.68-17.05,59.94-9.51l20.81,7.74,51.05-10.33Z"/><path fill="#c9c9c9" d="m575.34,1335.93l-10.6-43.64c-.35-1.45-1.81-2.34-3.27-1.99-1.45.35-2.34,1.82-1.99,3.27l10.6,43.64c.29,1.21,1.35,2.02,2.53,2.07.24,0,.49-.02.73-.08,1.45-.35,2.34-1.82,1.99-3.27Zm-89-21.11c-.38-1.45-1.85-2.31-3.3-1.94-1.45.38-2.31,1.85-1.94,3.3l11.56,44.31c.31,1.19,1.36,1.98,2.52,2.02.26,0,.52-.02.78-.09,1.45-.38,2.31-1.85,1.94-3.3l-11.56-44.31Zm41.95-13.01c-.38-1.44-1.87-2.3-3.31-1.92-1.44.38-2.3,1.87-1.92,3.31l11.77,44.21c.31,1.18,1.36,1.97,2.52,2.01.26,0,.53-.02.79-.09,1.44-.38,2.3-1.87,1.92-3.31l-11.77-44.21Z"/><path fill="#e59c91" d="m706.42,1237.48l-34.75-74.2,68.15,118.26-56.17,16.42h0c23.24-10.17,33.53-37.5,22.77-60.48Z"/><path fill="#ef8821" d="m671.7,1164.86c.26,0,.53-.08.77-.22.75-.44,1-1.42.56-2.17l-8.15-13.77c-.89-1.51-1.11-3.34-.58-5.02.52-1.68,1.74-3.06,3.34-3.79l217.82-104.21c.79-.38,1.12-1.32.74-2.11-.38-.79-1.32-1.12-2.11-.74l-217.79,104.2c-2.39,1.1-4.22,3.18-5.02,5.71-.79,2.53-.47,5.29.88,7.57l8.15,13.77c.3.51.85.79,1.4.78Z"/><path fill="#fab346" d="m1022.64,1204.29l-.5.25c-112.17,49.02-230.19,81.18-264.5,90.08-5.82,1.51-11.92-1.08-14.89-6.31l-61.09-107.68h0c41.82,62.01,119.04,89.69,190.73,68.36l150.25-44.7Z"/><path fill="#ef8821" d="m753.8,1296.85c.98-.02,1.97-.16,2.95-.42,41.96-10.98,185.23-49.99,267.04-90.89.78-.39,1.1-1.34.71-2.13-.39-.78-1.34-1.1-2.13-.71-81.53,40.77-224.54,79.7-266.42,90.66-4.34,1.14-8.78-.87-10.82-4.87l-3.91-7.67c-.4-.78-1.35-1.09-2.13-.69-.78.4-1.09,1.35-.69,2.13l3.91,7.67c2.25,4.43,6.73,7.02,11.49,6.91Z"/><path fill="#9b493e" d="m1105.14,1312.54s-.08,0-.12,0c.04,0,.08,0,.12,0Z"/><path fill="#9b493e" d="m1105.56,1312.51c-.14.01-.28.02-.42.03.16-.01.31-.03.44-.05l-.02.02Z"/></g><g><path fill="#ec3a42" d="m945.09,949.74h-452.21v-410.58c0-51.15,36.21-95.13,86.4-104.96l133.95-26.23,144.47,26.89c50.65,9.43,87.39,53.63,87.39,105.15v409.74Z"/><path fill="#f4677f" d="m528.33,949.74h379.36l37.39-127.36v-282.38c0-51.52-36.73-95.72-87.39-105.15l-144.47-26.89-133.95,26.23c-50.19,9.83-86.4,53.82-86.4,104.96v289.46l35.46,121.12Z"/><path fill="#db3e58" d="m789.93,685.77c-1.07-.45-2.31.05-2.77,1.12-27.41,64.93-166.05,63.81-167.45,63.79-1.17-.02-2.12.92-2.14,2.08-.01,1.07.78,1.97,1.81,2.12.09.01.18.02.27.02,5.82.08,142.88,1.17,171.39-66.37.45-1.08-.05-2.31-1.12-2.77Zm-5.88,43.73c-1-.6-2.3-.27-2.89.74-23.74,39.98-85.98,35.28-86.61,35.23-1.16-.1-2.18.77-2.28,1.93-.09,1.12.71,2.11,1.81,2.27.04,0,.08.01.12.01,2.66.22,65.49,4.98,90.59-37.28.6-1,.27-2.3-.74-2.89Z"/><rect width="178.35" height="548.12" x="876.74" y="411.12" fill="#f9cbbd" rx="89.18" ry="89.18" transform="rotate(-35.8 965.75 685.135)"/><path fill="#fcd3ca" d="m1011.55,596l-81.44-112.94c-28.81-39.95-84.54-48.98-124.49-20.17h0c-39.95,28.81-48.98,84.54-20.17,124.49l162.48,225.33,63.62-216.7Z"/><polygon fill="#3f3f3f" points="913.71 769.91 1070.26 677.42 1044.31 640.23 913.71 769.91"/><path fill="#ec3a42" d="m1076.78,644.93l-163.07,124.97-145.81-206.86c-23.7-32.87-16.27-78.73,16.6-102.44h0c48.03-34.64,114.64-26.41,152.81,18.86l139.47,165.46Z"/><path fill="#f4677f" d="m937.31,479.48c-38.17-45.28-104.77-53.5-152.81-18.86h0c-32.87,23.7-40.3,69.57-16.6,102.44l145.81,206.86,60.37-46.26,43.67-148.74-80.44-95.42Z"/><path fill="#db3e58" d="m893.73,829.15c-.78,0-1.53-.43-1.9-1.18-.51-1.05-.08-2.31.96-2.83l44.3-21.75-113.86-157.9c-.68-.95-.47-2.27.48-2.95.95-.68,2.27-.47,2.95.48l116.78,161.95-48.79,23.95c-.3.15-.62.22-.93.22Z"/><rect width="178.35" height="562.31" x="800.24" y="605.72" fill="#f9cbbd" rx="89.18" ry="89.18" transform="rotate(-105.31 889.468 886.868)"/><path fill="#e59c91" d="m968.48,774.29c-.67,0-1.28-.45-1.47-1.12-.22-.81.26-1.65,1.07-1.87l43.71-11.97c.81-.23,1.65.26,1.87,1.07.22.81-.26,1.65-1.07,1.87l-43.71,11.97c-.13.04-.27.06-.4.06Z"/><rect width="178.35" height="552.76" x="385.33" y="408.44" fill="#f9cbbd" rx="89.18" ry="89.18" transform="rotate(-144.2 474.541 684.81)"/><path fill="#fcd3ca" d="m636.16,460.64h0c-39.95-28.81-95.68-19.77-124.49,20.17l-85.78,118.97,63.49,216.88,166.96-231.53c28.81-39.95,19.77-95.68-20.17-124.49Z"/><polygon fill="#3f3f3f" points="524.77 766.08 371.18 675.65 389.51 651.36 524.77 766.08"/><path fill="#ec3a42" d="m366.58,644.93l161.55,123.45,134.77-192.35c28.27-39.2,19.4-93.89-19.8-122.16h0c-41.49-29.92-99.05-22.6-131.73,16.75l-144.79,174.31Z"/><path fill="#f4677f" d="m643.1,453.87h0c-41.49-29.92-99.05-22.6-131.73,16.75l-91.17,109.76,39.8,135.94,68.13,52.06,134.77-192.35c28.27-39.2,19.4-93.89-19.8-122.16Z"/><path fill="#db3e58" d="m545.34,830.68c.78,0,1.53-.43,1.9-1.18.51-1.05.08-2.31-.96-2.83l-44.3-21.75,113.86-157.9c.68-.95.47-2.27-.48-2.95-.95-.68-2.27-.47-2.95.48l-116.78,161.95,48.79,23.95c.3.15.62.22.93.22Z"/><rect width="178.35" height="562.31" x="458.95" y="617.91" fill="#f9cbbd" rx="89.18" ry="89.18" transform="rotate(-71.72 548.059 899.044)"/><path fill="#e59c91" d="m467.03,779.32c-.16,0-.32-.03-.48-.08l-47.11-15.51c-.8-.26-1.23-1.12-.97-1.92.26-.8,1.12-1.24,1.92-.97l47.11,15.51c.8.26,1.23,1.12.97,1.92-.21.64-.81,1.05-1.45,1.05Z"/><g><path fill="#424242" d="m805.33,248.8s18.88-6.74,29.22-31.97c7.48-18.24-2.68-38.94-21.48-44.87-16.81-5.3-42.11-14.02-78.37-28.18-13.72-5.36-36.8-7.46-51.28-4.76-23.94,4.46-50.2,12.66-49.42,40.73,0,0-46.03,20.46-17.9,71.61l189.24-2.56Z"/><ellipse cx="807.98" cy="286.86" fill="#f9cbbd" rx="39.01" ry="26.29" transform="rotate(-89.47 808.005 286.843)"/><path fill="#e59c91" d="m824.23,280.92c-.07-.05-6.77-4.65-15.39-.93,4.36-5.81,12.5-5.99,12.58-5.99,1.3,0,2.35-1.07,2.35-2.37,0-.64-.25-1.23-.71-1.68-.45-.44-1.09-.65-1.66-.67-.1,0-10.51.09-16.35,7.89-1.68,2.24-2.79,4.9-3.4,7.92,0,.01-.02.02-.03.04,0,0,0,.02-.02.02-.18.34-.29.7-.32,1.08,0,.18,0,.36.04.52,0,.02.01.03.02.05-.52,3.93-.22,8.44.91,13.52.23,1.03,1.12,1.78,2.17,1.84.05,0,.09,0,.13,0,.17,0,.34-.02.52-.06,1.27-.29,2.07-1.55,1.79-2.82-1.03-4.61-1.28-8.6-.81-11.99,8.42-7.25,15.17-2.74,15.47-2.51,1.06.75,2.53.5,3.28-.56.77-1.06.5-2.55-.56-3.3Z"/><ellipse cx="612.91" cy="286.86" fill="#f9cbbd" rx="26.29" ry="39.01" transform="rotate(-.53 609.485 284.978)"/><path fill="#e59c91" d="m621.04,285.48c.02-.16.02-.34,1.2-.5v-.05c-1.22-.2-1.29-.38-1.36-.56-.02-.07-.05-.14-.07-.18,0,0-.02,0-.02-.02-.04-.14-.14-.25-.23-.36-.06-.09-.15-.15-.23-.23-.05-.15-.07-.31-.13-.46-.93-2.94-2.35-5.44-4.25-7.48-6.69-7.16-17.01-6.08-17.08-6.08-.63.05-1.2.34-1.6.84-.41.47-.59,1.13-.52,1.76.14,1.29,1.27,2.21,2.58,2.1.07,0,8.15-.7,13.1,4.54l.07.07c.21.23.39.48.59.73-.1-.03-.2-.08-.3-.11-8.95-2.71-15.09,2.58-15.16,2.64-.97.86-1.06,2.35-.2,3.32.86.99,2.35,1.08,3.32.23.29-.22,6.41-5.33,15.42.67.73,3.22.87,7.03.37,11.47-.14,1.29.79,2.46,2.1,2.6.07.02.16.02.25.02.11,0,.25,0,.36-.02h.02c1.04-.18,1.85-1.04,1.97-2.08.07-.54.11-1.08.14-1.63,0-.02-.02-.05,0-.07.35-4.06.17-7.67-.51-10.87.13-.1.16-.19.16-.3Z"/><ellipse cx="629.02" cy="246.99" fill="#424242" rx="13.57" ry="50.04"/><ellipse cx="791.86" cy="246.99" fill="#424242" rx="13.57" ry="50.04"/><path fill="#fcd3ca" d="m763.61,431.54c-14.36,2.64-32.47,4.95-53.34,5.15-20.45.19-38.08-2.94-52.31-5.25.72-25.01,1.39-52.1,2.34-85.21h100.85l2.46,85.31Z"/><path fill="#fcd3ca" d="m712.39,408.96l68.68,12.78s2.57,44.89-73.72,44.89c-62.02,0-66.84-39.77-67.16-43.53-.02-.19,72.2-14.14,72.2-14.14Z"/><path fill="#ffbd66" d="m763.23,418.42s4.65,37.93-52.63,48.18l26.6,35.78s53.33-20.37,43.87-80.64l-18.11-12.77.27,9.45Z"/><path fill="#ffbd66" d="m658.27,420.43s11.77,43.22,52.33,46.17l-26.16,35.78s-44.25-26.42-44.25-79.28l18.4-14.14-.31,11.47Z"/><path fill="#e59c91" d="m659.15,384.84s10.22,20.45,52.58,20.45,50.5-21.47,50.5-21.47l-103.08,1.03Z"/><path fill="#fcd3ca" d="m801.13,268c-.58,108.39-44.43,131.32-90.33,131.32s-90.34-15.93-90.34-133.52c0-51.65,43.34-93.17,95.64-90.19,48.21,2.75,85.29,44.1,85.03,92.38Z"/><path fill="#424242" d="m621.2,289.72c-1.31-11.39-3.45-43.08,17.97-67.57,10.74,6.63,26.02,13.73,45.15,18.18,27.17,6.31,63.52,7.08,100.25-15.11,0,0,13.87,9.98,15.63,67.06,0,0,12.52-61.21-2.56-92.06,0,0-14.2-38.36-84.39-38.36-82.84,0-92.06,40.92-92.06,40.92,0,0-15.34,48.59,0,86.95Z"/><path fill="#3d3d3d" d="m662.59,268.64c4.43-11.29,20.15-14.72,29.57-7.66,2.15,1.38,3.94,3.26,5.53,5.2.33.39.28.97-.11,1.29-.31.26-.71.27-1.05.11-2.9-1.16-5.49-2.56-8.48-3.25-5.36-1.6-10.85-.82-15.98,1.45-2.63,1.11-5.32,2.55-8.16,4.04-.74.42-1.66-.4-1.33-1.18h0Z"/><ellipse cx="685.78" cy="296.19" fill="#3d3d3d" rx="7.79" ry="11.43"/><ellipse cx="688.37" cy="299.8" fill="#fff" rx="2.08" ry="3.05"/><ellipse cx="734.83" cy="296.19" fill="#3d3d3d" rx="7.79" ry="11.43"/><ellipse cx="736.99" cy="299.8" fill="#fff" rx="2.08" ry="3.05"/><path fill="#3d3d3d" d="m756.66,268.43c-4.68-11.19-20.47-14.27-29.74-7-2.12,1.43-3.87,3.35-5.42,5.32-.32.39-.26.97.14,1.29.31.25.71.25,1.05.08,2.53-1.13,4.82-2.25,7.36-3.18,2.96-.84,6.11-1.52,9.18-1.17,5.75.5,10.69,3.21,16.03,5.82.75.5,1.76-.34,1.4-1.16h0Z"/><path fill="#a0260d" d="m738.84,353.32c.03-2.4-2.45-4.01-4.63-3-4.59,2.12-11.52,4.45-20.13,4.47-8.75.02-15.78-2.35-20.4-4.49-2.2-1.02-4.67.63-4.63,3.05.07,3.91,1.01,9.26,4.91,13.82,3.58,4.19,9.69,7.49,20.01,7.8,21.56.65,24.76-13.64,24.87-21.64Z"/><path fill="#e51313" d="m693.5,366.57c.15.2.28.4.45.59,3.58,4.19,9.69,7.49,20.01,7.8,9.92.3,15.92-2.58,19.55-6.53-4.98-2.97-12.93-4.9-21.93-4.9-6.94,0-13.27,1.15-18.09,3.04Z"/><path fill="#fff" d="m714.07,361.48c9.48,0,18.11-5.41,22.2-11.37-.66-.15-1.38-.11-2.07.2-4.59,2.12-11.52,4.45-20.13,4.47-8.75.02-15.78-2.35-20.4-4.49-.59-.27-1.19-.34-1.77-.27,4.43,6.12,13.58,11.46,22.16,11.46Z"/><path fill="#ea9d88" d="m717.86,334.75c-4.59,0-9.03-1.94-9.29-2.06-.85-.38-1.23-1.37-.86-2.22.38-.85,1.38-1.23,2.23-.86,2.08.92,8.25,2.88,11.74.94,1.54-.85,2.44-2.39,2.77-4.7.41-2.88-.15-5.17-1.73-7-3.89-4.52-12.55-4.64-12.63-4.64-.91,0-1.65-.73-1.68-1.64l-.74-27.98c-.02-.93.71-1.71,1.64-1.73.85-.03,1.71.71,1.73,1.64l.7,26.43c3.09.27,9.76,1.36,13.52,5.72,2.22,2.58,3.07,5.84,2.52,9.69-.48,3.38-1.99,5.8-4.49,7.18-1.65.92-3.56,1.24-5.45,1.24Z"/></g><g><path fill="#8f8fdb" d="m932.44,1048.98h-426.84l-45.02-250.78c-3.01-16.74,9.86-32.13,26.87-32.13h463.12c17.01,0,29.88,15.39,26.87,32.13l-45.02,250.78Z"/><rect width="449.17" height="22.33" x="493.19" y="1026.65" fill="#635ca8" rx="8.23" ry="8.23"/><circle cx="719.02" cy="922.42" r="24.82" fill="#f9f9f9"/></g></g><g><circle cx="166.69" cy="936.62" r="70.53" fill="#24c0ea"/><path fill="#fff" d="m156.15,932.78l.99-1.17c3.38-3.99,4.42-9.46,2.72-14.41l-1.35-3.93c-.89-2.6,1.65-5.09,4.21-4.1,2.94,1.14,6.4,3.85,8.88,10.09.86,2.16,3.22,3.3,5.41,2.55,2.9-.99,6.78-2.32,9.74-3.34,2.29-.78,4.74.68,5.12,3.08l4.02,25.13c.3,1.88-.79,3.69-2.59,4.31l-25.88,8.87c-1.94.67-4.06-.37-4.73-2.31l-7.24-21.14c-.43-1.24-.17-2.61.68-3.61Z"/><rect width="12.61" height="35.35" x="143.26" y="932.75" fill="#fff" rx=".85" ry=".85" transform="rotate(-18.91 149.596 950.48)"/><rect width="108.34" height="63.73" x="911.38" y="309.73" fill="#ffe36e" rx="1.3" ry="1.3" transform="rotate(-166.68 965.538 341.6)"/><polygon fill="#f4ce2f" points="954.27 337.77 926.31 303.92 965.5 341.97 1019.66 326.02 977.72 343.37 1005.46 378.03 971.97 345.75 966.18 348.14 963.69 349.17 961.98 347.11 958.2 342.53 913.9 356.35 954.27 337.77"/><circle cx="926.91" cy="305.59" r="13.38" fill="#ff5240"/><path fill="#fefefe" d="m921.48,311.47l-4.08-9.35c-.32-.74-.07-1.64.64-2.04.81-.45,1.82-.1,2.18.74l3.04,6.98c.27.62,1.04.83,1.58.43l10.88-7.96c.69-.51,1.66-.36,2.17.34.51.69.36,1.66-.34,2.17l-13.02,9.53c-1.05.77-2.54.36-3.06-.83Z"/><rect width="105.71" height="66.56" x="429.59" y="357.7" fill="#ff4a60" rx="12.74" ry="12.74" transform="rotate(-18.91 482.49 391.013)"/><path fill="#fff" d="m479.33,405.18l-7.35-21.46c-.5-1.46.85-2.88,2.33-2.46l20.58,5.82c1.34.38,1.84,2.02.94,3.08l-13.23,15.64c-.96,1.13-2.79.79-3.27-.62Z"/><path fill="#ebf4fc" d="m856.03,642.88l95.5,23.56c4.62,1.14,7.44,5.81,6.3,10.43l-11.39,46.16c-1.14,4.62-5.81,7.44-10.43,6.3l-65.66-16.2-25.56,14.22.9-20.3-5.18-1.28c-4.62-1.14-7.44-5.81-6.3-10.43l11.39-46.16c1.14-4.62,5.81-7.44,10.43-6.3Z"/><path fill="#ff4a60" d="m885.64,671.52h0c-2.4-3.97-7.35-5.44-11.48-3.59-2.79-3.56-7.86-4.56-11.83-2.16h0c-4.29,2.59-5.67,8.18-3.08,12.47l4.08,6.76s0,0,0,0l4.7,7.77,7.77-4.7h0s0,0,0,0l6.76-4.08c4.29-2.59,5.67-8.18,3.08-12.47Z"/><path fill="#939393" d="m899.57,691.93l-1.63-.4,2.47-10.02c-.77.28-1.85.25-3.23-.1l.32-1.29c2,.49,3.33,0,4.01-1.46l1.26.31-3.2,12.96Z"/><path fill="#939393" d="m910.93,680.98c2.77.68,3.61,3.23,2.52,7.63-1.08,4.38-3,6.23-5.77,5.54-2.76-.68-3.6-3.21-2.52-7.59,1.09-4.4,3.01-6.26,5.77-5.58Zm-2.93,11.89c.81.2,1.51-.04,2.12-.71.61-.67,1.16-1.99,1.64-3.96.49-1.98.62-3.41.4-4.3-.22-.89-.74-1.43-1.54-1.63-.8-.2-1.5.05-2.12.73s-1.16,2.01-1.65,3.99c-.49,1.97-.62,3.39-.39,4.27.23.88.74,1.42,1.54,1.61Z"/><path fill="#939393" d="m916.05,695.99l-1.78-.44.44-1.78,1.78.44-.44,1.78Z"/><path fill="#939393" d="m922.4,689.4c.76-.35,1.61-.41,2.55-.18,1.06.26,1.89.86,2.49,1.81.6.94.75,2.04.44,3.29-.32,1.31-.99,2.3-1.99,2.96-1,.67-2.16.84-3.48.51-1.08-.27-1.92-.79-2.54-1.58-.62-.79-.84-1.78-.67-3l1.69.42c-.1.79.03,1.43.38,1.91.35.48.84.8,1.46.95.79.19,1.5.05,2.14-.42.64-.48,1.06-1.15,1.28-2.03.22-.89.14-1.66-.23-2.3-.37-.64-.95-1.06-1.75-1.25-.91-.22-1.77-.06-2.57.48l-1.29-.32,2.2-6.59,6.83,1.69-.37,1.51-5.43-1.34-1.15,3.47Z"/><path fill="#939393" d="m939.37,701.74l-2.22-.55-2.95-7.47-2.46,1.45-1.09,4.41-1.69-.42,3.14-12.74,1.69.42-1.56,6.32,7.77-4.79,2.28.56-6.63,3.92,3.72,8.88Z"/><g><path fill="#ababf4" d="m625.08,578.13l-108.09,22.23c-5.23,1.08-8.6,6.19-7.52,11.42l10.75,52.24c1.08,5.23,6.19,8.6,11.42,7.52l74.32-15.29,28.03,17.06-.13-22.8,5.86-1.21c5.23-1.08,8.6-6.19,7.52-11.42l-10.75-52.24c-1.08-5.23-6.19-8.6-11.42-7.52Z"/><path fill="#fefefe" d="m603.73,620.29c.9,4.38,5.18,7.2,9.57,6.3,4.38-.9,7.2-5.18,6.3-9.57s-5.18-7.2-9.57-6.3-7.2,5.18-6.3,9.57Zm-32.79,6.75c.9,4.38,5.18,7.2,9.57,6.3,4.38-.9,7.2-5.18,6.3-9.57-.9-4.38-5.18-7.2-9.57-6.3s-7.2,5.18-6.3,9.57Zm-32.79,6.75c.9,4.38,5.18,7.2,9.57,6.3s7.2-5.18,6.3-9.57c-.9-4.38-5.18-7.2-9.57-6.3-4.38.9-7.2,5.18-6.3,9.57Z"/></g><g><rect width="159.17" height="119.37" x="1206.22" y="847.05" fill="#24c0ea" rx="17.94" ry="17.94" transform="rotate(8.06 1286.364 907.16)"/><path fill="#fff" d="m1314.23,888.83l-36.56,39.52c-1.6,1.73-4.45,1.23-5.36-.94l-12.85-30.57c-.91-2.17-3.76-2.67-5.36-.94l-25.5,27.57c-.89.96-.33,2.52.96,2.7l44.32,6.28.58.08,63.56,9c1.56.22,2.77-1.35,2.16-2.8l-20.59-48.96c-.91-2.17-3.76-2.67-5.36-.94Z"/><circle cx="1275.11" cy="893.62" r="7" fill="#fff"/></g></g></svg>